%FSLAX24Y24*%
%MOIN*%
G70*
G01*
G75*
G04 Layer_Color=65535*
%ADD10R,0.0400X0.0500*%
%ADD11R,0.0800X0.0800*%
%ADD12R,0.0500X0.0400*%
%ADD13R,0.0394X0.0787*%
%ADD14R,0.0787X0.0394*%
%ADD15R,0.0433X0.0236*%
%ADD16R,0.0295X0.0118*%
%ADD17R,0.0870X0.0866*%
%ADD18R,0.1335X0.0772*%
%ADD19R,0.0787X0.1378*%
%ADD20R,0.0800X0.0800*%
%ADD21R,0.0394X0.0217*%
G04:AMPARAMS|DCode=22|XSize=90.6mil|YSize=295.3mil|CornerRadius=0mil|HoleSize=0mil|Usage=FLASHONLY|Rotation=167.000|XOffset=0mil|YOffset=0mil|HoleType=Round|Shape=Rectangle|*
%AMROTATEDRECTD22*
4,1,4,0.0773,0.1337,0.0109,-0.1540,-0.0773,-0.1337,-0.0109,0.1540,0.0773,0.1337,0.0*
%
%ADD22ROTATEDRECTD22*%

G04:AMPARAMS|DCode=23|XSize=90.6mil|YSize=295.3mil|CornerRadius=0mil|HoleSize=0mil|Usage=FLASHONLY|Rotation=192.000|XOffset=0mil|YOffset=0mil|HoleType=Round|Shape=Rectangle|*
%AMROTATEDRECTD23*
4,1,4,0.0136,0.1538,0.0750,-0.1350,-0.0136,-0.1538,-0.0750,0.1350,0.0136,0.1538,0.0*
%
%ADD23ROTATEDRECTD23*%

%ADD24R,0.0354X0.0591*%
%ADD25R,0.0236X0.0433*%
%ADD26R,0.0453X0.0591*%
%ADD27R,0.0157X0.0591*%
%ADD28C,0.0250*%
%ADD29C,0.0315*%
%ADD30C,0.0200*%
%ADD31C,0.0120*%
%ADD32C,0.0100*%
%ADD33C,0.0157*%
%ADD34C,0.0500*%
%ADD35C,0.0394*%
%ADD36C,0.0197*%
%ADD37C,0.0238*%
%ADD38C,0.0217*%
%ADD39C,0.0161*%
%ADD40C,0.0150*%
%ADD41C,0.0700*%
%ADD42C,0.0551*%
G04:AMPARAMS|DCode=43|XSize=99.4mil|YSize=60mil|CornerRadius=0mil|HoleSize=0mil|Usage=FLASHONLY|Rotation=45.000|XOffset=0mil|YOffset=0mil|HoleType=Round|Shape=Round|*
%AMOVALD43*
21,1,0.0394,0.0600,0.0000,0.0000,45.0*
1,1,0.0600,-0.0139,-0.0139*
1,1,0.0600,0.0139,0.0139*
%
%ADD43OVALD43*%

G04:AMPARAMS|DCode=44|XSize=99.4mil|YSize=60mil|CornerRadius=0mil|HoleSize=0mil|Usage=FLASHONLY|Rotation=45.000|XOffset=0mil|YOffset=0mil|HoleType=Round|Shape=Rectangle|*
%AMROTATEDRECTD44*
4,1,4,-0.0139,-0.0563,-0.0563,-0.0139,0.0139,0.0563,0.0563,0.0139,-0.0139,-0.0563,0.0*
%
%ADD44ROTATEDRECTD44*%

%ADD45C,0.0600*%
%ADD46C,0.0591*%
%ADD47R,0.0591X0.0591*%
%ADD48R,0.0591X0.0591*%
G04:AMPARAMS|DCode=49|XSize=60mil|YSize=99.4mil|CornerRadius=0mil|HoleSize=0mil|Usage=FLASHONLY|Rotation=20.000|XOffset=0mil|YOffset=0mil|HoleType=Round|Shape=Round|*
%AMOVALD49*
21,1,0.0394,0.0600,0.0000,0.0000,110.0*
1,1,0.0600,0.0067,-0.0185*
1,1,0.0600,-0.0067,0.0185*
%
%ADD49OVALD49*%

G04:AMPARAMS|DCode=50|XSize=60mil|YSize=99.4mil|CornerRadius=0mil|HoleSize=0mil|Usage=FLASHONLY|Rotation=340.000|XOffset=0mil|YOffset=0mil|HoleType=Round|Shape=Round|*
%AMOVALD50*
21,1,0.0394,0.0600,0.0000,0.0000,70.0*
1,1,0.0600,-0.0067,-0.0185*
1,1,0.0600,0.0067,0.0185*
%
%ADD50OVALD50*%

G04:AMPARAMS|DCode=51|XSize=86.6mil|YSize=63mil|CornerRadius=15.7mil|HoleSize=0mil|Usage=FLASHONLY|Rotation=90.000|XOffset=0mil|YOffset=0mil|HoleType=Round|Shape=RoundedRectangle|*
%AMROUNDEDRECTD51*
21,1,0.0866,0.0315,0,0,90.0*
21,1,0.0551,0.0630,0,0,90.0*
1,1,0.0315,0.0157,0.0276*
1,1,0.0315,0.0157,-0.0276*
1,1,0.0315,-0.0157,-0.0276*
1,1,0.0315,-0.0157,0.0276*
%
%ADD51ROUNDEDRECTD51*%
%ADD52C,0.1654*%
%ADD53C,0.0500*%
%ADD54R,0.0591X0.0354*%
%ADD55R,0.0315X0.0354*%
%ADD56R,0.2165X0.0787*%
%ADD57R,0.0866X0.0870*%
%ADD58R,0.0787X0.2165*%
%ADD59O,0.0217X0.0650*%
%ADD60O,0.0650X0.0217*%
%ADD61O,0.0118X0.0709*%
%ADD62O,0.0709X0.0118*%
%ADD63C,0.0120*%
%ADD64C,0.0080*%
%ADD65C,0.0020*%
%ADD66C,0.0079*%
%ADD67C,0.0039*%
%ADD68C,0.0020*%
%ADD69C,0.0061*%
G54D29*
X-9304Y3763D02*
X-8517D01*
X-8911D01*
Y2582D01*
X-8124Y3763D02*
X-7336Y2582D01*
Y3763D02*
X-8124Y2582D01*
X-5762D02*
Y3763D01*
X-5172D01*
X-4975Y3566D01*
Y3172D01*
X-5172Y2976D01*
X-5762D01*
X-5369D02*
X-4975Y2582D01*
X-3991Y3763D02*
X-4385D01*
X-4581Y3566D01*
Y2779D01*
X-4385Y2582D01*
X-3991D01*
X-3794Y2779D01*
Y3566D01*
X-3991Y3763D01*
X-3401D02*
Y2582D01*
X-2810D01*
X-2614Y2779D01*
Y2976D01*
X-2810Y3172D01*
X-3401D01*
X-2810D01*
X-2614Y3369D01*
Y3566D01*
X-2810Y3763D01*
X-3401D01*
X-1630D02*
X-2023D01*
X-2220Y3566D01*
Y2779D01*
X-2023Y2582D01*
X-1630D01*
X-1433Y2779D01*
Y3566D01*
X-1630Y3763D01*
X-1039D02*
X-252D01*
X-646D01*
Y2582D01*
X141Y3763D02*
X535D01*
X338D01*
Y2582D01*
X141D01*
X535D01*
X1913Y3566D02*
X1716Y3763D01*
X1322D01*
X1125Y3566D01*
Y2779D01*
X1322Y2582D01*
X1716D01*
X1913Y2779D01*
X3487Y2582D02*
X4274Y3369D01*
X5848Y3763D02*
X6242D01*
X6045D01*
Y2582D01*
X5848D01*
X6242D01*
X7619Y3566D02*
X7423Y3763D01*
X7029D01*
X6832Y3566D01*
Y3369D01*
X7029Y3172D01*
X7423D01*
X7619Y2976D01*
Y2779D01*
X7423Y2582D01*
X7029D01*
X6832Y2779D01*
X8800Y3763D02*
X8013D01*
Y2582D01*
X8800D01*
X8013Y3172D02*
X8406D01*
X9194Y2582D02*
Y3763D01*
X9981Y2582D01*
Y3763D01*
G54D31*
X-8091Y-6658D02*
Y-5658D01*
X-5741Y-6658D02*
Y-5658D01*
X-8091Y-6658D02*
X-7341D01*
X-8091Y-5658D02*
X-7341D01*
X-6491D02*
X-5741D01*
X-6491Y-6658D02*
X-5741D01*
X-8133Y-8039D02*
Y-7039D01*
X-5783Y-8039D02*
Y-7039D01*
X-8133Y-8039D02*
X-7383D01*
X-8133Y-7039D02*
X-7383D01*
X-6533D02*
X-5783D01*
X-6533Y-8039D02*
X-5783D01*
X-14101Y20224D02*
X-11979Y18102D01*
X-19758Y14567D02*
X-14101Y20224D01*
X-17636Y12446D02*
X-11979Y18102D01*
X-14808Y15840D02*
X-14525Y15557D01*
X-15374Y15274D02*
X-14808Y15840D01*
X-15374Y15274D02*
X-15091Y14991D01*
X-19758Y14567D02*
X-17636Y12446D01*
G54D32*
X1536Y-7410D02*
G03*
X1528Y-7445I-79J0D01*
G01*
X-2868Y13653D02*
G03*
X-2868Y13653I-112J0D01*
G01*
X-10542Y13832D02*
G03*
X-10542Y13832I-112J0D01*
G01*
X22781Y4455D02*
G03*
X22781Y4455I-557J0D01*
G01*
X-20477Y4642D02*
G03*
X-20477Y4642I-557J0D01*
G01*
X-161Y-15829D02*
G03*
X-161Y-15829I-71J0D01*
G01*
X12288Y19321D02*
X16531Y15078D01*
X11581Y18614D02*
X15823Y14371D01*
X16531Y15078D01*
X11581Y18614D02*
X12288Y19321D01*
X7894Y18699D02*
Y19920D01*
X8563Y18699D02*
Y19920D01*
X7894Y18699D02*
X8563D01*
X7894Y19920D02*
X8563D01*
X-5897Y-24796D02*
X-2444Y-25593D01*
X-6410Y-27021D02*
X-5906Y-24835D01*
X-6410Y-27021D02*
X-2958Y-27818D01*
X-2453Y-25632D01*
X2429Y-25569D02*
X5895Y-24833D01*
X2438Y-25608D02*
X2904Y-27803D01*
X6370Y-27066D01*
X5903Y-24871D02*
X6370Y-27066D01*
X21240Y3470D02*
Y5439D01*
X23209D01*
Y3470D02*
Y5439D01*
X21240Y3470D02*
X23209D01*
X22618Y5439D02*
X23209Y4848D01*
X-22018Y3657D02*
Y5626D01*
X-20049D01*
Y3657D02*
Y5626D01*
X-22018Y3657D02*
X-20049D01*
X-20640Y5626D02*
X-20049Y5035D01*
X5901Y-24769D02*
X11539Y-22717D01*
X4191Y-20070D02*
X5901Y-24769D01*
X4191Y-20070D02*
X4340Y-19750D01*
X9509Y-17869D02*
X9829Y-18018D01*
X8569Y-18211D02*
X9509Y-17869D01*
X4340Y-19750D02*
X8569Y-18211D01*
X9829Y-18018D02*
X11539Y-22717D01*
X-11567Y-22780D02*
X-5929Y-24832D01*
X-11567Y-22780D02*
X-9857Y-18082D01*
X-9537Y-17932D01*
X-4368Y-19813D02*
X-4219Y-20134D01*
X-5308Y-19471D02*
X-4368Y-19813D01*
X-9537Y-17932D02*
X-5308Y-19471D01*
X-5929Y-24832D02*
X-4219Y-20134D01*
X12714Y19709D02*
X13421Y20416D01*
X16956Y15467D02*
X17663Y16174D01*
X12714Y19709D02*
X16956Y15467D01*
X13421Y20416D02*
X17663Y16174D01*
X6006Y-3395D02*
X5906Y-3495D01*
Y-3695D01*
X6006Y-3795D01*
X6106D01*
X6205Y-3695D01*
Y-3495D01*
X6305Y-3395D01*
X6405D01*
X6505Y-3495D01*
Y-3695D01*
X6405Y-3795D01*
X5906Y-3195D02*
X6505D01*
X6305Y-2995D01*
X6505Y-2796D01*
X5906D01*
X6505Y-2196D02*
Y-2596D01*
X6106Y-2196D01*
X6006D01*
X5906Y-2296D01*
Y-2496D01*
X6006Y-2596D01*
X-9856Y-7329D02*
X-10455D01*
Y-7029D01*
X-10355Y-6929D01*
X-10155D01*
X-10055Y-7029D01*
Y-7329D01*
Y-7129D02*
X-9856Y-6929D01*
X-10355Y-6730D02*
X-10455Y-6630D01*
Y-6430D01*
X-10355Y-6330D01*
X-10255D01*
X-10155Y-6430D01*
X-10055Y-6330D01*
X-9955D01*
X-9856Y-6430D01*
Y-6630D01*
X-9955Y-6730D01*
X-10055D01*
X-10155Y-6630D01*
X-10255Y-6730D01*
X-10355D01*
X-10155Y-6630D02*
Y-6430D01*
X-10455Y-6130D02*
X-10055D01*
X-9856Y-5930D01*
X-10055Y-5730D01*
X-10455D01*
X-9463Y-9328D02*
X-10063D01*
Y-9028D01*
X-9963Y-8928D01*
X-9763D01*
X-9663Y-9028D01*
Y-9328D01*
Y-9128D02*
X-9463Y-8928D01*
X-10063Y-8329D02*
Y-8729D01*
X-9763D01*
X-9863Y-8529D01*
Y-8429D01*
X-9763Y-8329D01*
X-9563D01*
X-9463Y-8429D01*
Y-8629D01*
X-9563Y-8729D01*
X-10063Y-8129D02*
X-9663D01*
X-9463Y-7929D01*
X-9663Y-7729D01*
X-10063D01*
X-8885Y-7044D02*
X-8285D01*
Y-6644D01*
X-8885Y-6444D02*
X-8285D01*
Y-6144D01*
X-8385Y-6044D01*
X-8785D01*
X-8885Y-6144D01*
Y-6444D01*
X-8785Y-5844D02*
X-8885Y-5744D01*
Y-5544D01*
X-8785Y-5444D01*
X-8685D01*
X-8585Y-5544D01*
X-8485Y-5444D01*
X-8385D01*
X-8285Y-5544D01*
Y-5744D01*
X-8385Y-5844D01*
X-8485D01*
X-8585Y-5744D01*
X-8685Y-5844D01*
X-8785D01*
X-8585Y-5744D02*
Y-5544D01*
X-8885Y-5244D02*
X-8485D01*
X-8285Y-5044D01*
X-8485Y-4844D01*
X-8885D01*
X-5661Y-8786D02*
Y-8186D01*
X-6061D01*
X-6261Y-8786D02*
Y-8186D01*
X-6561D01*
X-6661Y-8286D01*
Y-8686D01*
X-6561Y-8786D01*
X-6261D01*
X-7261D02*
X-6861D01*
Y-8486D01*
X-7061Y-8586D01*
X-7161D01*
X-7261Y-8486D01*
Y-8286D01*
X-7161Y-8186D01*
X-6961D01*
X-6861Y-8286D01*
X-7460Y-8786D02*
Y-8386D01*
X-7660Y-8186D01*
X-7860Y-8386D01*
Y-8786D01*
X-6850Y22228D02*
X-6350D01*
X-6250Y22328D01*
Y22528D01*
X-6350Y22628D01*
X-6850D01*
X-6250Y23127D02*
X-6850D01*
X-6550Y22828D01*
Y23227D01*
X-6250Y23427D02*
Y23627D01*
Y23527D01*
X-6850D01*
X-6750Y23427D01*
X13002Y19496D02*
Y19638D01*
X12861Y19779D01*
X12719D01*
X12436Y19496D01*
Y19355D01*
X12578Y19214D01*
X12719D01*
X13143D02*
X13285Y19072D01*
Y18931D01*
X13073Y18719D01*
X12861Y18931D01*
Y19072D01*
X13002Y19072D01*
X13214Y18860D01*
X13073Y18436D02*
X13497Y18860D01*
X13709Y18648D01*
Y18507D01*
X13567Y18365D01*
X13426D01*
X13214Y18577D01*
X14062Y18436D02*
X13992Y18365D01*
X13921Y18436D01*
X14062Y18295D01*
X13992Y18365D01*
X13779Y18153D01*
X13779Y18012D01*
X14204Y17588D02*
X14062Y17729D01*
Y17870D01*
X14204Y18012D01*
X14345D01*
X14486Y17870D01*
Y17729D01*
X14416Y17658D01*
X14133Y17941D01*
X14698Y17658D02*
X14486Y17446D01*
Y17305D01*
X14698Y17093D01*
X14981Y17376D01*
X15123Y17234D02*
X14840Y16952D01*
X14981Y17093D01*
X15123D01*
X15264Y17093D01*
X15335Y17022D01*
X15900Y15891D02*
X15759Y16033D01*
Y16174D01*
X15900Y16315D01*
X16042D01*
X16183Y16174D01*
Y16033D01*
X16112Y15962D01*
X15829Y16245D01*
X16395Y15962D02*
Y15396D01*
Y15679D01*
X16678D01*
X16112D01*
X16960Y15538D02*
X16890Y15467D01*
X16819Y15538D01*
X16960Y15396D01*
X16890Y15467D01*
X16678Y15255D01*
X16678Y15114D01*
X17102Y14690D02*
X16960Y14831D01*
Y14972D01*
X17102Y15114D01*
X17243D01*
X17385Y14972D01*
Y14831D01*
X17314Y14760D01*
X17031Y15043D01*
X17950Y13841D02*
X18374Y14265D01*
X17950D01*
X18233Y13983D01*
X6744Y20211D02*
Y20611D01*
X6943Y20811D01*
X7143Y20611D01*
Y20211D01*
Y20511D01*
X6744D01*
X7343Y20211D02*
Y20811D01*
X7643D01*
X7743Y20711D01*
Y20511D01*
X7643Y20411D01*
X7343D01*
X7943Y20811D02*
X8343D01*
Y20711D01*
X7943Y20311D01*
Y20211D01*
X8543Y20711D02*
X8643Y20811D01*
X8843D01*
X8943Y20711D01*
Y20611D01*
X8843Y20511D01*
X8743D01*
X8843D01*
X8943Y20411D01*
Y20311D01*
X8843Y20211D01*
X8643D01*
X8543Y20311D01*
X9143Y20711D02*
X9243Y20811D01*
X9443D01*
X9543Y20711D01*
Y20611D01*
X9443Y20511D01*
X9343D01*
X9443D01*
X9543Y20411D01*
Y20311D01*
X9443Y20211D01*
X9243D01*
X9143Y20311D01*
X9743Y20211D02*
X9942D01*
X9843D01*
Y20811D01*
X9743Y20711D01*
X10842Y20611D02*
X11042Y20211D01*
X11242Y20611D01*
X11542Y20211D02*
X11742D01*
X11842Y20311D01*
Y20511D01*
X11742Y20611D01*
X11542D01*
X11442Y20511D01*
Y20311D01*
X11542Y20211D01*
X12042D02*
X12242D01*
X12142D01*
Y20811D01*
X12042D01*
X12642Y20711D02*
Y20611D01*
X12542D01*
X12742D01*
X12642D01*
Y20311D01*
X12742Y20211D01*
X13141Y20611D02*
X13341D01*
X13441Y20511D01*
Y20211D01*
X13141D01*
X13041Y20311D01*
X13141Y20411D01*
X13441D01*
X13841Y20011D02*
X13941D01*
X14041Y20111D01*
Y20611D01*
X13741D01*
X13641Y20511D01*
Y20311D01*
X13741Y20211D01*
X14041D01*
X14541D02*
X14341D01*
X14241Y20311D01*
Y20511D01*
X14341Y20611D01*
X14541D01*
X14641Y20511D01*
Y20411D01*
X14241D01*
X15441Y20611D02*
Y20211D01*
Y20411D01*
X15541Y20511D01*
X15641Y20611D01*
X15741D01*
X16340Y20211D02*
X16140D01*
X16041Y20311D01*
Y20511D01*
X16140Y20611D01*
X16340D01*
X16440Y20511D01*
Y20411D01*
X16041D01*
X16840Y20011D02*
X16940D01*
X17040Y20111D01*
Y20611D01*
X16740D01*
X16640Y20511D01*
Y20311D01*
X16740Y20211D01*
X17040D01*
X17240Y20611D02*
Y20311D01*
X17340Y20211D01*
X17640D01*
Y20611D01*
X17840Y20211D02*
X18040D01*
X17940D01*
Y20811D01*
X17840D01*
X18440Y20611D02*
X18640D01*
X18740Y20511D01*
Y20211D01*
X18440D01*
X18340Y20311D01*
X18440Y20411D01*
X18740D01*
X19040Y20711D02*
Y20611D01*
X18940D01*
X19139D01*
X19040D01*
Y20311D01*
X19139Y20211D01*
X19539D02*
X19739D01*
X19839Y20311D01*
Y20511D01*
X19739Y20611D01*
X19539D01*
X19439Y20511D01*
Y20311D01*
X19539Y20211D01*
X20039Y20611D02*
Y20211D01*
Y20411D01*
X20139Y20511D01*
X20239Y20611D01*
X20339D01*
X5948Y19335D02*
X5848Y19235D01*
Y19035D01*
X5948Y18935D01*
X6348D01*
X6448Y19035D01*
Y19235D01*
X6348Y19335D01*
X5848Y19935D02*
X5948Y19735D01*
X6148Y19535D01*
X6348D01*
X6448Y19635D01*
Y19835D01*
X6348Y19935D01*
X6248D01*
X6148Y19835D01*
Y19535D01*
X10775Y19035D02*
X10875Y19135D01*
Y19335D01*
X10775Y19435D01*
X10375D01*
X10275Y19335D01*
Y19135D01*
X10375Y19035D01*
X10875Y18436D02*
Y18835D01*
X10575D01*
X10675Y18635D01*
Y18536D01*
X10575Y18436D01*
X10375D01*
X10275Y18536D01*
Y18735D01*
X10375Y18835D01*
X4539Y-6726D02*
X5139D01*
Y-7026D01*
X5039Y-7126D01*
X4839D01*
X4739Y-7026D01*
Y-6726D01*
Y-6926D02*
X4539Y-7126D01*
X5039Y-7326D02*
X5139Y-7426D01*
Y-7626D01*
X5039Y-7726D01*
X4939D01*
X4839Y-7626D01*
Y-7526D01*
Y-7626D01*
X4739Y-7726D01*
X4639D01*
X4539Y-7626D01*
Y-7426D01*
X4639Y-7326D01*
X5039Y-7926D02*
X5139Y-8026D01*
Y-8226D01*
X5039Y-8326D01*
X4939D01*
X4839Y-8226D01*
X4739Y-8326D01*
X4639D01*
X4539Y-8226D01*
Y-8026D01*
X4639Y-7926D01*
X4739D01*
X4839Y-8026D01*
X4939Y-7926D01*
X5039D01*
X4839Y-8026D02*
Y-8226D01*
X2783Y-9233D02*
Y-9833D01*
X2483D01*
X2383Y-9733D01*
Y-9533D01*
X2483Y-9433D01*
X2783D01*
X2583D02*
X2383Y-9233D01*
X2183Y-9733D02*
X2083Y-9833D01*
X1883D01*
X1783Y-9733D01*
Y-9633D01*
X1883Y-9533D01*
X1983D01*
X1883D01*
X1783Y-9433D01*
Y-9333D01*
X1883Y-9233D01*
X2083D01*
X2183Y-9333D01*
X1583Y-9833D02*
X1183D01*
Y-9733D01*
X1583Y-9333D01*
Y-9233D01*
X4434Y-9672D02*
Y-9072D01*
X4734D01*
X4834Y-9172D01*
Y-9372D01*
X4734Y-9472D01*
X4434D01*
X4634D02*
X4834Y-9672D01*
X5034Y-9172D02*
X5134Y-9072D01*
X5334D01*
X5434Y-9172D01*
Y-9272D01*
X5334Y-9372D01*
X5234D01*
X5334D01*
X5434Y-9472D01*
Y-9572D01*
X5334Y-9672D01*
X5134D01*
X5034Y-9572D01*
X6034Y-9072D02*
X5834Y-9172D01*
X5634Y-9372D01*
Y-9572D01*
X5734Y-9672D01*
X5934D01*
X6034Y-9572D01*
Y-9472D01*
X5934Y-9372D01*
X5634D01*
X3615Y-11226D02*
X3016D01*
Y-10926D01*
X3116Y-10826D01*
X3315D01*
X3415Y-10926D01*
Y-11226D01*
Y-11026D02*
X3615Y-10826D01*
X3116Y-10626D02*
X3016Y-10526D01*
Y-10326D01*
X3116Y-10226D01*
X3215D01*
X3315Y-10326D01*
Y-10426D01*
Y-10326D01*
X3415Y-10226D01*
X3515D01*
X3615Y-10326D01*
Y-10526D01*
X3515Y-10626D01*
X3016Y-9626D02*
Y-10026D01*
X3315D01*
X3215Y-9826D01*
Y-9726D01*
X3315Y-9626D01*
X3515D01*
X3615Y-9726D01*
Y-9926D01*
X3515Y-10026D01*
X-3226Y-11225D02*
Y-11825D01*
X-3526D01*
X-3626Y-11725D01*
Y-11525D01*
X-3526Y-11425D01*
X-3226D01*
X-3426D02*
X-3626Y-11225D01*
X-3826Y-11725D02*
X-3926Y-11825D01*
X-4126D01*
X-4226Y-11725D01*
Y-11625D01*
X-4126Y-11525D01*
X-4026D01*
X-4126D01*
X-4226Y-11425D01*
Y-11325D01*
X-4126Y-11225D01*
X-3926D01*
X-3826Y-11325D01*
X-4726Y-11225D02*
Y-11825D01*
X-4426Y-11525D01*
X-4826D01*
X-5879Y-9558D02*
Y-8958D01*
X-5579D01*
X-5479Y-9058D01*
Y-9258D01*
X-5579Y-9358D01*
X-5879D01*
X-5679D02*
X-5479Y-9558D01*
X-5279Y-9058D02*
X-5179Y-8958D01*
X-4979D01*
X-4879Y-9058D01*
Y-9158D01*
X-4979Y-9258D01*
X-5079D01*
X-4979D01*
X-4879Y-9358D01*
Y-9458D01*
X-4979Y-9558D01*
X-5179D01*
X-5279Y-9458D01*
X-4679Y-9058D02*
X-4579Y-8958D01*
X-4379D01*
X-4279Y-9058D01*
Y-9158D01*
X-4379Y-9258D01*
X-4479D01*
X-4379D01*
X-4279Y-9358D01*
Y-9458D01*
X-4379Y-9558D01*
X-4579D01*
X-4679Y-9458D01*
X1029Y-6271D02*
Y-6771D01*
X1129Y-6871D01*
X1329D01*
X1429Y-6771D01*
Y-6271D01*
X1629Y-6371D02*
X1729Y-6271D01*
X1929D01*
X2029Y-6371D01*
Y-6471D01*
X1929Y-6571D01*
X1829D01*
X1929D01*
X2029Y-6671D01*
Y-6771D01*
X1929Y-6871D01*
X1729D01*
X1629Y-6771D01*
X2629Y-6271D02*
X2429Y-6371D01*
X2229Y-6571D01*
Y-6771D01*
X2329Y-6871D01*
X2529D01*
X2629Y-6771D01*
Y-6671D01*
X2529Y-6571D01*
X2229D01*
X-9139Y14767D02*
X-9638D01*
X-9738Y14668D01*
Y14468D01*
X-9638Y14368D01*
X-9139D01*
X-9239Y14168D02*
X-9139Y14068D01*
Y13868D01*
X-9239Y13768D01*
X-9338D01*
X-9438Y13868D01*
Y13968D01*
Y13868D01*
X-9538Y13768D01*
X-9638D01*
X-9738Y13868D01*
Y14068D01*
X-9638Y14168D01*
X-4851Y13803D02*
X-4351D01*
X-4251Y13903D01*
Y14103D01*
X-4351Y14203D01*
X-4851D01*
X-4251Y14403D02*
Y14603D01*
Y14503D01*
X-4851D01*
X-4751Y14403D01*
X-12122Y-11677D02*
X-12222Y-11777D01*
Y-11977D01*
X-12122Y-12077D01*
X-12022D01*
X-11922Y-11977D01*
Y-11777D01*
X-11822Y-11677D01*
X-11722D01*
X-11622Y-11777D01*
Y-11977D01*
X-11722Y-12077D01*
X-12222Y-11477D02*
X-11622D01*
X-11822Y-11277D01*
X-11622Y-11077D01*
X-12222D01*
X-11622Y-10878D02*
Y-10678D01*
Y-10778D01*
X-12222D01*
X-12122Y-10878D01*
X-7784Y15954D02*
X-7184D01*
Y15654D01*
X-7284Y15554D01*
X-7484D01*
X-7584Y15654D01*
Y15954D01*
Y15754D02*
X-7784Y15554D01*
X-7184Y14954D02*
X-7284Y15154D01*
X-7484Y15354D01*
X-7684D01*
X-7784Y15254D01*
Y15054D01*
X-7684Y14954D01*
X-7584D01*
X-7484Y15054D01*
Y15354D01*
X-7769Y14049D02*
X-7169D01*
Y13749D01*
X-7269Y13649D01*
X-7469D01*
X-7569Y13749D01*
Y14049D01*
Y13849D02*
X-7769Y13649D01*
X-7169Y13049D02*
Y13449D01*
X-7469D01*
X-7369Y13249D01*
Y13149D01*
X-7469Y13049D01*
X-7669D01*
X-7769Y13149D01*
Y13349D01*
X-7669Y13449D01*
X-485Y15963D02*
X115D01*
Y15663D01*
X15Y15563D01*
X-185D01*
X-285Y15663D01*
Y15963D01*
Y15763D02*
X-485Y15563D01*
X15Y15363D02*
X115Y15263D01*
Y15063D01*
X15Y14963D01*
X-85D01*
X-185Y15063D01*
Y15163D01*
Y15063D01*
X-285Y14963D01*
X-385D01*
X-485Y15063D01*
Y15263D01*
X-385Y15363D01*
X-2556Y14517D02*
Y15117D01*
X-2256D01*
X-2156Y15017D01*
Y14817D01*
X-2256Y14717D01*
X-2556D01*
X-2356D02*
X-2156Y14517D01*
X-1956D02*
X-1756D01*
X-1856D01*
Y15117D01*
X-1956Y15017D01*
X12463Y-9923D02*
X11863D01*
X12063Y-9723D01*
X11863Y-9523D01*
X12463D01*
Y-9223D02*
Y-9023D01*
X12363Y-8923D01*
X12163D01*
X12063Y-9023D01*
Y-9223D01*
X12163Y-9323D01*
X12363D01*
X12463Y-9223D01*
X11963Y-8623D02*
X12063D01*
Y-8723D01*
Y-8523D01*
Y-8623D01*
X12363D01*
X12463Y-8523D01*
Y-8123D02*
Y-7923D01*
X12363Y-7823D01*
X12163D01*
X12063Y-7923D01*
Y-8123D01*
X12163Y-8223D01*
X12363D01*
X12463Y-8123D01*
X12063Y-7623D02*
X12463D01*
X12263D01*
X12163Y-7523D01*
X12063Y-7423D01*
Y-7323D01*
X12463Y-6024D02*
Y-6424D01*
X12063Y-6024D01*
X11963D01*
X11863Y-6124D01*
Y-6324D01*
X11963Y-6424D01*
X-10962Y-14844D02*
X-10362D01*
X-10562Y-15044D01*
X-10362Y-15244D01*
X-10962D01*
Y-15543D02*
Y-15743D01*
X-10862Y-15843D01*
X-10662D01*
X-10562Y-15743D01*
Y-15543D01*
X-10662Y-15444D01*
X-10862D01*
X-10962Y-15543D01*
X-10462Y-16143D02*
X-10562D01*
Y-16043D01*
Y-16243D01*
Y-16143D01*
X-10862D01*
X-10962Y-16243D01*
Y-16643D02*
Y-16843D01*
X-10862Y-16943D01*
X-10662D01*
X-10562Y-16843D01*
Y-16643D01*
X-10662Y-16543D01*
X-10862D01*
X-10962Y-16643D01*
X-10562Y-17143D02*
X-10962D01*
X-10762D01*
X-10662Y-17243D01*
X-10562Y-17343D01*
Y-17443D01*
X-10962Y-18343D02*
Y-18542D01*
Y-18443D01*
X-10362D01*
X-10462Y-18343D01*
X-11191Y9855D02*
Y9255D01*
X-10791D01*
X-10191D02*
X-10591D01*
X-10191Y9655D01*
Y9755D01*
X-10291Y9855D01*
X-10491D01*
X-10591Y9755D01*
X-4638Y11116D02*
Y10516D01*
X-4238D01*
X-4038D02*
X-3838D01*
X-3938D01*
Y11116D01*
X-4038Y11016D01*
X-7951Y-17144D02*
X-7351D01*
Y-16844D01*
X-7451Y-16744D01*
X-7851D01*
X-7951Y-16844D01*
Y-17144D01*
X-7851Y-16544D02*
X-7951Y-16445D01*
Y-16245D01*
X-7851Y-16145D01*
X-7751D01*
X-7551Y-16345D01*
X-7451D02*
X-7351D01*
X7890Y-8706D02*
Y-9306D01*
X8190D01*
X8290Y-9206D01*
Y-8806D01*
X8190Y-8706D01*
X7890D01*
X8490Y-9306D02*
X8690D01*
X8590D01*
Y-8706D01*
X8490Y-8806D01*
X8990Y-9306D02*
X9190D01*
X9090D01*
Y-8706D01*
X8990Y-8806D01*
X14803Y14587D02*
X14204D01*
Y14287D01*
X14304Y14187D01*
X14703D01*
X14803Y14287D01*
Y14587D01*
X14204Y13987D02*
Y13787D01*
Y13887D01*
X14803D01*
X14703Y13987D01*
Y13487D02*
X14803Y13387D01*
Y13187D01*
X14703Y13087D01*
X14304D01*
X14204Y13187D01*
Y13387D01*
X14304Y13487D01*
X14703D01*
X7153Y-14333D02*
X7753D01*
Y-14033D01*
X7653Y-13933D01*
X7253D01*
X7153Y-14033D01*
Y-14333D01*
X7653Y-13733D02*
X7753Y-13633D01*
Y-13433D01*
X7653Y-13333D01*
X7253D01*
X7153Y-13433D01*
Y-13633D01*
X7253Y-13733D01*
X7353D01*
X7453Y-13633D01*
Y-13333D01*
X14635Y11944D02*
X14035D01*
Y11644D01*
X14135Y11544D01*
X14535D01*
X14635Y11644D01*
Y11944D01*
X14535Y11344D02*
X14635Y11244D01*
Y11044D01*
X14535Y10944D01*
X14435D01*
X14335Y11044D01*
X14235Y10944D01*
X14135D01*
X14035Y11044D01*
Y11244D01*
X14135Y11344D01*
X14235D01*
X14335Y11244D01*
X14435Y11344D01*
X14535D01*
X14335Y11244D02*
Y11044D01*
X11453Y-13825D02*
X10854D01*
Y-14125D01*
X10954Y-14225D01*
X11353D01*
X11453Y-14125D01*
Y-13825D01*
Y-14425D02*
Y-14824D01*
X11353D01*
X10954Y-14425D01*
X10854D01*
X10221Y10692D02*
X10821D01*
Y10992D01*
X10721Y11092D01*
X10321D01*
X10221Y10992D01*
Y10692D01*
Y11691D02*
X10321Y11491D01*
X10521Y11292D01*
X10721D01*
X10821Y11392D01*
Y11591D01*
X10721Y11691D01*
X10621D01*
X10521Y11591D01*
Y11292D01*
X9767Y-8861D02*
Y-9461D01*
X10066D01*
X10166Y-9361D01*
Y-8961D01*
X10066Y-8861D01*
X9767D01*
X10766D02*
X10366D01*
Y-9161D01*
X10566Y-9061D01*
X10666D01*
X10766Y-9161D01*
Y-9361D01*
X10666Y-9461D01*
X10466D01*
X10366Y-9361D01*
X9922Y13484D02*
X10522D01*
Y13784D01*
X10422Y13884D01*
X10022D01*
X9922Y13784D01*
Y13484D01*
X10522Y14384D02*
X9922D01*
X10222Y14084D01*
Y14484D01*
X-7195Y8488D02*
Y9088D01*
X-7495D01*
X-7595Y8988D01*
Y8588D01*
X-7495Y8488D01*
X-7195D01*
X-8195Y9088D02*
X-7795D01*
X-8195Y8688D01*
Y8588D01*
X-8095Y8488D01*
X-7895D01*
X-7795Y8588D01*
X65Y12929D02*
Y12329D01*
X365D01*
X465Y12429D01*
Y12829D01*
X365Y12929D01*
X65D01*
X665Y12329D02*
X865D01*
X765D01*
Y12929D01*
X665Y12829D01*
X-2471Y1138D02*
X-2571Y1038D01*
Y838D01*
X-2471Y738D01*
X-2071D01*
X-1971Y838D01*
Y1038D01*
X-2071Y1138D01*
X-1971Y1338D02*
Y1538D01*
Y1438D01*
X-2571D01*
X-2471Y1338D01*
Y1838D02*
X-2571Y1938D01*
Y2138D01*
X-2471Y2238D01*
X-2371D01*
X-2271Y2138D01*
X-2171Y2238D01*
X-2071D01*
X-1971Y2138D01*
Y1938D01*
X-2071Y1838D01*
X-2171D01*
X-2271Y1938D01*
X-2371Y1838D01*
X-2471D01*
X-2271Y1938D02*
Y2138D01*
X-11268Y-3041D02*
X-11168Y-3141D01*
X-10968D01*
X-10868Y-3041D01*
Y-2641D01*
X-10968Y-2541D01*
X-11168D01*
X-11268Y-2641D01*
X-11467Y-2541D02*
X-11667D01*
X-11567D01*
Y-3141D01*
X-11467Y-3041D01*
X-11967Y-3141D02*
X-12367D01*
Y-3041D01*
X-11967Y-2641D01*
Y-2541D01*
X-8727Y17313D02*
X-8627Y17413D01*
Y17613D01*
X-8727Y17713D01*
X-9127D01*
X-9227Y17613D01*
Y17413D01*
X-9127Y17313D01*
X-9227Y16813D02*
X-8627D01*
X-8927Y17113D01*
Y16714D01*
X-13036Y16046D02*
X-13136Y15946D01*
Y15746D01*
X-13036Y15646D01*
X-12636D01*
X-12536Y15746D01*
Y15946D01*
X-12636Y16046D01*
X-13036Y16246D02*
X-13136Y16346D01*
Y16546D01*
X-13036Y16646D01*
X-12936D01*
X-12836Y16546D01*
Y16446D01*
Y16546D01*
X-12736Y16646D01*
X-12636D01*
X-12536Y16546D01*
Y16346D01*
X-12636Y16246D01*
X-712Y16911D02*
X-612Y17011D01*
Y17211D01*
X-712Y17311D01*
X-1112D01*
X-1212Y17211D01*
Y17011D01*
X-1112Y16911D01*
X-1212Y16312D02*
Y16711D01*
X-812Y16312D01*
X-712D01*
X-612Y16411D01*
Y16611D01*
X-712Y16711D01*
X-5556Y16271D02*
X-5656Y16171D01*
Y15971D01*
X-5556Y15871D01*
X-5156D01*
X-5056Y15971D01*
Y16171D01*
X-5156Y16271D01*
X-5056Y16470D02*
Y16670D01*
Y16570D01*
X-5656D01*
X-5556Y16470D01*
X-10307Y-9759D02*
Y-10359D01*
X-10007D01*
X-9907Y-10259D01*
Y-10159D01*
X-10007Y-10059D01*
X-10307D01*
X-10007D01*
X-9907Y-9959D01*
Y-9859D01*
X-10007Y-9759D01*
X-10307D01*
X-9607Y-9959D02*
X-9407D01*
X-9307Y-10059D01*
Y-10359D01*
X-9607D01*
X-9707Y-10259D01*
X-9607Y-10159D01*
X-9307D01*
X-9008Y-9859D02*
Y-9959D01*
X-9107D01*
X-8908D01*
X-9008D01*
Y-10259D01*
X-8908Y-10359D01*
X-8508Y-9859D02*
Y-9959D01*
X-8608D01*
X-8408D01*
X-8508D01*
Y-10259D01*
X-8408Y-10359D01*
X-7808D02*
X-8008D01*
X-8108Y-10259D01*
Y-10059D01*
X-8008Y-9959D01*
X-7808D01*
X-7708Y-10059D01*
Y-10159D01*
X-8108D01*
X-7508Y-9959D02*
Y-10359D01*
Y-10159D01*
X-7408Y-10059D01*
X-7308Y-9959D01*
X-7208D01*
X-6908D02*
Y-10259D01*
X-6808Y-10359D01*
X-6508D01*
Y-10459D01*
X-6608Y-10559D01*
X-6708D01*
X-6508Y-10359D02*
Y-9959D01*
X-5709Y-10559D02*
Y-9959D01*
X-5409D01*
X-5309Y-10059D01*
Y-10259D01*
X-5409Y-10359D01*
X-5709D01*
X-5109D02*
X-4909D01*
X-5009D01*
Y-9959D01*
X-5109D01*
X-4609Y-10359D02*
Y-9959D01*
X-4309D01*
X-4209Y-10059D01*
Y-10359D01*
X-4009D02*
X-3709D01*
X-3609Y-10259D01*
X-3709Y-10159D01*
X-3909D01*
X-4009Y-10059D01*
X-3909Y-9959D01*
X-3609D01*
X-3409Y-10359D02*
X-3209D01*
X-3309D01*
Y-9759D01*
X-3409Y-9859D01*
X-4292Y-24116D02*
X-4404Y-24603D01*
X-4330Y-24723D01*
X-4135Y-24768D01*
X-4015Y-24693D01*
X-3902Y-24206D01*
X-3453Y-24926D02*
X-3843Y-24836D01*
X-3363Y-24536D01*
X-3340Y-24439D01*
X-3415Y-24319D01*
X-3610Y-24274D01*
X-3730Y-24349D01*
X-2868Y-25061D02*
X-3258Y-24971D01*
X-2779Y-24671D01*
X-2756Y-24574D01*
X-2831Y-24454D01*
X-3026Y-24409D01*
X-3146Y-24484D01*
X3498Y-24273D02*
X3602Y-24762D01*
X3721Y-24839D01*
X3916Y-24797D01*
X3993Y-24679D01*
X3889Y-24190D01*
X4601Y-24652D02*
X4210Y-24735D01*
X4518Y-24260D01*
X4497Y-24163D01*
X4378Y-24086D01*
X4183Y-24127D01*
X4106Y-24246D01*
X4796Y-24610D02*
X4992Y-24568D01*
X4894Y-24589D01*
X4769Y-24003D01*
X4692Y-24121D01*
X-21812Y6698D02*
Y6198D01*
X-21712Y6098D01*
X-21512D01*
X-21412Y6198D01*
Y6698D01*
X-20812Y6098D02*
X-21212D01*
X-20812Y6498D01*
Y6598D01*
X-20912Y6698D01*
X-21112D01*
X-21212Y6598D01*
X-20612D02*
X-20512Y6698D01*
X-20312D01*
X-20212Y6598D01*
Y6498D01*
X-20312Y6398D01*
X-20212Y6298D01*
Y6198D01*
X-20312Y6098D01*
X-20512D01*
X-20612Y6198D01*
Y6298D01*
X-20512Y6398D01*
X-20612Y6498D01*
Y6598D01*
X-20512Y6398D02*
X-20312D01*
X24110Y4895D02*
X23610D01*
X23510Y4796D01*
Y4596D01*
X23610Y4496D01*
X24110D01*
X23510Y3896D02*
Y4296D01*
X23910Y3896D01*
X24010D01*
X24110Y3996D01*
Y4196D01*
X24010Y4296D01*
X24110Y3696D02*
Y3296D01*
X24010D01*
X23610Y3696D01*
X23510D01*
X-1381Y-14841D02*
Y-15341D01*
X-1281Y-15441D01*
X-1081D01*
X-981Y-15341D01*
Y-14841D01*
X-381D02*
X-781D01*
Y-15141D01*
X-581Y-15041D01*
X-481D01*
X-381Y-15141D01*
Y-15341D01*
X-481Y-15441D01*
X-681D01*
X-781Y-15341D01*
X6779Y22977D02*
X7379D01*
Y22677D01*
X7279Y22577D01*
X7079D01*
X6979Y22677D01*
Y22977D01*
Y22777D02*
X6779Y22577D01*
X7379Y21978D02*
Y22378D01*
X7079D01*
X7179Y22178D01*
Y22078D01*
X7079Y21978D01*
X6879D01*
X6779Y22078D01*
Y22278D01*
X6879Y22378D01*
X6779Y21378D02*
Y21778D01*
X7179Y21378D01*
X7279D01*
X7379Y21478D01*
Y21678D01*
X7279Y21778D01*
X5444Y23368D02*
Y22768D01*
X5144D01*
X5044Y22868D01*
Y23068D01*
X5144Y23168D01*
X5444D01*
X5244D02*
X5044Y23368D01*
X4444Y22768D02*
X4844D01*
Y23068D01*
X4644Y22968D01*
X4544D01*
X4444Y23068D01*
Y23268D01*
X4544Y23368D01*
X4744D01*
X4844Y23268D01*
X4244Y23368D02*
X4044D01*
X4144D01*
Y22768D01*
X4244Y22868D01*
X-1381Y-14566D02*
X-1981D01*
Y-14266D01*
X-1881Y-14166D01*
X-1681D01*
X-1581Y-14266D01*
Y-14566D01*
Y-14366D02*
X-1381Y-14166D01*
Y-13966D02*
Y-13766D01*
Y-13866D01*
X-1981D01*
X-1881Y-13966D01*
X-1381Y-13466D02*
Y-13266D01*
Y-13366D01*
X-1981D01*
X-1881Y-13466D01*
X1024Y-14410D02*
X1624D01*
Y-14710D01*
X1524Y-14810D01*
X1324D01*
X1224Y-14710D01*
Y-14410D01*
Y-14610D02*
X1024Y-14810D01*
Y-15010D02*
Y-15210D01*
Y-15110D01*
X1624D01*
X1524Y-15010D01*
Y-15510D02*
X1624Y-15610D01*
Y-15810D01*
X1524Y-15910D01*
X1124D01*
X1024Y-15810D01*
Y-15610D01*
X1124Y-15510D01*
X1524D01*
X-1503Y-16871D02*
Y-16271D01*
X-1203D01*
X-1103Y-16371D01*
Y-16571D01*
X-1203Y-16671D01*
X-1503D01*
X-1303D02*
X-1103Y-16871D01*
X-903Y-16771D02*
X-803Y-16871D01*
X-603D01*
X-503Y-16771D01*
Y-16371D01*
X-603Y-16271D01*
X-803D01*
X-903Y-16371D01*
Y-16471D01*
X-803Y-16571D01*
X-503D01*
X-594Y-12436D02*
Y-13036D01*
X-194D01*
X406Y-12436D02*
X6D01*
Y-13036D01*
X406D01*
X6Y-12736D02*
X206D01*
X606Y-12436D02*
Y-13036D01*
X905D01*
X1005Y-12936D01*
Y-12536D01*
X905Y-12436D01*
X606D01*
X1205Y-13036D02*
X1405D01*
X1305D01*
Y-12436D01*
X1205Y-12536D01*
X935Y-16271D02*
Y-16871D01*
X1335D01*
X1535Y-16271D02*
Y-16871D01*
X1835D01*
X1935Y-16771D01*
Y-16371D01*
X1835Y-16271D01*
X1535D01*
X2135Y-16871D02*
X2335D01*
X2235D01*
Y-16271D01*
X2135Y-16371D01*
X6932Y-21818D02*
X6803Y-21758D01*
X6616Y-21827D01*
X6556Y-21955D01*
X6693Y-22330D01*
X6821Y-22390D01*
X7009Y-22322D01*
X7068Y-22194D01*
X7248Y-21809D02*
X7435Y-21741D01*
X7564Y-21801D01*
X7666Y-22083D01*
X7384Y-22185D01*
X7256Y-22125D01*
X7316Y-21997D01*
X7598Y-21895D01*
X7922Y-22202D02*
X7717Y-21638D01*
X7999Y-21536D01*
X8127Y-21596D01*
X8196Y-21783D01*
X8136Y-21912D01*
X7854Y-22014D01*
X8341Y-21305D02*
X8375Y-21399D01*
X8281Y-21433D01*
X8469Y-21365D01*
X8375Y-21399D01*
X8477Y-21681D01*
X8606Y-21741D01*
X9169Y-21535D02*
X8981Y-21604D01*
X8853Y-21544D01*
X8785Y-21356D01*
X8845Y-21228D01*
X9032Y-21160D01*
X9161Y-21219D01*
X9195Y-21313D01*
X8819Y-21450D01*
X9314Y-21057D02*
X9417Y-21339D01*
X9545Y-21399D01*
X9827Y-21296D01*
X9690Y-20920D01*
X9878Y-20852D02*
X10015Y-21228D01*
X9946Y-21040D01*
X10006Y-20912D01*
X10066Y-20784D01*
X10160Y-20749D01*
X11424Y-20715D02*
X11236Y-20783D01*
X11108Y-20723D01*
X11039Y-20536D01*
X11099Y-20407D01*
X11287Y-20339D01*
X11415Y-20399D01*
X11449Y-20493D01*
X11074Y-20630D01*
X11569Y-20237D02*
X12081Y-20476D01*
X11825Y-20356D01*
X11945Y-20100D01*
X11706Y-20612D01*
X12192Y-19903D02*
X12226Y-19997D01*
X12132Y-20031D01*
X12320Y-19963D01*
X12226Y-19997D01*
X12329Y-20279D01*
X12457Y-20339D01*
X13021Y-20134D02*
X12833Y-20202D01*
X12705Y-20142D01*
X12636Y-19954D01*
X12696Y-19826D01*
X12884Y-19758D01*
X13012Y-19818D01*
X13046Y-19912D01*
X12670Y-20048D01*
X14242Y-19689D02*
X13866Y-19826D01*
X14105Y-19313D01*
X14071Y-19219D01*
X13943Y-19160D01*
X13755Y-19228D01*
X13695Y-19356D01*
X-8613Y-21204D02*
X-8672Y-21076D01*
X-8860Y-21007D01*
X-8988Y-21067D01*
X-9125Y-21443D01*
X-9066Y-21571D01*
X-8878Y-21639D01*
X-8749Y-21580D01*
X-8365Y-21400D02*
X-8177Y-21469D01*
X-8117Y-21597D01*
X-8220Y-21879D01*
X-8502Y-21776D01*
X-8562Y-21648D01*
X-8433Y-21588D01*
X-8152Y-21691D01*
X-8101Y-22135D02*
X-7895Y-21571D01*
X-7614Y-21674D01*
X-7554Y-21802D01*
X-7622Y-21990D01*
X-7750Y-22050D01*
X-8032Y-21947D01*
X-7204Y-21717D02*
X-7238Y-21811D01*
X-7332Y-21776D01*
X-7144Y-21845D01*
X-7238Y-21811D01*
X-7340Y-22092D01*
X-7281Y-22221D01*
X-6717Y-22426D02*
X-6905Y-22357D01*
X-6965Y-22229D01*
X-6896Y-22041D01*
X-6768Y-21982D01*
X-6580Y-22050D01*
X-6521Y-22178D01*
X-6555Y-22272D01*
X-6930Y-22135D01*
X-6298Y-22153D02*
X-6401Y-22434D01*
X-6341Y-22563D01*
X-6059Y-22665D01*
X-5923Y-22289D01*
X-5735Y-22358D02*
X-5872Y-22733D01*
X-5803Y-22546D01*
X-5675Y-22486D01*
X-5547Y-22426D01*
X-5453Y-22460D01*
X-4462Y-23246D02*
X-4650Y-23178D01*
X-4710Y-23050D01*
X-4642Y-22862D01*
X-4514Y-22802D01*
X-4326Y-22871D01*
X-4266Y-22999D01*
X-4300Y-23093D01*
X-4676Y-22956D01*
X-4044Y-22973D02*
X-3805Y-23486D01*
X-3924Y-23229D01*
X-3668Y-23110D01*
X-4181Y-23349D01*
X-3352Y-23119D02*
X-3386Y-23213D01*
X-3480Y-23178D01*
X-3292Y-23247D01*
X-3386Y-23213D01*
X-3489Y-23494D01*
X-3429Y-23622D01*
X-2866Y-23828D02*
X-3053Y-23759D01*
X-3113Y-23631D01*
X-3045Y-23443D01*
X-2917Y-23383D01*
X-2729Y-23452D01*
X-2669Y-23580D01*
X-2703Y-23674D01*
X-3079Y-23537D01*
X-2020Y-24135D02*
X-1832Y-24204D01*
X-1926Y-24170D01*
X-1721Y-23606D01*
X-1849Y-23666D01*
X5744Y18115D02*
X5844Y18215D01*
Y18415D01*
X5744Y18515D01*
X5344D01*
X5244Y18415D01*
Y18215D01*
X5344Y18115D01*
X5244Y17516D02*
Y17916D01*
X5644Y17516D01*
X5744D01*
X5844Y17616D01*
Y17816D01*
X5744Y17916D01*
X5344Y17316D02*
X5244Y17216D01*
Y17016D01*
X5344Y16916D01*
X5744D01*
X5844Y17016D01*
Y17216D01*
X5744Y17316D01*
X5644D01*
X5544Y17216D01*
Y16916D01*
X19509Y4076D02*
X19409Y3976D01*
Y3776D01*
X19509Y3676D01*
X19908D01*
X20008Y3776D01*
Y3976D01*
X19908Y4076D01*
X20008Y4276D02*
Y4476D01*
Y4376D01*
X19409D01*
X19509Y4276D01*
X20008Y5176D02*
Y4776D01*
X19609Y5176D01*
X19509D01*
X19409Y5076D01*
Y4876D01*
X19509Y4776D01*
X-23770Y3914D02*
X-23870Y3814D01*
Y3614D01*
X-23770Y3514D01*
X-23370D01*
X-23270Y3614D01*
Y3814D01*
X-23370Y3914D01*
X-23270Y4114D02*
Y4314D01*
Y4214D01*
X-23870D01*
X-23770Y4114D01*
X-23270Y4614D02*
Y4814D01*
Y4714D01*
X-23870D01*
X-23770Y4614D01*
X-2420Y-16841D02*
X-2320Y-16941D01*
X-2120D01*
X-2020Y-16841D01*
Y-16442D01*
X-2120Y-16342D01*
X-2320D01*
X-2420Y-16442D01*
X-2620Y-16841D02*
X-2720Y-16941D01*
X-2920D01*
X-3020Y-16841D01*
Y-16741D01*
X-2920Y-16642D01*
X-3020Y-16542D01*
Y-16442D01*
X-2920Y-16342D01*
X-2720D01*
X-2620Y-16442D01*
Y-16542D01*
X-2720Y-16642D01*
X-2620Y-16741D01*
Y-16841D01*
X-2720Y-16642D02*
X-2920D01*
X-4360Y-17019D02*
X-4260Y-17119D01*
X-4060D01*
X-3960Y-17019D01*
Y-16619D01*
X-4060Y-16519D01*
X-4260D01*
X-4360Y-16619D01*
X-4560Y-17119D02*
X-4959D01*
Y-17019D01*
X-4560Y-16619D01*
Y-16519D01*
X-893Y-24230D02*
Y-24729D01*
X-793Y-24829D01*
X-593D01*
X-493Y-24729D01*
Y-24230D01*
X-293Y-24329D02*
X-194Y-24230D01*
X6D01*
X106Y-24329D01*
Y-24429D01*
X6Y-24529D01*
X-94D01*
X6D01*
X106Y-24629D01*
Y-24729D01*
X6Y-24829D01*
X-194D01*
X-293Y-24729D01*
X306D02*
X406Y-24829D01*
X606D01*
X706Y-24729D01*
Y-24329D01*
X606Y-24230D01*
X406D01*
X306Y-24329D01*
Y-24429D01*
X406Y-24529D01*
X706D01*
X-18930Y11500D02*
X-19030Y11600D01*
X-19230D01*
X-19330Y11500D01*
Y11100D01*
X-19230Y11000D01*
X-19030D01*
X-18930Y11100D01*
X-18730Y11500D02*
X-18630Y11600D01*
X-18430D01*
X-18330Y11500D01*
Y11400D01*
X-18430Y11300D01*
X-18530D01*
X-18430D01*
X-18330Y11200D01*
Y11100D01*
X-18430Y11000D01*
X-18630D01*
X-18730Y11100D01*
X-18130Y11000D02*
X-17930D01*
X-18030D01*
Y11600D01*
X-18130Y11500D01*
X9875Y-133D02*
Y-733D01*
X9575D01*
X9475Y-633D01*
Y-433D01*
X9575Y-333D01*
X9875D01*
X9675D02*
X9475Y-133D01*
X8975D02*
Y-733D01*
X9275Y-433D01*
X8875D01*
X8275Y-733D02*
X8475Y-633D01*
X8675Y-433D01*
Y-233D01*
X8575Y-133D01*
X8375D01*
X8275Y-233D01*
Y-333D01*
X8375Y-433D01*
X8675D01*
X7300Y-643D02*
X6700D01*
Y-343D01*
X6800Y-243D01*
X7000D01*
X7100Y-343D01*
Y-643D01*
Y-443D02*
X7300Y-243D01*
Y257D02*
X6700D01*
X7000Y-43D01*
Y357D01*
X6700Y957D02*
Y557D01*
X7000D01*
X6900Y757D01*
Y857D01*
X7000Y957D01*
X7200D01*
X7300Y857D01*
Y657D01*
X7200Y557D01*
X10836Y-2011D02*
X10237D01*
Y-2411D01*
X10836Y-2611D02*
X10237D01*
Y-2911D01*
X10337Y-3011D01*
X10736D01*
X10836Y-2911D01*
Y-2611D01*
X10237Y-3510D02*
X10836D01*
X10537Y-3210D01*
Y-3610D01*
X7424Y-3607D02*
X8024D01*
Y-3207D01*
X7424Y-3007D02*
X8024D01*
Y-2707D01*
X7924Y-2607D01*
X7524D01*
X7424Y-2707D01*
Y-3007D01*
X7524Y-2407D02*
X7424Y-2307D01*
Y-2107D01*
X7524Y-2007D01*
X7624D01*
X7724Y-2107D01*
Y-2207D01*
Y-2107D01*
X7824Y-2007D01*
X7924D01*
X8024Y-2107D01*
Y-2307D01*
X7924Y-2407D01*
X12540Y2267D02*
Y2067D01*
Y2167D01*
X11940D01*
Y2267D01*
Y2067D01*
X12440Y1367D02*
X12540Y1467D01*
Y1667D01*
X12440Y1767D01*
X12040D01*
X11940Y1667D01*
Y1467D01*
X12040Y1367D01*
X12440Y768D02*
X12540Y868D01*
Y1068D01*
X12440Y1167D01*
X12340D01*
X12240Y1068D01*
Y868D01*
X12140Y768D01*
X12040D01*
X11940Y868D01*
Y1068D01*
X12040Y1167D01*
X11940Y568D02*
X12540D01*
Y268D01*
X12440Y168D01*
X12240D01*
X12140Y268D01*
Y568D01*
X12340Y-632D02*
X12040D01*
X11940Y-732D01*
Y-1032D01*
X12340D01*
X12440Y-1632D02*
X12540Y-1532D01*
Y-1332D01*
X12440Y-1232D01*
X12040D01*
X11940Y-1332D01*
Y-1532D01*
X12040Y-1632D01*
X11940Y-1832D02*
Y-2031D01*
Y-1932D01*
X12540D01*
X12440Y-1832D01*
X8725Y-7951D02*
Y-7751D01*
Y-7851D01*
X9325D01*
Y-7951D01*
Y-7751D01*
X8825Y-7052D02*
X8725Y-7152D01*
Y-7352D01*
X8825Y-7452D01*
X9225D01*
X9325Y-7352D01*
Y-7152D01*
X9225Y-7052D01*
X8825Y-6452D02*
X8725Y-6552D01*
Y-6752D01*
X8825Y-6852D01*
X8925D01*
X9025Y-6752D01*
Y-6552D01*
X9125Y-6452D01*
X9225D01*
X9325Y-6552D01*
Y-6752D01*
X9225Y-6852D01*
X9325Y-6252D02*
X8725D01*
Y-5952D01*
X8825Y-5852D01*
X9025D01*
X9125Y-5952D01*
Y-6252D01*
X9325Y-5052D02*
Y-4852D01*
Y-4952D01*
X8725D01*
X8825Y-5052D01*
X18691Y11053D02*
X18591Y11153D01*
X18391D01*
X18291Y11053D01*
Y10653D01*
X18391Y10553D01*
X18591D01*
X18691Y10653D01*
X18891Y11053D02*
X18991Y11153D01*
X19191D01*
X19291Y11053D01*
Y10953D01*
X19191Y10853D01*
X19091D01*
X19191D01*
X19291Y10753D01*
Y10653D01*
X19191Y10553D01*
X18991D01*
X18891Y10653D01*
X19491Y11053D02*
X19591Y11153D01*
X19791D01*
X19891Y11053D01*
Y10653D01*
X19791Y10553D01*
X19591D01*
X19491Y10653D01*
Y11053D01*
X556Y-22143D02*
X656Y-22043D01*
Y-21843D01*
X556Y-21743D01*
X156D01*
X57Y-21843D01*
Y-22043D01*
X156Y-22143D01*
X57Y-22343D02*
Y-22542D01*
Y-22442D01*
X656D01*
X556Y-22343D01*
X156Y-22842D02*
X57Y-22942D01*
Y-23142D01*
X156Y-23242D01*
X556D01*
X656Y-23142D01*
Y-22942D01*
X556Y-22842D01*
X456D01*
X356Y-22942D01*
Y-23242D01*
X-18255Y13771D02*
X-17831Y14195D01*
X-17619Y13983D01*
Y13842D01*
X-17760Y13700D01*
X-17902D01*
X-18114Y13912D01*
X-17831Y13347D02*
X-17690Y13205D01*
X-17760Y13276D01*
X-17336Y13700D01*
X-17478D01*
X14474Y20841D02*
Y20982D01*
X14333Y21123D01*
X14191D01*
X13909Y20841D01*
Y20699D01*
X14050Y20558D01*
X14191D01*
X14616D02*
X14757Y20417D01*
Y20275D01*
X14545Y20063D01*
X14333Y20275D01*
Y20417D01*
X14474Y20417D01*
X14686Y20204D01*
X14545Y19780D02*
X14969Y20204D01*
X15181Y19992D01*
Y19851D01*
X15040Y19710D01*
X14898D01*
X14686Y19922D01*
X15535Y19780D02*
X15464Y19710D01*
X15393Y19780D01*
X15535Y19639D01*
X15464Y19710D01*
X15252Y19498D01*
X15252Y19356D01*
X15676Y18932D02*
X15535Y19073D01*
Y19215D01*
X15676Y19356D01*
X15817D01*
X15959Y19215D01*
Y19073D01*
X15888Y19003D01*
X15605Y19286D01*
X16171Y19003D02*
X15959Y18791D01*
Y18649D01*
X16171Y18437D01*
X16453Y18720D01*
X16595Y18579D02*
X16312Y18296D01*
X16453Y18437D01*
X16595D01*
X16736Y18437D01*
X16807Y18367D01*
X17372Y17236D02*
X17231Y17377D01*
Y17518D01*
X17372Y17660D01*
X17514D01*
X17655Y17518D01*
Y17377D01*
X17584Y17306D01*
X17302Y17589D01*
X17867Y17306D02*
Y16741D01*
Y17024D01*
X18150D01*
X17584D01*
X18433Y16882D02*
X18362Y16811D01*
X18291Y16882D01*
X18433Y16741D01*
X18362Y16811D01*
X18150Y16599D01*
X18150Y16458D01*
X18574Y16034D02*
X18433Y16175D01*
Y16317D01*
X18574Y16458D01*
X18715D01*
X18857Y16317D01*
Y16175D01*
X18786Y16105D01*
X18503Y16387D01*
X19564Y15751D02*
X19705D01*
X19846Y15610D01*
Y15468D01*
X19776Y15398D01*
X19634D01*
X19564Y15468D01*
X19634Y15398D01*
Y15256D01*
X19564Y15186D01*
X19422D01*
X19281Y15327D01*
Y15468D01*
X2551Y-13792D02*
Y-13192D01*
X2751Y-13392D01*
X2951Y-13192D01*
Y-13792D01*
X3251Y-13392D02*
X3451D01*
X3551Y-13492D01*
Y-13792D01*
X3251D01*
X3151Y-13692D01*
X3251Y-13592D01*
X3551D01*
X3751Y-13392D02*
X4150Y-13792D01*
X3951Y-13592D01*
X4150Y-13392D01*
X3751Y-13792D01*
X4450D02*
X4650D01*
X4750Y-13692D01*
Y-13492D01*
X4650Y-13392D01*
X4450D01*
X4350Y-13492D01*
Y-13692D01*
X4450Y-13792D01*
X4950Y-13392D02*
Y-13692D01*
X5050Y-13792D01*
X5350D01*
Y-13392D01*
G54D35*
X-3020Y21925D02*
Y20351D01*
X-2496Y20876D01*
X-1971Y20351D01*
Y21925D01*
X-1446D02*
X-921D01*
X-1184D01*
Y20351D01*
X-1446D01*
X-921D01*
X915Y21925D02*
X-134D01*
Y21138D01*
X391D01*
X-134D01*
Y20351D01*
X1440Y21925D02*
X1965D01*
X1703D01*
Y20351D01*
X1440D01*
X1965D01*
G54D64*
X6850Y-3860D02*
Y-1860D01*
X7850D01*
Y-3860D02*
Y-1860D01*
X6850Y-3860D02*
X7850D01*
X-6741Y-6658D02*
Y-5658D01*
X-6783Y-8039D02*
Y-7039D01*
X-4745Y16973D02*
X-3545D01*
X-4745Y15573D02*
Y16973D01*
Y15573D02*
X-3545D01*
Y16973D01*
X-4145Y16373D02*
Y16773D01*
X-4345Y16573D02*
X-3945D01*
X-2757Y16976D02*
X-1557D01*
X-2757Y15576D02*
Y16976D01*
Y15576D02*
X-1557D01*
Y16976D01*
X-2157Y16376D02*
Y16776D01*
X-2357Y16576D02*
X-1957D01*
X-12404Y17099D02*
X-11204D01*
X-12404Y15699D02*
Y17099D01*
Y15699D02*
X-11204D01*
Y17099D01*
X-11804Y16499D02*
Y16899D01*
X-12004Y16699D02*
X-11604D01*
X-10443Y17126D02*
X-9243D01*
X-10443Y15726D02*
Y17126D01*
Y15726D02*
X-9243D01*
Y17126D01*
X-9843Y16526D02*
Y16926D01*
X-10043Y16726D02*
X-9643D01*
X-11495Y-12699D02*
Y-10699D01*
X-10495D01*
Y-12699D02*
Y-10699D01*
X-11495Y-12699D02*
X-10495D01*
X-3065Y-16117D02*
X-1865D01*
Y-14717D01*
X-3065D02*
X-1865D01*
X-3065Y-16117D02*
Y-14717D01*
X-2465Y-15917D02*
Y-15517D01*
X-2665Y-15717D02*
X-2265D01*
X-4816Y-16143D02*
X-3616D01*
Y-14743D01*
X-4816D02*
X-3616D01*
X-4816Y-16143D02*
Y-14743D01*
X-4216Y-15943D02*
Y-15543D01*
X-4416Y-15743D02*
X-4016D01*
G54D65*
X2794Y-8851D02*
X3244D01*
Y-8251D01*
X1944D02*
X2394D01*
X1944Y-8851D02*
Y-8251D01*
Y-8851D02*
X2394D01*
X2794Y-8251D02*
X3244D01*
X-9515Y-7254D02*
Y-6804D01*
Y-7254D02*
X-8915D01*
Y-6404D02*
Y-5954D01*
X-9515D02*
X-8915D01*
X-9515Y-6404D02*
Y-5954D01*
X-8915Y-7254D02*
Y-6804D01*
X-8704Y-7997D02*
Y-7547D01*
X-9304D02*
X-8704D01*
X-9304Y-8847D02*
Y-8397D01*
Y-8847D02*
X-8704D01*
Y-8397D01*
X-9304Y-7997D02*
Y-7547D01*
X9306Y18230D02*
Y18680D01*
Y18230D02*
X9906D01*
Y19080D02*
Y19530D01*
X9306D02*
X9906D01*
X9306Y19080D02*
Y19530D01*
X9906Y18230D02*
Y18680D01*
X7283Y19538D02*
Y19988D01*
X6683D02*
X7283D01*
X6683Y18688D02*
Y19138D01*
Y18688D02*
X7283D01*
Y19138D01*
X6683Y19538D02*
Y19988D01*
X7555Y-615D02*
Y-165D01*
Y-615D02*
X8155D01*
Y235D02*
Y685D01*
X7555D02*
X8155D01*
X7555Y235D02*
Y685D01*
X8155Y-615D02*
Y-165D01*
X8822Y84D02*
Y534D01*
Y84D02*
X9422D01*
Y934D02*
Y1384D01*
X8822D02*
X9422D01*
X8822Y934D02*
Y1384D01*
X9422Y84D02*
Y534D01*
X-5381Y-10980D02*
Y-10530D01*
Y-10980D02*
X-4781D01*
Y-10130D02*
Y-9680D01*
X-5381D02*
X-4781D01*
X-5381Y-10130D02*
Y-9680D01*
X-4781Y-10980D02*
Y-10530D01*
X-4477Y-10975D02*
Y-10525D01*
Y-10975D02*
X-3877D01*
Y-10125D02*
Y-9675D01*
X-4477D02*
X-3877D01*
X-4477Y-10125D02*
Y-9675D01*
X-3877Y-10975D02*
Y-10525D01*
X3750Y-11181D02*
Y-10731D01*
Y-11181D02*
X4350D01*
Y-10331D02*
Y-9881D01*
X3750D02*
X4350D01*
X3750Y-10331D02*
Y-9881D01*
X4350Y-11181D02*
Y-10731D01*
X4733Y-11181D02*
Y-10731D01*
Y-11181D02*
X5333D01*
Y-10331D02*
Y-9881D01*
X4733D02*
X5333D01*
X4733Y-10331D02*
Y-9881D01*
X5333Y-11181D02*
Y-10731D01*
X4134Y-7196D02*
Y-6746D01*
X3534D02*
X4134D01*
X3534Y-8046D02*
Y-7596D01*
Y-8046D02*
X4134D01*
Y-7596D01*
X3534Y-7196D02*
Y-6746D01*
X-10783Y-1376D02*
Y-926D01*
X-11383D02*
X-10783D01*
X-11383Y-2226D02*
Y-1776D01*
Y-2226D02*
X-10783D01*
Y-1776D01*
X-11383Y-1376D02*
Y-926D01*
X-1808Y1451D02*
Y1901D01*
Y1451D02*
X-1208D01*
Y2301D02*
Y2751D01*
X-1808D02*
X-1208D01*
X-1808Y2301D02*
Y2751D01*
X-1208Y1451D02*
Y1901D01*
X-2133Y14198D02*
X-1683D01*
X-2133Y13598D02*
Y14198D01*
X-1283Y13598D02*
X-833D01*
Y14198D01*
X-1283D02*
X-833D01*
X-2133Y13598D02*
X-1683D01*
X-725Y15302D02*
Y15752D01*
X-1325D02*
X-725D01*
X-1325Y14452D02*
Y14902D01*
Y14452D02*
X-725D01*
Y14902D01*
X-1325Y15302D02*
Y15752D01*
X-8069Y13802D02*
Y14252D01*
X-8669D02*
X-8069D01*
X-8669Y12952D02*
Y13402D01*
Y12952D02*
X-8069D01*
Y13402D01*
X-8669Y13802D02*
Y14252D01*
X-8089Y15599D02*
Y16049D01*
X-8689D02*
X-8089D01*
X-8689Y14749D02*
Y15199D01*
Y14749D02*
X-8089D01*
Y15199D01*
X-8689Y15599D02*
Y16049D01*
X5752Y23723D02*
X6202D01*
Y24323D01*
X4902D02*
X5352D01*
X4902Y23723D02*
Y24323D01*
Y23723D02*
X5352D01*
X5752Y24323D02*
X6202D01*
X6442Y22969D02*
Y23419D01*
X5842D02*
X6442D01*
X5842Y22119D02*
Y22569D01*
Y22119D02*
X6442D01*
Y22569D01*
X5842Y22969D02*
Y23419D01*
X4467Y17561D02*
Y18011D01*
Y17561D02*
X5067D01*
Y18411D02*
Y18861D01*
X4467D02*
X5067D01*
X4467Y18411D02*
Y18861D01*
X5067Y17561D02*
Y18011D01*
X241Y-16318D02*
Y-15868D01*
X841Y-17168D02*
Y-16718D01*
X241Y-17168D02*
X841D01*
X241D02*
Y-16718D01*
Y-15868D02*
X841D01*
Y-16318D02*
Y-15868D01*
X-434Y-17503D02*
X16D01*
Y-16903D01*
X-1284D02*
X-834D01*
X-1284Y-17503D02*
Y-16903D01*
Y-17503D02*
X-834D01*
X-434Y-16903D02*
X16D01*
X219Y-15637D02*
Y-15187D01*
Y-15637D02*
X819D01*
Y-14787D02*
Y-14337D01*
X219D02*
X819D01*
X219Y-14787D02*
Y-14337D01*
X819Y-15637D02*
Y-15187D01*
X-395Y-13959D02*
X55D01*
X455Y-13359D02*
X905D01*
Y-13959D02*
Y-13359D01*
X455Y-13959D02*
X905D01*
X-395D02*
Y-13359D01*
X55D01*
X-643Y-13881D02*
Y-13431D01*
X-1243D02*
X-643D01*
X-1243Y-14731D02*
Y-14281D01*
Y-14731D02*
X-643D01*
Y-14281D01*
X-1243Y-13881D02*
Y-13431D01*
X20204Y3236D02*
Y3686D01*
Y3236D02*
X20804D01*
Y4086D02*
Y4536D01*
X20204D02*
X20804D01*
X20204Y4086D02*
Y4536D01*
X20804Y3236D02*
Y3686D01*
X-22965Y3419D02*
Y3869D01*
Y3419D02*
X-22365D01*
Y4269D02*
Y4719D01*
X-22965D02*
X-22365D01*
X-22965Y4269D02*
Y4719D01*
X-22365Y3419D02*
Y3869D01*
X10008Y-3754D02*
Y-3304D01*
X9408Y-2904D02*
Y-2454D01*
X10008D01*
Y-2904D02*
Y-2454D01*
X9408Y-3754D02*
X10008D01*
X9408D02*
Y-3304D01*
X9062Y-3714D02*
Y-3264D01*
X8462Y-2864D02*
Y-2414D01*
X9062D01*
Y-2864D02*
Y-2414D01*
X8462Y-3714D02*
X9062D01*
X8462D02*
Y-3264D01*
X-1431Y-21944D02*
X-981D01*
X-1431Y-22544D02*
Y-21944D01*
X-581Y-22544D02*
X-131D01*
Y-21944D01*
X-581D02*
X-131D01*
X-1431Y-22544D02*
X-981D01*
X-18326Y10035D02*
X-17876D01*
Y10635D01*
X-19176D02*
X-18726D01*
X-19176Y10035D02*
Y10635D01*
Y10035D02*
X-18726D01*
X-18326Y10635D02*
X-17876D01*
X20661Y9904D02*
X21111D01*
Y10504D01*
X19811D02*
X20261D01*
X19811Y9904D02*
Y10504D01*
Y9904D02*
X20261D01*
X20661Y10504D02*
X21111D01*
G54D66*
X-5694Y17945D02*
Y24244D01*
X3755D01*
Y17945D02*
Y24244D01*
X-5694Y17945D02*
X3755D01*
X-5300Y18339D02*
X-3331D01*
X-5300D02*
Y18732D01*
X-3331D01*
X-5300D02*
Y19520D01*
X-4119D01*
Y20307D01*
X-5300D02*
X-4119D01*
X-5300D02*
Y21094D01*
X-4119D01*
Y21882D01*
X-5300D02*
X-4119D01*
X-5300D02*
Y22669D01*
X-4119D01*
Y23457D01*
X-5300D02*
X-4119D01*
X-2150Y18732D02*
X-2150D01*
X-2544Y19126D02*
X-2150Y18732D01*
X-2544Y19126D02*
X-1757D01*
Y18732D02*
Y19126D01*
Y18732D02*
Y19520D01*
X-7467Y-14382D02*
Y-13382D01*
X-12467Y-14382D02*
X-7467D01*
X-12467Y-13382D02*
X-7467D01*
X-12467Y-14382D02*
Y-13382D01*
X1252Y-8154D02*
Y-7209D01*
Y-8154D02*
X2079D01*
Y-7209D01*
X1252D02*
X2079D01*
X3Y11624D02*
X1577D01*
X3Y8868D02*
Y11624D01*
Y10836D02*
X1577D01*
Y8868D02*
Y11624D01*
X3Y8868D02*
X1577D01*
X-5572Y9341D02*
Y13278D01*
X-2029D01*
Y9341D02*
Y13278D01*
X-5572Y9341D02*
X-2029D01*
X-9656Y-12705D02*
X-8656D01*
X-9656D02*
Y-10705D01*
X-8656D01*
Y-12705D02*
Y-10705D01*
X-3430Y13403D02*
X-2780D01*
Y14653D01*
X-3430D02*
X-2780D01*
X-3430Y13403D02*
Y14653D01*
X-7984Y12556D02*
X-6409D01*
X-7984Y9800D02*
Y12556D01*
Y11769D02*
X-6409D01*
Y9800D02*
Y12556D01*
X-7984Y9800D02*
X-6409D01*
X-12480Y8850D02*
Y12787D01*
X-8936D01*
Y8850D02*
Y12787D01*
X-12480Y8850D02*
X-8936D01*
X-11103Y13582D02*
X-10453D01*
Y14832D01*
X-11103D02*
X-10453D01*
X-11103Y13582D02*
Y14832D01*
X-32Y-16229D02*
Y-15629D01*
X-1182D02*
X-32D01*
X-1182Y-16229D02*
Y-15629D01*
Y-16229D02*
X-32D01*
X-1608Y-25717D02*
X1592D01*
Y-23867D01*
X-1608D02*
X1592D01*
X-1608Y-25717D02*
Y-23867D01*
Y-25917D02*
Y-25717D01*
Y-25917D02*
X1592D01*
Y-25717D01*
X-12173Y-15567D02*
X-11173D01*
Y-17567D02*
Y-15567D01*
X-12173Y-17567D02*
X-11173D01*
X-12173D02*
Y-15567D01*
X11311Y-12332D02*
X12311D01*
X11311D02*
Y-10332D01*
X12311D01*
Y-12332D02*
Y-10332D01*
G54D67*
X9465Y-10100D02*
X10567D01*
X9465Y-9953D02*
X10567D01*
Y-11823D02*
Y-9953D01*
X9465Y-11823D02*
X10567D01*
X9465D02*
Y-9953D01*
X11051Y14933D02*
X12154D01*
X11051Y15081D02*
X12154D01*
Y13211D02*
Y15081D01*
X11051Y13211D02*
X12154D01*
X11051D02*
Y15081D01*
X9490Y-13028D02*
X10593D01*
X9490Y-12880D02*
X10593D01*
Y-14750D02*
Y-12880D01*
X9490Y-14750D02*
X10593D01*
X9490D02*
Y-12880D01*
X11094Y11917D02*
X12197D01*
X11094Y12065D02*
X12197D01*
Y10195D02*
Y12065D01*
X11094Y10195D02*
X12197D01*
X11094D02*
Y12065D01*
X7949Y-12998D02*
X9051D01*
X7949Y-12850D02*
X9051D01*
Y-14720D02*
Y-12850D01*
X7949Y-14720D02*
X9051D01*
X7949D02*
Y-12850D01*
X12669Y11917D02*
X13772D01*
X12669Y12065D02*
X13772D01*
Y10195D02*
Y12065D01*
X12669Y10195D02*
X13772D01*
X12669D02*
Y12065D01*
X7890Y-10100D02*
X8992D01*
X7890Y-9953D02*
X8992D01*
Y-11823D02*
Y-9953D01*
X7890Y-11823D02*
X8992D01*
X7890D02*
Y-9953D01*
X12656Y14927D02*
X13758D01*
X12656Y15075D02*
X13758D01*
Y13205D02*
Y15075D01*
X12656Y13205D02*
X13758D01*
X12656D02*
Y15075D01*
X-7345Y-15128D02*
X-6243D01*
X-7345Y-14981D02*
X-6243D01*
Y-16851D02*
Y-14981D01*
X-7345Y-16851D02*
X-6243D01*
X-7345D02*
Y-14981D01*
X-1277Y-25371D02*
X-1408D01*
Y-25567D01*
X-1277D01*
X-1408Y-25469D02*
X-1342D01*
X-1211Y-25567D02*
Y-25436D01*
X-1113D01*
X-1080Y-25469D01*
Y-25567D01*
X-883Y-25371D02*
Y-25567D01*
X-981D01*
X-1014Y-25535D01*
Y-25469D01*
X-981Y-25436D01*
X-883D01*
X-588Y-25567D02*
X-522D01*
X-490Y-25535D01*
Y-25469D01*
X-522Y-25436D01*
X-588D01*
X-621Y-25469D01*
Y-25535D01*
X-588Y-25567D01*
X-391D02*
Y-25403D01*
Y-25469D01*
X-424D01*
X-358D01*
X-391D01*
Y-25403D01*
X-358Y-25371D01*
X-63Y-25567D02*
Y-25371D01*
X35D01*
X68Y-25403D01*
Y-25469D01*
X35Y-25502D01*
X-63D01*
X265Y-25403D02*
X232Y-25371D01*
X166D01*
X134Y-25403D01*
Y-25535D01*
X166Y-25567D01*
X232D01*
X265Y-25535D01*
X330Y-25371D02*
Y-25567D01*
X429D01*
X462Y-25535D01*
Y-25502D01*
X429Y-25469D01*
X330D01*
X429D01*
X462Y-25436D01*
Y-25403D01*
X429Y-25371D01*
X330D01*
G54D68*
X241Y-16418D02*
X841D01*
X155Y-13959D02*
Y-13359D01*
X9408Y-3204D02*
X10008D01*
X8462Y-3164D02*
X9062D01*
G54D69*
X-12571Y-14429D02*
X-12250D01*
X-12411D01*
Y-14910D01*
X-12009D02*
X-11849D01*
X-11769Y-14830D01*
Y-14670D01*
X-11849Y-14589D01*
X-12009D01*
X-12090Y-14670D01*
Y-14830D01*
X-12009Y-14910D01*
X-11126Y-14429D02*
Y-14910D01*
X-10805D01*
X-10323Y-14429D02*
X-10645D01*
Y-14910D01*
X-10323D01*
X-10645Y-14670D02*
X-10484D01*
X-10163Y-14429D02*
Y-14910D01*
X-9922D01*
X-9842Y-14830D01*
Y-14509D01*
X-9922Y-14429D01*
X-10163D01*
X-9199Y-14910D02*
Y-14429D01*
X-9039Y-14589D01*
X-8878Y-14429D01*
Y-14910D01*
X-8637Y-14589D02*
X-8477D01*
X-8396Y-14670D01*
Y-14910D01*
X-8637D01*
X-8718Y-14830D01*
X-8637Y-14750D01*
X-8396D01*
X-8156Y-14509D02*
Y-14589D01*
X-8236D01*
X-8075D01*
X-8156D01*
Y-14830D01*
X-8075Y-14910D01*
X-7834Y-14589D02*
Y-14910D01*
Y-14750D01*
X-7754Y-14670D01*
X-7674Y-14589D01*
X-7594D01*
X-7353Y-14910D02*
X-7192D01*
X-7272D01*
Y-14589D01*
X-7353D01*
X-6951D02*
X-6630Y-14910D01*
X-6791Y-14750D01*
X-6630Y-14589D01*
X-6951Y-14910D01*
X-6469D02*
X-6309D01*
X-6389D01*
Y-14429D01*
X-6469Y-14509D01*
M02*
