%FSLAX24Y24*%
%MOIN*%
G70*
G01*
G75*
G04 Layer_Color=32896*
%ADD10R,0.0400X0.0500*%
%ADD11R,0.0800X0.0800*%
%ADD12R,0.0500X0.0400*%
%ADD13R,0.0394X0.0787*%
%ADD14R,0.0787X0.0394*%
%ADD15R,0.0433X0.0236*%
%ADD16R,0.0295X0.0118*%
%ADD17R,0.0870X0.0866*%
%ADD18R,0.1335X0.0772*%
%ADD19R,0.0787X0.1378*%
%ADD20R,0.0800X0.0800*%
%ADD21R,0.0394X0.0217*%
G04:AMPARAMS|DCode=22|XSize=90.6mil|YSize=295.3mil|CornerRadius=0mil|HoleSize=0mil|Usage=FLASHONLY|Rotation=167.000|XOffset=0mil|YOffset=0mil|HoleType=Round|Shape=Rectangle|*
%AMROTATEDRECTD22*
4,1,4,0.0773,0.1337,0.0109,-0.1540,-0.0773,-0.1337,-0.0109,0.1540,0.0773,0.1337,0.0*
%
%ADD22ROTATEDRECTD22*%

G04:AMPARAMS|DCode=23|XSize=90.6mil|YSize=295.3mil|CornerRadius=0mil|HoleSize=0mil|Usage=FLASHONLY|Rotation=192.000|XOffset=0mil|YOffset=0mil|HoleType=Round|Shape=Rectangle|*
%AMROTATEDRECTD23*
4,1,4,0.0136,0.1538,0.0750,-0.1350,-0.0136,-0.1538,-0.0750,0.1350,0.0136,0.1538,0.0*
%
%ADD23ROTATEDRECTD23*%

%ADD24R,0.0354X0.0591*%
%ADD25R,0.0236X0.0433*%
%ADD26R,0.0453X0.0591*%
%ADD27R,0.0157X0.0591*%
%ADD28C,0.0250*%
%ADD29C,0.0315*%
%ADD30C,0.0200*%
%ADD31C,0.0120*%
%ADD32C,0.0100*%
%ADD33C,0.0157*%
%ADD34C,0.0500*%
%ADD35C,0.0394*%
%ADD36C,0.0197*%
%ADD37C,0.0238*%
%ADD38C,0.0217*%
%ADD39C,0.0161*%
%ADD40C,0.0150*%
%ADD41C,0.0700*%
%ADD42C,0.0551*%
G04:AMPARAMS|DCode=43|XSize=99.4mil|YSize=60mil|CornerRadius=0mil|HoleSize=0mil|Usage=FLASHONLY|Rotation=45.000|XOffset=0mil|YOffset=0mil|HoleType=Round|Shape=Round|*
%AMOVALD43*
21,1,0.0394,0.0600,0.0000,0.0000,45.0*
1,1,0.0600,-0.0139,-0.0139*
1,1,0.0600,0.0139,0.0139*
%
%ADD43OVALD43*%

G04:AMPARAMS|DCode=44|XSize=99.4mil|YSize=60mil|CornerRadius=0mil|HoleSize=0mil|Usage=FLASHONLY|Rotation=45.000|XOffset=0mil|YOffset=0mil|HoleType=Round|Shape=Rectangle|*
%AMROTATEDRECTD44*
4,1,4,-0.0139,-0.0563,-0.0563,-0.0139,0.0139,0.0563,0.0563,0.0139,-0.0139,-0.0563,0.0*
%
%ADD44ROTATEDRECTD44*%

%ADD45C,0.0600*%
%ADD46C,0.0591*%
%ADD47R,0.0591X0.0591*%
%ADD48R,0.0591X0.0591*%
G04:AMPARAMS|DCode=49|XSize=60mil|YSize=99.4mil|CornerRadius=0mil|HoleSize=0mil|Usage=FLASHONLY|Rotation=20.000|XOffset=0mil|YOffset=0mil|HoleType=Round|Shape=Round|*
%AMOVALD49*
21,1,0.0394,0.0600,0.0000,0.0000,110.0*
1,1,0.0600,0.0067,-0.0185*
1,1,0.0600,-0.0067,0.0185*
%
%ADD49OVALD49*%

G04:AMPARAMS|DCode=50|XSize=60mil|YSize=99.4mil|CornerRadius=0mil|HoleSize=0mil|Usage=FLASHONLY|Rotation=340.000|XOffset=0mil|YOffset=0mil|HoleType=Round|Shape=Round|*
%AMOVALD50*
21,1,0.0394,0.0600,0.0000,0.0000,70.0*
1,1,0.0600,-0.0067,-0.0185*
1,1,0.0600,0.0067,0.0185*
%
%ADD50OVALD50*%

G04:AMPARAMS|DCode=51|XSize=86.6mil|YSize=63mil|CornerRadius=15.7mil|HoleSize=0mil|Usage=FLASHONLY|Rotation=90.000|XOffset=0mil|YOffset=0mil|HoleType=Round|Shape=RoundedRectangle|*
%AMROUNDEDRECTD51*
21,1,0.0866,0.0315,0,0,90.0*
21,1,0.0551,0.0630,0,0,90.0*
1,1,0.0315,0.0157,0.0276*
1,1,0.0315,0.0157,-0.0276*
1,1,0.0315,-0.0157,-0.0276*
1,1,0.0315,-0.0157,0.0276*
%
%ADD51ROUNDEDRECTD51*%
%ADD52C,0.1654*%
%ADD53C,0.0500*%
%ADD54R,0.0591X0.0354*%
%ADD55R,0.0315X0.0354*%
%ADD56R,0.2165X0.0787*%
%ADD57R,0.0866X0.0870*%
%ADD58R,0.0787X0.2165*%
%ADD59O,0.0217X0.0650*%
%ADD60O,0.0650X0.0217*%
%ADD61O,0.0118X0.0709*%
%ADD62O,0.0709X0.0118*%
%ADD63C,0.0120*%
%ADD64C,0.0080*%
%ADD65C,0.0020*%
%ADD66C,0.0079*%
%ADD67C,0.0039*%
%ADD68C,0.0020*%
%ADD69C,0.0061*%
%ADD70R,0.0480X0.0580*%
%ADD71R,0.0880X0.0880*%
%ADD72R,0.0580X0.0480*%
%ADD73R,0.0433X0.0827*%
%ADD74R,0.0827X0.0433*%
%ADD75R,0.0513X0.0316*%
%ADD76R,0.0335X0.0157*%
%ADD77R,0.0950X0.0946*%
%ADD78R,0.1374X0.0811*%
%ADD79R,0.1575X0.2165*%
%ADD80R,0.0880X0.0880*%
%ADD81R,0.0433X0.0256*%
G04:AMPARAMS|DCode=82|XSize=98.6mil|YSize=303.3mil|CornerRadius=0mil|HoleSize=0mil|Usage=FLASHONLY|Rotation=167.000|XOffset=0mil|YOffset=0mil|HoleType=Round|Shape=Rectangle|*
%AMROTATEDRECTD82*
4,1,4,0.0821,0.1367,0.0139,-0.1588,-0.0821,-0.1367,-0.0139,0.1588,0.0821,0.1367,0.0*
%
%ADD82ROTATEDRECTD82*%

G04:AMPARAMS|DCode=83|XSize=98.6mil|YSize=303.3mil|CornerRadius=0mil|HoleSize=0mil|Usage=FLASHONLY|Rotation=192.000|XOffset=0mil|YOffset=0mil|HoleType=Round|Shape=Rectangle|*
%AMROTATEDRECTD83*
4,1,4,0.0167,0.1586,0.0797,-0.1381,-0.0167,-0.1586,-0.0797,0.1381,0.0167,0.1586,0.0*
%
%ADD83ROTATEDRECTD83*%

%ADD84R,0.0434X0.0671*%
%ADD85R,0.0276X0.0472*%
%ADD86R,0.0492X0.0630*%
%ADD87R,0.0197X0.0630*%
%ADD88C,0.0780*%
G04:AMPARAMS|DCode=89|XSize=107.4mil|YSize=68mil|CornerRadius=0mil|HoleSize=0mil|Usage=FLASHONLY|Rotation=45.000|XOffset=0mil|YOffset=0mil|HoleType=Round|Shape=Round|*
%AMOVALD89*
21,1,0.0394,0.0680,0.0000,0.0000,45.0*
1,1,0.0680,-0.0139,-0.0139*
1,1,0.0680,0.0139,0.0139*
%
%ADD89OVALD89*%

G04:AMPARAMS|DCode=90|XSize=107.4mil|YSize=68mil|CornerRadius=0mil|HoleSize=0mil|Usage=FLASHONLY|Rotation=45.000|XOffset=0mil|YOffset=0mil|HoleType=Round|Shape=Rectangle|*
%AMROTATEDRECTD90*
4,1,4,-0.0139,-0.0620,-0.0620,-0.0139,0.0139,0.0620,0.0620,0.0139,-0.0139,-0.0620,0.0*
%
%ADD90ROTATEDRECTD90*%

%ADD91C,0.0680*%
%ADD92C,0.0671*%
%ADD93R,0.0671X0.0671*%
%ADD94R,0.0671X0.0671*%
%ADD95C,0.0080*%
G04:AMPARAMS|DCode=96|XSize=68mil|YSize=107.4mil|CornerRadius=0mil|HoleSize=0mil|Usage=FLASHONLY|Rotation=20.000|XOffset=0mil|YOffset=0mil|HoleType=Round|Shape=Round|*
%AMOVALD96*
21,1,0.0394,0.0680,0.0000,0.0000,110.0*
1,1,0.0680,0.0067,-0.0185*
1,1,0.0680,-0.0067,0.0185*
%
%ADD96OVALD96*%

G04:AMPARAMS|DCode=97|XSize=68mil|YSize=107.4mil|CornerRadius=0mil|HoleSize=0mil|Usage=FLASHONLY|Rotation=340.000|XOffset=0mil|YOffset=0mil|HoleType=Round|Shape=Round|*
%AMOVALD97*
21,1,0.0394,0.0680,0.0000,0.0000,70.0*
1,1,0.0680,-0.0067,-0.0185*
1,1,0.0680,0.0067,0.0185*
%
%ADD97OVALD97*%

G04:AMPARAMS|DCode=98|XSize=90.6mil|YSize=66.9mil|CornerRadius=17.7mil|HoleSize=0mil|Usage=FLASHONLY|Rotation=90.000|XOffset=0mil|YOffset=0mil|HoleType=Round|Shape=RoundedRectangle|*
%AMROUNDEDRECTD98*
21,1,0.0906,0.0315,0,0,90.0*
21,1,0.0551,0.0669,0,0,90.0*
1,1,0.0354,0.0157,0.0276*
1,1,0.0354,0.0157,-0.0276*
1,1,0.0354,-0.0157,-0.0276*
1,1,0.0354,-0.0157,0.0276*
%
%ADD98ROUNDEDRECTD98*%
%ADD99C,0.0630*%
%ADD100C,0.1734*%
%ADD101C,0.0580*%
%ADD102R,0.0671X0.0434*%
%ADD103R,0.0395X0.0434*%
%ADD104R,0.2245X0.0867*%
%ADD105R,0.0946X0.0950*%
%ADD106R,0.0867X0.2245*%
%ADD107O,0.0297X0.0730*%
%ADD108O,0.0730X0.0297*%
%ADD109O,0.0198X0.0789*%
%ADD110O,0.0789X0.0198*%
%ADD111C,0.0050*%
%ADD112C,0.0098*%
%ADD113C,0.0236*%
G54D31*
X22961Y6551D02*
Y9551D01*
X19361Y6551D02*
Y6951D01*
X18561D02*
X19361D01*
X18561Y6551D02*
Y6951D01*
X14961Y6551D02*
X22961D01*
X14961Y9551D02*
X22961D01*
X14961Y6551D02*
Y9551D01*
X-14961Y6551D02*
Y9551D01*
X-18561Y6551D02*
Y6951D01*
X-19361D02*
X-18561D01*
X-19361Y6551D02*
Y6951D01*
X-22961Y6551D02*
X-14961D01*
X-22961Y9551D02*
X-14961D01*
X-22961Y6551D02*
Y9551D01*
G54D32*
X-2165Y-9815D02*
G03*
X-2165Y-9815I-394J0D01*
G01*
X2953Y-10839D02*
G03*
X2953Y-10839I-394J0D01*
G01*
X-1277Y-5934D02*
G03*
X-1277Y-5934I-557J0D01*
G01*
X-9058Y-15419D02*
G03*
X-9058Y-15419I-557J0D01*
G01*
X4567Y-15536D02*
G03*
X4567Y-15536I-557J0D01*
G01*
X-6920Y20821D02*
G03*
X-6920Y20821I-2352J0D01*
G01*
X-2818Y-4949D02*
X-849D01*
X-2818Y-6918D02*
Y-4949D01*
Y-6918D02*
X-849D01*
Y-4949D01*
X-2818Y-6327D02*
X-2227Y-6918D01*
X-10319Y1486D02*
X-2319D01*
Y-1514D02*
Y1486D01*
X-10319Y-1514D02*
X-2319D01*
X-10319D02*
Y-514D01*
X-9819Y-14D01*
X-10319Y486D02*
X-9819Y-14D01*
X-10319Y486D02*
Y1486D01*
X-10599Y-16404D02*
X-8631D01*
Y-14435D01*
X-10599D02*
X-8631D01*
X-10599Y-16404D02*
Y-14435D01*
X-9221D02*
X-8631Y-15026D01*
X3026Y-16520D02*
X4994Y-16520D01*
X4994Y-14552D01*
X3026Y-14552D02*
X4994Y-14552D01*
X3026Y-16520D02*
X3026Y-14552D01*
X4404Y-14552D02*
X4994Y-15142D01*
X7907Y-10805D02*
X7407D01*
X7307Y-10705D01*
Y-10505D01*
X7407Y-10405D01*
X7907D01*
X7807Y-10205D02*
X7907Y-10105D01*
Y-9905D01*
X7807Y-9805D01*
X7707D01*
X7607Y-9905D01*
Y-10005D01*
Y-9905D01*
X7507Y-9805D01*
X7407D01*
X7307Y-9905D01*
Y-10105D01*
X7407Y-10205D01*
X7907Y-9605D02*
Y-9205D01*
X7807D01*
X7407Y-9605D01*
X7307D01*
X-7734Y-9886D02*
X-7234D01*
X-7134Y-9986D01*
Y-10186D01*
X-7234Y-10286D01*
X-7734D01*
X-7634Y-10485D02*
X-7734Y-10585D01*
Y-10785D01*
X-7634Y-10885D01*
X-7534D01*
X-7434Y-10785D01*
Y-10685D01*
Y-10785D01*
X-7334Y-10885D01*
X-7234D01*
X-7134Y-10785D01*
Y-10585D01*
X-7234Y-10485D01*
X-7734Y-11485D02*
Y-11085D01*
X-7434D01*
X-7534Y-11285D01*
Y-11385D01*
X-7434Y-11485D01*
X-7234D01*
X-7134Y-11385D01*
Y-11185D01*
X-7234Y-11085D01*
X-5092Y457D02*
Y-43D01*
X-5192Y-143D01*
X-5392D01*
X-5492Y-43D01*
Y457D01*
X-5692Y357D02*
X-5792Y457D01*
X-5991D01*
X-6091Y357D01*
Y257D01*
X-5991Y157D01*
X-5891D01*
X-5991D01*
X-6091Y57D01*
Y-43D01*
X-5991Y-143D01*
X-5792D01*
X-5692Y-43D01*
X-6291Y357D02*
X-6391Y457D01*
X-6591D01*
X-6691Y357D01*
Y257D01*
X-6591Y157D01*
X-6691Y57D01*
Y-43D01*
X-6591Y-143D01*
X-6391D01*
X-6291Y-43D01*
Y57D01*
X-6391Y157D01*
X-6291Y257D01*
Y357D01*
X-6391Y157D02*
X-6591D01*
X1075Y-15579D02*
X1575D01*
X1675Y-15679D01*
Y-15879D01*
X1575Y-15979D01*
X1075D01*
X1175Y-16179D02*
X1075Y-16279D01*
Y-16479D01*
X1175Y-16579D01*
X1275D01*
X1375Y-16479D01*
Y-16379D01*
Y-16479D01*
X1475Y-16579D01*
X1575D01*
X1675Y-16479D01*
Y-16279D01*
X1575Y-16179D01*
X1675Y-16779D02*
Y-16979D01*
Y-16879D01*
X1075D01*
X1175Y-16779D01*
X-11329Y-14612D02*
X-10829D01*
X-10729Y-14712D01*
Y-14912D01*
X-10829Y-15012D01*
X-11329D01*
X-11229Y-15212D02*
X-11329Y-15312D01*
Y-15512D01*
X-11229Y-15612D01*
X-11129D01*
X-11029Y-15512D01*
Y-15412D01*
Y-15512D01*
X-10929Y-15612D01*
X-10829D01*
X-10729Y-15512D01*
Y-15312D01*
X-10829Y-15212D01*
X-11229Y-15812D02*
X-11329Y-15912D01*
Y-16112D01*
X-11229Y-16211D01*
X-10829D01*
X-10729Y-16112D01*
Y-15912D01*
X-10829Y-15812D01*
X-11229D01*
X-3905Y-7727D02*
Y-7228D01*
X-3805Y-7128D01*
X-3605D01*
X-3505Y-7228D01*
Y-7727D01*
X-2905Y-7128D02*
X-3305D01*
X-2905Y-7527D01*
Y-7627D01*
X-3005Y-7727D01*
X-3205D01*
X-3305Y-7627D01*
X-2706Y-7228D02*
X-2606Y-7128D01*
X-2406D01*
X-2306Y-7228D01*
Y-7627D01*
X-2406Y-7727D01*
X-2606D01*
X-2706Y-7627D01*
Y-7527D01*
X-2606Y-7427D01*
X-2306D01*
X-2290Y-20532D02*
X-2789D01*
X-2889Y-20433D01*
Y-20233D01*
X-2789Y-20133D01*
X-2290D01*
X-2889Y-19533D02*
Y-19933D01*
X-2490Y-19533D01*
X-2390D01*
X-2290Y-19633D01*
Y-19833D01*
X-2390Y-19933D01*
X-2290Y-18933D02*
X-2390Y-19133D01*
X-2589Y-19333D01*
X-2789D01*
X-2889Y-19233D01*
Y-19033D01*
X-2789Y-18933D01*
X-2689D01*
X-2589Y-19033D01*
Y-19333D01*
X3767Y-20218D02*
Y-19718D01*
X3867Y-19618D01*
X4067D01*
X4167Y-19718D01*
Y-20218D01*
X4766Y-19618D02*
X4367D01*
X4766Y-20018D01*
Y-20118D01*
X4666Y-20218D01*
X4467D01*
X4367Y-20118D01*
X5366Y-20218D02*
X4966D01*
Y-19918D01*
X5166Y-20018D01*
X5266D01*
X5366Y-19918D01*
Y-19718D01*
X5266Y-19618D01*
X5066D01*
X4966Y-19718D01*
X-3753Y-22181D02*
Y-21681D01*
X-3653Y-21581D01*
X-3453D01*
X-3353Y-21681D01*
Y-22181D01*
X-2753Y-21581D02*
X-3153D01*
X-2753Y-21981D01*
Y-22081D01*
X-2853Y-22181D01*
X-3053D01*
X-3153Y-22081D01*
X-2254Y-21581D02*
Y-22181D01*
X-2554Y-21881D01*
X-2154D01*
X4586Y-21727D02*
Y-21227D01*
X4686Y-21127D01*
X4886D01*
X4986Y-21227D01*
Y-21727D01*
X5586Y-21127D02*
X5186D01*
X5586Y-21527D01*
Y-21627D01*
X5486Y-21727D01*
X5286D01*
X5186Y-21627D01*
X5786D02*
X5886Y-21727D01*
X6086D01*
X6186Y-21627D01*
Y-21527D01*
X6086Y-21427D01*
X5986D01*
X6086D01*
X6186Y-21327D01*
Y-21227D01*
X6086Y-21127D01*
X5886D01*
X5786Y-21227D01*
X-4488Y-18734D02*
Y-18135D01*
X-4787D01*
X-4887Y-18235D01*
Y-18435D01*
X-4787Y-18535D01*
X-4488D01*
X-4688D02*
X-4887Y-18734D01*
X-5087Y-18235D02*
X-5187Y-18135D01*
X-5387D01*
X-5487Y-18235D01*
Y-18335D01*
X-5387Y-18435D01*
X-5287D01*
X-5387D01*
X-5487Y-18535D01*
Y-18634D01*
X-5387Y-18734D01*
X-5187D01*
X-5087Y-18634D01*
X-6087Y-18734D02*
X-5687D01*
X-6087Y-18335D01*
Y-18235D01*
X-5987Y-18135D01*
X-5787D01*
X-5687Y-18235D01*
X3602Y-17485D02*
X3002D01*
Y-17785D01*
X3102Y-17885D01*
X3302D01*
X3402Y-17785D01*
Y-17485D01*
Y-17685D02*
X3602Y-17885D01*
X3102Y-18085D02*
X3002Y-18185D01*
Y-18385D01*
X3102Y-18485D01*
X3202D01*
X3302Y-18385D01*
Y-18285D01*
Y-18385D01*
X3402Y-18485D01*
X3502D01*
X3602Y-18385D01*
Y-18185D01*
X3502Y-18085D01*
X3602Y-18685D02*
Y-18885D01*
Y-18785D01*
X3002D01*
X3102Y-18685D01*
X-5345Y-19253D02*
X-5945D01*
Y-19553D01*
X-5845Y-19653D01*
X-5645D01*
X-5545Y-19553D01*
Y-19253D01*
Y-19453D02*
X-5345Y-19653D01*
X-5845Y-19853D02*
X-5945Y-19953D01*
Y-20153D01*
X-5845Y-20253D01*
X-5745D01*
X-5645Y-20153D01*
Y-20053D01*
Y-20153D01*
X-5545Y-20253D01*
X-5445D01*
X-5345Y-20153D01*
Y-19953D01*
X-5445Y-19853D01*
X-5845Y-20453D02*
X-5945Y-20553D01*
Y-20753D01*
X-5845Y-20853D01*
X-5445D01*
X-5345Y-20753D01*
Y-20553D01*
X-5445Y-20453D01*
X-5845D01*
X1975Y-20581D02*
Y-21181D01*
X2275D01*
X2374Y-21081D01*
Y-20881D01*
X2275Y-20781D01*
X1975D01*
X2175D02*
X2374Y-20581D01*
X2974D02*
X2574D01*
X2974Y-20981D01*
Y-21081D01*
X2874Y-21181D01*
X2674D01*
X2574Y-21081D01*
X3174Y-20681D02*
X3274Y-20581D01*
X3474D01*
X3574Y-20681D01*
Y-21081D01*
X3474Y-21181D01*
X3274D01*
X3174Y-21081D01*
Y-20981D01*
X3274Y-20881D01*
X3574D01*
X-2865Y-17131D02*
Y-16531D01*
X-3165D01*
X-3265Y-16631D01*
Y-16831D01*
X-3165Y-16931D01*
X-2865D01*
X-3065D02*
X-3265Y-17131D01*
X-3865D02*
X-3465D01*
X-3865Y-16731D01*
Y-16631D01*
X-3765Y-16531D01*
X-3565D01*
X-3465Y-16631D01*
X-4065D02*
X-4165Y-16531D01*
X-4364D01*
X-4464Y-16631D01*
Y-16731D01*
X-4364Y-16831D01*
X-4464Y-16931D01*
Y-17031D01*
X-4364Y-17131D01*
X-4165D01*
X-4065Y-17031D01*
Y-16931D01*
X-4165Y-16831D01*
X-4065Y-16731D01*
Y-16631D01*
X-4165Y-16831D02*
X-4364D01*
X4660Y-16829D02*
Y-17428D01*
X4960D01*
X5060Y-17328D01*
Y-17128D01*
X4960Y-17028D01*
X4660D01*
X4860D02*
X5060Y-16829D01*
X5660D02*
X5260D01*
X5660Y-17228D01*
Y-17328D01*
X5560Y-17428D01*
X5360D01*
X5260Y-17328D01*
X5860Y-17428D02*
X6260D01*
Y-17328D01*
X5860Y-16929D01*
Y-16829D01*
X-1166Y-3399D02*
X-1066Y-3299D01*
X-866D01*
X-766Y-3399D01*
Y-3799D01*
X-866Y-3899D01*
X-1066D01*
X-1166Y-3799D01*
X-1366Y-3899D02*
X-1566D01*
X-1466D01*
Y-3299D01*
X-1366Y-3399D01*
X-1866D02*
X-1966Y-3299D01*
X-2166D01*
X-2266Y-3399D01*
Y-3499D01*
X-2166Y-3599D01*
X-2066D01*
X-2166D01*
X-2266Y-3699D01*
Y-3799D01*
X-2166Y-3899D01*
X-1966D01*
X-1866Y-3799D01*
X-9845Y-17953D02*
X-9945Y-18053D01*
X-10145D01*
X-10245Y-17953D01*
Y-17553D01*
X-10145Y-17453D01*
X-9945D01*
X-9845Y-17553D01*
X-9645Y-17453D02*
X-9446D01*
X-9546D01*
Y-18053D01*
X-9645Y-17953D01*
X-9146D02*
X-9046Y-18053D01*
X-8846D01*
X-8746Y-17953D01*
Y-17553D01*
X-8846Y-17453D01*
X-9046D01*
X-9146Y-17553D01*
Y-17953D01*
X6714Y-16497D02*
X6614Y-16597D01*
X6414D01*
X6314Y-16497D01*
Y-16097D01*
X6414Y-15997D01*
X6614D01*
X6714Y-16097D01*
X6914D02*
X7014Y-15997D01*
X7214D01*
X7314Y-16097D01*
Y-16497D01*
X7214Y-16597D01*
X7014D01*
X6914Y-16497D01*
Y-16397D01*
X7014Y-16297D01*
X7314D01*
X-8629Y21693D02*
X-8029D01*
Y21394D01*
X-8129Y21294D01*
X-8229D01*
X-8329Y21394D01*
Y21693D01*
Y21394D01*
X-8429Y21294D01*
X-8529D01*
X-8629Y21394D01*
Y21693D01*
X-8429Y21094D02*
X-8129D01*
X-8029Y20994D01*
Y20694D01*
X-8429D01*
Y20494D02*
Y20094D01*
X-8029Y20494D01*
Y20094D01*
X-8429Y19894D02*
Y19494D01*
X-8029Y19894D01*
Y19494D01*
X-6932Y8038D02*
X-7332Y7438D01*
Y8038D02*
X-6932Y7438D01*
X-7932D02*
X-7532D01*
X-7932Y7838D01*
Y7938D01*
X-7832Y8038D01*
X-7632D01*
X-7532Y7938D01*
X4499Y-20D02*
X4099Y-619D01*
Y-20D02*
X4499Y-619D01*
X3899D02*
X3699D01*
X3799D01*
Y-20D01*
X3899Y-120D01*
X5813Y-6663D02*
Y-7163D01*
X5713Y-7263D01*
X5513D01*
X5413Y-7163D01*
Y-6663D01*
X4913Y-7263D02*
Y-6663D01*
X5213Y-6963D01*
X4814D01*
X4614Y-6763D02*
X4514Y-6663D01*
X4314D01*
X4214Y-6763D01*
Y-7163D01*
X4314Y-7263D01*
X4514D01*
X4614Y-7163D01*
Y-6763D01*
X-7886Y5692D02*
Y5092D01*
X-7586D01*
X-7486Y5192D01*
Y5392D01*
X-7586Y5492D01*
X-7886D01*
X-7686D02*
X-7486Y5692D01*
X-6886Y5092D02*
X-7286D01*
Y5392D01*
X-7086Y5292D01*
X-6986D01*
X-6886Y5392D01*
Y5592D01*
X-6986Y5692D01*
X-7186D01*
X-7286Y5592D01*
X-6686Y5192D02*
X-6586Y5092D01*
X-6387D01*
X-6287Y5192D01*
Y5592D01*
X-6387Y5692D01*
X-6586D01*
X-6686Y5592D01*
Y5192D01*
X-9210Y3373D02*
X-8610D01*
Y3673D01*
X-8710Y3773D01*
X-8910D01*
X-9010Y3673D01*
Y3373D01*
Y3573D02*
X-9210Y3773D01*
Y4273D02*
X-8610D01*
X-8910Y3973D01*
Y4373D01*
X-9110Y4573D02*
X-9210Y4673D01*
Y4873D01*
X-9110Y4973D01*
X-8710D01*
X-8610Y4873D01*
Y4673D01*
X-8710Y4573D01*
X-8810D01*
X-8910Y4673D01*
Y4973D01*
X1072Y-14570D02*
Y-15169D01*
X1372D01*
X1472Y-15069D01*
Y-14870D01*
X1372Y-14770D01*
X1072D01*
X1272D02*
X1472Y-14570D01*
X1971D02*
Y-15169D01*
X1671Y-14870D01*
X2071D01*
X2271Y-15069D02*
X2371Y-15169D01*
X2571D01*
X2671Y-15069D01*
Y-14970D01*
X2571Y-14870D01*
X2671Y-14770D01*
Y-14670D01*
X2571Y-14570D01*
X2371D01*
X2271Y-14670D01*
Y-14770D01*
X2371Y-14870D01*
X2271Y-14970D01*
Y-15069D01*
X2371Y-14870D02*
X2571D01*
X-12707Y4742D02*
X-13306D01*
Y4442D01*
X-13206Y4342D01*
X-13006D01*
X-12906Y4442D01*
Y4742D01*
Y4542D02*
X-12707Y4342D01*
Y3842D02*
X-13306D01*
X-13006Y4142D01*
Y3742D01*
X-13306Y3542D02*
Y3142D01*
X-13206D01*
X-12807Y3542D01*
X-12707D01*
X1681Y-6666D02*
Y-6067D01*
X1381D01*
X1281Y-6166D01*
Y-6366D01*
X1381Y-6466D01*
X1681D01*
X1481D02*
X1281Y-6666D01*
X781D02*
Y-6067D01*
X1081Y-6366D01*
X681D01*
X181Y-6666D02*
Y-6067D01*
X481Y-6366D01*
X81D01*
X10184Y-3628D02*
X10784D01*
Y-3328D01*
X10684Y-3228D01*
X10484D01*
X10384Y-3328D01*
Y-3628D01*
Y-3428D02*
X10184Y-3228D01*
Y-2729D02*
X10784D01*
X10484Y-3028D01*
Y-2629D01*
X10684Y-2429D02*
X10784Y-2329D01*
Y-2129D01*
X10684Y-2029D01*
X10584D01*
X10484Y-2129D01*
Y-2229D01*
Y-2129D01*
X10384Y-2029D01*
X10284D01*
X10184Y-2129D01*
Y-2329D01*
X10284Y-2429D01*
X9429Y-2243D02*
Y-1643D01*
X9129D01*
X9029Y-1743D01*
Y-1943D01*
X9129Y-2043D01*
X9429D01*
X9229D02*
X9029Y-2243D01*
X8529D02*
Y-1643D01*
X8829Y-1943D01*
X8429D01*
X7829Y-2243D02*
X8229D01*
X7829Y-1843D01*
Y-1743D01*
X7929Y-1643D01*
X8129D01*
X8229Y-1743D01*
X-741Y-8498D02*
Y-9098D01*
X-441D01*
X-341Y-8998D01*
Y-8798D01*
X-441Y-8698D01*
X-741D01*
X-541D02*
X-341Y-8498D01*
X159D02*
Y-9098D01*
X-141Y-8798D01*
X259D01*
X459Y-8498D02*
X659D01*
X559D01*
Y-9098D01*
X459Y-8998D01*
X2001Y546D02*
X1401D01*
Y246D01*
X1501Y146D01*
X1701D01*
X1801Y246D01*
Y546D01*
Y346D02*
X2001Y146D01*
Y-353D02*
X1401D01*
X1701Y-54D01*
Y-453D01*
X1501Y-653D02*
X1401Y-753D01*
Y-953D01*
X1501Y-1053D01*
X1901D01*
X2001Y-953D01*
Y-753D01*
X1901Y-653D01*
X1501D01*
X10031Y15418D02*
X10631D01*
Y15718D01*
X10531Y15818D01*
X10331D01*
X10231Y15718D01*
Y15418D01*
Y15618D02*
X10031Y15818D01*
X10531Y16018D02*
X10631Y16118D01*
Y16318D01*
X10531Y16418D01*
X10431D01*
X10331Y16318D01*
Y16218D01*
Y16318D01*
X10231Y16418D01*
X10131D01*
X10031Y16318D01*
Y16118D01*
X10131Y16018D01*
Y16618D02*
X10031Y16718D01*
Y16918D01*
X10131Y17018D01*
X10531D01*
X10631Y16918D01*
Y16718D01*
X10531Y16618D01*
X10431D01*
X10331Y16718D01*
Y17018D01*
X-2826Y11587D02*
Y12186D01*
X-3125D01*
X-3225Y12087D01*
Y11887D01*
X-3125Y11787D01*
X-2826D01*
X-3425Y12186D02*
Y11887D01*
X-3525Y11787D01*
X-3825D01*
Y12186D01*
X-4025Y11787D02*
X-4225D01*
X-4125D01*
Y12386D01*
X-4025D01*
X-4525Y11787D02*
X-4725D01*
X-4625D01*
Y12386D01*
X-4525D01*
X-5025D02*
Y11887D01*
X-5125Y11787D01*
X-5325D01*
X-5425Y11887D01*
Y12386D01*
X-5625Y11587D02*
Y12186D01*
X-5925D01*
X-6025Y12087D01*
Y11887D01*
X-5925Y11787D01*
X-5625D01*
X-6624Y12286D02*
X-6524Y12386D01*
X-6324D01*
X-6224Y12286D01*
Y12186D01*
X-6324Y12087D01*
X-6524D01*
X-6624Y11987D01*
Y11887D01*
X-6524Y11787D01*
X-6324D01*
X-6224Y11887D01*
X-6824Y12386D02*
Y11787D01*
X-7124D01*
X-7224Y11887D01*
Y12286D01*
X-7124Y12386D01*
X-6824D01*
X-7424Y11787D02*
Y12186D01*
X-7624Y12386D01*
X-7824Y12186D01*
Y11787D01*
Y12087D01*
X-7424D01*
X-2451Y9933D02*
Y10532D01*
X-2750D01*
X-2850Y10432D01*
Y10232D01*
X-2750Y10132D01*
X-2451D01*
X-3050Y10532D02*
Y10232D01*
X-3150Y10132D01*
X-3450D01*
Y10532D01*
X-3650Y10132D02*
X-3850D01*
X-3750D01*
Y10732D01*
X-3650D01*
X-4150Y10132D02*
X-4350D01*
X-4250D01*
Y10732D01*
X-4150D01*
X-4650D02*
Y10232D01*
X-4750Y10132D01*
X-4950D01*
X-5050Y10232D01*
Y10732D01*
X-5250Y9933D02*
Y10532D01*
X-5550D01*
X-5650Y10432D01*
Y10232D01*
X-5550Y10132D01*
X-5250D01*
X-6249Y10632D02*
X-6149Y10732D01*
X-5949D01*
X-5849Y10632D01*
Y10532D01*
X-5949Y10432D01*
X-6149D01*
X-6249Y10332D01*
Y10232D01*
X-6149Y10132D01*
X-5949D01*
X-5849Y10232D01*
X-6849Y10632D02*
X-6749Y10732D01*
X-6549D01*
X-6449Y10632D01*
Y10232D01*
X-6549Y10132D01*
X-6749D01*
X-6849Y10232D01*
X-7049Y10732D02*
Y10132D01*
X-7449D01*
X6203Y4321D02*
Y4921D01*
X6003Y4721D01*
X5803Y4921D01*
Y4321D01*
X5603D02*
X5403D01*
X5503D01*
Y4721D01*
X5603D01*
X4703D02*
X5003D01*
X5103Y4621D01*
Y4421D01*
X5003Y4321D01*
X4703D01*
X4503Y4721D02*
Y4321D01*
Y4521D01*
X4404Y4621D01*
X4304Y4721D01*
X4204D01*
X3804Y4321D02*
X3604D01*
X3504Y4421D01*
Y4621D01*
X3604Y4721D01*
X3804D01*
X3904Y4621D01*
Y4421D01*
X3804Y4321D01*
X2904Y4821D02*
X3004Y4921D01*
X3204D01*
X3304Y4821D01*
Y4421D01*
X3204Y4321D01*
X3004D01*
X2904Y4421D01*
X2604Y4321D02*
X2404D01*
X2304Y4421D01*
Y4621D01*
X2404Y4721D01*
X2604D01*
X2704Y4621D01*
Y4421D01*
X2604Y4321D01*
X2104D02*
Y4721D01*
X1804D01*
X1704Y4621D01*
Y4321D01*
X1405Y4821D02*
Y4721D01*
X1504D01*
X1305D01*
X1405D01*
Y4421D01*
X1305Y4321D01*
X1005Y4721D02*
Y4321D01*
Y4521D01*
X905Y4621D01*
X805Y4721D01*
X705D01*
X305Y4321D02*
X105D01*
X5Y4421D01*
Y4621D01*
X105Y4721D01*
X305D01*
X405Y4621D01*
Y4421D01*
X305Y4321D01*
X-195D02*
X-395D01*
X-295D01*
Y4921D01*
X-195D01*
X-695Y4321D02*
X-895D01*
X-795D01*
Y4921D01*
X-695D01*
X-1495Y4321D02*
X-1295D01*
X-1195Y4421D01*
Y4621D01*
X-1295Y4721D01*
X-1495D01*
X-1595Y4621D01*
Y4521D01*
X-1195D01*
X-1794Y4721D02*
Y4321D01*
Y4521D01*
X-1894Y4621D01*
X-1994Y4721D01*
X-2094D01*
X-2394Y4321D02*
X-2594D01*
X-2494D01*
Y4921D01*
X-2394Y4821D01*
X7678Y14051D02*
Y14651D01*
X8078D01*
X8278Y14051D02*
Y14651D01*
X8578D01*
X8678Y14551D01*
Y14151D01*
X8578Y14051D01*
X8278D01*
X9278Y14651D02*
X8878D01*
X9278Y14251D01*
Y14151D01*
X9178Y14051D01*
X8978D01*
X8878Y14151D01*
X-13363Y10460D02*
X-13263Y10560D01*
X-13063D01*
X-12963Y10460D01*
Y10060D01*
X-13063Y9960D01*
X-13263D01*
X-13363Y10060D01*
X-13663Y9960D02*
X-13863D01*
X-13963Y10060D01*
Y10260D01*
X-13863Y10360D01*
X-13663D01*
X-13563Y10260D01*
Y10060D01*
X-13663Y9960D01*
X-14163D02*
Y10360D01*
X-14463D01*
X-14563Y10260D01*
Y9960D01*
X-14763D02*
Y10360D01*
X-15063D01*
X-15163Y10260D01*
Y9960D01*
X-15663D02*
X-15463D01*
X-15363Y10060D01*
Y10260D01*
X-15463Y10360D01*
X-15663D01*
X-15762Y10260D01*
Y10160D01*
X-15363D01*
X-16362Y10360D02*
X-16062D01*
X-15962Y10260D01*
Y10060D01*
X-16062Y9960D01*
X-16362D01*
X-16662Y10460D02*
Y10360D01*
X-16562D01*
X-16762D01*
X-16662D01*
Y10060D01*
X-16762Y9960D01*
X-17362D02*
X-17162D01*
X-17062Y10060D01*
Y10260D01*
X-17162Y10360D01*
X-17362D01*
X-17462Y10260D01*
Y10160D01*
X-17062D01*
X-17662Y10360D02*
Y10060D01*
X-17762Y9960D01*
X-18062D01*
Y10360D01*
X-18262D02*
Y9960D01*
Y10160D01*
X-18362Y10260D01*
X-18462Y10360D01*
X-18562D01*
X-18861Y9960D02*
X-19061D01*
X-18961D01*
Y10560D01*
X-18861Y10460D01*
X-19361Y10260D02*
X-19761D01*
X-19961Y9960D02*
X-20161D01*
X-20061D01*
Y10560D01*
X-19961Y10460D01*
X-20461D02*
X-20561Y10560D01*
X-20761D01*
X-20861Y10460D01*
Y10060D01*
X-20761Y9960D01*
X-20561D01*
X-20461Y10060D01*
Y10460D01*
X-21661Y10560D02*
Y9960D01*
X-22060D01*
X-22560D02*
X-22360D01*
X-22260Y10060D01*
Y10260D01*
X-22360Y10360D01*
X-22560D01*
X-22660Y10260D01*
Y10160D01*
X-22260D01*
X-22960Y9960D02*
Y10460D01*
Y10260D01*
X-22860D01*
X-23060D01*
X-22960D01*
Y10460D01*
X-23060Y10560D01*
X-23460Y10460D02*
Y10360D01*
X-23360D01*
X-23560D01*
X-23460D01*
Y10060D01*
X-23560Y9960D01*
X22860Y5855D02*
X22960Y5955D01*
X23159D01*
X23259Y5855D01*
Y5455D01*
X23159Y5355D01*
X22960D01*
X22860Y5455D01*
X22560Y5355D02*
X22360D01*
X22260Y5455D01*
Y5655D01*
X22360Y5755D01*
X22560D01*
X22660Y5655D01*
Y5455D01*
X22560Y5355D01*
X22060D02*
Y5755D01*
X21760D01*
X21660Y5655D01*
Y5355D01*
X21460D02*
Y5755D01*
X21160D01*
X21060Y5655D01*
Y5355D01*
X20560D02*
X20760D01*
X20860Y5455D01*
Y5655D01*
X20760Y5755D01*
X20560D01*
X20460Y5655D01*
Y5555D01*
X20860D01*
X19861Y5755D02*
X20160D01*
X20260Y5655D01*
Y5455D01*
X20160Y5355D01*
X19861D01*
X19561Y5855D02*
Y5755D01*
X19661D01*
X19461D01*
X19561D01*
Y5455D01*
X19461Y5355D01*
X18861D02*
X19061D01*
X19161Y5455D01*
Y5655D01*
X19061Y5755D01*
X18861D01*
X18761Y5655D01*
Y5555D01*
X19161D01*
X18561Y5755D02*
Y5455D01*
X18461Y5355D01*
X18161D01*
Y5755D01*
X17961D02*
Y5355D01*
Y5555D01*
X17861Y5655D01*
X17761Y5755D01*
X17661D01*
X16762Y5355D02*
X16562D01*
X16662D01*
Y5955D01*
X16762Y5855D01*
X16262Y5355D02*
X16062D01*
X16162D01*
Y5955D01*
X16262Y5855D01*
X15762Y5655D02*
X15362D01*
X14762Y5355D02*
X15162D01*
X14762Y5755D01*
Y5855D01*
X14862Y5955D01*
X15062D01*
X15162Y5855D01*
X14562D02*
X14462Y5955D01*
X14262D01*
X14162Y5855D01*
Y5455D01*
X14262Y5355D01*
X14462D01*
X14562Y5455D01*
Y5855D01*
X12763Y5355D02*
Y5955D01*
X12463D01*
X12363Y5855D01*
Y5655D01*
X12463Y5555D01*
X12763D01*
X12563D02*
X12363Y5355D01*
X12163D02*
X11963D01*
X12063D01*
Y5755D01*
X12163D01*
X11463Y5155D02*
X11363D01*
X11263Y5255D01*
Y5755D01*
X11563D01*
X11663Y5655D01*
Y5455D01*
X11563Y5355D01*
X11263D01*
X11063Y5955D02*
Y5355D01*
Y5655D01*
X10963Y5755D01*
X10763D01*
X10664Y5655D01*
Y5355D01*
X10364Y5855D02*
Y5755D01*
X10464D01*
X10264D01*
X10364D01*
Y5455D01*
X10264Y5355D01*
X-951Y-15354D02*
Y-14754D01*
X-651D01*
X-551Y-14854D01*
Y-15254D01*
X-651Y-15354D01*
X-951D01*
X-351Y-14754D02*
X-151D01*
X-251D01*
Y-15354D01*
X-351Y-15254D01*
X148D02*
X248Y-15354D01*
X448D01*
X548Y-15254D01*
Y-15154D01*
X448Y-15054D01*
X348D01*
X448D01*
X548Y-14954D01*
Y-14854D01*
X448Y-14754D01*
X248D01*
X148Y-14854D01*
X-11539Y6916D02*
Y6316D01*
X-11839D01*
X-11939Y6416D01*
Y6816D01*
X-11839Y6916D01*
X-11539D01*
X-12139Y6316D02*
X-12339D01*
X-12239D01*
Y6916D01*
X-12139Y6816D01*
X-13038Y6316D02*
X-12638D01*
X-13038Y6716D01*
Y6816D01*
X-12938Y6916D01*
X-12738D01*
X-12638Y6816D01*
X-5538Y4324D02*
X-5638Y4224D01*
X-5838D01*
X-5938Y4324D01*
Y4724D01*
X-5838Y4824D01*
X-5638D01*
X-5538Y4724D01*
X-4938Y4824D02*
X-5338D01*
X-4938Y4424D01*
Y4324D01*
X-5038Y4224D01*
X-5238D01*
X-5338Y4324D01*
X-4738D02*
X-4638Y4224D01*
X-4438D01*
X-4339Y4324D01*
Y4424D01*
X-4438Y4524D01*
X-4339Y4624D01*
Y4724D01*
X-4438Y4824D01*
X-4638D01*
X-4738Y4724D01*
Y4624D01*
X-4638Y4524D01*
X-4738Y4424D01*
Y4324D01*
X-4638Y4524D02*
X-4438D01*
X-9985Y6372D02*
X-10085Y6472D01*
Y6672D01*
X-9985Y6772D01*
X-9585D01*
X-9485Y6672D01*
Y6472D01*
X-9585Y6372D01*
X-9485Y5772D02*
Y6172D01*
X-9885Y5772D01*
X-9985D01*
X-10085Y5872D01*
Y6072D01*
X-9985Y6172D01*
X-10085Y5572D02*
Y5172D01*
X-9985D01*
X-9585Y5572D01*
X-9485D01*
X7597Y10666D02*
X7697Y10566D01*
Y10366D01*
X7597Y10266D01*
X7197D01*
X7097Y10366D01*
Y10566D01*
X7197Y10666D01*
X7097Y11265D02*
Y10866D01*
X7497Y11265D01*
X7597D01*
X7697Y11166D01*
Y10966D01*
X7597Y10866D01*
X7697Y11865D02*
X7597Y11665D01*
X7397Y11465D01*
X7197D01*
X7097Y11565D01*
Y11765D01*
X7197Y11865D01*
X7297D01*
X7397Y11765D01*
Y11465D01*
X-11102Y2685D02*
X-11202Y2585D01*
X-11402D01*
X-11502Y2685D01*
Y3085D01*
X-11402Y3185D01*
X-11202D01*
X-11102Y3085D01*
X-10503Y3185D02*
X-10903D01*
X-10503Y2785D01*
Y2685D01*
X-10603Y2585D01*
X-10803D01*
X-10903Y2685D01*
X-9903Y2585D02*
X-10303D01*
Y2885D01*
X-10103Y2785D01*
X-10003D01*
X-9903Y2885D01*
Y3085D01*
X-10003Y3185D01*
X-10203D01*
X-10303Y3085D01*
X2093Y-9037D02*
X1993Y-9137D01*
X1793D01*
X1693Y-9037D01*
Y-8637D01*
X1793Y-8537D01*
X1993D01*
X2093Y-8637D01*
X2693Y-8537D02*
X2293D01*
X2693Y-8937D01*
Y-9037D01*
X2593Y-9137D01*
X2393D01*
X2293Y-9037D01*
X3193Y-8537D02*
Y-9137D01*
X2893Y-8837D01*
X3293D01*
X2170Y-4233D02*
X2070Y-4332D01*
X1870D01*
X1770Y-4233D01*
Y-3833D01*
X1870Y-3733D01*
X2070D01*
X2170Y-3833D01*
X2770Y-3733D02*
X2370D01*
X2770Y-4133D01*
Y-4233D01*
X2670Y-4332D01*
X2470D01*
X2370Y-4233D01*
X2970D02*
X3070Y-4332D01*
X3270D01*
X3370Y-4233D01*
Y-4133D01*
X3270Y-4033D01*
X3170D01*
X3270D01*
X3370Y-3933D01*
Y-3833D01*
X3270Y-3733D01*
X3070D01*
X2970Y-3833D01*
X2408Y2404D02*
X2508Y2504D01*
X2708D01*
X2808Y2404D01*
Y2004D01*
X2708Y1904D01*
X2508D01*
X2408Y2004D01*
X1808Y1904D02*
X2208D01*
X1808Y2304D01*
Y2404D01*
X1908Y2504D01*
X2108D01*
X2208Y2404D01*
X1208Y1904D02*
X1608D01*
X1208Y2304D01*
Y2404D01*
X1308Y2504D01*
X1508D01*
X1608Y2404D01*
X2306Y-1388D02*
X2406Y-1288D01*
X2606D01*
X2706Y-1388D01*
Y-1788D01*
X2606Y-1888D01*
X2406D01*
X2306Y-1788D01*
X1706Y-1888D02*
X2106D01*
X1706Y-1488D01*
Y-1388D01*
X1806Y-1288D01*
X2006D01*
X2106Y-1388D01*
X1506Y-1888D02*
X1306D01*
X1406D01*
Y-1288D01*
X1506Y-1388D01*
X7619Y17607D02*
X7719Y17707D01*
X7919D01*
X8019Y17607D01*
Y17207D01*
X7919Y17107D01*
X7719D01*
X7619Y17207D01*
X7020Y17107D02*
X7419D01*
X7020Y17507D01*
Y17607D01*
X7120Y17707D01*
X7320D01*
X7419Y17607D01*
X6820D02*
X6720Y17707D01*
X6520D01*
X6420Y17607D01*
Y17207D01*
X6520Y17107D01*
X6720D01*
X6820Y17207D01*
Y17607D01*
X1090Y19833D02*
X1418Y20161D01*
X2074D01*
X2402Y19833D01*
Y18521D01*
X2074Y18193D01*
X1418D01*
X1090Y18521D01*
X-877Y20161D02*
X434D01*
Y19177D01*
X-221D01*
X434D01*
Y18193D01*
X3245Y21047D02*
X3345Y21147D01*
X3545D01*
X3645Y21047D01*
Y20947D01*
X3545Y20847D01*
X3345D01*
X3245Y20747D01*
Y20647D01*
X3345Y20547D01*
X3545D01*
X3645Y20647D01*
X2645Y21047D02*
X2745Y21147D01*
X2945D01*
X3045Y21047D01*
Y20647D01*
X2945Y20547D01*
X2745D01*
X2645Y20647D01*
X2045Y21047D02*
X2145Y21147D01*
X2345D01*
X2445Y21047D01*
Y20947D01*
X2345Y20847D01*
X2145D01*
X2045Y20747D01*
Y20647D01*
X2145Y20547D01*
X2345D01*
X2445Y20647D01*
X1445Y21147D02*
X1845D01*
Y20847D01*
X1645D01*
X1845D01*
Y20547D01*
X1245Y21147D02*
X846D01*
X1046D01*
Y20547D01*
X646Y21147D02*
Y20547D01*
X246D01*
X46D02*
Y21147D01*
X-154Y20947D01*
X-354Y21147D01*
Y20547D01*
X-554Y21147D02*
Y20547D01*
X-954D01*
X-1554Y21147D02*
X-1154D01*
Y20847D01*
X-1354D01*
X-1154D01*
Y20547D01*
X-9722Y22321D02*
Y21921D01*
X-9922Y22121D02*
X-9522D01*
G54D65*
X-1065Y-4002D02*
X-615D01*
Y-4602D02*
Y-4002D01*
X-1915Y-4602D02*
X-1465D01*
X-1915D02*
Y-4002D01*
X-1465D01*
X-1065Y-4602D02*
X-615D01*
X4630Y-17595D02*
X5080D01*
Y-18195D02*
Y-17595D01*
X3780Y-18195D02*
X4230D01*
X3780D02*
Y-17595D01*
X4230D01*
X4630Y-18195D02*
X5080D01*
X2099Y-20280D02*
X2549D01*
X2099D02*
Y-19680D01*
X2949D02*
X3399D01*
Y-20280D02*
Y-19680D01*
X2949Y-20280D02*
X3399D01*
X2099Y-19680D02*
X2549D01*
X3155Y-17256D02*
X3605D01*
X3155D02*
Y-16657D01*
X4005D02*
X4455D01*
Y-17256D02*
Y-16657D01*
X4005Y-17256D02*
X4455D01*
X3155Y-16657D02*
X3605D01*
X-3365Y-18184D02*
X-2915D01*
Y-18784D02*
Y-18184D01*
X-4215Y-18784D02*
X-3765D01*
X-4215D02*
Y-18184D01*
X-3765D01*
X-3365Y-18784D02*
X-2915D01*
X-5021Y-19600D02*
Y-19150D01*
X-4421D01*
Y-20450D02*
Y-20000D01*
X-5021Y-20450D02*
X-4421D01*
X-5021D02*
Y-20000D01*
X-4421Y-19600D02*
Y-19150D01*
X-4202Y-17924D02*
X-3752D01*
X-4202D02*
Y-17324D01*
X-3352D02*
X-2902D01*
Y-17924D02*
Y-17324D01*
X-3352Y-17924D02*
X-2902D01*
X-4202Y-17324D02*
X-3752D01*
X2172Y-4999D02*
Y-4549D01*
X2772D01*
Y-5849D02*
Y-5399D01*
X2172Y-5849D02*
X2772D01*
X2172D02*
Y-5399D01*
X2772Y-4999D02*
Y-4549D01*
X2029Y-7318D02*
Y-6868D01*
X2629D01*
Y-8168D02*
Y-7718D01*
X2029Y-8168D02*
X2629D01*
X2029D02*
Y-7718D01*
X2629Y-7318D02*
Y-6868D01*
X133Y-7349D02*
Y-6899D01*
X733D01*
Y-8199D02*
Y-7749D01*
X133Y-8199D02*
X733D01*
X133D02*
Y-7749D01*
X733Y-7349D02*
Y-6899D01*
X10008Y-3754D02*
Y-3304D01*
X9408Y-3754D02*
X10008D01*
X9408Y-2904D02*
Y-2454D01*
X10008D01*
Y-2904D02*
Y-2454D01*
X9408Y-3754D02*
Y-3304D01*
X1689Y-8200D02*
Y-7750D01*
X1089Y-8200D02*
X1689D01*
X1089Y-7350D02*
Y-6900D01*
X1689D01*
Y-7350D02*
Y-6900D01*
X1089Y-8200D02*
Y-7750D01*
X9062Y-3714D02*
Y-3264D01*
X8462Y-3714D02*
X9062D01*
X8462Y-2864D02*
Y-2414D01*
X9062D01*
Y-2864D02*
Y-2414D01*
X8462Y-3714D02*
Y-3264D01*
X8347Y14962D02*
X8797D01*
X7497Y15562D02*
X7947D01*
X7497Y14962D02*
Y15562D01*
Y14962D02*
X7947D01*
X8797D02*
Y15562D01*
X8347D02*
X8797D01*
X9747Y15264D02*
Y15714D01*
X9147Y15264D02*
X9747D01*
X9147Y16114D02*
Y16564D01*
X9747D01*
Y16114D02*
Y16564D01*
X9147Y15264D02*
Y15714D01*
X7530Y16256D02*
X7980D01*
X7530D02*
Y16856D01*
X8380D02*
X8830D01*
Y16256D02*
Y16856D01*
X8380Y16256D02*
X8830D01*
X7530Y16856D02*
X7980D01*
X2445Y-2056D02*
X2895D01*
Y-2656D02*
Y-2056D01*
X1595Y-2656D02*
X2045D01*
X1595D02*
Y-2056D01*
X2045D01*
X2445Y-2656D02*
X2895D01*
X2445Y1623D02*
X2895D01*
Y1023D02*
Y1623D01*
X1595Y1023D02*
X2045D01*
X1595D02*
Y1623D01*
X2045D01*
X2445Y1023D02*
X2895D01*
X-5529Y10866D02*
X-5079D01*
X-5529D02*
Y11466D01*
X-4679D02*
X-4229D01*
Y10866D02*
Y11466D01*
X-4679Y10866D02*
X-4229D01*
X-5529Y11466D02*
X-5079D01*
X-11406Y3342D02*
X-10956D01*
X-11406D02*
Y3942D01*
X-10556D02*
X-10106D01*
Y3342D02*
Y3942D01*
X-10556Y3342D02*
X-10106D01*
X-11406Y3942D02*
X-10956D01*
X-9852Y4653D02*
X-9402D01*
Y4053D02*
Y4653D01*
X-10702Y4053D02*
X-10252D01*
X-10702D02*
Y4653D01*
X-10252D01*
X-9852Y4053D02*
X-9402D01*
X5482Y10181D02*
X5932D01*
X5482D02*
Y10781D01*
X6332D02*
X6782D01*
Y10181D02*
Y10781D01*
X6332Y10181D02*
X6782D01*
X5482Y10781D02*
X5932D01*
X-8920Y5943D02*
Y6393D01*
X-8320D01*
Y5093D02*
Y5543D01*
X-8920Y5093D02*
X-8320D01*
X-8920D02*
Y5543D01*
X-8320Y5943D02*
Y6393D01*
X-6702D02*
X-6252D01*
Y5793D02*
Y6393D01*
X-7552Y5793D02*
X-7102D01*
X-7552D02*
Y6393D01*
X-7102D01*
X-6702Y5793D02*
X-6252D01*
X-5503Y9356D02*
X-5053D01*
X-5503D02*
Y9956D01*
X-4653D02*
X-4203D01*
Y9356D02*
Y9956D01*
X-4653Y9356D02*
X-4203D01*
X-5503Y9956D02*
X-5053D01*
X-5577Y5943D02*
Y6393D01*
X-4977D01*
Y5093D02*
Y5543D01*
X-5577Y5093D02*
X-4977D01*
X-5577D02*
Y5543D01*
X-4977Y5943D02*
Y6393D01*
X987Y-13405D02*
Y-12955D01*
X1587D01*
Y-14255D02*
Y-13805D01*
X987Y-14255D02*
X1587D01*
X987D02*
Y-13805D01*
X1587Y-13405D02*
Y-12955D01*
X2897Y-1058D02*
Y-608D01*
X2297Y-1058D02*
X2897D01*
X2297Y-208D02*
Y242D01*
X2897D01*
Y-208D02*
Y242D01*
X2297Y-1058D02*
Y-608D01*
X-11542Y4827D02*
X-11092D01*
Y4227D02*
Y4827D01*
X-12392Y4227D02*
X-11942D01*
X-12392D02*
Y4827D01*
X-11942D01*
X-11542Y4227D02*
X-11092D01*
X6219Y-15692D02*
X6669D01*
X6219D02*
Y-15092D01*
X7069D02*
X7519D01*
Y-15692D02*
Y-15092D01*
X7069Y-15692D02*
X7519D01*
X6219Y-15092D02*
X6669D01*
X-10735Y-17330D02*
X-10285D01*
X-10735D02*
Y-16730D01*
X-9885D02*
X-9435D01*
Y-17330D02*
Y-16730D01*
X-9885Y-17330D02*
X-9435D01*
X-10735Y-16730D02*
X-10285D01*
G54D66*
X-7087Y-9146D02*
X-1969D01*
X-7087Y-11508D02*
Y-9146D01*
Y-11508D02*
X-1969D01*
Y-9146D01*
X1969Y-11508D02*
X7087D01*
Y-9146D01*
X1969Y-9146D02*
X7087D01*
X1969Y-11508D02*
Y-9146D01*
X3861Y-5667D02*
X6184D01*
X3861Y-7990D02*
X6184D01*
X3861D02*
Y-5667D01*
X6184Y-7990D02*
Y-5667D01*
X-785Y6209D02*
X4136D01*
X-785Y11131D02*
X4136D01*
Y6209D02*
Y11131D01*
X-785Y6209D02*
Y11131D01*
G54D67*
X3927Y-20472D02*
X4793D01*
Y-20945D02*
Y-20472D01*
X3927Y-20945D02*
X4793D01*
X3927Y-20945D02*
Y-20472D01*
X3923Y-18984D02*
X4789D01*
Y-19457D02*
Y-18984D01*
X3923Y-19457D02*
X4789D01*
X3923Y-19457D02*
Y-18984D01*
X-3593Y-21019D02*
X-2727D01*
Y-21491D02*
Y-21019D01*
X-3593Y-21491D02*
X-2727D01*
X-3593Y-21491D02*
Y-21019D01*
X-3994Y-19468D02*
X-3128D01*
Y-19941D02*
Y-19468D01*
X-3994Y-19941D02*
X-3128D01*
X-3994Y-19941D02*
Y-19468D01*
X-370Y-14294D02*
X733D01*
X-370Y-14441D02*
X733D01*
Y-12571D01*
X-370D02*
X733D01*
X-370Y-14441D02*
Y-12571D01*
X-12839Y4939D02*
Y6042D01*
X-12986Y4939D02*
Y6042D01*
Y4939D02*
X-11116D01*
Y6042D01*
X-12986D02*
X-11116D01*
G54D68*
X8247Y14962D02*
Y15562D01*
G54D111*
X-8424Y8310D02*
G03*
X-8415Y6755I0J-778D01*
G01*
X-5294Y6765D02*
G03*
X-5304Y8320I0J778D01*
G01*
X4905Y1199D02*
G03*
X3350Y1189I-778J0D01*
G01*
X3360Y-1931D02*
G03*
X4915Y-1921I778J0D01*
G01*
X-8415Y6755D02*
X-8405Y6765D01*
X-5294D01*
X-8424Y8310D02*
X-8415Y8320D01*
X-5304D01*
X-9241Y6568D02*
X-4517D01*
X-9241D02*
Y8537D01*
X-9241D02*
X-4517D01*
Y6568D02*
Y8537D01*
X3350Y1189D02*
X3360Y1179D01*
Y-1931D02*
Y1179D01*
X4905Y1199D02*
X4915Y1189D01*
Y-1921D02*
Y1189D01*
X3163Y-2709D02*
Y2016D01*
X5132D01*
Y-2709D02*
Y2016D01*
X3163Y-2709D02*
X5132D01*
G54D112*
X3645Y-5175D02*
G03*
X3645Y-5175I-49J0D01*
G01*
X4362Y5698D02*
G03*
X4362Y5698I-49J0D01*
G01*
G54D113*
X4373Y-6061D02*
G03*
X4373Y-6061I-118J0D01*
G01*
X3860Y6603D02*
G03*
X3860Y6603I-118J0D01*
G01*
M02*
