%FSLAX24Y24*%
%MOIN*%
G70*
G01*
G75*
G04 Layer_Physical_Order=2*
G04 Layer_Color=16711680*
%ADD10R,0.0400X0.0500*%
%ADD11R,0.0800X0.0800*%
%ADD12R,0.0500X0.0400*%
%ADD13R,0.0394X0.0787*%
%ADD14R,0.0787X0.0394*%
%ADD15R,0.0433X0.0236*%
%ADD16R,0.0295X0.0118*%
%ADD17R,0.0870X0.0866*%
%ADD18R,0.1335X0.0772*%
%ADD19R,0.0787X0.1378*%
%ADD20R,0.0800X0.0800*%
%ADD21R,0.0394X0.0217*%
G04:AMPARAMS|DCode=22|XSize=90.6mil|YSize=295.3mil|CornerRadius=0mil|HoleSize=0mil|Usage=FLASHONLY|Rotation=167.000|XOffset=0mil|YOffset=0mil|HoleType=Round|Shape=Rectangle|*
%AMROTATEDRECTD22*
4,1,4,0.0773,0.1337,0.0109,-0.1540,-0.0773,-0.1337,-0.0109,0.1540,0.0773,0.1337,0.0*
%
%ADD22ROTATEDRECTD22*%

G04:AMPARAMS|DCode=23|XSize=90.6mil|YSize=295.3mil|CornerRadius=0mil|HoleSize=0mil|Usage=FLASHONLY|Rotation=192.000|XOffset=0mil|YOffset=0mil|HoleType=Round|Shape=Rectangle|*
%AMROTATEDRECTD23*
4,1,4,0.0136,0.1538,0.0750,-0.1350,-0.0136,-0.1538,-0.0750,0.1350,0.0136,0.1538,0.0*
%
%ADD23ROTATEDRECTD23*%

%ADD24R,0.0354X0.0591*%
%ADD25R,0.0236X0.0433*%
%ADD26R,0.0453X0.0591*%
%ADD27R,0.0157X0.0591*%
%ADD28C,0.0250*%
%ADD29C,0.0315*%
%ADD30C,0.0200*%
%ADD31C,0.0120*%
%ADD32C,0.0100*%
%ADD33C,0.0157*%
%ADD34C,0.0500*%
%ADD35C,0.0394*%
%ADD36C,0.0197*%
%ADD37C,0.0238*%
%ADD38C,0.0217*%
%ADD39C,0.0161*%
%ADD40C,0.0150*%
%ADD41C,0.0700*%
%ADD42C,0.0551*%
G04:AMPARAMS|DCode=43|XSize=99.4mil|YSize=60mil|CornerRadius=0mil|HoleSize=0mil|Usage=FLASHONLY|Rotation=45.000|XOffset=0mil|YOffset=0mil|HoleType=Round|Shape=Round|*
%AMOVALD43*
21,1,0.0394,0.0600,0.0000,0.0000,45.0*
1,1,0.0600,-0.0139,-0.0139*
1,1,0.0600,0.0139,0.0139*
%
%ADD43OVALD43*%

G04:AMPARAMS|DCode=44|XSize=99.4mil|YSize=60mil|CornerRadius=0mil|HoleSize=0mil|Usage=FLASHONLY|Rotation=45.000|XOffset=0mil|YOffset=0mil|HoleType=Round|Shape=Rectangle|*
%AMROTATEDRECTD44*
4,1,4,-0.0139,-0.0563,-0.0563,-0.0139,0.0139,0.0563,0.0563,0.0139,-0.0139,-0.0563,0.0*
%
%ADD44ROTATEDRECTD44*%

%ADD45C,0.0600*%
%ADD46C,0.0591*%
%ADD47R,0.0591X0.0591*%
%ADD48R,0.0591X0.0591*%
G04:AMPARAMS|DCode=49|XSize=60mil|YSize=99.4mil|CornerRadius=0mil|HoleSize=0mil|Usage=FLASHONLY|Rotation=20.000|XOffset=0mil|YOffset=0mil|HoleType=Round|Shape=Round|*
%AMOVALD49*
21,1,0.0394,0.0600,0.0000,0.0000,110.0*
1,1,0.0600,0.0067,-0.0185*
1,1,0.0600,-0.0067,0.0185*
%
%ADD49OVALD49*%

G04:AMPARAMS|DCode=50|XSize=60mil|YSize=99.4mil|CornerRadius=0mil|HoleSize=0mil|Usage=FLASHONLY|Rotation=340.000|XOffset=0mil|YOffset=0mil|HoleType=Round|Shape=Round|*
%AMOVALD50*
21,1,0.0394,0.0600,0.0000,0.0000,70.0*
1,1,0.0600,-0.0067,-0.0185*
1,1,0.0600,0.0067,0.0185*
%
%ADD50OVALD50*%

G04:AMPARAMS|DCode=51|XSize=86.6mil|YSize=63mil|CornerRadius=15.7mil|HoleSize=0mil|Usage=FLASHONLY|Rotation=90.000|XOffset=0mil|YOffset=0mil|HoleType=Round|Shape=RoundedRectangle|*
%AMROUNDEDRECTD51*
21,1,0.0866,0.0315,0,0,90.0*
21,1,0.0551,0.0630,0,0,90.0*
1,1,0.0315,0.0157,0.0276*
1,1,0.0315,0.0157,-0.0276*
1,1,0.0315,-0.0157,-0.0276*
1,1,0.0315,-0.0157,0.0276*
%
%ADD51ROUNDEDRECTD51*%
%ADD52C,0.1654*%
%ADD53C,0.0500*%
%ADD54R,0.0591X0.0354*%
%ADD55R,0.0315X0.0354*%
%ADD56R,0.2165X0.0787*%
%ADD57R,0.0866X0.0870*%
%ADD58R,0.0787X0.2165*%
%ADD59O,0.0217X0.0650*%
%ADD60O,0.0650X0.0217*%
%ADD61O,0.0118X0.0709*%
%ADD62O,0.0709X0.0118*%
%ADD63C,0.0120*%
G36*
X11680Y-7421D02*
X11714Y-7414D01*
X11845Y-7327D01*
X11932Y-7196D01*
X12324Y-7274D01*
Y-10337D01*
X12307D01*
Y-10337D01*
X11316D01*
Y-10895D01*
X10238Y-11973D01*
X7949D01*
X7934Y-11897D01*
X7835Y-11748D01*
X7686Y-11649D01*
X7510Y-11614D01*
X7335Y-11649D01*
X7186Y-11748D01*
X7086Y-11897D01*
X7051Y-12072D01*
X7086Y-12248D01*
X7064Y-12301D01*
X7050Y-12304D01*
X6901Y-12404D01*
X6802Y-12553D01*
X6767Y-12728D01*
X6377Y-12806D01*
X6333Y-12740D01*
X6185Y-12641D01*
X6009Y-12606D01*
X5833Y-12641D01*
X5685Y-12740D01*
X5585Y-12889D01*
X5578Y-12926D01*
X4303D01*
X3776Y-12399D01*
X3744Y-12236D01*
X3644Y-12087D01*
X3495Y-11987D01*
X3320Y-11952D01*
X3144Y-11987D01*
X2995Y-12087D01*
X2896Y-12236D01*
X2877Y-12330D01*
X2644Y-12454D01*
X2467Y-12490D01*
X2363Y-12447D01*
Y-12124D01*
X2343Y-12022D01*
X2304Y-11964D01*
X2319Y-11886D01*
X2285Y-11710D01*
X2221Y-11615D01*
X2440Y-11288D01*
X2559Y-11312D01*
X2745Y-11275D01*
X2902Y-11170D01*
X3007Y-11012D01*
X3044Y-10827D01*
X3169Y-10674D01*
X5265D01*
X5366Y-10654D01*
X5452Y-10597D01*
X5452Y-10597D01*
X5452Y-10597D01*
X5955Y-10094D01*
X6253Y-10352D01*
X6153Y-10484D01*
X6153Y-10484D01*
X6153D01*
X6048Y-10641D01*
X6011Y-10827D01*
X6048Y-11012D01*
X6153Y-11170D01*
X6310Y-11275D01*
X6496Y-11312D01*
X6682Y-11275D01*
X6839Y-11170D01*
X6944Y-11012D01*
X6981Y-10827D01*
X6944Y-10641D01*
X6839Y-10484D01*
X6839Y-10484D01*
X6839D01*
X6795Y-10426D01*
X6839Y-10170D01*
X6944Y-10012D01*
X6981Y-9827D01*
X7100Y-9681D01*
X9891D01*
X9993Y-9661D01*
X10079Y-9604D01*
X10079Y-9604D01*
X10079Y-9604D01*
X10836Y-8846D01*
X10998Y-8879D01*
X11174Y-8844D01*
X11323Y-8744D01*
X11422Y-8595D01*
X11457Y-8420D01*
X11422Y-8244D01*
X11323Y-8095D01*
X11174Y-7996D01*
X10998Y-7961D01*
X10823Y-7996D01*
X10601Y-7665D01*
X10766Y-7499D01*
X10917Y-7399D01*
X10917D01*
Y-7399D01*
X11275Y-7327D01*
Y-7327D01*
X11275Y-7327D01*
Y-7327D01*
Y-7327D01*
D01*
X11405Y-7414D01*
X11440Y-7421D01*
Y-7042D01*
X11680D01*
Y-7421D01*
D02*
G37*
G36*
X3032Y-8221D02*
X3153Y-8245D01*
X3586D01*
X3586Y-8245D01*
X3589Y-8482D01*
X3589Y-8482D01*
X3589D01*
Y-8966D01*
X3451Y-9104D01*
X1808D01*
X1420Y-8845D01*
X1383Y-8800D01*
X1415Y-8642D01*
X1415Y-8642D01*
X1415Y-8642D01*
X1420Y-8510D01*
X1427Y-8477D01*
D01*
D01*
D01*
X1427Y-8477D01*
D01*
X1554Y-8350D01*
X1839D01*
Y-8318D01*
X1879D01*
Y-8318D01*
X2779D01*
Y-8318D01*
X2930Y-8153D01*
X2930Y-8153D01*
Y-8153D01*
X3032Y-8221D01*
D02*
G37*
G36*
X-12101Y-2514D02*
Y-8261D01*
X-12189Y-8348D01*
X-12261Y-8363D01*
X-12369Y-8435D01*
X-12419Y-8509D01*
X-12795Y-8395D01*
Y-2857D01*
X-12565Y-2511D01*
X-12175Y-2454D01*
X-12101Y-2514D01*
D02*
G37*
G36*
X5690Y-5682D02*
X5810Y-5706D01*
X5881Y-5692D01*
X6160Y-5970D01*
X6145Y-6041D01*
X6169Y-6161D01*
X6194Y-6199D01*
X6169Y-6236D01*
X6145Y-6356D01*
X6169Y-6476D01*
X6194Y-6514D01*
X6169Y-6551D01*
X6145Y-6671D01*
X6169Y-6791D01*
X6194Y-6829D01*
X6169Y-6866D01*
X6145Y-6986D01*
X6169Y-7106D01*
X6194Y-7144D01*
X6169Y-7181D01*
X6145Y-7301D01*
X6169Y-7421D01*
X6194Y-7459D01*
X6169Y-7496D01*
X6145Y-7616D01*
X6160Y-7687D01*
X5881Y-7965D01*
X5810Y-7951D01*
X5690Y-7975D01*
X5653Y-8000D01*
X5615Y-7975D01*
X5495Y-7951D01*
X5375Y-7975D01*
X5338Y-8000D01*
X5301Y-7975D01*
X5180Y-7951D01*
X5060Y-7975D01*
X5023Y-8000D01*
X4986Y-7975D01*
X4865Y-7951D01*
X4745Y-7975D01*
X4708Y-8000D01*
X4671Y-7975D01*
X4550Y-7951D01*
X4430Y-7975D01*
X4393Y-8000D01*
X4356Y-7975D01*
X4235Y-7951D01*
X4164Y-7965D01*
X3886Y-7687D01*
X3900Y-7616D01*
X3876Y-7496D01*
X3851Y-7459D01*
X3859Y-7447D01*
Y-7447D01*
X3859Y-7447D01*
Y-7447D01*
X3876Y-7421D01*
X3876Y-7421D01*
X3900Y-7301D01*
X3876Y-7181D01*
X3808Y-7079D01*
X3808Y-7079D01*
X3782Y-7061D01*
Y-7061D01*
D01*
X3782D01*
X3782D01*
X3782Y-7061D01*
X3780Y-7060D01*
Y-7060D01*
X3780Y-7060D01*
X3706Y-7011D01*
X3586Y-6987D01*
X3369D01*
Y-6985D01*
X3586D01*
X3706Y-6962D01*
X3808Y-6893D01*
X3808Y-6893D01*
X3876Y-6791D01*
X3900Y-6671D01*
X3876Y-6551D01*
X3851Y-6514D01*
X3876Y-6476D01*
X3900Y-6356D01*
X3896Y-6336D01*
X4103Y-6084D01*
X4181Y-6032D01*
X4738D01*
X4855Y-6009D01*
X4955Y-5943D01*
X5082Y-5816D01*
X5148Y-5716D01*
X5148Y-5716D01*
X5148Y-5716D01*
X5375Y-5682D01*
X5375Y-5682D01*
X5375Y-5682D01*
X5495Y-5706D01*
X5615Y-5682D01*
X5653Y-5657D01*
X5690Y-5682D01*
D02*
G37*
G36*
X-9808Y-3204D02*
D01*
X-9551Y-3482D01*
X-9516Y-3657D01*
X-9417Y-3806D01*
X-9268Y-3906D01*
X-9092Y-3941D01*
X-8917Y-3906D01*
X-8768Y-3806D01*
X-8755Y-3788D01*
X-6855D01*
X-6738Y-3764D01*
X-6639Y-3698D01*
X-6620Y-3679D01*
X-6336Y-3893D01*
X-6315Y-3933D01*
X-6331Y-3961D01*
X-6331Y-3961D01*
X-6331D01*
X-6430Y-4110D01*
X-6465Y-4285D01*
X-6829Y-4436D01*
X-6943Y-4360D01*
X-7118Y-4325D01*
X-7294Y-4360D01*
X-7443Y-4459D01*
X-7542Y-4608D01*
X-7577Y-4784D01*
X-7542Y-4959D01*
X-7443Y-5108D01*
X-7294Y-5208D01*
X-7118Y-5242D01*
X-6943Y-5208D01*
X-6794Y-5108D01*
X-6754Y-5049D01*
X-5810D01*
X-5175Y-5175D01*
X-5140Y-5351D01*
X-5040Y-5500D01*
X-4892Y-5599D01*
X-4875Y-5602D01*
X-4761Y-5979D01*
X-5482Y-6700D01*
X-5548Y-6799D01*
X-5571Y-6915D01*
Y-7617D01*
X-5571D01*
Y-7617D01*
D01*
D01*
X-5780Y-7889D01*
X-6668D01*
X-6770Y-7909D01*
X-6856Y-7966D01*
X-7999Y-9109D01*
X-8577Y-9224D01*
X-8676Y-9075D01*
X-8825Y-8976D01*
X-9001Y-8941D01*
X-9083Y-8957D01*
X-10483Y-7557D01*
X-10565Y-7502D01*
X-10603Y-7495D01*
X-10839Y-7259D01*
Y-4724D01*
X-10475Y-4573D01*
X-9622Y-5427D01*
X-9540Y-5549D01*
X-9391Y-5649D01*
X-9215Y-5684D01*
X-9040Y-5649D01*
X-8891Y-5549D01*
X-8791Y-5400D01*
X-8757Y-5225D01*
X-8791Y-5049D01*
X-8891Y-4900D01*
X-9040Y-4801D01*
X-9215Y-4766D01*
X-9324Y-4788D01*
X-10253Y-3858D01*
Y-3254D01*
X-9983Y-3239D01*
X-9983Y-3239D01*
Y-3239D01*
D01*
D01*
D01*
X-9808Y-3204D01*
X-9808Y-3204D01*
D02*
G37*
G36*
X12324Y-2804D02*
Y-4616D01*
X12207Y-4651D01*
X11891Y-4416D01*
Y-3004D01*
X12207Y-2769D01*
X12324Y-2804D01*
D02*
G37*
G36*
X-1965Y-4182D02*
X-1665D01*
Y-4302D01*
X-1545D01*
Y-4652D01*
X-1365D01*
Y-4652D01*
X-1365D01*
X-1364Y-4653D01*
Y-4907D01*
D01*
D01*
Y-4907D01*
X-1364D01*
Y-5661D01*
X-1058D01*
X-840Y-5989D01*
X-930Y-6206D01*
X-1364D01*
Y-6802D01*
X-1621Y-6974D01*
X-1711Y-7022D01*
X-1818Y-6951D01*
X-1835Y-6947D01*
Y-7280D01*
X-1955D01*
Y-7400D01*
X-2288D01*
X-2284Y-7417D01*
X-2248Y-7471D01*
X-2399Y-7835D01*
X-2405Y-7837D01*
X-2554Y-7936D01*
X-2654Y-8085D01*
X-2660Y-8116D01*
X-3037Y-8230D01*
X-3617Y-7650D01*
X-3715Y-7584D01*
X-3832Y-7561D01*
X-3832Y-7561D01*
X-3832Y-7561D01*
X-4200Y-7487D01*
X-4201Y-7254D01*
X-4201Y-7254D01*
X-4201D01*
Y-7254D01*
Y-7254D01*
X-4201Y-7254D01*
X-4198Y-7238D01*
X-4531D01*
Y-6998D01*
X-4198D01*
X-4201Y-6981D01*
X-4278Y-6866D01*
X-4325Y-6834D01*
X-4351Y-6571D01*
X-4316Y-6395D01*
X-3922Y-6001D01*
X-3856Y-5903D01*
X-3833Y-5786D01*
X-3833Y-5786D01*
X-3833Y-5786D01*
X-3806Y-5599D01*
D01*
X-3806Y-5599D01*
X-3631Y-5634D01*
X-3455Y-5599D01*
X-3380Y-5549D01*
X-3380D01*
D01*
X-3293Y-5661D01*
Y-5661D01*
X-2303D01*
Y-4907D01*
X-3269D01*
X-3306Y-4851D01*
X-3455Y-4751D01*
X-3512Y-4740D01*
X-3589Y-4354D01*
X-3589Y-4354D01*
X-3464Y-4270D01*
X-3439Y-4232D01*
X-3310Y-4129D01*
X-3310Y-4129D01*
X-1965D01*
Y-4182D01*
D02*
G37*
G36*
X10385Y-8118D02*
X10423Y-8510D01*
X9924Y-9009D01*
X9538Y-8932D01*
X9478Y-8788D01*
X10243Y-8023D01*
X10385Y-8118D01*
D02*
G37*
G36*
X1700Y-9752D02*
X1661Y-10144D01*
X1491D01*
X1491Y-10144D01*
X1389Y-10164D01*
X1303Y-10222D01*
X948Y-9985D01*
X951Y-9930D01*
X951D01*
X951D01*
Y-9930D01*
Y-9930D01*
X951Y-9930D01*
X977Y-9803D01*
X1466Y-9706D01*
X1700Y-9752D01*
D02*
G37*
G36*
X1978Y-10709D02*
X2074Y-10827D01*
X2111Y-11012D01*
X2183Y-11121D01*
X1965Y-11448D01*
X1861Y-11427D01*
X1685Y-11462D01*
X1536Y-11562D01*
X1437Y-11710D01*
X1402Y-11886D01*
X1437Y-12062D01*
X1536Y-12210D01*
X1685Y-12310D01*
X1833Y-12339D01*
Y-12805D01*
X1737D01*
Y-12805D01*
X1355D01*
X937Y-12386D01*
X829Y-12314D01*
X817Y-12312D01*
Y-11987D01*
X513D01*
Y-11839D01*
X488Y-11712D01*
X416Y-11604D01*
X279Y-11468D01*
X295Y-11311D01*
X372Y-11195D01*
X375Y-11178D01*
X42D01*
Y-10938D01*
X476D01*
X574Y-10787D01*
Y-10787D01*
X1378D01*
X1480Y-10767D01*
X1566Y-10709D01*
X1566Y-10709D01*
X1566Y-10709D01*
X1585Y-10690D01*
X1978Y-10709D01*
D02*
G37*
G36*
X-9551Y-10994D02*
Y-11085D01*
X-9156D01*
Y-11325D01*
X-9551D01*
Y-11468D01*
X-9551D01*
X-9551Y-11468D01*
X-9551Y-11600D01*
X-9691Y-11741D01*
X-9988D01*
X-10348Y-11500D01*
X-10386Y-11108D01*
X-10163Y-10885D01*
X-10142Y-10889D01*
X-9966Y-10854D01*
X-9898Y-10809D01*
X-9551Y-10994D01*
D02*
G37*
G36*
X5592Y-9707D02*
X5155Y-10144D01*
X3291D01*
X3165Y-9990D01*
X3333Y-9634D01*
X3466D01*
X3528Y-9675D01*
X3654Y-9701D01*
X3781Y-9675D01*
X3889Y-9604D01*
X4149Y-9343D01*
X5441D01*
X5592Y-9707D01*
D02*
G37*
G36*
X-439Y-7815D02*
Y-8046D01*
X-457Y-8064D01*
X-509Y-8098D01*
X-543Y-8150D01*
X-624Y-8231D01*
X-257D01*
Y-8471D01*
X-589D01*
X-586Y-8487D01*
X-509Y-8603D01*
X-393Y-8680D01*
X-356Y-8688D01*
X-274Y-8861D01*
X-374Y-9104D01*
X-470D01*
X-899Y-9019D01*
X-1053Y-8788D01*
X-1113Y-8643D01*
X-1032Y-8521D01*
X-1003Y-8372D01*
X-712D01*
Y-8319D01*
X-717Y-8324D01*
X-948D01*
X-1099Y-7960D01*
X-803Y-7664D01*
X-439Y-7815D01*
D02*
G37*
G36*
X-10557Y-9243D02*
X-10381Y-9278D01*
X-10311Y-9264D01*
X-9949Y-9626D01*
X-10135Y-9973D01*
X-10142Y-9972D01*
X-10318Y-10006D01*
X-10466Y-10106D01*
X-10466Y-10106D01*
Y-10106D01*
X-10665Y-10206D01*
X-11084Y-9787D01*
X-11065Y-9594D01*
X-11000Y-9380D01*
X-10957Y-9371D01*
X-10808Y-9272D01*
X-10808Y-9272D01*
X-10706Y-9144D01*
X-10557Y-9243D01*
D02*
G37*
G36*
X-6302Y-8575D02*
X-6180Y-8723D01*
X-6200Y-8821D01*
X-6165Y-8996D01*
X-6134Y-9043D01*
X-6352Y-9370D01*
X-6496Y-9342D01*
X-6682Y-9379D01*
X-6839Y-9484D01*
X-6944Y-9641D01*
X-6981Y-9827D01*
X-6944Y-10012D01*
X-6839Y-10170D01*
X-6839Y-10170D01*
X-6839D01*
X-6682Y-10379D01*
X-6682D01*
X-6682Y-10379D01*
X-6839Y-10484D01*
D01*
X-6839Y-10484D01*
X-6839Y-10484D01*
X-6839Y-10484D01*
X-6839Y-10484D01*
X-6994Y-10656D01*
X-7548Y-10102D01*
D01*
X-7645Y-9977D01*
X-7587Y-9684D01*
X-7109Y-8970D01*
X-6695Y-8556D01*
X-6302Y-8575D01*
D02*
G37*
G36*
X9530Y1521D02*
Y-446D01*
X9530Y-446D01*
X9530D01*
X9550Y-548D01*
X9607Y-634D01*
X9874Y-900D01*
X9852Y-1008D01*
X9891Y-1202D01*
X10000Y-1365D01*
X10164Y-1475D01*
X10357Y-1513D01*
X10550Y-1475D01*
X10714Y-1365D01*
X10714D01*
Y-1365D01*
X11072Y-1293D01*
Y-1293D01*
X11072Y-1293D01*
Y-1293D01*
Y-1293D01*
D01*
X11203Y-1381D01*
X11237Y-1387D01*
Y-1008D01*
X11357D01*
Y-888D01*
X11743D01*
X11736Y-842D01*
D01*
X12189D01*
X12324Y-1521D01*
Y-2128D01*
X11947Y-2242D01*
X11880Y-2142D01*
X11731Y-2042D01*
X11555Y-2007D01*
X11380Y-2042D01*
X11231Y-2142D01*
X11131Y-2291D01*
X11096Y-2466D01*
X11131Y-2642D01*
X11228Y-2787D01*
Y-3520D01*
X10935Y-3548D01*
X10935Y-3548D01*
Y-3548D01*
D01*
D01*
D01*
X10760Y-3583D01*
X10611Y-3682D01*
X10598Y-3701D01*
X10158D01*
Y-3104D01*
Y-2304D01*
X10014D01*
Y-2232D01*
X9991Y-2115D01*
X9925Y-2016D01*
X9925Y-2016D01*
X9763Y-1854D01*
X9750Y-1845D01*
X9730Y-1832D01*
X8854Y-956D01*
Y-664D01*
X8831Y-547D01*
X8764Y-448D01*
X8287Y29D01*
X8188Y96D01*
X8071Y119D01*
X7441D01*
X7291Y483D01*
X8488Y1680D01*
X8586Y1614D01*
X8762Y1579D01*
X8938Y1614D01*
X9086Y1713D01*
D01*
X9086Y1713D01*
X9086Y1713D01*
X9086Y1713D01*
X9086Y1713D01*
X9086D01*
X9086Y1713D01*
X9188Y1863D01*
X9530Y1521D01*
D02*
G37*
G36*
X6807Y1561D02*
X6906Y1412D01*
X6926Y1216D01*
X5417Y-293D01*
X5053Y-142D01*
Y1012D01*
X5053Y1012D01*
X5030Y1129D01*
X5001Y1172D01*
X5280Y1451D01*
X5378Y1385D01*
X5554Y1350D01*
X5729Y1385D01*
X5878Y1484D01*
X5978Y1633D01*
X5994Y1717D01*
X6776D01*
X6807Y1561D01*
D02*
G37*
G36*
X-5699Y1102D02*
X-5663Y1109D01*
X-5531Y1198D01*
X-5531Y1198D01*
Y1198D01*
X-5290Y1291D01*
X-5290D01*
X-5179Y1126D01*
X-5014Y1015D01*
X-4819Y976D01*
X-4624Y1015D01*
X-4458Y1126D01*
X-4206Y1152D01*
X-4179Y1126D01*
X-4179Y1126D01*
Y1126D01*
X-4014Y1015D01*
X-3819Y976D01*
X-3624Y1015D01*
X-3458Y1126D01*
X-3206Y1152D01*
X-3179Y1126D01*
X-3179Y1126D01*
Y1126D01*
X-3014Y1015D01*
X-2819Y976D01*
X-2624Y1015D01*
X-2458Y1126D01*
X-2299Y1124D01*
X-2133Y767D01*
X-2166Y726D01*
X-2511Y495D01*
X-4217D01*
X-4334Y472D01*
X-4434Y406D01*
X-4434Y406D01*
X-5510Y-671D01*
X-5576Y-770D01*
X-5600Y-887D01*
Y-1103D01*
X-5699Y-1104D01*
Y-1514D01*
X-5939D01*
Y-1130D01*
X-5975Y-1137D01*
X-6107Y-1225D01*
X-6122Y-1248D01*
X-6516D01*
X-6531Y-1225D01*
X-6663Y-1137D01*
X-6699Y-1130D01*
Y-1514D01*
X-6939D01*
Y-1130D01*
X-6975Y-1137D01*
X-7107Y-1225D01*
X-7107Y-1225D01*
Y-1225D01*
X-7348Y-1319D01*
X-7458Y-1153D01*
X-7624Y-1043D01*
X-7819Y-1004D01*
X-7937Y-1027D01*
X-8156Y-700D01*
X-7859Y-257D01*
X-7539Y64D01*
X-7539Y64D01*
X-7468Y170D01*
X-7443Y294D01*
X-7443Y294D01*
Y973D01*
X-7207Y1131D01*
X-7096Y1190D01*
X-6975Y1109D01*
X-6939Y1102D01*
Y1486D01*
X-6699D01*
Y1102D01*
X-6663Y1109D01*
X-6531Y1198D01*
X-6516Y1220D01*
X-6122D01*
X-6107Y1198D01*
X-5975Y1109D01*
X-5939Y1102D01*
Y1486D01*
X-5699D01*
Y1102D01*
D02*
G37*
G36*
X1205Y2046D02*
X994Y1946D01*
X994D01*
X845Y1847D01*
X839Y1838D01*
X464Y1801D01*
X308Y2012D01*
X405Y2332D01*
X795Y2409D01*
X1055D01*
X1205Y2046D01*
D02*
G37*
G36*
X16695Y3387D02*
X16870Y3034D01*
X16732Y2756D01*
X16189D01*
X16038Y3120D01*
X16341Y3423D01*
X16446Y3437D01*
X16695Y3387D01*
D02*
G37*
G36*
X-15851Y3120D02*
X-16001Y2756D01*
X-16732D01*
X-16907Y3109D01*
X-16820Y3222D01*
X-16716Y3472D01*
X-16715Y3484D01*
X-16342Y3611D01*
X-15851Y3120D01*
D02*
G37*
G36*
X12299Y3148D02*
X12348Y3055D01*
X12346Y3048D01*
X12309Y2994D01*
X12289Y2892D01*
Y2890D01*
X12216Y2684D01*
X11926Y2564D01*
X11453Y3037D01*
X11604Y3400D01*
X12046D01*
X12299Y3148D01*
D02*
G37*
G36*
X1965Y973D02*
X2145D01*
Y973D01*
X2145D01*
X2245Y873D01*
Y873D01*
X2292D01*
Y392D01*
X2147D01*
Y-408D01*
Y-1208D01*
X2341D01*
Y-1906D01*
X2245D01*
Y-2006D01*
X2145D01*
Y-2006D01*
X1965D01*
Y-2356D01*
Y-2706D01*
X2145D01*
Y-2706D01*
X2145D01*
X2245Y-2806D01*
Y-2806D01*
X2553D01*
D01*
X2556Y-2887D01*
X2917D01*
Y-3007D01*
X3037D01*
Y-3340D01*
X3053Y-3336D01*
X3169Y-3259D01*
X3169Y-3259D01*
X3169Y-3259D01*
X3169Y-3259D01*
Y-3259D01*
X3544Y-3202D01*
Y-3401D01*
X3616D01*
Y-4908D01*
X3606Y-4959D01*
Y-5392D01*
X3586Y-5412D01*
X3153D01*
D01*
X3153Y-5412D01*
D01*
X3027Y-5335D01*
X2922Y-5249D01*
Y-5199D01*
X2861D01*
X2822Y-5167D01*
Y-5099D01*
X2822D01*
Y-4919D01*
X2472D01*
Y-4799D01*
X2352D01*
Y-4499D01*
X2175D01*
X2157Y-4405D01*
X2057Y-4256D01*
X1908Y-4156D01*
X1733Y-4121D01*
X1707Y-4101D01*
Y-3309D01*
X1687Y-3208D01*
X1630Y-3122D01*
X1577Y-3069D01*
X1725Y-2712D01*
Y-2356D01*
Y-2006D01*
X1564D01*
Y-950D01*
X1595Y-930D01*
X1695Y-781D01*
X1730Y-605D01*
X1695Y-430D01*
X1595Y-281D01*
X1447Y-181D01*
X1271Y-146D01*
X1100Y715D01*
X1151Y973D01*
X1545D01*
Y973D01*
X1725D01*
Y1323D01*
X1965D01*
Y973D01*
D02*
G37*
G36*
X3544Y340D02*
X4442D01*
Y-835D01*
X3544D01*
Y-2024D01*
X3045D01*
Y-1906D01*
X2950D01*
Y-1208D01*
X3047D01*
Y-408D01*
Y392D01*
X2901D01*
Y873D01*
X3045D01*
Y992D01*
X3544D01*
Y340D01*
D02*
G37*
G36*
X-4975Y-2464D02*
X-4901Y-2574D01*
X-4752Y-2674D01*
D01*
X-4724Y-2698D01*
X-4695Y-2727D01*
X-4734Y-2855D01*
X-5233Y-3188D01*
X-5369Y-3215D01*
X-5564D01*
X-5587Y-3101D01*
X-5686Y-2952D01*
X-5705Y-2764D01*
X-5457Y-2516D01*
X-5122Y-2450D01*
X-4975Y-2464D01*
D02*
G37*
G36*
X8202Y-1709D02*
X8312Y-1819D01*
X8312Y-2264D01*
X8312D01*
Y-3064D01*
Y-3139D01*
X8220Y-3158D01*
X8113Y-3229D01*
Y-3229D01*
X8113Y-3229D01*
X8095Y-3241D01*
X7868Y-3146D01*
X7747Y-2964D01*
Y-2757D01*
X7868Y-2575D01*
X7911Y-2360D01*
X7868Y-2146D01*
X7767Y-1994D01*
X7986Y-1666D01*
X8202Y-1709D01*
D02*
G37*
G36*
X-958Y-182D02*
X-923Y-358D01*
X-824Y-507D01*
X-675Y-606D01*
X-499Y-641D01*
X-324Y-606D01*
X-3Y-1086D01*
Y-1754D01*
X-379Y-1868D01*
X-407Y-1827D01*
X-556Y-1727D01*
X-732Y-1692D01*
X-907Y-1727D01*
X-1056Y-1827D01*
X-1069Y-1845D01*
X-1815D01*
X-1820Y-1820D01*
X-1920Y-1671D01*
X-2069Y-1572D01*
X-2244Y-1537D01*
X-2279Y-1544D01*
X-2309Y-1514D01*
X-2348Y-1319D01*
X-2458Y-1153D01*
X-2624Y-1043D01*
X-2819Y-1004D01*
X-3014Y-1043D01*
X-3179Y-1153D01*
X-3290Y-1319D01*
D01*
X-3458Y-1153D01*
X-3458Y-1153D01*
Y-1153D01*
X-3624Y-1043D01*
X-3819Y-1004D01*
X-4014Y-1043D01*
X-4179Y-1153D01*
X-4290Y-1319D01*
D01*
X-4458Y-1153D01*
X-4458Y-1153D01*
Y-1153D01*
X-4602Y-1058D01*
X-4610Y-973D01*
X-4526Y-552D01*
X-4091Y-116D01*
X-1012D01*
X-958Y-182D01*
D02*
G37*
G36*
X-9077Y701D02*
X-9092Y623D01*
X-9695Y21D01*
D01*
X-9859Y-11D01*
X-10067Y243D01*
X-9564Y746D01*
X-9224Y780D01*
X-9077Y701D01*
D02*
G37*
G36*
X6817Y-1723D02*
X6899Y-2046D01*
X6832Y-2146D01*
X6790Y-2360D01*
X6832Y-2575D01*
X6954Y-2757D01*
Y-2964D01*
X6832Y-3146D01*
X6790Y-3360D01*
X6811Y-3467D01*
X6497Y-3781D01*
X5295D01*
X5178Y-3804D01*
X5140Y-3830D01*
X4890Y-3525D01*
X4964Y-3452D01*
X4964Y-3452D01*
X5030Y-3353D01*
X5053Y-3235D01*
Y-3034D01*
X5211Y-2904D01*
X5387Y-2869D01*
X5482Y-2805D01*
X5559Y-2921D01*
X5675Y-2998D01*
X5691Y-3001D01*
Y-2668D01*
X5811D01*
Y-2548D01*
X6144D01*
X6141Y-2532D01*
X6064Y-2416D01*
Y-2416D01*
D01*
X6096Y-2376D01*
X6096Y-2376D01*
X6096D01*
X6196Y-2227D01*
X6231Y-2052D01*
X6208Y-1936D01*
X6486Y-1658D01*
X6496Y-1660D01*
X6672Y-1625D01*
X6684Y-1617D01*
X6817Y-1723D01*
D02*
G37*
G36*
X-7107Y-1802D02*
X-7107Y-1802D01*
Y-1802D01*
X-6975Y-1891D01*
X-6975D01*
X-6824Y-1933D01*
D01*
X-6891Y-2064D01*
X-6891Y-2064D01*
X-6891Y-2064D01*
X-6895Y-2081D01*
X-6562D01*
Y-2321D01*
X-6895D01*
X-6891Y-2337D01*
X-6814Y-2453D01*
X-6739Y-2503D01*
X-6724Y-2659D01*
X-6788Y-2982D01*
X-6982Y-3176D01*
X-8755D01*
X-8768Y-3157D01*
X-8917Y-3058D01*
X-9092Y-3023D01*
X-9268Y-3058D01*
D01*
X-9482Y-2738D01*
X-9095Y-2351D01*
X-9024Y-2246D01*
X-8999Y-2121D01*
X-8999Y-2121D01*
D01*
X-8819Y-2024D01*
X-8819Y-2024D01*
Y-2024D01*
X-8624Y-1985D01*
X-8458Y-1874D01*
X-8206Y-1848D01*
X-8179Y-1874D01*
X-8179Y-1874D01*
Y-1874D01*
X-8014Y-1985D01*
X-7819Y-2024D01*
X-7624Y-1985D01*
X-7458Y-1874D01*
X-7348Y-1709D01*
X-7348D01*
D01*
X-7107Y-1802D01*
D02*
G37*
G36*
X-11871Y-10972D02*
X-12121Y-11276D01*
X-12189Y-11231D01*
X-12365Y-11196D01*
X-12491Y-11221D01*
X-12614Y-11120D01*
X-12795Y-10849D01*
Y-10609D01*
X-12610Y-10485D01*
X-12432Y-10412D01*
X-11871Y-10972D01*
D02*
G37*
G36*
X-2357Y-17657D02*
X-2258Y-17723D01*
X-2141Y-17747D01*
D01*
D01*
X-2057Y-17915D01*
D01*
X-2057Y-17915D01*
X-2060Y-17932D01*
X-1727D01*
Y-18172D01*
X-2060D01*
X-2057Y-18189D01*
X-1980Y-18304D01*
X-1864Y-18382D01*
D01*
D01*
X-1894Y-18544D01*
X-1894Y-18544D01*
D01*
X-2007Y-18816D01*
X-2293Y-18705D01*
Y-18705D01*
X-2293D01*
D01*
D01*
Y-18705D01*
X-2442Y-18605D01*
X-2618Y-18570D01*
D01*
D01*
D01*
X-2618Y-18570D01*
X-2618Y-18570D01*
X-2865Y-18567D01*
Y-18253D01*
X-2865Y-18253D01*
X-2865Y-18253D01*
X-2865Y-18134D01*
Y-18134D01*
X-2852Y-17974D01*
X-2852Y-17856D01*
X-2852Y-17856D01*
X-2852Y-17856D01*
Y-17677D01*
X-2488Y-17526D01*
X-2357Y-17657D01*
D02*
G37*
G36*
X-12324Y-14239D02*
X-12160Y-14348D01*
X-11967Y-14386D01*
X-11967Y-14386D01*
X-12083Y-14674D01*
X-12083Y-14674D01*
X-12083D01*
X-12182Y-14823D01*
X-12217Y-14998D01*
X-12182Y-15174D01*
X-12083Y-15321D01*
Y-15789D01*
X-12140Y-15874D01*
X-12178Y-16067D01*
X-12140Y-16260D01*
X-12030Y-16424D01*
X-12030Y-16424D01*
X-12169Y-16572D01*
X-12169D01*
Y-17562D01*
X-12169D01*
X-11948Y-17729D01*
X-12046Y-17876D01*
X-12081Y-18052D01*
X-12046Y-18227D01*
X-11947Y-18376D01*
X-11798Y-18476D01*
X-11798Y-18476D01*
X-11935Y-18741D01*
X-12150Y-18905D01*
X-12314Y-19120D01*
X-12409Y-19349D01*
X-12795Y-19272D01*
Y-14211D01*
X-12419Y-14097D01*
X-12324Y-14239D01*
D02*
G37*
G36*
X12795Y-16817D02*
Y-19272D01*
X12409Y-19349D01*
X12314Y-19120D01*
X12150Y-18905D01*
X11935Y-18741D01*
X11685Y-18637D01*
X11417Y-18602D01*
X11149Y-18637D01*
X10905Y-18739D01*
X10686Y-18411D01*
X12432Y-16666D01*
X12795Y-16817D01*
D02*
G37*
G36*
X7783Y-16872D02*
D01*
X7783Y-16872D01*
X7780Y-16889D01*
X8113D01*
Y-17009D01*
X8233D01*
Y-17450D01*
X8406Y-17572D01*
D01*
Y-18364D01*
X8107Y-18662D01*
X8036Y-18610D01*
X7843Y-18563D01*
X7646Y-18593D01*
X7623Y-18607D01*
X7391Y-18477D01*
X7299Y-18094D01*
X7323Y-18058D01*
X7357Y-17883D01*
X7323Y-17707D01*
X7279Y-17643D01*
Y-16974D01*
X7621Y-16778D01*
X7783Y-16872D01*
D02*
G37*
G36*
X1589Y-16285D02*
X1922Y-16388D01*
Y-16388D01*
X2071Y-16487D01*
X2189Y-16511D01*
X2386Y-16707D01*
X2472Y-16765D01*
X2472Y-16765D01*
X2404Y-16911D01*
X2404Y-16911D01*
X2404D01*
X2304Y-17060D01*
X2270Y-17236D01*
X2304Y-17411D01*
X2404Y-17560D01*
X2553Y-17660D01*
X2728Y-17695D01*
X2810Y-17678D01*
X2847Y-17686D01*
X3007D01*
X3133Y-17661D01*
X3241Y-17589D01*
X3241Y-17589D01*
X3241Y-17589D01*
X3250Y-17580D01*
X3369Y-17678D01*
X3458Y-17973D01*
X3430Y-18016D01*
X3325Y-18101D01*
X3191Y-18075D01*
X3016Y-18110D01*
X2867Y-18209D01*
X2768Y-18358D01*
X2733Y-18534D01*
X2768Y-18709D01*
X2867Y-18858D01*
X2867D01*
X2867Y-18858D01*
X2691Y-19029D01*
X2691D01*
X2691Y-19029D01*
X2605Y-19087D01*
X2486Y-19205D01*
X2114Y-19079D01*
X2113Y-19072D01*
X1894Y-18544D01*
X1547Y-18091D01*
X1459Y-18024D01*
X1402Y-17939D01*
X1484Y-17591D01*
X1514Y-17585D01*
X1662Y-17485D01*
X1762Y-17337D01*
X1797Y-17161D01*
X1762Y-16985D01*
X1662Y-16837D01*
X1521Y-16742D01*
X1507Y-16349D01*
X1589Y-16285D01*
X1589Y-16285D01*
D02*
G37*
G36*
X-9404Y-17668D02*
X-9398Y-17672D01*
Y-19807D01*
X-9373Y-19934D01*
X-9301Y-20041D01*
X-9301Y-20041D01*
X-9301Y-20041D01*
X-8848Y-20494D01*
X-8824Y-20511D01*
X-8787Y-20660D01*
X-8669Y-20821D01*
X-8499Y-20924D01*
X-8303Y-20954D01*
X-8109Y-20907D01*
X-7949Y-20789D01*
X-7949Y-20789D01*
Y-20789D01*
X-7755Y-20959D01*
Y-20959D01*
X-7755Y-20959D01*
X-7661Y-21088D01*
X-7629Y-21107D01*
X-7431Y-20561D01*
X-7205Y-20643D01*
X-7404Y-21189D01*
X-7367Y-21194D01*
X-7213Y-21157D01*
X-7213Y-21157D01*
X-7213Y-21157D01*
X-6955Y-21151D01*
X-6908Y-21344D01*
X-6790Y-21505D01*
X-6620Y-21608D01*
X-6423Y-21638D01*
X-6230Y-21591D01*
X-6091Y-21489D01*
X-5150D01*
X-4905Y-21797D01*
X-5284Y-23442D01*
X-5678Y-23444D01*
X-5742Y-23184D01*
X-5941Y-22912D01*
X-6230Y-22736D01*
X-6564Y-22685D01*
X-6893Y-22765D01*
X-7165Y-22965D01*
X-7341Y-23254D01*
X-7392Y-23588D01*
X-7312Y-23917D01*
X-7112Y-24189D01*
X-6823Y-24364D01*
X-6489Y-24416D01*
X-6161Y-24336D01*
X-5888Y-24136D01*
X-5816Y-24017D01*
X-5451Y-24166D01*
X-5626Y-24923D01*
X-4427Y-25199D01*
X-4472Y-25591D01*
X-10630D01*
X-12795Y-23425D01*
Y-20003D01*
X-12409Y-19926D01*
X-12314Y-20156D01*
X-12150Y-20370D01*
X-11935Y-20535D01*
X-11685Y-20638D01*
X-11417Y-20673D01*
X-11149Y-20638D01*
X-10900Y-20535D01*
X-10685Y-20370D01*
X-10520Y-20156D01*
X-10417Y-19906D01*
X-10382Y-19638D01*
X-10417Y-19370D01*
X-10520Y-19120D01*
X-10685Y-18905D01*
X-10900Y-18741D01*
X-11116Y-18651D01*
X-11199Y-18378D01*
X-10843Y-18209D01*
X-10838Y-18216D01*
X-10690Y-18316D01*
X-10514Y-18351D01*
X-10338Y-18316D01*
X-10190Y-18216D01*
X-10090Y-18067D01*
X-10055Y-17892D01*
X-10090Y-17716D01*
X-9979Y-17642D01*
X-9404Y-17668D01*
D02*
G37*
G36*
X-7607Y-18165D02*
X-7577Y-18484D01*
X-7782Y-18561D01*
X-8050Y-18367D01*
Y-18197D01*
X-7926Y-18084D01*
X-7607Y-18165D01*
D02*
G37*
G36*
X-5171Y-19310D02*
Y-19800D01*
Y-20532D01*
X-5470Y-20788D01*
X-5802Y-20737D01*
X-5849Y-20544D01*
X-5966Y-20383D01*
X-6137Y-20280D01*
X-6091Y-20194D01*
X-6091Y-20194D01*
D01*
X-5956Y-19824D01*
X-5926Y-19627D01*
X-5973Y-19434D01*
X-6091Y-19274D01*
X-6261Y-19171D01*
X-6270Y-19169D01*
Y-18726D01*
X-5906Y-18575D01*
X-5171Y-19310D01*
D02*
G37*
G36*
X6091Y-22317D02*
D01*
X6091D01*
Y-22317D01*
D01*
X6091D01*
Y-22317D01*
X6091D01*
X6091Y-22317D01*
Y-22317D01*
X6091Y-22317D01*
Y-22317D01*
X6119Y-22335D01*
X6110Y-22729D01*
X5914Y-22848D01*
X5714Y-23121D01*
X5666Y-23314D01*
X5273Y-23308D01*
X4928Y-21688D01*
X5274Y-21500D01*
X6091Y-22317D01*
D02*
G37*
G36*
X10518Y-19126D02*
X10417Y-19370D01*
X10382Y-19638D01*
X10417Y-19906D01*
X10520Y-20156D01*
X10685Y-20370D01*
X10900Y-20535D01*
X11149Y-20638D01*
X11417Y-20673D01*
X11685Y-20638D01*
X11935Y-20535D01*
X12150Y-20370D01*
X12314Y-20156D01*
X12409Y-19926D01*
X12795Y-20003D01*
Y-22047D01*
Y-24409D01*
X11614Y-25591D01*
X4512D01*
X4471Y-25199D01*
X5623Y-24954D01*
X5451Y-24146D01*
X5817Y-24000D01*
X5860Y-24072D01*
X6133Y-24272D01*
X6461Y-24352D01*
X6795Y-24301D01*
X7084Y-24126D01*
X7284Y-23853D01*
X7364Y-23525D01*
X7313Y-23191D01*
X7137Y-22902D01*
X6956Y-22768D01*
X7078Y-22394D01*
X7663D01*
X7764Y-22374D01*
X7850Y-22317D01*
X8883Y-21283D01*
X8941Y-21197D01*
X8961Y-21096D01*
Y-20677D01*
X9108Y-20588D01*
X9225Y-20427D01*
X9273Y-20234D01*
X9242Y-20037D01*
X9194Y-19904D01*
X10191Y-18907D01*
X10518Y-19126D01*
D02*
G37*
G36*
X1588Y-23342D02*
Y-23497D01*
X2008D01*
Y-23737D01*
X1588D01*
Y-23893D01*
X1608Y-23993D01*
X1665Y-24079D01*
X1750Y-24135D01*
X1817Y-24149D01*
Y-24543D01*
X1750Y-24556D01*
X1665Y-24613D01*
X1608Y-24698D01*
X1588Y-24798D01*
Y-24954D01*
X2008D01*
Y-25194D01*
X1588D01*
Y-25350D01*
X377Y-25591D01*
X-377D01*
X-1588Y-25350D01*
Y-25194D01*
X-2008D01*
Y-24954D01*
X-1588D01*
Y-24798D01*
X-1608Y-24698D01*
X-1665Y-24613D01*
X-1750Y-24556D01*
X-1817Y-24543D01*
Y-24149D01*
X-1750Y-24135D01*
X-1665Y-24079D01*
X-1608Y-23993D01*
X-1588Y-23893D01*
Y-23737D01*
X-2008D01*
Y-23497D01*
X-1588D01*
Y-23342D01*
X-704Y-23166D01*
X704D01*
X1588Y-23342D01*
D02*
G37*
G36*
X4002Y-21479D02*
X4002D01*
Y-21871D01*
X3648Y-21946D01*
Y-21946D01*
X3308Y-22018D01*
X3308Y-22018D01*
X3308Y-22018D01*
X2333Y-22226D01*
X2145Y-21880D01*
X2997Y-21028D01*
X4002D01*
Y-21479D01*
D02*
G37*
G36*
X-1894Y-20731D02*
X-1869Y-20764D01*
X-1881Y-20825D01*
X-2085Y-20865D01*
X-2360Y-20762D01*
X-2396Y-20709D01*
X-2245Y-20345D01*
X-2069Y-20310D01*
X-1894Y-20731D01*
D02*
G37*
G36*
X2372Y-20529D02*
X2481Y-20794D01*
X1881Y-21394D01*
X1585Y-21134D01*
X1894Y-20731D01*
X1978Y-20529D01*
X2372Y-20529D01*
D02*
G37*
G36*
X7651Y-20923D02*
X7651Y-20923D01*
X7651Y-20923D01*
X7806Y-20961D01*
X7949Y-20939D01*
X8127Y-21291D01*
X7553Y-21864D01*
X6388D01*
X5864Y-21340D01*
X5996Y-21020D01*
X6390Y-21029D01*
X6405Y-21070D01*
X6508Y-21240D01*
X6668Y-21358D01*
X6862Y-21405D01*
X7058Y-21375D01*
X7228Y-21272D01*
X7346Y-21111D01*
X7393Y-20918D01*
X7651Y-20923D01*
D02*
G37*
G36*
X-5730Y-11214D02*
Y-12021D01*
X-5955Y-13153D01*
X-6057Y-13221D01*
X-6180Y-13170D01*
Y-11607D01*
X-6206Y-11480D01*
X-6225Y-11451D01*
X-6130Y-11323D01*
X-5770Y-11202D01*
X-5730Y-11214D01*
D02*
G37*
G36*
X-1498Y-11134D02*
X-1119Y-11513D01*
X-1105Y-11586D01*
X-1033Y-11693D01*
Y-11693D01*
X-1033D01*
X-1033Y-11697D01*
X-1085Y-11775D01*
X-1120Y-11950D01*
X-1085Y-12126D01*
X-985Y-12275D01*
X-836Y-12374D01*
X-661Y-12409D01*
D01*
D01*
D01*
X-661Y-12409D01*
X-661Y-12409D01*
D01*
X-454Y-12391D01*
Y-13144D01*
X-817Y-13294D01*
X-2096Y-12015D01*
Y-11799D01*
X-2116Y-11698D01*
X-2174Y-11612D01*
X-2405Y-11380D01*
X-2216Y-11170D01*
X-2216D01*
Y-11170D01*
D01*
D01*
X-2216D01*
X-2111Y-11012D01*
X-1498Y-11134D01*
D02*
G37*
G36*
X-10601Y-12997D02*
X-10601Y-12997D01*
X-10601D01*
X-10576Y-13120D01*
X-10855Y-13399D01*
X-10967Y-13377D01*
X-10997Y-13383D01*
X-11295Y-13085D01*
X-11138Y-12790D01*
X-10744Y-12774D01*
X-10601Y-12997D01*
D02*
G37*
G36*
X11109Y-13000D02*
X11128Y-13095D01*
X11156Y-13137D01*
X11158Y-13143D01*
X11257Y-13292D01*
X11357Y-13359D01*
X11681Y-13683D01*
X11656Y-13721D01*
X11621Y-13896D01*
X11656Y-14072D01*
X11755Y-14221D01*
X11904Y-14320D01*
X12080Y-14355D01*
X12324Y-15581D01*
Y-16024D01*
X9019Y-19329D01*
X8638Y-19229D01*
X8631Y-19206D01*
X8589Y-18931D01*
X8858Y-18661D01*
X8916Y-18575D01*
X8936Y-18474D01*
Y-15232D01*
X8936Y-15232D01*
X8916Y-15130D01*
X8858Y-15044D01*
X7313Y-13499D01*
X7256Y-13296D01*
D01*
X7401Y-13152D01*
D01*
X7550Y-13053D01*
X7596Y-12984D01*
X10966D01*
X10966Y-12984D01*
X10966Y-12984D01*
X11089Y-12970D01*
X11109Y-13000D01*
D02*
G37*
G36*
X-11682Y-11161D02*
X-11513Y-11414D01*
Y-11414D01*
X-11391Y-11596D01*
Y-11803D01*
X-11513Y-11985D01*
X-11932Y-11901D01*
X-11954Y-11850D01*
X-11941Y-11830D01*
X-11906Y-11655D01*
X-11941Y-11479D01*
X-11986Y-11411D01*
X-11682Y-11161D01*
Y-11161D01*
D02*
G37*
G36*
X-3550Y-9464D02*
Y-10875D01*
X-3530Y-10977D01*
X-3472Y-11063D01*
X-3307Y-11228D01*
X-3481Y-11554D01*
Y-11911D01*
Y-12244D01*
X-3465Y-12240D01*
X-3425Y-12213D01*
X-3077Y-12399D01*
Y-12784D01*
X-3052Y-12910D01*
X-2980Y-13018D01*
X-1544Y-14454D01*
X-1695Y-14818D01*
X-4259D01*
X-4297Y-14426D01*
X-4159Y-14398D01*
X-4010Y-14299D01*
X-3910Y-14150D01*
X-3903Y-14114D01*
X-3776Y-14061D01*
X-3760Y-14065D01*
Y-13732D01*
Y-13399D01*
X-3776Y-13402D01*
X-4105Y-12909D01*
Y-12412D01*
X-3758Y-12227D01*
X-3738Y-12240D01*
X-3721Y-12244D01*
Y-11911D01*
Y-11578D01*
X-3738Y-11581D01*
X-3758Y-11594D01*
X-4105Y-11409D01*
Y-10230D01*
X-3971Y-9556D01*
X-3601Y-9423D01*
X-3550Y-9464D01*
D02*
G37*
G36*
X-6980Y-11608D02*
X-6986Y-11669D01*
X-7085Y-11818D01*
X-7120Y-11993D01*
X-7105Y-12067D01*
X-7453Y-12253D01*
X-7928Y-11777D01*
X-7830Y-11630D01*
X-7795Y-11454D01*
X-7827Y-11293D01*
X-7480Y-11108D01*
X-6980Y-11608D01*
D02*
G37*
G36*
X-4659Y-14299D02*
X-4510Y-14398D01*
X-4371Y-14426D01*
X-4390Y-14619D01*
X-4761Y-14751D01*
X-4935Y-14577D01*
X-4881Y-14304D01*
X-4687Y-14256D01*
X-4659Y-14299D01*
D02*
G37*
G36*
X-3957Y-16144D02*
X-4063Y-16401D01*
X-4478D01*
X-4546Y-16333D01*
X-4645Y-16267D01*
X-4762Y-16244D01*
X-4919D01*
X-5075Y-16032D01*
X-4931Y-15816D01*
X-4175D01*
X-3957Y-16144D01*
D02*
G37*
G36*
X861Y-15695D02*
X590Y-16101D01*
X27Y-16664D01*
X-1365D01*
X-1640Y-16390D01*
X-1747Y-16318D01*
X-1874Y-16293D01*
X-3058D01*
X-3112Y-16239D01*
Y-16038D01*
X-3137Y-15911D01*
X-3209Y-15804D01*
X-3301Y-15712D01*
X-3150Y-15348D01*
X675D01*
X861Y-15695D01*
D02*
G37*
G36*
X-7741Y-16722D02*
X-8112Y-16853D01*
X-8168Y-16770D01*
X-8168Y-16770D01*
X-8302Y-16650D01*
X-8302Y-16650D01*
D01*
D01*
X-8155Y-16446D01*
X-7767Y-16446D01*
X-7741Y-16722D01*
D02*
G37*
G36*
X8406Y-16248D02*
Y-16432D01*
X8239Y-16509D01*
X7986Y-16545D01*
X7840Y-16421D01*
X7939Y-16272D01*
X7974Y-16097D01*
Y-16097D01*
X7974Y-16097D01*
X8067Y-16046D01*
X8406Y-16248D01*
D02*
G37*
G36*
X-8469Y-15354D02*
X-8671Y-15692D01*
X-9145D01*
Y-16446D01*
X-9033D01*
X-8959Y-16557D01*
X-8833Y-16793D01*
X-8916Y-16919D01*
Y-16919D01*
X-9022Y-17154D01*
X-9385Y-17004D01*
Y-16680D01*
X-9565D01*
Y-17030D01*
X-9805D01*
Y-16680D01*
X-9807D01*
X-9807Y-16680D01*
X-9807Y-16680D01*
X-9985Y-16680D01*
X-10085Y-16580D01*
Y-16447D01*
X-10084Y-16446D01*
X-10084D01*
Y-15692D01*
X-10084Y-15692D01*
X-10084D01*
X-10118Y-15609D01*
X-9556Y-15047D01*
X-9045Y-15047D01*
X-9045D01*
X-9045D01*
X-9045Y-15047D01*
X-9045Y-15047D01*
X-8633D01*
X-8469Y-15354D01*
D02*
G37*
G36*
X4788Y-14233D02*
X4674Y-14609D01*
X4579D01*
Y-14766D01*
X4975D01*
Y-15006D01*
X4579D01*
Y-15164D01*
D01*
Y-15164D01*
X4490Y-15253D01*
X3713D01*
X3713Y-15253D01*
D01*
D01*
D01*
X3713Y-15253D01*
X3713D01*
X3541Y-15166D01*
Y-14509D01*
X3541D01*
Y-14432D01*
X3819Y-14153D01*
X4670D01*
X4788Y-14233D01*
D02*
G37*
G36*
X2388Y-15240D02*
X2550Y-15264D01*
X2550Y-15264D01*
Y-15264D01*
X3078D01*
X3168Y-15481D01*
X2950Y-15808D01*
X2617D01*
X2571Y-15739D01*
X2422Y-15639D01*
Y-15639D01*
D01*
D01*
X2422Y-15639D01*
D01*
X2209Y-15418D01*
X2209D01*
X2388Y-15240D01*
Y-15240D01*
D02*
G37*
G36*
X-506Y3560D02*
X-534Y3572D01*
X-460Y3366D01*
X-422Y3171D01*
X-571Y3021D01*
X-950D01*
X-987Y3394D01*
X-671Y3628D01*
X-683Y3634D01*
X-506Y3560D01*
D02*
G37*
G36*
X7599Y14324D02*
X7659Y14251D01*
X7693Y14076D01*
X7770Y13962D01*
X7551Y13634D01*
X7448Y13655D01*
X7272Y13620D01*
X7123Y13520D01*
X7024Y13372D01*
X6989Y13196D01*
X7024Y13020D01*
X7123Y12872D01*
X7123Y12872D01*
X7043Y12782D01*
X7043D01*
X7043Y12782D01*
X6894Y12682D01*
X6794Y12534D01*
X6763Y12379D01*
X6661Y12364D01*
X6613Y12396D01*
X6390Y12618D01*
X6412Y12729D01*
X6377Y12904D01*
X6285Y13043D01*
Y13423D01*
X7205Y14344D01*
X7599Y14324D01*
D02*
G37*
G36*
X-15428Y14120D02*
X-15346Y14065D01*
X-15294Y14054D01*
X-15332Y13662D01*
X-16638D01*
X-16715Y14049D01*
D01*
D01*
D01*
X-16533Y14170D01*
X-16411Y14352D01*
X-16368Y14567D01*
D01*
X-15957Y14649D01*
X-15428Y14120D01*
D02*
G37*
G36*
X15177Y14953D02*
X15174Y14939D01*
X15213Y14744D01*
X15324Y14578D01*
X15489Y14468D01*
X15684Y14429D01*
X15879Y14468D01*
X16045Y14578D01*
X16215Y14749D01*
X16579Y14598D01*
Y14166D01*
X16441Y13474D01*
X16065Y13360D01*
X15627Y13798D01*
X15541Y13855D01*
X15440Y13876D01*
X15154D01*
X15020Y14059D01*
X14575D01*
Y14299D01*
X14908D01*
X14905Y14315D01*
X14828Y14431D01*
X14712Y14508D01*
X14694Y14512D01*
X14591Y14854D01*
X14895Y15104D01*
X15177Y14953D01*
D02*
G37*
G36*
X17644Y14967D02*
Y13699D01*
X17328Y13465D01*
X17109Y13531D01*
Y15100D01*
X17317Y15186D01*
X17644Y14967D01*
D02*
G37*
G36*
X-14878Y14984D02*
X-14940Y14744D01*
X-15266Y14679D01*
X-15533Y14946D01*
X-15452Y15211D01*
X-15186Y15292D01*
X-14878Y14984D01*
D02*
G37*
G36*
X4561Y16821D02*
X4594Y16657D01*
X4693Y16508D01*
X3829Y15215D01*
X3672Y15058D01*
X3597Y15089D01*
X3308Y15282D01*
Y16672D01*
X3293Y16749D01*
X3335Y16800D01*
X3714Y17053D01*
X4329D01*
X4561Y16821D01*
D02*
G37*
G36*
X14226Y14502D02*
X14057Y14146D01*
X12695Y13876D01*
X12480D01*
X12329Y14239D01*
X12819Y14729D01*
X14105D01*
X14226Y14502D01*
D02*
G37*
G36*
X-258Y14836D02*
X-267Y14795D01*
X-253Y14724D01*
X-427Y14489D01*
X-559Y14400D01*
X-631Y14393D01*
Y14393D01*
X-662Y14390D01*
X-662D01*
X-666Y14391D01*
Y14391D01*
X-667Y14391D01*
X-667Y14391D01*
X-667Y14391D01*
X-1053Y14777D01*
X-902Y15140D01*
X-508D01*
X-258Y14836D01*
D02*
G37*
G36*
X6355Y15627D02*
X6326Y15483D01*
X6361Y15308D01*
X6461Y15159D01*
X6576Y15082D01*
X6588Y14954D01*
X6516Y14592D01*
X5719Y13795D01*
X5647Y13687D01*
X5622Y13560D01*
Y13043D01*
X5529Y12904D01*
X5495Y12729D01*
X5529Y12553D01*
X5600Y12448D01*
X5414Y12100D01*
X4840D01*
X4738Y12080D01*
X4652Y12023D01*
X4292Y12383D01*
Y14452D01*
X4997Y15157D01*
X6027Y15845D01*
X6355Y15627D01*
D02*
G37*
G36*
X14785Y12320D02*
X14694Y12100D01*
X11383D01*
X11215Y12456D01*
X11308Y12569D01*
X11424Y12647D01*
X14566D01*
X14785Y12320D01*
D02*
G37*
G36*
X1489Y11160D02*
X1574Y11103D01*
X1675Y11083D01*
X1774Y11103D01*
X1872Y11083D01*
X1971Y11103D01*
X2069Y11083D01*
X2167Y11103D01*
X2266Y11083D01*
X2364Y11103D01*
X2463Y11083D01*
X2561Y11103D01*
X2660Y11083D01*
X2758Y11103D01*
X2856Y11083D01*
X2955Y11103D01*
X3053Y11083D01*
X3297Y10845D01*
D01*
X3253Y10623D01*
X2549Y9919D01*
X216D01*
X115Y9987D01*
X-79Y10224D01*
X-78Y10231D01*
Y10696D01*
X-91Y10761D01*
X128Y11089D01*
X199Y11103D01*
X297Y11083D01*
X396Y11103D01*
X494Y11083D01*
X593Y11103D01*
X691Y11083D01*
X789Y11103D01*
X888Y11083D01*
X986Y11103D01*
X1085Y11083D01*
X1183Y11103D01*
X1282Y11083D01*
X1383Y11103D01*
X1468Y11160D01*
X1468Y11160D01*
X1468Y11160D01*
X1468D01*
X1479Y11175D01*
X1479Y11175D01*
X1489Y11160D01*
D02*
G37*
G36*
X-15950Y12066D02*
X-15836Y11690D01*
X-16008Y11517D01*
X-16119Y11539D01*
X-16294Y11504D01*
X-16443Y11405D01*
X-16464Y11373D01*
X-16515Y11363D01*
X-16615Y11296D01*
X-16615Y11296D01*
X-16949Y10962D01*
X-17015Y10863D01*
X-17039Y10746D01*
Y10607D01*
X-20026D01*
X-20177Y10971D01*
X-19511Y11636D01*
X-19190D01*
X-19093Y11656D01*
X-19010Y11711D01*
X-18497Y12225D01*
X-16746D01*
X-15950Y12066D01*
D02*
G37*
G36*
X-1253Y13710D02*
X-1269Y13550D01*
X-1368Y13401D01*
X-1403Y13225D01*
X-1393Y13175D01*
X-1643Y12870D01*
X-3635D01*
X-3736Y12850D01*
X-3771Y12827D01*
X-3822Y12793D01*
X-3822Y12793D01*
X-3880Y12735D01*
X-4266Y12812D01*
X-4379Y13083D01*
X-4240Y13222D01*
X-4182Y13308D01*
X-4162Y13410D01*
Y14136D01*
X-3733Y14566D01*
X-2108D01*
X-1253Y13710D01*
D02*
G37*
G36*
X18518Y14744D02*
X18525Y14746D01*
X18830Y14496D01*
Y13587D01*
X18514Y13352D01*
X18335Y13406D01*
X18333Y13416D01*
X18234Y13565D01*
X18175Y13605D01*
Y14502D01*
X18479Y14752D01*
X18518Y14744D01*
D02*
G37*
G36*
X-1453Y12305D02*
X-1394Y12266D01*
Y11482D01*
D01*
D01*
X-1394Y11482D01*
X-1394Y11482D01*
X-1419Y11296D01*
X-1592D01*
X-1693Y11276D01*
X-1779Y11219D01*
X-1836Y11133D01*
X-1857Y11032D01*
X-1837Y10934D01*
X-1857Y10835D01*
X-1852Y10814D01*
X-2024Y10605D01*
X-2503Y10510D01*
X-3845D01*
X-3902Y10567D01*
X-3988Y10624D01*
X-4079Y10642D01*
Y10716D01*
X-4079D01*
Y11616D01*
X-4079D01*
X-4079Y11786D01*
X-3598Y12267D01*
X-3598Y12267D01*
X-3598Y12267D01*
X-3598Y12267D01*
X-3525Y12340D01*
X-1477D01*
X-1453Y12305D01*
D02*
G37*
G36*
X2465Y14004D02*
X2494Y14010D01*
X2798Y13760D01*
Y12900D01*
X2701Y12411D01*
X2463Y12326D01*
X2224Y12411D01*
X2127Y12900D01*
Y13761D01*
X2431Y14011D01*
X2465Y14004D01*
D02*
G37*
G36*
X-12740Y19362D02*
X-12564Y19327D01*
X-12389Y19362D01*
X-12389Y19362D01*
X-12389Y19362D01*
X-12096Y19383D01*
X-12096D01*
X-12096Y19383D01*
X-12061Y19207D01*
X-11962Y19058D01*
X-11824Y18966D01*
X-11766Y18577D01*
X-11922Y18386D01*
X-11955Y18364D01*
X-13563D01*
X-13714Y18728D01*
X-12987Y19455D01*
X-12878D01*
X-12740Y19362D01*
D02*
G37*
G36*
X-8292Y19364D02*
X-8196Y19132D01*
X-8346Y18983D01*
X-8739Y19002D01*
X-8770Y19039D01*
X-9272D01*
Y19279D01*
X-8799D01*
X-8682Y19422D01*
X-8292Y19364D01*
D02*
G37*
G36*
X11214Y18806D02*
Y18082D01*
X11214Y18082D01*
X11214D01*
X11234Y17984D01*
X11289Y17902D01*
X11296Y17895D01*
X11145Y17531D01*
X10633D01*
X10246Y17918D01*
X10233Y17981D01*
X10134Y18130D01*
X9985Y18229D01*
X9809Y18264D01*
X9634Y18229D01*
X9525Y18156D01*
X9178Y18342D01*
Y18888D01*
X9373Y19083D01*
X10937D01*
X11214Y18806D01*
D02*
G37*
G36*
X8066Y17714D02*
X8049Y17723D01*
X8142Y17416D01*
X8149Y17381D01*
X8156Y17371D01*
X8163Y17346D01*
X7982Y17006D01*
X7553D01*
X7367Y17354D01*
X7536Y17607D01*
X7790Y17861D01*
X8066Y17714D01*
D02*
G37*
G36*
X-7676Y21454D02*
X-7895Y21127D01*
X-8520D01*
X-8688Y21482D01*
X-8544Y21658D01*
X-8492Y21692D01*
X-7775D01*
X-7676Y21454D01*
D02*
G37*
G36*
X9253Y21730D02*
X9016Y21415D01*
X5761Y21458D01*
X5529Y21776D01*
X5569Y21909D01*
X9198D01*
X9253Y21730D01*
D02*
G37*
G36*
X-9840Y20565D02*
X-9884Y20341D01*
X-9944Y20173D01*
X-10785Y20006D01*
X-11258D01*
X-11477Y20333D01*
X-11368Y20596D01*
X-9887D01*
X-9840Y20565D01*
D02*
G37*
G36*
X-5345Y22395D02*
X-5297Y22280D01*
X-7572Y20006D01*
X-7632D01*
X-8472Y20173D01*
X-8532Y20341D01*
X-8577Y20565D01*
X-8529Y20596D01*
X-7717D01*
X-7615Y20617D01*
X-7529Y20674D01*
X-7529Y20674D01*
X-7529Y20674D01*
X-5731Y22472D01*
X-5345Y22395D01*
D02*
G37*
G36*
X-6249Y17105D02*
X-6272Y17071D01*
X-6307Y16895D01*
X-6272Y16720D01*
X-6172Y16571D01*
X-6108Y16528D01*
X-6076Y16205D01*
X-6095Y16111D01*
X-6542Y15664D01*
X-6542Y15664D01*
Y15664D01*
X-6560Y15651D01*
D01*
X-6676Y15729D01*
X-6693Y15732D01*
Y15399D01*
X-6813D01*
Y15279D01*
X-7146D01*
X-7142Y15262D01*
X-7065Y15147D01*
X-6949Y15069D01*
X-6813Y15042D01*
X-6813D01*
X-6813Y15042D01*
X-6731Y14737D01*
X-6766Y14562D01*
X-6731Y14386D01*
X-6632Y14237D01*
X-6613Y14044D01*
X-7923Y12734D01*
X-12015D01*
X-12967Y12924D01*
D01*
Y13393D01*
D01*
Y13393D01*
X-12967D01*
D01*
Y13393D01*
X-12967D01*
Y13393D01*
D01*
D01*
D01*
D01*
D01*
X-12967Y13393D01*
X-12986Y13490D01*
X-13005Y13518D01*
X-13005Y13518D01*
X-13041Y13573D01*
X-13041Y13573D01*
X-13252Y13784D01*
X-13276Y13808D01*
X-13267Y13903D01*
X-13167Y14051D01*
X-13133Y14227D01*
X-13167Y14403D01*
X-13267Y14551D01*
X-13416Y14651D01*
X-13591Y14686D01*
X-13767Y14651D01*
X-13801Y14628D01*
X-14826Y15653D01*
X-14745Y15919D01*
X-14479Y15999D01*
X-14405Y15925D01*
X-14322Y15869D01*
X-14224Y15850D01*
X-9501D01*
X-9404Y15869D01*
X-9321Y15925D01*
X-9321Y15925D01*
X-9321Y15925D01*
X-8855Y16391D01*
X-8714Y16256D01*
Y16256D01*
X-8714D01*
D01*
D01*
Y16256D01*
X-8598Y16178D01*
X-8581Y16175D01*
Y16508D01*
X-8461D01*
Y16628D01*
X-8128D01*
X-8132Y16644D01*
X-8209Y16760D01*
X-8209Y16760D01*
Y16760D01*
Y16760D01*
D01*
X-8209D01*
X-8344Y16901D01*
X-7794Y17452D01*
X-6435D01*
X-6249Y17105D01*
D02*
G37*
G36*
X10369Y16893D02*
X10369Y16893D01*
X10369Y16893D01*
X10496Y16868D01*
X10496Y16868D01*
X13091D01*
X13092Y16865D01*
X13202Y16700D01*
X13368Y16589D01*
X13563Y16550D01*
D01*
X13862Y16353D01*
D01*
D01*
X13862D01*
D01*
D01*
X13893Y16197D01*
X13914Y16166D01*
X14324Y16577D01*
X14494Y16407D01*
X14083Y15997D01*
X14114Y15976D01*
X14270Y15945D01*
X14270Y15945D01*
X14270Y15945D01*
X14399Y15888D01*
X14472Y15501D01*
X14209Y15239D01*
X12713D01*
X12615Y15219D01*
X12533Y15164D01*
X11986Y14617D01*
X10828D01*
X10642Y14964D01*
X10665Y14997D01*
X10700Y15173D01*
X10665Y15349D01*
X10565Y15497D01*
X10417Y15597D01*
X10241Y15632D01*
X10201Y15624D01*
X9897Y15874D01*
Y15914D01*
X9797Y16014D01*
X9797Y16192D01*
X9797Y16192D01*
X9797Y16192D01*
Y16194D01*
X9447D01*
Y16434D01*
X9797D01*
Y16614D01*
X9797Y16614D01*
D01*
X10004Y16766D01*
X10004D01*
X10120Y16844D01*
X10197Y16959D01*
X10197D01*
D01*
X10369Y16893D01*
D02*
G37*
G36*
X15247Y17072D02*
X15403Y17041D01*
X15403Y17041D01*
X15403Y17041D01*
X15465Y17013D01*
X15538Y16626D01*
X15382Y16471D01*
X14995Y16543D01*
X14956Y16632D01*
Y16632D01*
X14956D01*
X14956Y16632D01*
X14925Y16788D01*
X14895Y16832D01*
X14895Y16832D01*
X14883Y16851D01*
X15161Y17129D01*
X15247Y17072D01*
D02*
G37*
G36*
X1906Y16695D02*
X1933Y16559D01*
X2011Y16443D01*
X2011Y16443D01*
X2011D01*
X2114Y16284D01*
X1769Y15939D01*
X1651Y15916D01*
X1345Y15946D01*
X1299Y16015D01*
X1151Y16114D01*
X975Y16149D01*
X799Y16114D01*
X651Y16015D01*
X651Y16015D01*
Y16015D01*
X546Y15927D01*
X463Y15983D01*
X365Y16002D01*
X-634D01*
X-733Y16123D01*
X-760Y16260D01*
X-837Y16376D01*
X-953Y16453D01*
X-970Y16456D01*
Y16123D01*
X-1210D01*
Y16456D01*
X-1226Y16453D01*
X-1342Y16376D01*
X-1419Y16260D01*
X-1447Y16123D01*
X-1546Y16002D01*
X-4133D01*
X-4284Y16366D01*
X-3797Y16853D01*
X-1225D01*
X-1198Y16579D01*
X-981D01*
X-954Y16853D01*
X1115D01*
X1906Y16695D01*
D02*
G37*
G36*
X-15660Y17921D02*
X-15759Y17809D01*
X-15430Y17480D01*
X-15600Y17311D01*
X-15907Y17618D01*
X-15939Y17571D01*
X-15974Y17395D01*
X-15939Y17220D01*
X-16222Y17147D01*
X-16222Y17147D01*
Y17147D01*
X-16398Y17112D01*
X-16445Y17081D01*
X-16137Y16773D01*
X-16307Y16603D01*
X-16614Y16911D01*
X-16646Y16864D01*
X-16681Y16688D01*
X-16646Y16513D01*
X-16929Y16440D01*
X-16929Y16440D01*
Y16440D01*
X-17105Y16405D01*
X-17152Y16374D01*
X-16844Y16066D01*
X-17014Y15896D01*
X-17322Y16204D01*
X-17353Y16157D01*
X-17388Y15981D01*
D01*
X-17388Y15981D01*
D01*
X-17388Y15981D01*
X-17636Y15835D01*
D01*
X-17851Y15792D01*
X-18033Y15671D01*
X-18154Y15489D01*
X-18197Y15274D01*
X-18154Y15059D01*
X-18033Y14878D01*
X-17891Y14783D01*
Y14133D01*
X-17891Y14133D01*
X-17891D01*
X-17872Y14035D01*
X-17816Y13953D01*
X-17718Y13854D01*
X-17869Y13490D01*
X-18831D01*
X-19006Y13455D01*
X-19155Y13356D01*
X-19254Y13257D01*
X-19405Y13272D01*
X-19521Y13349D01*
X-19538Y13352D01*
Y13019D01*
X-19778D01*
Y13384D01*
X-19867Y13458D01*
X-20050Y13732D01*
Y14411D01*
X-16912Y17550D01*
X-15939Y18200D01*
X-15660Y17921D01*
D02*
G37*
G36*
X4952Y21533D02*
X4879Y21484D01*
X4780Y21335D01*
X4745Y21159D01*
X4780Y20984D01*
X4879Y20835D01*
X5028Y20736D01*
X5204Y20701D01*
X5379Y20736D01*
X5528Y20835D01*
X5537Y20849D01*
X9419Y20798D01*
X9450Y20777D01*
X9626Y20742D01*
X9802Y20777D01*
X9950Y20876D01*
X10050Y21025D01*
X10085Y21201D01*
X10050Y21376D01*
X9950Y21525D01*
X9939Y21533D01*
X10008Y21761D01*
X10390Y21856D01*
X11070Y21177D01*
X11070D01*
X11070Y21177D01*
X11070D01*
X11070Y21177D01*
Y21177D01*
X11070Y21177D01*
Y21177D01*
X11152Y21122D01*
X11250Y21102D01*
X11521D01*
D01*
X11532Y20788D01*
D01*
X11497Y20612D01*
X11497Y20612D01*
X11497Y20612D01*
X11494Y20568D01*
X11318Y20533D01*
X11169Y20434D01*
X11070Y20285D01*
X11035Y20109D01*
X9713Y19847D01*
X9161D01*
X9063Y19827D01*
X8981Y19772D01*
X6636Y17427D01*
X6294Y17360D01*
X6152Y17374D01*
X6122Y17419D01*
X5435Y18106D01*
X5352Y18161D01*
X5254Y18180D01*
X-4542D01*
X-5967Y18464D01*
X-6002Y18640D01*
X-6102Y18788D01*
X-6251Y18888D01*
X-6426Y18923D01*
X-6602Y18888D01*
X-6751Y18788D01*
X-6850Y18640D01*
X-6853Y18623D01*
X-6970Y18507D01*
X-7338D01*
X-7488Y18870D01*
X-4449Y21909D01*
X4838D01*
X4952Y21533D01*
D02*
G37*
G36*
X9541Y17262D02*
X9538Y17232D01*
D01*
X9534Y17216D01*
X9867D01*
Y16976D01*
X9534D01*
X9538Y16959D01*
X9538Y16959D01*
Y16959D01*
Y16959D01*
X9538D01*
X9538D01*
X9461Y16614D01*
X9158D01*
X9158Y16614D01*
D01*
X8880Y16892D01*
Y16906D01*
X8880Y17137D01*
X8880Y17220D01*
X8897Y17232D01*
X8997Y17381D01*
X9024Y17516D01*
X9331Y17577D01*
X9541Y17262D01*
D02*
G37*
G36*
X-8960Y17338D02*
X-9292Y17006D01*
X-13307D01*
X-13557Y17311D01*
X-13540Y17395D01*
X-13540Y17397D01*
X-13291Y17702D01*
X-9111D01*
X-8960Y17338D01*
D02*
G37*
G36*
X21487Y11120D02*
X21550Y10802D01*
X21535Y10642D01*
X21428Y10570D01*
X21328Y10422D01*
X21293Y10246D01*
X21328Y10070D01*
X21428Y9922D01*
X21487Y9882D01*
Y9536D01*
X21175Y9069D01*
X20961Y9112D01*
X20746Y9069D01*
X20564Y8948D01*
X20443Y8766D01*
D01*
X20285Y8876D01*
X20285Y8876D01*
Y8876D01*
X20136Y8975D01*
X20081Y8986D01*
Y8551D01*
X19841D01*
Y8986D01*
X19785Y8975D01*
X19636Y8876D01*
X19537Y8727D01*
X19285Y8876D01*
X19285Y8876D01*
Y8876D01*
X19136Y8975D01*
X19081Y8986D01*
Y8551D01*
X18841D01*
Y8986D01*
X18785Y8975D01*
X18636Y8876D01*
X18636Y8876D01*
Y8876D01*
X18479Y8766D01*
D01*
X18357Y8948D01*
X18175Y9069D01*
X17961Y9112D01*
X17746Y9069D01*
X17564Y8948D01*
X17357D01*
X17175Y9069D01*
X16961Y9112D01*
X16746Y9069D01*
X16564Y8948D01*
X16443Y8766D01*
X16400Y8551D01*
X16443Y8337D01*
X16564Y8155D01*
Y7948D01*
X16443Y7766D01*
X16400Y7551D01*
X16443Y7337D01*
X16564Y7155D01*
X16746Y7033D01*
X16961Y6990D01*
X17175Y7033D01*
X17357Y7155D01*
X17564D01*
X17746Y7033D01*
X17961Y6990D01*
X18175Y7033D01*
X18357Y7155D01*
X18564D01*
X18746Y7033D01*
X18894Y7004D01*
X19008Y6627D01*
X18284Y5903D01*
X18159Y5915D01*
X18010Y6014D01*
X17835Y6049D01*
X17659Y6014D01*
X17510Y5915D01*
D01*
X17450Y5994D01*
D01*
X17450Y5994D01*
Y5994D01*
X17302Y6093D01*
X17126Y6128D01*
X16950Y6093D01*
X16802Y5994D01*
X16702Y5845D01*
X16667Y5669D01*
X16702Y5494D01*
X16802Y5345D01*
X16802Y5338D01*
X15571Y4106D01*
X11979D01*
X11828Y4470D01*
X12007Y4649D01*
X12007Y4649D01*
X12047Y4709D01*
X13427Y6089D01*
X13427Y6089D01*
X13498Y6195D01*
X13523Y6319D01*
X13523Y6319D01*
Y6987D01*
X13498Y7112D01*
X13470Y7154D01*
X13427Y7217D01*
X13427Y7217D01*
X13293Y7352D01*
X13443Y7716D01*
X13810D01*
X13912Y7736D01*
X13983Y7784D01*
X14036Y7755D01*
X14330Y7461D01*
Y6455D01*
X14350Y6354D01*
X14350Y6354D01*
X14350Y6354D01*
X14355Y6196D01*
X14296Y6157D01*
X14197Y6008D01*
X14162Y5832D01*
X14197Y5657D01*
X14296Y5508D01*
X14445Y5408D01*
X14620Y5373D01*
X14796Y5408D01*
X14945Y5508D01*
X15044Y5657D01*
X15079Y5832D01*
X15044Y6008D01*
X14945Y6157D01*
X14886Y6196D01*
Y6430D01*
X14865Y6531D01*
X14860Y6539D01*
Y7820D01*
X14920Y7860D01*
X15019Y8008D01*
X15054Y8184D01*
X15019Y8360D01*
X14920Y8508D01*
X14910Y8604D01*
X15930Y9624D01*
X16952D01*
X17053Y9644D01*
X17139Y9702D01*
X17139Y9702D01*
X17139Y9702D01*
X17357Y9920D01*
X17357Y9920D01*
X17414Y10006D01*
X17414Y10006D01*
Y10006D01*
X17550Y10326D01*
X17941Y10286D01*
X17961Y10146D01*
D01*
X17926Y9970D01*
X17961Y9795D01*
X18060Y9646D01*
X18209Y9546D01*
X18385Y9511D01*
X18560Y9546D01*
X18709Y9646D01*
X18709D01*
Y9646D01*
X18744Y9653D01*
X18831Y9595D01*
X19007Y9560D01*
X19182Y9595D01*
X19331Y9694D01*
X19431Y9843D01*
X19466Y10019D01*
X19431Y10194D01*
X19378Y10273D01*
X19877Y10772D01*
X19877D01*
X20191Y10703D01*
Y10703D01*
X20191D01*
D01*
Y10703D01*
D01*
X20306Y10625D01*
X20323Y10622D01*
Y10955D01*
X20443D01*
Y11075D01*
X20776D01*
X20773Y11092D01*
X20773Y11092D01*
X20773Y11092D01*
X20778Y11317D01*
X21143Y11464D01*
X21487Y11120D01*
D02*
G37*
G36*
X2078Y6627D02*
Y6531D01*
X1926Y6246D01*
X1872Y6257D01*
X1774Y6237D01*
X1675Y6257D01*
X1577Y6237D01*
X1478Y6257D01*
X1380Y6237D01*
X1282Y6257D01*
X1183Y6237D01*
X1085Y6257D01*
X986Y6237D01*
X888Y6257D01*
X789Y6237D01*
X691Y6257D01*
X593Y6237D01*
X494Y6257D01*
X396Y6237D01*
X297Y6257D01*
X199Y6237D01*
X100Y6257D01*
X2Y6237D01*
X-96Y6257D01*
X-195Y6237D01*
X-293Y6257D01*
X-392Y6237D01*
X-490Y6257D01*
X-588Y6237D01*
D01*
X-738Y6505D01*
X-738Y6505D01*
X-738D01*
X-757Y6603D01*
X-738Y6701D01*
X-742Y6723D01*
X-570Y6932D01*
X-91Y7027D01*
X1678D01*
X2078Y6627D01*
D02*
G37*
G36*
X-6390Y6949D02*
X-5608D01*
Y6543D01*
X-5727Y6543D01*
D01*
X-6102D01*
Y6543D01*
X-7702D01*
Y6425D01*
X-8170D01*
Y6543D01*
X-8516D01*
Y6949D01*
X-7565D01*
Y7894D01*
X-6390D01*
Y6949D01*
D02*
G37*
G36*
X-4155Y6302D02*
X-4390Y5950D01*
X-4459Y5893D01*
X-4607Y5923D01*
X-4607Y5923D01*
X-4607Y5923D01*
X-4827Y5961D01*
Y6543D01*
X-4946D01*
Y6949D01*
X-4155D01*
Y6302D01*
D02*
G37*
G36*
X23468Y7702D02*
Y6209D01*
X23077Y6170D01*
X23048Y6314D01*
X22949Y6462D01*
X22800Y6562D01*
X22624Y6597D01*
X22449Y6562D01*
X22342Y6490D01*
X21978Y6641D01*
X21900Y7033D01*
X21940Y7072D01*
X21997Y7158D01*
X22017Y7260D01*
X22017Y7260D01*
X22017Y7260D01*
Y7260D01*
Y8639D01*
X22381Y8790D01*
X23468Y7702D01*
D02*
G37*
G36*
X-13317Y7097D02*
X-13317Y7097D01*
X-13317Y7097D01*
X-13298Y7093D01*
X-13200Y7074D01*
X-13200Y7074D01*
X-13200Y7074D01*
X-12896Y7072D01*
Y6125D01*
X-13570D01*
Y4855D01*
X-13570Y4855D01*
X-13570D01*
X-13563Y4843D01*
X-13645Y4721D01*
X-13657Y4659D01*
X-13851Y4600D01*
X-14189Y4803D01*
X-14219Y4955D01*
X-14319Y5104D01*
X-14468Y5203D01*
X-14643Y5238D01*
X-14819Y5203D01*
X-14968Y5104D01*
X-15132Y5088D01*
X-15431Y5387D01*
X-15243Y5615D01*
X-15243D01*
Y5615D01*
D01*
D01*
X-15243D01*
X-15144Y5764D01*
X-15124Y5863D01*
X-14297Y6690D01*
D01*
D01*
X-14297Y6690D01*
X-14297Y6690D01*
X-14217Y6706D01*
X-14172Y6676D01*
X-13997Y6641D01*
X-13821Y6676D01*
X-13672Y6776D01*
X-13573Y6925D01*
X-13538Y7100D01*
D01*
Y7100D01*
X-13538Y7100D01*
X-13317Y7097D01*
D02*
G37*
G36*
X3885Y10285D02*
X4093Y10222D01*
D01*
X4108Y9952D01*
D01*
X4088Y9851D01*
X4108Y9753D01*
X4088Y9654D01*
X4108Y9556D01*
X4088Y9457D01*
X4108Y9359D01*
X4088Y9261D01*
X4108Y9162D01*
X4088Y9064D01*
X4108Y8965D01*
X4088Y8867D01*
X4108Y8768D01*
X4088Y8670D01*
X4108Y8572D01*
X4088Y8473D01*
X4108Y8375D01*
X4088Y8276D01*
X4108Y8178D01*
X4088Y8079D01*
X4108Y7981D01*
X4088Y7883D01*
X4108Y7784D01*
X4088Y7686D01*
X4108Y7587D01*
X4088Y7489D01*
X4108Y7390D01*
X4088Y7292D01*
X4108Y7194D01*
X4088Y7095D01*
X4094Y7069D01*
X3927Y6866D01*
X3417Y6765D01*
X2690D01*
X1975Y7479D01*
X1889Y7537D01*
X1788Y7557D01*
X-91D01*
X-570Y7652D01*
X-742Y7861D01*
X-738Y7883D01*
X-757Y7981D01*
X-738Y8079D01*
X-757Y8178D01*
X-738Y8276D01*
X-757Y8375D01*
X-738Y8473D01*
X-757Y8572D01*
X-738Y8670D01*
X-757Y8768D01*
X-738Y8867D01*
X-757Y8965D01*
X-738Y9064D01*
X-742Y9085D01*
X-570Y9294D01*
X-91Y9389D01*
X2659D01*
X2760Y9409D01*
X2846Y9467D01*
X2846Y9467D01*
X2846Y9467D01*
X3627Y10248D01*
X3851Y10292D01*
X3885Y10285D01*
D02*
G37*
G36*
X9384Y7057D02*
X9560Y7022D01*
X9560Y7022D01*
X9560Y7022D01*
X9821Y6885D01*
D01*
X9821Y6885D01*
X9721Y6736D01*
X9686Y6561D01*
X9721Y6385D01*
X9759Y6329D01*
X9608Y5965D01*
X9339Y5911D01*
X8113D01*
X7928Y6259D01*
X7968Y6318D01*
X8003Y6494D01*
X8003Y6494D01*
X8003Y6494D01*
X8026Y6611D01*
D01*
X8026Y6611D01*
X8202Y6576D01*
X8377Y6611D01*
X8526Y6710D01*
X8608Y6833D01*
X8677Y6787D01*
X8853Y6752D01*
X9028Y6787D01*
X9177Y6886D01*
X9277Y7035D01*
X9363Y7071D01*
X9384Y7057D01*
D02*
G37*
G36*
X10661Y7889D02*
X10747Y7831D01*
X10849Y7811D01*
X12162D01*
D01*
X12174Y7547D01*
X12174Y7547D01*
X12174D01*
D01*
D01*
D01*
X12209Y7371D01*
X12308Y7222D01*
X12308Y7222D01*
X12308D01*
X12332Y7172D01*
X12123Y6839D01*
X11868Y6839D01*
X11800Y6941D01*
X11651Y7040D01*
X11475Y7075D01*
X11300Y7040D01*
X11151Y6941D01*
X11051Y6792D01*
X11017Y6617D01*
X11051Y6441D01*
X11151Y6292D01*
X11300Y6193D01*
X11475Y6158D01*
X11651Y6193D01*
X11781Y6279D01*
X12183D01*
X12334Y5916D01*
X11792Y5375D01*
X11658Y5388D01*
X11509Y5487D01*
X11333Y5522D01*
X11158Y5487D01*
X11105Y5452D01*
X10772Y5785D01*
X10470Y6236D01*
X10569Y6385D01*
X10604Y6561D01*
X10569Y6736D01*
X10470Y6885D01*
X10321Y6985D01*
X10145Y7020D01*
X10145Y7020D01*
X10145Y7020D01*
X10043Y7073D01*
X9984Y7305D01*
X10019Y7481D01*
X9984Y7656D01*
X9923Y7747D01*
X10103Y8016D01*
X10495Y8055D01*
X10661Y7889D01*
D02*
G37*
G36*
X25197Y11024D02*
Y2756D01*
X22769D01*
X22576Y3045D01*
X22545Y3120D01*
X24034Y4609D01*
X24034Y4609D01*
X24034Y4609D01*
X24106Y4717D01*
X24131Y4843D01*
Y7840D01*
X24106Y7966D01*
X24034Y8074D01*
X22858Y9250D01*
Y10567D01*
X22833Y10694D01*
X22761Y10801D01*
X22307Y11255D01*
X22253Y11291D01*
X21443Y12101D01*
X21335Y12173D01*
X21208Y12198D01*
X21094D01*
X20956Y12291D01*
X20780Y12326D01*
X20574Y13362D01*
Y14697D01*
X20574Y14697D01*
X20554Y14799D01*
X20496Y14885D01*
X19567Y15814D01*
Y15923D01*
X19567Y15923D01*
X19547Y16024D01*
X19489Y16110D01*
X19489Y16110D01*
X16250Y19349D01*
X16164Y19406D01*
X16063Y19427D01*
X15922D01*
X14112Y21236D01*
X14026Y21294D01*
X13925Y21314D01*
X13304D01*
X12429Y22189D01*
X12343Y22246D01*
X12242Y22266D01*
X11497D01*
X10667Y23096D01*
X10581Y23154D01*
X10479Y23174D01*
X7852D01*
X7620Y23522D01*
X7719Y23671D01*
X7754Y23846D01*
X7719Y24022D01*
X7620Y24171D01*
X7471Y24270D01*
X7295Y24305D01*
X7120Y24270D01*
X6971Y24171D01*
X6871Y24022D01*
X6836Y23846D01*
X6837Y23841D01*
X6547Y23551D01*
X-78D01*
X-179Y23531D01*
X-265Y23473D01*
X-370Y23369D01*
X-5750D01*
X-5750Y23369D01*
X-5851Y23349D01*
X-5937Y23291D01*
X-7006Y22223D01*
X-7457D01*
X-8762Y22482D01*
X-8801Y22677D01*
X-8912Y22843D01*
X-9077Y22953D01*
X-9272Y22992D01*
X-9467Y22953D01*
X-9633Y22843D01*
X-9743Y22677D01*
X-9782Y22482D01*
D01*
D01*
D01*
X-9782Y22482D01*
X-9782Y22482D01*
X-9778Y22223D01*
X-10094D01*
X-10094Y22223D01*
X-10196Y22202D01*
X-10282Y22145D01*
X-10282Y22145D01*
X-10895Y21532D01*
X-13455D01*
X-13455Y21532D01*
X-13557Y21512D01*
X-13643Y21454D01*
X-13643Y21454D01*
X-14894Y20203D01*
X-15174D01*
X-15275Y20183D01*
X-15361Y20126D01*
X-15361Y20126D01*
X-20859Y14628D01*
X-20917Y14542D01*
X-20937Y14440D01*
Y13288D01*
X-22071Y12154D01*
X-22128Y12068D01*
X-22148Y11967D01*
Y11712D01*
X-23009Y10851D01*
X-23066Y10765D01*
X-23086Y10664D01*
Y9966D01*
X-23386Y9666D01*
X-23444Y9580D01*
X-23464Y9478D01*
Y5935D01*
X-23523Y5895D01*
X-23623Y5746D01*
X-23658Y5571D01*
X-23623Y5395D01*
X-23523Y5246D01*
X-23374Y5147D01*
X-23199Y5112D01*
X-23023Y5147D01*
X-23023Y5147D01*
X-23023Y5147D01*
X-22831Y5162D01*
X-22831Y5162D01*
X-22831Y5162D01*
X-22774Y5076D01*
X-21828Y4130D01*
X-21742Y4073D01*
X-21641Y4052D01*
X-20204D01*
X-20142Y4011D01*
X-19926Y3748D01*
X-19941Y3677D01*
X-19906Y3502D01*
X-19806Y3353D01*
X-19657Y3253D01*
X-19482Y3218D01*
X-19306Y3253D01*
X-19157Y3353D01*
X-19087Y3458D01*
X-18732Y3423D01*
X-18541Y3079D01*
X-18701Y2756D01*
X-25122D01*
X-25377Y3056D01*
X-23819Y12598D01*
X-11220Y25197D01*
X10236D01*
X10630Y25591D01*
X25197Y11024D01*
D02*
G37*
G36*
X-7053Y5207D02*
X-7082Y5064D01*
X-7443Y4992D01*
X-7721D01*
X-7822Y4972D01*
X-7856Y4949D01*
X-7908Y4914D01*
D01*
X-7908Y4914D01*
X-8094Y5100D01*
X-7943Y5464D01*
X-7078D01*
X-7053Y5207D01*
D02*
G37*
G36*
X20166Y6588D02*
X20264Y6404D01*
X20236Y6362D01*
X20201Y6187D01*
X20236Y6011D01*
X20336Y5862D01*
X20470Y5773D01*
X20411Y5685D01*
X20376Y5509D01*
X20411Y5334D01*
X20510Y5185D01*
X20659Y5085D01*
X20835Y5050D01*
X21010Y5085D01*
X21159Y5185D01*
X21206Y5254D01*
X21991D01*
X22088Y5274D01*
X22171Y5329D01*
X22171Y5329D01*
X22171Y5329D01*
X22538Y5696D01*
X22624Y5679D01*
X22800Y5714D01*
X22949Y5814D01*
X23048Y5962D01*
X23077Y6106D01*
X23468Y6067D01*
Y4981D01*
X22162Y3674D01*
X19569D01*
X19530Y3733D01*
X19381Y3832D01*
X19381Y3832D01*
X19381D01*
X19248Y3960D01*
X19248Y3960D01*
X19364Y4037D01*
X19441Y4153D01*
X19445Y4169D01*
X19112D01*
Y4289D01*
X18992D01*
Y4622D01*
X18975Y4619D01*
X18859Y4542D01*
X18782Y4426D01*
X18782Y4426D01*
Y4426D01*
X18449Y4472D01*
X18234Y4637D01*
X18105Y4911D01*
X18181Y5018D01*
X18181Y5018D01*
X18181D01*
X18407Y5244D01*
X18464Y5330D01*
X18465Y5334D01*
X19777Y6646D01*
X20166Y6588D01*
D02*
G37*
G36*
X-1705Y5300D02*
X-1530Y5265D01*
X-1354Y5300D01*
X-1292Y5341D01*
X-906Y5264D01*
X-874Y5215D01*
X-832Y5188D01*
X-799Y4859D01*
X-1078Y4580D01*
X-1407Y4613D01*
X-1445Y4669D01*
X-1594Y4769D01*
X-1769Y4804D01*
X-1893Y4779D01*
X-2029Y4916D01*
X-1991Y5308D01*
X-1854Y5399D01*
X-1705Y5300D01*
D02*
G37*
G36*
X-16899Y6134D02*
X-17050Y5771D01*
X-18841D01*
X-18873Y5933D01*
X-18973Y6082D01*
X-19013Y6109D01*
X-18898Y6485D01*
X-17250D01*
X-16899Y6134D01*
D02*
G37*
G36*
X6878Y6380D02*
X6979Y6360D01*
X7017D01*
X7130Y5990D01*
X7026Y5913D01*
X7023Y5910D01*
X7022Y5910D01*
X6840Y5774D01*
X6768Y5785D01*
D01*
X6752Y5788D01*
Y5456D01*
X6512D01*
Y5788D01*
X6495Y5785D01*
X6380Y5708D01*
D01*
Y5708D01*
X6380D01*
D01*
Y5708D01*
X6186Y5557D01*
X5707Y6036D01*
X5858Y6399D01*
X6849D01*
X6878Y6380D01*
D02*
G37*
G36*
X10624Y4522D02*
X10438Y4175D01*
X9751Y4311D01*
X9716Y4487D01*
X9617Y4636D01*
X9468Y4735D01*
X9292Y4770D01*
X9117Y4735D01*
X8968Y4636D01*
X8928Y4577D01*
X7166D01*
X6810Y4933D01*
X7060Y5237D01*
X7172Y5162D01*
X7347Y5127D01*
X7523Y5162D01*
X7670Y5261D01*
X9885D01*
X10624Y4522D01*
D02*
G37*
G36*
X-19581Y6109D02*
X-19621Y6082D01*
X-19721Y5933D01*
X-19756Y5757D01*
X-19754Y5750D01*
X-20004Y5446D01*
X-20711D01*
X-21387Y6122D01*
X-21237Y6485D01*
X-19696D01*
X-19581Y6109D01*
D02*
G37*
G36*
X-12603Y11986D02*
Y9786D01*
X-12876Y9377D01*
X-12904Y9354D01*
X-13290Y9435D01*
X-13297Y9450D01*
X-13715D01*
Y9570D01*
X-13835D01*
Y9903D01*
X-13852Y9900D01*
X-13967Y9822D01*
D01*
X-13967Y9822D01*
X-13967Y9822D01*
X-13967Y9822D01*
X-13967Y9822D01*
X-14081Y9696D01*
X-14617Y10232D01*
X-14493Y10337D01*
D01*
Y10337D01*
X-14493Y10337D01*
X-14493Y10337D01*
X-14493Y10337D01*
X-14493Y10337D01*
D01*
X-14415Y10453D01*
X-14412Y10470D01*
X-14745D01*
Y10590D01*
X-14865D01*
Y10923D01*
X-14882Y10919D01*
X-14997Y10842D01*
X-14997D01*
X-15207Y10899D01*
X-15309Y11280D01*
X-15086Y11502D01*
X-14911Y11537D01*
X-14762Y11636D01*
X-14663Y11785D01*
X-14628Y11961D01*
X-13551Y12175D01*
X-12603Y11986D01*
D02*
G37*
G36*
X-7286Y10619D02*
X-8365Y9540D01*
X-8365Y9540D01*
X-8541Y9505D01*
X-8690Y9406D01*
X-8789Y9257D01*
X-8824Y9082D01*
X-8808Y8998D01*
X-8997Y8767D01*
X-9107Y8693D01*
X-9722D01*
X-9820Y8674D01*
X-9902Y8619D01*
X-10293Y8228D01*
X-10293Y8228D01*
X-10293Y8228D01*
Y8228D01*
X-10480Y8171D01*
X-10937Y8629D01*
Y10744D01*
X-10698Y10983D01*
X-7437D01*
X-7286Y10619D01*
D02*
G37*
G36*
X9839Y10444D02*
X9636Y10106D01*
X8777D01*
X8580Y10238D01*
X8649Y10585D01*
X8709Y10634D01*
X9326Y10757D01*
X9671D01*
X9839Y10444D01*
D02*
G37*
G36*
X13859Y10742D02*
X13936Y10356D01*
X13906Y10336D01*
X13828Y10220D01*
X13825Y10204D01*
X14158D01*
Y9964D01*
X13712D01*
X13611Y9828D01*
D01*
X13435Y9863D01*
X13259Y9828D01*
X13111Y9729D01*
X13061Y9655D01*
X12857D01*
X12857Y9655D01*
X12755Y9634D01*
X12669Y9577D01*
X12469Y9376D01*
X11982D01*
X11934Y9435D01*
X11899Y9611D01*
X11799Y9759D01*
X11651Y9859D01*
X11475Y9894D01*
X11299Y9859D01*
X11299Y9859D01*
X11299Y9859D01*
X11199Y9838D01*
D01*
X11100Y9987D01*
X10951Y10086D01*
X10775Y10121D01*
X10716Y10109D01*
X10481Y10426D01*
X10658Y10757D01*
X13785D01*
X13859Y10742D01*
D02*
G37*
G36*
X7308Y10304D02*
X7226Y10106D01*
X6832D01*
Y10131D01*
X6832D01*
Y10500D01*
X7030Y10582D01*
X7308Y10304D01*
D02*
G37*
G36*
X-16421Y9520D02*
X-16421D01*
X-16421Y9520D01*
X-16421Y9520D01*
Y9520D01*
X-16335Y9463D01*
X-16233Y9443D01*
X-15308D01*
X-14700Y8835D01*
X-14855Y8716D01*
X-14855Y8716D01*
Y8716D01*
X-14855Y8716D01*
X-14855Y8716D01*
X-14855Y8716D01*
X-14855Y8716D01*
D01*
X-14955Y8567D01*
X-14990Y8392D01*
X-14955Y8216D01*
X-14862Y8077D01*
Y7062D01*
X-15532Y6392D01*
X-15568Y6399D01*
X-15743Y6364D01*
X-15892Y6264D01*
Y6264D01*
D01*
X-15892D01*
D01*
Y6264D01*
X-16120Y6076D01*
X-16664Y6620D01*
X-16709Y6846D01*
X-16686Y7073D01*
X-16564Y7155D01*
X-16443Y7337D01*
X-16400Y7551D01*
X-16443Y7766D01*
X-16564Y7948D01*
Y8155D01*
X-16443Y8337D01*
X-16400Y8551D01*
X-16443Y8766D01*
X-16564Y8948D01*
X-16746Y9069D01*
X-16961Y9112D01*
X-17175Y9069D01*
X-17357Y8948D01*
X-17564D01*
X-17746Y9069D01*
X-17961Y9112D01*
X-18175Y9069D01*
X-18357Y8948D01*
X-18564D01*
X-18746Y9069D01*
X-18961Y9112D01*
X-19175Y9069D01*
X-19357Y8948D01*
X-19479Y8766D01*
D01*
X-19636Y8876D01*
X-19636Y8876D01*
Y8876D01*
X-19785Y8975D01*
X-19841Y8986D01*
Y8551D01*
X-20081D01*
Y8986D01*
X-20136Y8975D01*
X-20285Y8876D01*
X-20285Y8876D01*
Y8876D01*
X-20443Y8766D01*
D01*
X-20564Y8948D01*
X-20746Y9069D01*
X-20961Y9112D01*
X-21175Y9069D01*
X-21225Y9036D01*
X-21572Y9222D01*
Y9667D01*
X-21208Y9818D01*
X-21147Y9756D01*
X-21064Y9701D01*
X-20967Y9682D01*
X-20263D01*
X-20217Y9612D01*
X-20068Y9513D01*
X-19892Y9478D01*
X-19717Y9513D01*
X-19568Y9612D01*
X-19468Y9761D01*
X-19433Y9936D01*
X-19318Y10077D01*
X-16977D01*
X-16421Y9520D01*
D02*
G37*
%LPC*%
G36*
X4904Y-11686D02*
X4887Y-11689D01*
X4771Y-11766D01*
X4694Y-11882D01*
X4691Y-11899D01*
X4904D01*
Y-11686D01*
D02*
G37*
G36*
X5144D02*
Y-11899D01*
X5357D01*
X5354Y-11882D01*
X5276Y-11766D01*
X5160Y-11689D01*
X5144Y-11686D01*
D02*
G37*
G36*
X-13595Y9903D02*
Y9690D01*
X-13382D01*
X-13385Y9707D01*
X-13412Y9746D01*
X-13412Y9746D01*
X-13463Y9822D01*
Y9822D01*
X-13510Y9854D01*
X-13510Y9854D01*
X-13579Y9900D01*
X-13579Y9900D01*
X-13595Y9903D01*
D02*
G37*
G36*
X11736Y-1128D02*
X11477D01*
Y-1387D01*
X11511Y-1381D01*
X11642Y-1293D01*
X11729Y-1163D01*
X11736Y-1128D01*
D02*
G37*
G36*
X20776Y10835D02*
X20563D01*
Y10622D01*
X20579Y10625D01*
X20695Y10703D01*
X20773Y10819D01*
X20776Y10835D01*
D02*
G37*
G36*
X-10323Y-21317D02*
X-10652Y-21397D01*
X-10924Y-21597D01*
X-11099Y-21886D01*
X-11151Y-22220D01*
X-11070Y-22548D01*
X-10871Y-22821D01*
X-10582Y-22996D01*
X-10248Y-23048D01*
X-9919Y-22967D01*
X-9647Y-22768D01*
X-9471Y-22479D01*
X-9420Y-22145D01*
X-9500Y-21816D01*
X-9700Y-21544D01*
X-9989Y-21368D01*
X-10323Y-21317D01*
D02*
G37*
G36*
X10295Y-21253D02*
X9961Y-21305D01*
X9672Y-21480D01*
X9473Y-21753D01*
X9392Y-22081D01*
X9444Y-22415D01*
X9619Y-22704D01*
X9891Y-22904D01*
X10220Y-22984D01*
X10554Y-22933D01*
X10843Y-22758D01*
X11043Y-22485D01*
X11123Y-22157D01*
X11072Y-21823D01*
X10896Y-21534D01*
X10624Y-21334D01*
X10295Y-21253D01*
D02*
G37*
G36*
X19232Y4622D02*
Y4409D01*
X19445D01*
X19441Y4426D01*
X19364Y4542D01*
X19248Y4619D01*
X19232Y4622D01*
D02*
G37*
G36*
X-14625Y10923D02*
Y10710D01*
X-14412D01*
X-14415Y10726D01*
X-14493Y10842D01*
X-14609Y10919D01*
X-14625Y10923D01*
D02*
G37*
G36*
X-2403Y-6306D02*
X-2678D01*
Y-6583D01*
Y-6881D01*
X-2541Y-6972D01*
X-2541D01*
X-2332Y-7112D01*
X-2314Y-7134D01*
Y-7134D01*
X-2292Y-7160D01*
X-2075D01*
Y-6947D01*
X-2091Y-6951D01*
X-2099Y-6938D01*
X-2263Y-6694D01*
X-2263D01*
X-2403Y-6484D01*
Y-6306D01*
D02*
G37*
G36*
X-1785Y-4422D02*
X-1965D01*
Y-4652D01*
X-1785D01*
Y-4422D01*
D02*
G37*
G36*
X2797Y-3127D02*
X2584D01*
X2587Y-3143D01*
X2665Y-3259D01*
X2780Y-3336D01*
X2797Y-3340D01*
Y-3127D01*
D02*
G37*
G36*
X-2918Y-6306D02*
X-3193D01*
Y-6463D01*
X-2918D01*
Y-6306D01*
D02*
G37*
G36*
X2822Y-4499D02*
X2592D01*
Y-4679D01*
X2822D01*
Y-4499D01*
D02*
G37*
G36*
X-3520Y-13399D02*
Y-13612D01*
X-3307D01*
X-3310Y-13595D01*
X-3387Y-13479D01*
X-3503Y-13402D01*
X-3520Y-13399D01*
D02*
G37*
G36*
X-3307Y-13852D02*
X-3520D01*
Y-14065D01*
X-3503Y-14061D01*
X-3387Y-13984D01*
X-3310Y-13868D01*
X-3307Y-13852D01*
D02*
G37*
G36*
X-6933Y15732D02*
X-6949Y15729D01*
X-7065Y15651D01*
X-7142Y15536D01*
X-7146Y15519D01*
X-6933D01*
Y15732D01*
D02*
G37*
G36*
X4904Y-12139D02*
X4691D01*
X4694Y-12155D01*
X4771Y-12271D01*
X4887Y-12348D01*
X4904Y-12352D01*
Y-12139D01*
D02*
G37*
G36*
X5357D02*
X5144D01*
Y-12352D01*
X5160Y-12348D01*
X5276Y-12271D01*
X5354Y-12155D01*
X5357Y-12139D01*
D02*
G37*
G36*
X-2918Y-6703D02*
X-3193D01*
Y-6860D01*
X-2918D01*
Y-6703D01*
D02*
G37*
G36*
X-8128Y16388D02*
X-8341D01*
Y16175D01*
X-8325Y16178D01*
X-8209Y16256D01*
X-8132Y16371D01*
X-8128Y16388D01*
D02*
G37*
G36*
X6144Y-2788D02*
X5932D01*
Y-3001D01*
X5948Y-2998D01*
X6064Y-2921D01*
X6141Y-2805D01*
X6144Y-2788D01*
D02*
G37*
G36*
X7993Y-17129D02*
X7780D01*
X7783Y-17145D01*
X7861Y-17261D01*
X7977Y-17339D01*
X7993Y-17342D01*
Y-17129D01*
D02*
G37*
%LPD*%
G54D10*
X-865Y-4302D02*
D03*
X-1665D02*
D03*
X4830Y-17895D02*
D03*
X4030D02*
D03*
X2349Y-19980D02*
D03*
X3149D02*
D03*
X3405Y-16956D02*
D03*
X4205D02*
D03*
X-3165Y-18484D02*
D03*
X-3965D02*
D03*
X-3952Y-17624D02*
D03*
X-3152D02*
D03*
X7747Y15262D02*
D03*
X8547D02*
D03*
X7780Y16556D02*
D03*
X8580D02*
D03*
X2645Y-2356D02*
D03*
X1845D02*
D03*
X2645Y1323D02*
D03*
X1845D02*
D03*
X-5279Y11166D02*
D03*
X-4479D02*
D03*
X-11156Y3642D02*
D03*
X-10356D02*
D03*
X-9652Y4353D02*
D03*
X-10452D02*
D03*
X5732Y10481D02*
D03*
X6532D02*
D03*
X-6502Y6093D02*
D03*
X-7302D02*
D03*
X-5253Y9656D02*
D03*
X-4453D02*
D03*
X-11342Y4527D02*
D03*
X-12142D02*
D03*
X6469Y-15392D02*
D03*
X7269D02*
D03*
X-10485Y-17030D02*
D03*
X-9685D02*
D03*
G54D12*
X-4721Y-19400D02*
D03*
Y-20200D02*
D03*
X2472Y-4799D02*
D03*
Y-5599D02*
D03*
X2329Y-7118D02*
D03*
Y-7918D02*
D03*
X433Y-7149D02*
D03*
Y-7949D02*
D03*
X9708Y-3504D02*
D03*
Y-2704D02*
D03*
X1389Y-7950D02*
D03*
Y-7150D02*
D03*
X8762Y-3464D02*
D03*
Y-2664D02*
D03*
X9447Y15514D02*
D03*
Y16314D02*
D03*
X-8620Y6143D02*
D03*
Y5343D02*
D03*
X-5277Y6143D02*
D03*
Y5343D02*
D03*
X1287Y-13205D02*
D03*
Y-14005D02*
D03*
X2597Y-808D02*
D03*
Y-8D02*
D03*
G54D17*
X182Y-14392D02*
D03*
Y-12620D02*
D03*
G54D22*
X-4613Y-23436D02*
D03*
X-3002Y-23808D02*
D03*
G54D23*
X3018Y-23794D02*
D03*
X4635Y-23450D02*
D03*
G54D28*
X8347Y-3464D02*
X8762D01*
X6636Y-5175D02*
X8347Y-3464D01*
X6125Y-5175D02*
X6636D01*
X8089Y-4382D02*
X8701D01*
X6856Y-5615D02*
X8089Y-4382D01*
X6804Y-5615D02*
X6856D01*
X2008Y-25074D02*
Y-23617D01*
X-2008Y-25074D02*
Y-23617D01*
X-1575Y-22835D02*
X3018D01*
X-1772Y-22638D02*
X-1575Y-22835D01*
X3018Y-23794D02*
Y-22835D01*
X-5960Y-16088D02*
X-5647Y-15774D01*
X-5960Y-16987D02*
X-5711Y-17236D01*
X-5960Y-16987D02*
Y-16088D01*
X-5358Y-15486D02*
X-5357Y-15485D01*
X-5358Y-15511D02*
Y-15486D01*
X-5622Y-15774D02*
X-5358Y-15511D01*
X-5647Y-15774D02*
X-5622D01*
X-5357Y-15485D02*
X-3996D01*
X-5711Y-17236D02*
X-4836D01*
X-6601Y-14428D02*
X-5981Y-13808D01*
X-15977Y11080D02*
X-15038Y12019D01*
X-16119Y11080D02*
X-15977D01*
X8504Y-8482D02*
X9689Y-7297D01*
X6125Y-8482D02*
X8504D01*
X9375Y-6042D02*
X10560D01*
X7801Y-7616D02*
X9375Y-6042D01*
X6676Y-7616D02*
X7801D01*
X-12365Y-13484D02*
Y-11655D01*
Y-13484D02*
X-11967Y-13881D01*
X-11832Y-13017D02*
Y-12667D01*
Y-13017D02*
X-10967Y-13881D01*
X-10142Y-12997D02*
X-9967Y-13172D01*
Y-13881D02*
Y-13172D01*
X-9067Y-17668D02*
X-8493Y-17094D01*
X-9067Y-19807D02*
X-8614Y-20260D01*
X-9067Y-19807D02*
Y-17668D01*
X-6601Y-19736D02*
Y-14428D01*
Y-19736D02*
X-6502Y-19835D01*
X-6512Y-13214D02*
Y-11607D01*
X-7524Y-13881D02*
X-7213Y-14192D01*
Y-14205D02*
Y-14192D01*
Y-14205D02*
X-6572Y-13564D01*
Y-13275D01*
X-7213Y-19264D02*
Y-14205D01*
X-7442Y-19493D02*
X-7213Y-19264D01*
X15738Y18377D02*
X17595Y16520D01*
X14917Y18377D02*
X15738D01*
X17595Y16495D02*
Y16520D01*
X164Y-16995D02*
X2153Y-15006D01*
X-1503Y-16995D02*
X164D01*
X3007Y-17355D02*
X3405Y-16956D01*
X2847Y-17355D02*
X3007D01*
X4732Y-11727D02*
X5024Y-12019D01*
X2703Y-11727D02*
X4732D01*
X-14687Y3640D02*
X-13156D01*
X-14911Y3315D02*
X-13290D01*
X-9264Y2702D02*
X-9021Y2944D01*
X-8116D01*
Y2199D02*
Y2944D01*
X-8319Y1997D02*
X-8116Y2199D01*
X-8319Y928D02*
Y1997D01*
X2137Y-13656D02*
X3359Y-12434D01*
X3351Y-12442D02*
X4146Y-13237D01*
X3320Y-12411D02*
X3351Y-12442D01*
X5816Y-13257D02*
X6009Y-13065D01*
X4166Y-13257D02*
X5816D01*
X4146Y-13237D02*
X4166Y-13257D01*
X8719Y-9078D02*
X10560Y-7237D01*
X3654Y-9369D02*
X3945Y-9078D01*
X1757Y-10782D02*
X2703Y-11727D01*
X-1092Y-9799D02*
X424D01*
X502Y-9803D02*
X645D01*
X272Y-8801D02*
X284Y-8813D01*
X248Y-10782D02*
X1757D01*
X-82Y-11111D02*
X248Y-10782D01*
X-7782Y-10336D02*
X-6512Y-11607D01*
X-6572Y-13275D02*
X-6512Y-13214D01*
X-8115Y-10336D02*
X-7782D01*
X-2746Y-12784D02*
Y-12029D01*
Y-12784D02*
X-1138Y-14392D01*
X-4328Y-7320D02*
X-2798D01*
Y-7224D02*
Y-6583D01*
Y-7320D02*
Y-7224D01*
X-1985D01*
X182Y-12620D02*
X702D01*
X1287Y-14005D02*
X1323Y-14041D01*
X1860D01*
X2137Y-13764D01*
Y-13656D01*
X-1138Y-14392D02*
X182D01*
X-7967Y-13881D02*
X-7524D01*
X-4372Y-7276D02*
X-4328Y-7320D01*
X-10584Y-3995D02*
X-9285Y-5295D01*
X-8116Y2944D02*
X-7657D01*
X-10584Y-3995D02*
Y-1338D01*
X-8319Y928D01*
X-5616Y3032D02*
X-4714Y2130D01*
X20780Y11867D02*
X21208D01*
X-1676Y946D02*
Y1525D01*
X-2280Y2130D02*
X-1676Y1525D01*
X-1555Y994D02*
X-718D01*
X2251Y-3085D02*
X2472Y-3307D01*
X1845Y-2680D02*
X2251Y-3085D01*
X2838D02*
X2917Y-3007D01*
X2251Y-3085D02*
X2838D01*
X14409Y16492D02*
X15482Y17565D01*
X13753Y17199D02*
X14826Y18272D01*
X14231Y16314D02*
X14409Y16492D01*
X9447Y16314D02*
X14231D01*
X-6307Y15430D02*
X-4905Y16833D01*
X-6307Y14562D02*
Y15430D01*
X-12126Y4379D02*
Y4940D01*
X-13221Y4545D02*
X-12157D01*
X-8620Y5343D02*
X-7379D01*
X-5848Y16895D02*
X-4967D01*
X-14808Y18102D02*
X-14738Y18033D01*
X-16222Y16688D02*
X-15515Y17395D01*
X-15515D01*
X-3443Y-16376D02*
X-3196Y-16624D01*
X-3443Y-16376D02*
Y-16038D01*
X-3996Y-15485D02*
X-3443Y-16038D01*
X-1665Y-5905D02*
Y-4302D01*
X-865Y-5280D02*
Y-4302D01*
X-2343Y-6583D02*
X-1665Y-5905D01*
X-2798Y-6583D02*
X-2343D01*
X433Y-8526D02*
Y-7949D01*
X3920Y-9103D02*
Y-8482D01*
X-2618Y-19347D02*
Y-19029D01*
X-2786Y-19515D02*
X-2618Y-19347D01*
X4380Y-23432D02*
Y-21156D01*
X3149Y-19980D02*
X3973D01*
X3689Y-18534D02*
X3982Y-18827D01*
X3191Y-18534D02*
X3689D01*
X4766Y-18702D02*
Y-17959D01*
Y-18702D02*
X4771Y-18707D01*
X4766Y-17959D02*
X4830Y-17895D01*
X-4836Y-17236D02*
X-4448Y-17624D01*
X-3952D01*
X-3002Y-23808D02*
X-2814Y-23620D01*
Y-21995D01*
X-3160Y-21649D02*
X-2814Y-21995D01*
X-4840Y-18018D02*
X-4373Y-18484D01*
X-3965D01*
X-3165D02*
Y-17637D01*
Y-19289D02*
Y-18484D01*
X-2786Y-20861D02*
Y-19515D01*
X3564Y-23794D02*
X3739Y-23620D01*
X3018Y-23794D02*
X3564D01*
X-4613Y-23436D02*
X-4355Y-23694D01*
X-3807D01*
X2472Y-4799D02*
Y-3307D01*
X1845Y-2680D02*
Y-2356D01*
X3900D02*
X3920Y-2335D01*
X2645Y-2356D02*
X3900D01*
X3839Y1323D02*
X4138Y1622D01*
X2645Y1323D02*
X3839D01*
X-5277Y7373D02*
X-5107Y7542D01*
X-5277Y6143D02*
Y7373D01*
X-5327Y6093D02*
X-5277Y6143D01*
X-6502Y6093D02*
X-5327D01*
X-8848Y6371D02*
Y7542D01*
Y6371D02*
X-8620Y6143D01*
X-8570Y6093D01*
X-7302D01*
X11560Y-5042D02*
Y-2631D01*
X11357Y-1008D02*
X12145Y-1796D01*
Y-6687D02*
Y-1796D01*
X11790Y-7042D02*
X12145Y-6687D01*
X11560Y-7042D02*
X11790D01*
X1845Y-2356D02*
Y1323D01*
X2329Y-7918D02*
X2629D01*
X2760Y-7787D01*
Y-7500D01*
X2329Y-7118D02*
X2461Y-6986D01*
X3369D01*
X-10465Y3775D02*
Y4243D01*
X7780Y15388D02*
Y16556D01*
X8580D02*
X8764Y16372D01*
X9355D01*
X8567Y15375D02*
X8764Y15572D01*
X9355D01*
X-12463Y5277D02*
X-12126Y4940D01*
X702Y-12620D02*
X1287Y-13205D01*
X569Y-14005D02*
X1287D01*
X182Y-14392D02*
X569Y-14005D01*
X-10485Y-17030D02*
Y-16123D01*
Y-17030D02*
X-10485Y-17030D01*
X-9685D02*
Y-15427D01*
X-8091Y-21375D02*
X-7318Y-20602D01*
X-8382Y-19151D02*
X-8216D01*
X-8614Y-20260D02*
X-8258D01*
X-2008Y-25160D02*
Y-25074D01*
X6948Y-19599D02*
Y-16799D01*
X6469Y-16315D02*
Y-15392D01*
X10560Y-7237D02*
Y-7042D01*
X9867Y16734D02*
Y17096D01*
X9447Y16314D02*
X9867Y16734D01*
X10496Y17199D02*
X13702D01*
X9855Y17840D02*
X10496Y17199D01*
X5953Y12729D02*
Y13560D01*
X7116Y14723D01*
X9854D01*
X10305Y15173D01*
X-13124Y19786D02*
X-12564D01*
X-14808Y18102D02*
X-13124Y19786D01*
X-1946Y-21508D02*
Y-20758D01*
X-2168Y-20536D02*
X-1946Y-20758D01*
X-2168Y-20536D02*
Y-20118D01*
X-3196Y-16624D02*
X-1874D01*
X-1503Y-16995D01*
X-9707Y-20682D02*
Y-18758D01*
Y-20682D02*
X-9014Y-21375D01*
X-8091D01*
X-8382Y-19151D02*
Y-17847D01*
X-718Y994D02*
X329Y-52D01*
Y-3197D02*
Y-52D01*
X1845Y1323D02*
Y1540D01*
X2375Y2070D01*
X-10579Y-16069D02*
Y-15695D01*
X-9685Y-18737D02*
Y-18485D01*
Y-17030D01*
X6527Y-16378D02*
X7332D01*
X6467Y-16318D02*
X6469Y-16315D01*
X6467Y-16318D02*
X6527Y-16378D01*
X6948Y-16799D01*
X7332Y-16378D02*
X7516Y-16194D01*
X7269Y-15392D02*
X8026D01*
X8233Y-15599D01*
X14835Y18295D02*
X14917Y18377D01*
X17595Y16495D02*
X18518Y15573D01*
Y15203D02*
Y15573D01*
X19365Y3343D02*
X22299D01*
X19327Y3380D02*
X19365Y3343D01*
X21208Y11867D02*
X22055Y11021D01*
X21661Y10955D02*
X21920Y10696D01*
X21938D01*
X22202Y10432D01*
X22055Y11021D02*
X22073D01*
X22527Y10567D01*
X19196Y4224D02*
X22486D01*
X22299Y3343D02*
X23800Y4843D01*
X22486Y4224D02*
X23264Y5001D01*
X22527Y9113D02*
Y10567D01*
Y9113D02*
X23800Y7840D01*
Y4843D02*
Y7840D01*
X22202Y8978D02*
X23264Y7916D01*
Y5001D02*
Y7916D01*
X22202Y8978D02*
Y10432D01*
X20443Y10955D02*
X21117D01*
X21661D01*
X15542Y16345D02*
Y17588D01*
X14648Y14124D02*
X15124Y14601D01*
X14527Y10608D02*
X14892D01*
X14102Y10182D02*
X14527Y10608D01*
X-14745Y10590D02*
X-13725Y9570D01*
X-13715D01*
X-4714Y2130D02*
X-2280D01*
X-6809Y3032D02*
X-5616D01*
X-6831Y3009D02*
X-6809Y3032D01*
X-7592Y3009D02*
X-6831D01*
X-16487Y5439D02*
X-14687Y3640D01*
X-19143Y5439D02*
X-16487D01*
X-19216Y5512D02*
X-19143Y5439D01*
X-14531Y6924D02*
Y8392D01*
X-15489Y5966D02*
X-14531Y6924D01*
X-19216Y5512D02*
Y5676D01*
X-19297Y5757D02*
X-19216Y5676D01*
X-11342Y3642D02*
Y4527D01*
X-10452Y4353D02*
Y4868D01*
X-10298Y5022D01*
X182Y-12620D02*
Y-11839D01*
X-198Y-11459D02*
X182Y-11839D01*
X-799Y-11459D02*
X-198D01*
X-7657Y2944D02*
X-7592Y3009D01*
X-7367Y5343D02*
X-5277D01*
X-21029Y5114D02*
X-16710D01*
X-14911Y3315D01*
X-12134Y-10060D02*
Y-8669D01*
X-100Y-5810D02*
X-37Y-5874D01*
X-343Y-5810D02*
X-100D01*
X-869Y-5284D02*
X-343Y-5810D01*
X4830Y-17895D02*
Y-16989D01*
X8113Y-17009D02*
X8233Y-16889D01*
Y-15599D01*
X-1388Y-10095D02*
X-1092Y-9799D01*
X-13156Y3640D02*
X-13016Y3500D01*
X-11885Y2702D02*
X-9264D01*
X-14738Y18033D02*
X-8258D01*
X-8116Y18175D01*
X-6832D01*
X-6534Y18474D01*
X-4967Y16895D02*
X-4478Y17384D01*
X4466D01*
X5018Y16833D01*
X11434Y-12968D02*
X11582D01*
X12080Y-13896D02*
Y-13613D01*
X11434Y-12968D02*
X12080Y-13613D01*
G54D30*
X4738Y-5726D02*
X4865Y-5599D01*
X3369Y-5726D02*
X4738D01*
X4865Y-5599D02*
Y-5175D01*
X7350Y-2360D02*
Y-1449D01*
X7097Y-921D02*
X7846D01*
X7034Y-984D02*
X7097Y-921D01*
X6714Y-984D02*
X7034D01*
X6496Y-1201D02*
X6714Y-984D01*
X7846Y-921D02*
X8762Y-1837D01*
Y-2664D02*
Y-1837D01*
X6858Y-559D02*
X7230Y-187D01*
X8071D01*
X8548Y-664D01*
Y-1083D02*
Y-664D01*
X4865Y-5175D02*
Y-4517D01*
X5295Y-4087D01*
X6624D01*
X7350Y-3360D01*
X8548Y-1083D02*
X9536Y-2070D01*
X8701Y-4382D02*
X9579Y-3504D01*
X9708D01*
Y-2704D02*
Y-2232D01*
X9547Y-2070D02*
X9708Y-2232D01*
X9536Y-2070D02*
X9547D01*
X-4605Y-16707D02*
X-3886D01*
X-4762Y-16550D02*
X-4605Y-16707D01*
X-5510Y-16550D02*
X-4762D01*
X9659Y-5223D02*
X9840Y-5042D01*
X10560D01*
X9863Y-4007D02*
X10935D01*
X9174Y-4696D02*
X9863Y-4007D01*
X9174Y-5663D02*
Y-4696D01*
X7851Y-6986D02*
X9174Y-5663D01*
X6676Y-6986D02*
X7851D01*
X7856Y-6356D02*
X8639Y-5573D01*
X6676Y-6356D02*
X7856D01*
X7127Y-6041D02*
X8103Y-5065D01*
X6676Y-6041D02*
X7127D01*
X-3601Y-13827D02*
Y-11911D01*
X-6325Y1799D02*
X-5935Y2189D01*
X-6325Y821D02*
Y1799D01*
X-7170Y-24D02*
X-6325Y821D01*
X7717Y-12279D02*
X10364D01*
X7700Y-12262D02*
X7717Y-12279D01*
X7441Y-12262D02*
X7700D01*
X10364Y-12279D02*
X11811Y-10832D01*
X7243Y-12678D02*
X10966D01*
X11811Y-11832D01*
X1121Y-8218D02*
X1389Y-7950D01*
X1121Y-8477D02*
Y-8218D01*
X956Y-8642D02*
X1121Y-8477D01*
X-257Y-7747D02*
Y-7362D01*
Y-8351D02*
Y-7747D01*
X-265Y-7353D02*
X-257Y-7362D01*
X-7351Y-1203D02*
X-7338Y-24D01*
X-7170D01*
X-7032Y-2201D02*
X-6562D01*
X-7344Y-1889D02*
X-7032Y-2201D01*
X-7344Y-1889D02*
Y-1210D01*
X-7351Y-1203D02*
X-7344Y-1210D01*
X-3636Y-16957D02*
X-2625D01*
X-3886Y-16707D02*
X-3636Y-16957D01*
X9528Y21102D02*
X9567Y21142D01*
X5204Y21159D02*
X9528Y21102D01*
X-2625Y-16957D02*
X-2141Y-17441D01*
X997D01*
X4235Y-5175D02*
Y-4003D01*
X433Y-7149D02*
Y-6597D01*
X674Y-6356D01*
X3369D01*
X1389Y-7150D02*
Y-6886D01*
X1604Y-6671D01*
X3369D01*
X2760Y-7500D02*
X2959Y-7301D01*
X3369D01*
X11388Y1071D02*
Y1758D01*
X9465Y2549D02*
X9763Y2251D01*
X-16733Y10746D02*
X-16398Y11080D01*
X-16119D01*
X-2168Y-20118D02*
Y-18608D01*
X-3152Y-17624D02*
X-2168Y-18608D01*
Y-18493D01*
X-1727Y-18052D01*
X-11673Y-17067D02*
X-11642Y-17098D01*
Y-17897D02*
Y-17098D01*
X-5835Y9656D02*
X-5253D01*
X-6037Y9454D02*
X-5835Y9656D01*
X-5253D02*
Y11139D01*
X-8461Y16508D02*
X-8034D01*
X-6869Y15343D01*
X-4217Y190D02*
X-762D01*
X-490Y-82D01*
X-4360Y2715D02*
X2308D01*
X4138Y1622D02*
X4747Y1012D01*
X-2223Y-2151D02*
X-732D01*
X-4417Y-2572D02*
X-3637D01*
X-4647Y-2342D02*
X-4417Y-2572D01*
X-3637D02*
X-3621Y-2588D01*
X15542Y16345D02*
X15755Y16131D01*
Y15717D02*
Y16131D01*
X15184Y15146D02*
X15755Y15717D01*
X15124Y15146D02*
X15184D01*
X15124Y14601D02*
Y15146D01*
X-12591Y5556D02*
Y7199D01*
X-13449Y7628D02*
X-13200Y7380D01*
X-12771D02*
X-12591Y7199D01*
X-13200Y7380D02*
X-12771D01*
X-16733Y10539D02*
Y10746D01*
Y10539D02*
X-16136Y9943D01*
X-13449Y7628D02*
Y8292D01*
X-16136Y9943D02*
X-15099D01*
X-13449Y8292D01*
X-5294Y-887D02*
X-4217Y190D01*
X-5294Y-1920D02*
Y-887D01*
X-6855Y-3482D02*
X-5294Y-1920D01*
X-9092Y-3482D02*
X-6855D01*
X-5935Y2189D02*
Y2296D01*
X-8104Y3352D02*
Y3429D01*
X2308Y2715D02*
X2404D01*
X3009Y2110D01*
X3323D01*
X3524Y2311D01*
Y2861D01*
X1106Y1513D02*
X2308Y2715D01*
X8947Y2941D02*
X9339Y2549D01*
X9465D01*
X-3621Y-2588D02*
X-796D01*
X-89Y-3295D01*
Y-3366D02*
Y-3295D01*
Y-3366D02*
X160Y-3615D01*
X230D01*
X-501Y-3823D02*
X-189Y-4134D01*
X-5734Y-3521D02*
X-3612D01*
X-3310Y-3823D02*
X-501D01*
X-3612Y-3521D02*
X-3310Y-3823D01*
X-3813Y-2997D02*
X-1708D01*
X-1673Y-3031D01*
X-5814Y-3441D02*
X-5734Y-3521D01*
X4235Y-4003D02*
X4316Y-3923D01*
Y-3667D01*
X4747Y-3235D01*
Y1012D01*
X230Y-3615D02*
X300Y-3685D01*
X5484Y2980D02*
X5523Y2941D01*
X8947D01*
X3643Y2980D02*
X5484D01*
X3524Y2861D02*
X3643Y2980D01*
X997Y-17441D02*
X1308Y-17131D01*
X281Y-4385D02*
X300D01*
X-240Y-4907D02*
X281Y-4385D01*
X300D02*
Y-3685D01*
G54D31*
X-12694Y3046D02*
X-12487Y2839D01*
Y2753D02*
Y2839D01*
Y2753D02*
X-12486Y2752D01*
Y-1702D02*
Y2752D01*
X-12291Y118D02*
Y2832D01*
X-12293Y2834D02*
X-12291Y2832D01*
X-12293Y2834D02*
Y2920D01*
X-12613Y3240D02*
X-12293Y2920D01*
X-12098Y2915D02*
X-11885Y2702D01*
X-12098Y2915D02*
Y3000D01*
X-12598Y3500D02*
X-12098Y3000D01*
X-13016Y3500D02*
X-12598D01*
X-13216Y3240D02*
X-12613D01*
X-15402Y3046D02*
X-12694D01*
X-257Y-7747D02*
X-52Y-7543D01*
X6099Y-696D02*
X6896Y100D01*
X6099Y-1240D02*
Y-696D01*
X6896Y100D02*
X8392D01*
X10328Y-1835D02*
X10530D01*
X8392Y100D02*
X10328Y-1835D01*
X5771Y-662D02*
X8458Y2025D01*
X5771Y-2069D02*
Y-662D01*
X8458Y2025D02*
X8868D01*
X8000Y1915D02*
Y1999D01*
X5362Y-722D02*
X8000Y1915D01*
X5362Y-2389D02*
Y-722D01*
X12772Y3110D02*
X15653D01*
X2472Y-5599D02*
X2599Y-5726D01*
X3369D01*
X1881Y-5301D02*
Y-4748D01*
X1583Y-5599D02*
X1881Y-5301D01*
X1334Y-5599D02*
X1583D01*
X-12276Y-794D02*
X-11836Y-1234D01*
Y-8371D02*
Y-1234D01*
X5269Y-18966D02*
Y-18654D01*
X5065Y-19169D02*
X5269Y-18966D01*
X5065Y-19587D02*
Y-19169D01*
X4734Y-19918D02*
X5065Y-19587D01*
X4734Y-20315D02*
Y-19918D01*
X5278Y-19291D02*
X5655Y-18914D01*
X5278Y-20844D02*
Y-19291D01*
X5490Y-19354D02*
X5934Y-18910D01*
X5490Y-20331D02*
Y-19354D01*
X5278Y-20844D02*
X6110Y-21677D01*
X5490Y-20331D02*
X5870Y-20711D01*
X5934Y-18910D02*
Y-18191D01*
X5987Y-14887D02*
X6110Y-15010D01*
Y-16401D02*
Y-15010D01*
Y-16401D02*
X6454Y-16745D01*
X-5285Y-14006D02*
X-5169Y-13890D01*
Y-9082D02*
X-4749Y-8661D01*
X-5169Y-13890D02*
Y-9082D01*
X1757Y-21892D02*
X2894Y-20755D01*
X-2898Y-21224D02*
X-2229Y-21892D01*
X1757D01*
X-4804Y-15083D02*
X1192D01*
X-5981Y-13906D02*
X-4804Y-15083D01*
X1192D02*
X1247Y-15138D01*
X-5981Y-13906D02*
Y-13808D01*
X-4370Y-9231D02*
X-3906Y-8766D01*
X-4370Y-13974D02*
Y-9231D01*
X-5386Y-13950D02*
X-5362Y-13975D01*
X-6095Y-13974D02*
X-5465Y-13344D01*
X2901Y-20762D02*
X4912D01*
X6278Y-22129D01*
X-5465Y-13344D02*
Y-9097D01*
X-11769Y4174D02*
Y6710D01*
X-12576Y7516D02*
X-11769Y6710D01*
X6247Y-14326D02*
X6469Y-14549D01*
X5669Y-14326D02*
X6247D01*
X5409Y-14585D02*
X5669Y-14326D01*
X6469Y-15392D02*
Y-14549D01*
X6510Y-14091D02*
X6959Y-14540D01*
Y-14771D02*
Y-14540D01*
Y-14771D02*
X7323Y-15136D01*
X5404Y-14091D02*
X6510D01*
X4975Y-14520D02*
X5404Y-14091D01*
X3271Y-13888D02*
X6680D01*
X2153Y-15006D02*
X3271Y-13888D01*
X6680D02*
X7393Y-14602D01*
X2698Y-13687D02*
X7126D01*
X1247Y-15138D02*
X2698Y-13687D01*
X7126D02*
X8671Y-15232D01*
X6454Y-18901D02*
Y-16745D01*
X6008Y-19346D02*
X6454Y-18901D01*
X-11714Y3408D02*
X-11686D01*
X-11452Y3642D01*
X-11896Y4048D02*
X-11769Y4174D01*
X-12436Y4048D02*
X-11896D01*
X-12551Y4163D02*
X-12436Y4048D01*
X-11866Y3560D02*
X-11714Y3408D01*
X-11866Y3560D02*
Y3663D01*
X-8339Y4241D02*
X-8207D01*
X-9394Y3186D02*
X-8339Y4241D01*
X-10740Y3186D02*
X-9394D01*
X-8513Y4353D02*
X-8431Y4435D01*
X-9652Y4353D02*
X-8513D01*
X-9315Y1710D02*
X-8631Y2394D01*
X-9315Y1370D02*
Y1710D01*
X-10578Y107D02*
X-9315Y1370D01*
X-8695Y2458D02*
X-8631Y2394D01*
X9891Y-9416D02*
X10888Y-8420D01*
X6258Y-9416D02*
X9891D01*
X5265Y-10409D02*
X6258Y-9416D01*
X1491Y-10409D02*
X5265D01*
X710Y-9369D02*
X3654D01*
X3945Y-9078D02*
X8719D01*
X1378Y-10522D02*
X1491Y-10409D01*
X141Y-10522D02*
X1378D01*
X66Y-10596D02*
X141Y-10522D01*
X-686Y-10596D02*
X66D01*
X-10381Y-8819D02*
X-8982Y-10218D01*
X-8733D01*
X-6668Y-8154D01*
X-3873D01*
X-3285Y-8742D01*
Y-10875D02*
Y-8742D01*
Y-10875D02*
X-2361Y-11799D01*
Y-12125D02*
Y-11799D01*
Y-12125D02*
X-916Y-13571D01*
X-5741Y-8821D02*
X-5465Y-9097D01*
X-1803Y-9850D02*
X-1712Y-9759D01*
X-1803Y-10454D02*
Y-9850D01*
Y-10454D02*
X-799Y-11459D01*
X1905Y-7543D02*
X2329Y-7118D01*
X-52Y-7543D02*
X1905D01*
X-2230Y-8260D02*
X-2038Y-8068D01*
Y-8011D01*
X-312Y-6799D02*
Y-6632D01*
X-1414Y-7901D02*
X-312Y-6799D01*
X-1414Y-8409D02*
Y-7901D01*
X1861Y-11886D02*
X2098Y-12124D01*
Y-13193D02*
Y-12124D01*
X-916Y-13571D02*
X1720D01*
X8356Y9239D02*
X10132D01*
X8329Y9266D02*
X8356Y9239D01*
X6776Y8876D02*
X8168D01*
X5959Y8872D02*
X6772D01*
X6776Y8876D01*
X6695Y9071D02*
X8249D01*
X5878Y9067D02*
X6691D01*
X6695Y9071D01*
X-13173Y8925D02*
X-13070D01*
X-13242Y8994D02*
X-13173Y8925D01*
X-15361Y10601D02*
X-13024Y8264D01*
X-15627Y10601D02*
X-15361D01*
X-13024Y7804D02*
Y8264D01*
X2793Y-19274D02*
X3473D01*
X2349Y-19718D02*
X2793Y-19274D01*
X2349Y-19980D02*
Y-19718D01*
X6069Y-17805D02*
Y-16776D01*
X5409Y-15179D02*
Y-14585D01*
X5288Y-15300D02*
X5409Y-15179D01*
X11475Y6617D02*
X11547Y6544D01*
X12606D01*
X20309Y11578D02*
Y14697D01*
X6761Y15605D02*
X7104Y15262D01*
X7747D01*
X8693Y13610D02*
X15440D01*
X73Y14083D02*
X100Y14056D01*
Y11642D02*
Y14056D01*
X18900Y10169D02*
X20309Y11578D01*
X-7379Y5343D02*
X-7367D01*
X975Y15690D02*
X1282Y15384D01*
Y11642D02*
Y15384D01*
X1221Y16177D02*
X1478Y15920D01*
Y11642D02*
Y15920D01*
X-13548Y20861D02*
X-7717D01*
X-20316Y12686D02*
Y14521D01*
X-15474Y19362D01*
X-15048D01*
X-13548Y20861D01*
X11387Y22001D02*
X12242D01*
X13194Y21049D01*
X5163Y5013D02*
X5790Y4386D01*
Y4317D02*
Y4386D01*
X4613Y4334D02*
X4735D01*
X4131Y4817D02*
X4613Y4334D01*
X3757Y4817D02*
X4131D01*
X3252Y5321D02*
X3757Y4817D01*
X3252Y5321D02*
Y5696D01*
X3250Y5698D02*
X3252Y5696D01*
X3753Y4484D02*
X3910Y4327D01*
X3399Y4484D02*
X3753D01*
X3944Y5013D02*
X5163D01*
X3646Y5311D02*
X3944Y5013D01*
X3646Y5311D02*
Y5696D01*
X4082Y6500D02*
X4273Y6309D01*
X2580Y6500D02*
X4082D01*
X4273Y6309D02*
X4647D01*
X4648Y6308D01*
X2266Y6185D02*
X2580Y6500D01*
X3250Y5440D02*
Y5698D01*
X3644D02*
X3646Y5696D01*
X2591Y4732D02*
X2824Y4499D01*
X2676Y5207D02*
X3399Y4484D01*
X2069Y5323D02*
X2185Y5207D01*
X2069Y5323D02*
Y5698D01*
X2185Y5207D02*
X2676D01*
X4648Y6505D02*
Y6701D01*
X2266Y5698D02*
Y6185D01*
X5698Y10245D02*
X5779Y10326D01*
X4648Y10245D02*
X5698D01*
X-490Y11642D02*
Y13322D01*
X-1999Y14831D02*
X-490Y13322D01*
X-293Y11642D02*
Y13642D01*
X-1792Y15141D02*
X-293Y13642D01*
X-3979Y15141D02*
X-1792D01*
X-4744Y14376D02*
X-3979Y15141D01*
X-4744Y13622D02*
Y14376D01*
X-6757Y11609D02*
X-4744Y13622D01*
X-11758Y7968D02*
X-11572Y7781D01*
X-11316D01*
X-11758Y7968D02*
Y11323D01*
X-11472Y11609D01*
X-6757D01*
X-3842Y14831D02*
X-1999D01*
X-4427Y14246D02*
X-3842Y14831D01*
X-4427Y13410D02*
Y14246D01*
X-6588Y11248D02*
X-4427Y13410D01*
X-11203Y8519D02*
X-10577Y7893D01*
Y7618D02*
Y7893D01*
Y7618D02*
X-10540Y7581D01*
X8082Y13426D02*
X8331D01*
X8533Y13224D01*
X15186D01*
X15440Y13610D02*
X16401Y12649D01*
X-6378Y-20944D02*
X-6098Y-21224D01*
X-2898D01*
X8696Y-21096D02*
Y-20027D01*
X6278Y-22129D02*
X7663D01*
X8696Y-21096D01*
X7756Y-21276D02*
Y-20369D01*
X7355Y-21677D02*
X7756Y-21276D01*
X6110Y-21677D02*
X7355D01*
X5870Y-20711D02*
X6817D01*
X6008Y-19941D02*
Y-19346D01*
X-8967Y-14453D02*
Y-13881D01*
Y-14453D02*
X-8650Y-14770D01*
X-8703Y-14822D02*
X-8650Y-14770D01*
X-9080Y-14822D02*
X-8703D01*
X-9685Y-15427D02*
X-9080Y-14822D01*
X2894Y-20755D02*
X2901Y-20762D01*
X-1088Y13103D02*
X-857D01*
X-687Y12933D01*
Y11642D02*
Y12933D01*
X-1154Y12605D02*
X-1129Y12630D01*
X7448Y13196D02*
X7768D01*
X7922Y13042D01*
X8105D01*
X8234Y12912D01*
X14771D01*
X15403Y12280D01*
X16531D01*
X-1297Y9654D02*
X2659D01*
X4840Y11835D01*
X17909Y13241D02*
Y15245D01*
X17853D02*
X17909D01*
X16947Y16151D02*
X17853Y15245D01*
X16240Y15810D02*
Y16858D01*
Y15810D02*
X16844Y15206D01*
Y12593D02*
Y15206D01*
X16531Y12280D02*
X16844Y12593D01*
X11726Y8866D02*
X12068D01*
X12737D02*
X12928D01*
X10216Y9431D02*
Y9457D01*
X11060Y9050D02*
X11634D01*
X11715Y8855D02*
X11726Y8866D01*
X11634Y9050D02*
X11695Y9111D01*
X11007Y9103D02*
X11060Y9050D01*
X12162Y8497D02*
X12642D01*
X12706Y8561D01*
X12757D01*
X12852Y8466D01*
X13171D01*
X13266Y8561D01*
X13570D01*
X4648Y9261D02*
X4649Y9261D01*
X5808Y8487D02*
X6118D01*
X5625Y8670D02*
X5808Y8487D01*
X4648Y8670D02*
X5625D01*
X11956Y20612D02*
X12342Y20226D01*
X12904D01*
X13421Y19709D01*
X11494Y20109D02*
X11978D01*
X13226Y18861D01*
X13987D01*
X14128Y19002D01*
X-1297Y7292D02*
X1788D01*
X2580Y6500D01*
X-1297Y7489D02*
X1922D01*
X2709Y6701D01*
X4648D01*
X15680Y3841D02*
X17254Y5415D01*
Y5778D01*
X15653Y3110D02*
X17749Y5206D01*
X17994D01*
X18219Y5431D01*
Y5463D01*
X19772Y7016D01*
X21509D01*
X21752Y7260D01*
Y10246D01*
X12554Y2892D02*
X12772Y3110D01*
X12554Y625D02*
X12589Y591D01*
X12554Y625D02*
Y2892D01*
X12589Y-16134D02*
Y591D01*
X8696Y-20027D02*
X12589Y-16134D01*
X-4198Y9271D02*
X-4118D01*
X16504Y11835D02*
X17909Y13241D01*
X4840Y11835D02*
X16504D01*
X7218Y12358D02*
X7820D01*
X8157Y12695D01*
X8476D01*
X8504Y12667D01*
X5032Y-17830D02*
X5165D01*
X5655Y-18319D01*
Y-18914D02*
Y-18319D01*
X5911Y-18191D02*
X5934D01*
X5558Y-17838D02*
X5911Y-18191D01*
X11333Y1016D02*
X11388Y1071D01*
X6676Y-7931D02*
X8446D01*
X9897Y-6480D01*
X11121D01*
X11560Y-6042D01*
X-11125Y3571D02*
X-10740Y3186D01*
X-490Y4724D02*
Y5698D01*
X-8431Y4435D02*
X-8288D01*
X-7379Y5343D01*
X-11203Y8519D02*
Y10854D01*
X-10808Y11248D01*
X-6588D01*
X1221Y16177D02*
X1744D01*
X-894D02*
X1221D01*
X14620Y5832D02*
Y6430D01*
X14595Y6455D02*
X14620Y6430D01*
X14595Y6455D02*
Y8184D01*
X9529Y12667D02*
X9709Y12486D01*
X8504Y12667D02*
X9529D01*
X2256Y4732D02*
X2591D01*
X1872Y5116D02*
X2256Y4732D01*
X1872Y5116D02*
Y5698D01*
X3434Y4160D02*
Y4169D01*
X3641Y3953D02*
X3740D01*
X3750Y3942D01*
X4069D01*
X6314Y3953D02*
X6317Y3950D01*
X6635D01*
X6638Y3953D01*
X3434Y4160D02*
X3641Y3953D01*
X3103Y4499D02*
X3434Y4169D01*
X2824Y4499D02*
X3103D01*
X9978Y10054D02*
X10165Y10241D01*
X5732Y10481D02*
X6264Y11013D01*
X7209D01*
X7773Y10448D01*
X12098Y8561D02*
X12162Y8497D01*
X10915Y8561D02*
X12098D01*
X10896Y8855D02*
X11715D01*
X10463Y8908D02*
X10843D01*
X10896Y8855D01*
X10356Y8739D02*
X10382Y8713D01*
X10762D01*
X10216Y9431D02*
X10543Y9103D01*
X11007D01*
X10762Y8713D02*
X10915Y8561D01*
X9164Y8739D02*
X10356D01*
X8894Y8469D02*
X9164Y8739D01*
X12068Y8866D02*
X12240Y8695D01*
X12565D01*
X12737Y8866D01*
X8494Y8274D02*
X8974D01*
X9245Y8545D01*
X10275D01*
X10301Y8518D01*
X10682D01*
X8413Y8080D02*
X9055D01*
X9325Y8350D01*
X10194D01*
X10221Y8324D01*
X10601D01*
X10849Y8076D01*
X10682Y8518D02*
X10898Y8302D01*
X6532Y10481D02*
X6959Y10054D01*
X9978D01*
X4648Y8079D02*
X5706D01*
X5878Y7907D01*
X6358D01*
X4648Y8276D02*
X5628D01*
X5643Y8292D01*
X5769D01*
X5959Y8102D01*
X6278D01*
X4648Y10048D02*
X6099D01*
X6532Y10481D01*
X4648Y9064D02*
X5875D01*
X5878Y9067D01*
X4648Y8867D02*
X5954D01*
X5959Y8872D01*
X4663Y7095D02*
X5099D01*
X4648Y6898D02*
X5020D01*
X4648Y7686D02*
X5521D01*
X5669Y7538D01*
X4648Y6505D02*
X5139D01*
X4648Y6308D02*
X5060D01*
X7056Y4311D01*
X9292D01*
X5139Y6505D02*
X5174Y6470D01*
X5020Y6898D02*
X5254Y6664D01*
X5174Y6470D02*
X5466D01*
X7082Y4854D01*
X5099Y7095D02*
X5317Y6877D01*
X5180Y7290D02*
X5398Y7072D01*
X5669Y7538D02*
X7151D01*
X6358Y7907D02*
X6937Y8486D01*
X8007D01*
X6857Y8681D02*
X8087D01*
X6610Y9261D02*
X6615Y9266D01*
X8329D01*
X4648Y9457D02*
X6531D01*
X6534Y9460D01*
X8410D01*
X8413Y9457D01*
X10216D01*
X4649Y9261D02*
X6610D01*
X6278Y8102D02*
X6857Y8681D01*
X10132Y9239D02*
X10463Y8908D01*
X8603Y8985D02*
X8734Y8854D01*
X8249Y9071D02*
X8334Y8985D01*
X8603D01*
X8168Y8876D02*
X8575Y8469D01*
X8894D01*
X8087Y8681D02*
X8494Y8274D01*
X8007Y8486D02*
X8413Y8080D01*
X8120Y6953D02*
X8202Y7035D01*
X7851Y6953D02*
X8120D01*
X7696Y7073D02*
X8042Y7420D01*
X8708D01*
X7775Y6877D02*
X7851Y6953D01*
X5317Y6877D02*
X7003D01*
X7060Y6820D01*
X5254Y6664D02*
X6940D01*
X6979Y6625D01*
X7444D01*
X7634Y6435D01*
X7060Y6820D02*
X7326D01*
X7384Y6878D01*
X7703D01*
X7304Y7073D02*
X7696D01*
X7296Y7683D02*
Y7865D01*
X7703Y6878D02*
X7705Y6877D01*
X7775D01*
X7151Y7538D02*
X7296Y7683D01*
X10159Y6022D02*
X11118Y5063D01*
X10159Y6022D02*
Y6499D01*
X-5262Y9666D02*
Y10436D01*
X-1129Y11482D02*
Y12630D01*
Y11482D02*
X-343Y10696D01*
Y10231D02*
Y10696D01*
X-722Y9851D02*
X-343Y10231D01*
X-1297Y9851D02*
X-722D01*
X-3635Y12605D02*
X-1154D01*
X-4462Y11183D02*
Y11778D01*
X-4034Y10048D02*
X-1297D01*
X-4170Y10184D02*
X-4034Y10048D01*
X-4730Y10184D02*
X-4170D01*
X-4918Y9997D02*
X-4730Y10184D01*
X-4918Y9331D02*
Y9997D01*
X-5279Y8970D02*
X-4918Y9331D01*
X-3955Y10245D02*
X-1297D01*
X-4089Y10379D02*
X-3955Y10245D01*
X-4418Y10379D02*
X-4089D01*
X-4902Y10863D02*
X-4418Y10379D01*
X-4902Y10863D02*
Y11631D01*
X-5102Y11831D02*
X-4902Y11631D01*
X-5405Y11831D02*
X-5102D01*
X-5889Y11347D02*
X-5405Y11831D01*
X-5889Y10445D02*
Y11347D01*
X-6777Y9556D02*
X-5889Y10445D01*
X-6777Y9040D02*
Y9556D01*
X-4903Y8566D02*
X-4198Y9271D01*
X-8848Y7542D02*
X-8231Y8159D01*
X4648Y7292D02*
X4983D01*
X5949Y3907D02*
X5995Y3953D01*
X6314D01*
X5558Y-17838D02*
Y-17110D01*
X7034Y7268D02*
X7615D01*
X5519Y7267D02*
X5525D01*
X7034D01*
X7615Y7268D02*
X7961Y7614D01*
X8662D01*
X8700Y7653D01*
X9388D01*
X9560Y7481D01*
X7302Y7072D02*
X7304Y7073D01*
X5398Y7072D02*
X7302D01*
X4985Y7290D02*
X5180D01*
X4983Y7292D02*
X4985Y7290D01*
X14150Y9449D02*
X14251D01*
X14636Y9082D02*
Y9609D01*
X13235Y8076D02*
X13330Y7981D01*
X13316Y8271D02*
X13411Y8176D01*
X14398Y8569D02*
X14500D01*
X15820Y9889D01*
X10849Y8076D02*
X13235D01*
X12771Y8271D02*
X13316D01*
X12732Y8310D02*
X12771Y8271D01*
X12732Y8310D02*
X12732D01*
X12723Y8302D02*
X12732Y8310D01*
X10898Y8302D02*
X12723D01*
X11695Y9111D02*
X12579D01*
X13330Y7981D02*
X13810D01*
X14398Y8569D01*
X13411Y8176D02*
X13730D01*
X14636Y9082D01*
X12579Y9111D02*
X12857Y9389D01*
X13321D01*
X-5107Y7542D02*
X-4762Y7888D01*
X-3998D01*
X-1754Y7886D02*
X-1300D01*
X-1297Y7883D01*
X-3998Y7888D02*
X-3922Y7965D01*
X-4003Y8159D02*
X-3194D01*
X-3194Y8159D01*
X-3922Y7965D02*
X-3275D01*
X-3274Y7964D01*
X-1675Y7691D02*
X-1673Y7689D01*
X-1379D01*
X-1378Y7688D01*
X-1299D01*
X-1297Y7686D01*
X-4453Y9656D02*
X-4297Y9811D01*
X-1299Y9656D02*
X-1297Y9654D01*
X-1672Y9656D02*
X-1299D01*
X-4297Y9811D02*
X-1827D01*
X-1672Y9656D01*
X-4118Y9271D02*
X-3773Y9616D01*
X-1907D01*
X-1748Y9457D01*
X-1297D01*
X-3673Y8965D02*
X-3227Y9411D01*
X-1977D01*
X-1829Y9263D01*
X-1299D01*
X-1297Y9261D01*
X-3194Y8159D02*
X-2027D01*
X-1754Y7886D01*
X-3274Y7964D02*
X-2112D01*
X-1838Y7691D01*
X-1675D01*
X-3890Y5462D02*
Y7427D01*
X-3824D01*
X-3507Y7744D01*
X-2269D01*
X-1869Y7345D01*
X-1676Y7095D02*
X-1297D01*
X-1869Y7288D02*
X-1676Y7095D01*
X-1530Y5723D02*
X-713D01*
X-3299Y5851D02*
Y7117D01*
Y5851D02*
X-2868Y5420D01*
Y4876D02*
Y5420D01*
X-2920Y4824D02*
X-2868Y4876D01*
X-2920Y4333D02*
Y4824D01*
X-2469Y4981D02*
Y7113D01*
Y4981D02*
X-1863Y4374D01*
X380Y1427D02*
Y1491D01*
X-331Y2202D02*
X380Y1491D01*
X-1335Y3879D02*
X-490Y4724D01*
X-7471Y3879D02*
X-1335D01*
X-2920Y4333D02*
X-2863Y4276D01*
X-2683D01*
X6111Y-1361D02*
X6227Y-1476D01*
X6111Y-1361D02*
Y-1252D01*
X6099Y-1240D02*
X6111Y-1252D01*
X10530Y-1835D02*
X11357Y-1008D01*
X-9630Y-11205D02*
X-9156D01*
X-10111Y-11686D02*
X-9630Y-11205D01*
X-11376Y-11686D02*
X-10111D01*
X-11701Y-12011D02*
X-11376Y-11686D01*
X-11701Y-12253D02*
Y-12011D01*
Y-12253D02*
X-11447Y-12507D01*
Y-12555D02*
Y-12507D01*
Y-12555D02*
X-11235Y-12767D01*
X-10579Y-15695D02*
X-9461Y-14577D01*
Y-13396D01*
X-9256Y-13191D01*
X-8657D01*
X-7967Y-13881D01*
X-10592Y-12767D02*
X-10537Y-12822D01*
Y-14161D02*
Y-12822D01*
X-10782Y-14407D02*
X-10537Y-14161D01*
X-12246Y-14407D02*
X-10782D01*
X-12550Y-14711D02*
X-12246Y-14407D01*
X-12550Y-18202D02*
Y-14711D01*
Y-18202D02*
X-12267Y-18485D01*
X-9685D01*
X-11235Y-12767D02*
X-10592D01*
X7888Y-19257D02*
X8671Y-18474D01*
Y-15232D01*
X4975Y-14886D02*
Y-14520D01*
X5565Y-17182D02*
Y-15729D01*
X3713Y-15518D02*
X5172D01*
X3045Y-16186D02*
X3713Y-15518D01*
X-8650Y-14770D02*
X-8647Y-14773D01*
X-7848D01*
X13194Y21049D02*
X13925D01*
X15812Y19162D02*
X16063D01*
X13925Y21049D02*
X15812Y19162D01*
X16063D02*
X19302Y15923D01*
Y15704D02*
Y15923D01*
Y15704D02*
X20309Y14697D01*
X-7717Y20861D02*
X-5669Y22909D01*
X10479D01*
X11387Y22001D01*
X18230Y10093D02*
Y10704D01*
X15820Y9889D02*
X16952D01*
X17169Y10107D01*
Y10603D01*
X14636Y9609D02*
X14743Y9716D01*
X15234D01*
X15604Y10086D01*
X16160D01*
X16336Y10262D01*
Y10606D01*
X15583Y10399D02*
Y10582D01*
X15109Y9925D02*
X15583Y10399D01*
X14625Y9925D02*
X15109D01*
X14150Y9449D02*
X14625Y9925D01*
X19338Y11812D02*
X19395D01*
X18230Y10704D02*
X19338Y11812D01*
X18230Y10093D02*
X18353Y9970D01*
X18385D01*
X20660Y6187D02*
X21899D01*
X7082Y4854D02*
X10393D01*
X10892Y4354D01*
X14030D01*
X16008Y6333D01*
Y9052D01*
X16252Y9295D01*
X19457D01*
X21117Y10955D01*
X-7399Y8959D02*
X-7238D01*
X-6844Y8566D01*
X-4903D01*
X-5076Y12454D02*
X-3786D01*
X-8365Y9165D02*
X-5076Y12454D01*
X-4462Y11778D02*
X-3786Y12454D01*
X-3635Y12605D01*
X-13242Y8981D02*
Y8994D01*
Y8981D02*
X-12576Y8315D01*
X-13061Y4160D02*
X-13059Y4163D01*
X-14643Y4780D02*
X-14024Y4160D01*
X-13061D01*
X-13059Y4163D02*
X-12551D01*
X-12576Y7516D02*
Y8315D01*
X-20589Y10342D02*
X-16867D01*
X-16233Y9708D01*
X-15198D01*
X-13997Y8506D01*
Y7100D02*
Y8506D01*
X-11452Y3642D02*
X-11342D01*
X-11156D01*
X-11165Y5366D02*
Y5490D01*
X-11342Y5189D02*
X-11165Y5366D01*
X-11342Y4527D02*
Y5189D01*
X10888Y-8420D02*
X10998D01*
X-11192Y-345D02*
X-10740Y107D01*
X-10578D01*
X-3788Y-3960D02*
Y-3946D01*
X-8207Y4241D02*
X-7721Y4727D01*
X-4625D01*
X-3890Y5462D01*
X-8802Y2458D02*
X-8695D01*
X-22586Y5263D02*
X-21641Y4318D01*
X-22586Y5263D02*
Y10415D01*
X-20316Y12686D01*
X-23199Y5571D02*
Y9478D01*
X-22821Y9856D01*
Y10664D01*
X-21883Y11602D01*
Y11967D01*
X-20672Y13178D01*
Y14440D01*
X-15174Y19938D01*
X-14784D01*
X-13455Y21267D01*
X-10785D01*
X-10094Y21957D01*
X-6896D01*
X-5750Y23104D01*
X-260D01*
X-78Y23286D01*
X6657D01*
X7139Y23768D01*
X-2305Y3173D02*
X-35D01*
X110Y3028D01*
X2991D01*
X3069Y2950D01*
X-21641Y4318D02*
X-19511D01*
X-19482Y3677D02*
Y3843D01*
X-17318Y4702D02*
X-17272Y4655D01*
X-19482Y3843D02*
X-18623Y4702D01*
X-17318D01*
X-17272Y4655D02*
X-17011D01*
X-15402Y3046D01*
X-12276Y-794D02*
Y103D01*
X-12486Y-1702D02*
X-12273Y-1914D01*
X-12291Y118D02*
X-12276Y103D01*
X-7118Y-4784D02*
X-5090D01*
X-3522Y-5284D02*
X-2798D01*
X-3631Y-5175D02*
X-3522Y-5284D01*
X-5090Y-4784D02*
X-4756Y-5117D01*
X6638Y3953D02*
X8884D01*
X8961Y3875D01*
X9334D01*
X9368Y3841D01*
X15680D01*
X9795Y-446D02*
X10357Y-1008D01*
X9795Y-446D02*
Y1631D01*
X8958Y2467D02*
X9795Y1631D01*
X5222Y2467D02*
X8958D01*
X-5802Y-4081D02*
X-4592D01*
X-6006Y-4285D02*
X-5802Y-4081D01*
X718Y-5255D02*
Y-4669D01*
X1059Y-5874D02*
X1334Y-5599D01*
X-37Y-5874D02*
X1059D01*
X2061Y-6041D02*
X3369D01*
X1998Y-6103D02*
X2061Y-6041D01*
X216Y-6103D02*
X1998D01*
X-312Y-6632D02*
X216Y-6103D01*
X1442Y-4309D02*
X1881Y-4748D01*
X4550Y-5175D02*
Y-3765D01*
X5379Y-2936D01*
X5443D01*
X5557Y-2821D01*
Y-2758D01*
X5879Y-2436D01*
X5931D02*
X6227Y-2140D01*
Y-1476D01*
X1299Y-3166D02*
X1442Y-3309D01*
X1299Y-3166D02*
Y-751D01*
X730Y-4406D02*
X1251Y-4927D01*
X535Y-4487D02*
Y-3535D01*
X720Y-3349D01*
Y-3031D01*
X730Y-4406D02*
Y-3615D01*
X915Y-3430D01*
Y-2950D01*
X589Y-2899D02*
X720Y-3031D01*
X783Y-2818D02*
X915Y-2950D01*
X783Y-2818D02*
Y1024D01*
X589Y-2899D02*
Y271D01*
X-801Y1661D02*
X589Y271D01*
X380Y1427D02*
X783Y1024D01*
X535Y-4487D02*
X718Y-4669D01*
X4069Y3942D02*
X4080Y3953D01*
X4573D01*
X4576Y3949D01*
X4895D01*
X4898Y3953D01*
X5585D01*
X5624Y3914D01*
X5871D01*
X5878Y3907D01*
X5949D01*
X5521Y1982D02*
X5554Y1949D01*
Y1809D02*
Y1949D01*
X5521Y1982D02*
X6985D01*
X7231Y1737D01*
X-869Y-6842D02*
Y-6583D01*
X-2038Y-8011D02*
X-869Y-6842D01*
X-8203Y-15622D02*
X-8058D01*
X-8650Y-16069D02*
X-8203Y-15622D01*
X5172Y-15518D02*
X5288Y-15402D01*
Y-15300D01*
X7756Y-20369D02*
Y-19934D01*
X4205Y-16956D02*
X4798D01*
X4830Y-16989D01*
X-1712Y-9759D02*
Y-9715D01*
X-1367Y-9369D01*
X710D01*
X1442Y-4309D02*
Y-3309D01*
X-12134Y-8669D02*
X-11836Y-8371D01*
X1720Y-13571D02*
X2098Y-13193D01*
X3888Y-16186D02*
X4975D01*
X3553Y-16520D02*
X3888Y-16186D01*
X2573Y-16520D02*
X3553D01*
X2221Y-16168D02*
X2573Y-16520D01*
X-13290Y3315D02*
X-13216Y3240D01*
X1744Y16177D02*
X2263Y16695D01*
G54D32*
X-12586Y3750D02*
X-12021Y3185D01*
X-12913Y3750D02*
X-12586D01*
X-12021Y3185D02*
X-11978D01*
X-1320Y15572D02*
X-1318Y15571D01*
X-4223Y15572D02*
X-1320D01*
X-5106Y14690D02*
X-4223Y15572D01*
X-5439Y14792D02*
X-4484Y15747D01*
X-11917Y-645D02*
X-11476Y-1085D01*
Y-8726D02*
Y-1085D01*
X-12091Y-718D02*
X-11651Y-1158D01*
Y-8799D02*
Y-1158D01*
X-6210Y-15700D02*
X-5741Y-15231D01*
X-6210Y-17911D02*
X-4721Y-19400D01*
X-6210Y-17911D02*
Y-15700D01*
X-18602Y12480D02*
X-7817D01*
X-18675Y12656D02*
X-13490D01*
X-15065Y13407D02*
X-14732Y13740D01*
X-16911Y13407D02*
X-15065D01*
X-9908Y5738D02*
Y5906D01*
X-10471Y6469D02*
X-9908Y5906D01*
X-10639Y6469D02*
X-10471D01*
X-10084Y5665D02*
Y5771D01*
X-10606Y6293D02*
X-10084Y5771D01*
X-10712Y6293D02*
X-10606D01*
X-10260Y5592D02*
Y5700D01*
X-10677Y6117D02*
X-10260Y5700D01*
X-10785Y6117D02*
X-10677D01*
X-12983Y3820D02*
Y3978D01*
X-9722Y3560D02*
Y3752D01*
X-10088Y4117D02*
X-9722Y3752D01*
X-10088Y4117D02*
Y4672D01*
X-9872Y4887D02*
Y5205D01*
X-10088Y4672D02*
X-9872Y4887D01*
X-10260Y5592D02*
X-9872Y5205D01*
X-9367Y2951D02*
X-9124Y3194D01*
X-8915D01*
X-11086Y291D02*
X-10655D01*
X-11567Y-190D02*
X-11086Y291D01*
X-8254Y-11812D02*
X-6957Y-13108D01*
X-8254Y-11812D02*
Y-11454D01*
X-11384Y-9847D02*
Y-9287D01*
X-11614Y-9057D02*
X-11384Y-9287D01*
X-11614Y-9057D02*
Y-8836D01*
X-11651Y-8799D02*
X-11614Y-8836D01*
X3493Y3768D02*
X3663D01*
X3249Y4012D02*
X3493Y3768D01*
X3249Y4012D02*
Y4092D01*
X14315Y14984D02*
X15116Y15785D01*
X12713Y14984D02*
X14315D01*
X199Y14823D02*
X494Y14528D01*
Y11642D02*
Y14528D01*
X-17636Y14133D02*
X-16911Y13407D01*
X-17636Y14133D02*
Y15274D01*
X-19775Y12067D02*
X-19263D01*
X-21113Y10395D02*
X-19617Y11891D01*
X-19190D02*
X-18602Y12480D01*
X-19617Y11891D02*
X-19190D01*
X-19263Y12067D02*
X-18675Y12656D01*
X-13490D02*
X-13222Y12924D01*
X-7817Y12480D02*
X-5821Y14476D01*
X-14732Y13740D02*
X-13569D01*
X-13222Y13393D01*
Y12924D02*
Y13393D01*
X-5821Y14476D02*
Y15189D01*
X-9526Y5513D02*
X-9333Y5320D01*
X-4930Y13700D02*
Y14527D01*
X-4062Y15395D01*
X202D01*
X673Y14924D01*
X691D01*
Y11642D02*
Y14924D01*
X-5106Y13772D02*
Y14690D01*
X-1318Y15571D02*
X292D01*
X888Y14976D01*
Y11642D02*
Y14976D01*
X-10770Y-10461D02*
X-10096D01*
X-5439Y14127D02*
Y14792D01*
X-4484Y15747D02*
X365D01*
X1085Y15028D01*
Y11642D02*
Y15028D01*
X2465Y14708D02*
X2877Y15120D01*
X2465Y14463D02*
Y14708D01*
X6563Y16311D02*
Y16994D01*
X2877Y15120D02*
Y16023D01*
X2796Y16104D02*
X2877Y16023D01*
X2294Y16104D02*
X2796D01*
X1675Y15485D02*
X2294Y16104D01*
X1675Y11642D02*
Y15485D01*
X1872Y15092D02*
X2453Y15672D01*
X1872Y11642D02*
Y15092D01*
X-21113Y10083D02*
Y10395D01*
X-20967Y9936D02*
X-19892D01*
X-21113Y10083D02*
X-20967Y9936D01*
X-21113Y8704D02*
X-20961Y8551D01*
X-17789Y15122D02*
X-17636Y15274D01*
X-14808Y16688D02*
X-14224Y16105D01*
X-9501D01*
X5626Y16651D02*
Y17195D01*
X3841Y14866D02*
X5626Y16651D01*
X5941Y16462D02*
Y17239D01*
X4038Y14558D02*
X5941Y16462D01*
X3841Y11642D02*
Y14866D01*
X4038Y11642D02*
Y14558D01*
X-14101Y17395D02*
X-13457Y16752D01*
X-9186D01*
X12077Y21709D02*
X12923Y20863D01*
X11396Y21709D02*
X12077D01*
X11824Y21357D02*
X12670Y20511D01*
X11250Y21357D02*
X11824D01*
X11896Y21533D02*
X12743Y20687D01*
X11323Y21533D02*
X11896D01*
X-13761Y14227D02*
X-13591D01*
X-15515Y15981D02*
X-13761Y14227D01*
X-11244Y18732D02*
X-11217D01*
X-10769Y18284D01*
X-8435D02*
X-4555Y22164D01*
X-10769Y18284D02*
X-8435D01*
X-4580Y22637D02*
X10468D01*
X-4525Y22443D02*
X10413D01*
X-8372Y18596D02*
X-4525Y22443D01*
X-7466Y19751D02*
X-4580Y22637D01*
X-9819Y18596D02*
X-8372D01*
X-4555Y22164D02*
X10443D01*
X-11638Y19383D02*
X-10606D01*
X-9819Y18596D01*
X10443Y22164D02*
X11250Y21357D01*
X-15248Y14300D02*
X-14577D01*
X-16222Y15274D02*
X-15248Y14300D01*
X10413Y22443D02*
X11323Y21533D01*
X17672Y11251D02*
X19408Y12987D01*
X-15759Y18815D02*
X-15397Y19176D01*
X-15759Y18380D02*
Y18815D01*
Y18380D02*
X-14954Y17576D01*
Y17239D02*
Y17576D01*
X-16929Y15264D02*
X-14954Y17239D01*
X-16929Y14567D02*
Y15264D01*
Y14567D02*
X-16698Y14798D01*
X10468Y22637D02*
X11396Y21709D01*
X7742Y11440D02*
X7953Y11650D01*
X4196Y6122D02*
X4620D01*
X4140Y6178D02*
X4196Y6122D01*
X4620D02*
X6265Y4477D01*
Y4381D02*
Y4477D01*
X3961Y6178D02*
X4140D01*
X3852Y6069D02*
X3961Y6178D01*
X3852Y5709D02*
Y6069D01*
X3841Y5698D02*
X3852Y5709D01*
X3841Y5698D02*
X3852Y5686D01*
X2441Y4370D02*
X2874Y3937D01*
X1675Y4978D02*
Y5698D01*
X1472Y3976D02*
Y4071D01*
Y3949D02*
Y3976D01*
X1282Y5070D02*
Y5698D01*
X1085Y5018D02*
Y5698D01*
X888Y4655D02*
X1472Y4071D01*
X888Y4655D02*
Y5698D01*
X691Y4071D02*
X785Y3976D01*
X691Y4071D02*
Y5698D01*
X10936Y-587D02*
X12189D01*
X10357Y-8D02*
X10936Y-587D01*
X297Y5698D02*
X309Y5686D01*
X10776Y573D02*
X11357Y-8D01*
X10776Y573D02*
Y812D01*
X-293Y4421D02*
Y5698D01*
X4648Y11032D02*
X5092D01*
X4648Y10835D02*
X5201D01*
X4648Y10638D02*
X5253D01*
X-6789Y11840D02*
X-4930Y13700D01*
X-6862Y12016D02*
X-5106Y13772D01*
X-12348Y11986D02*
X-12142Y12192D01*
X-7373D01*
X-5439Y14127D01*
X-12348Y7680D02*
X-10785Y6117D01*
X-12172Y7753D02*
X-10712Y6293D01*
X-11996Y7826D02*
X-10639Y6469D01*
X-12348Y7680D02*
Y11986D01*
X7520Y11012D02*
X17848D01*
X19725Y12888D01*
Y14765D01*
X19408Y12987D02*
Y14833D01*
X19259Y14981D02*
X19408Y14833D01*
X19434Y15056D02*
X19725Y14765D01*
X11023Y9365D02*
X11239D01*
X11015Y9373D02*
X11023Y9365D01*
X10438Y9851D02*
X10762Y9527D01*
X15756Y3655D02*
X17553Y5453D01*
X17854D01*
X12370Y549D02*
X12404Y514D01*
X12189Y-587D02*
X12404Y-372D01*
Y514D01*
X17431Y11650D02*
X19085Y13304D01*
X7953Y11650D02*
X17431D01*
X12370Y549D02*
Y1760D01*
X11118Y5063D02*
X11333D01*
X-10113Y6841D02*
X-8991Y5719D01*
X-4893D01*
X-4567Y5393D01*
X-10446Y1831D02*
X-10071Y2207D01*
X-10113Y8048D02*
X-9722Y8439D01*
X-8296D01*
X6563Y16994D02*
X9161Y19592D01*
X11310D01*
X12288Y18614D01*
X8573Y17557D02*
X8923Y17907D01*
Y18994D01*
X9268Y19338D01*
X11043D01*
X11469Y18912D01*
Y18082D02*
Y18912D01*
Y18082D02*
X11644Y17907D01*
X12995D01*
X8117Y14251D02*
X8449D01*
X8560Y14362D01*
X12091D01*
X12713Y14984D01*
X-12072Y20425D02*
X-11397Y19751D01*
X-13445Y20425D02*
X-12072D01*
X-14694Y19176D02*
X-13445Y20425D01*
X-15397Y19176D02*
X-14694D01*
X-11397Y19751D02*
X-7466D01*
X8316Y12310D02*
X8447D01*
X8671Y12086D01*
X10327D01*
X10498Y12258D01*
X10680D01*
X309Y3671D02*
Y5686D01*
X-96Y3496D02*
Y5698D01*
X100Y3559D02*
Y5698D01*
X1675Y4978D02*
X2107Y4546D01*
X2514D01*
X1282Y5070D02*
X1981Y4370D01*
X2441D01*
X1085Y5018D02*
X2165Y3937D01*
X10702Y3427D02*
X12370Y1760D01*
X2321Y3562D02*
X2352Y3593D01*
X2393Y3387D02*
X2424Y3418D01*
X2465Y3213D02*
X2496Y3243D01*
X2352Y3593D02*
X2688D01*
X2719Y3562D01*
X3029D01*
X3060Y3593D01*
X2424Y3418D02*
X2615D01*
X2646Y3387D01*
X3102D01*
X3133Y3418D01*
X2496Y3243D02*
X2543D01*
X2574Y3213D01*
X3174D01*
X3205Y3243D01*
X3029Y4312D02*
X3249Y4092D01*
X3663Y3768D02*
X3674Y3757D01*
X4146D01*
X4156Y3768D01*
X3591Y3593D02*
X3601Y3582D01*
X4218D01*
X4229Y3593D01*
X3133Y3418D02*
X3518D01*
X3529Y3408D01*
X4290D01*
X4301Y3418D01*
X3205Y3243D02*
X3446D01*
X3456Y3233D01*
X6238Y3768D02*
X6240Y3766D01*
X6712D01*
X6714Y3768D01*
X6165Y3593D02*
X6168Y3591D01*
X6784D01*
X6787Y3593D01*
X3060D02*
X3591D01*
X187Y3213D02*
X2465D01*
X100Y3559D02*
X272Y3387D01*
X2393D01*
X309Y3671D02*
X418Y3562D01*
X2321D01*
X2748Y4312D02*
X3029D01*
X2514Y4546D02*
X2748Y4312D01*
X-96Y3496D02*
X187Y3213D01*
X10776Y812D02*
X10935Y971D01*
X10357Y992D02*
X10376D01*
X10713Y1329D01*
X9638Y3034D02*
X10713Y1960D01*
Y1329D02*
Y1960D01*
X9687Y3242D02*
X10935Y1994D01*
Y971D02*
Y1994D01*
X5253Y10638D02*
X5814Y11200D01*
X7333D01*
X7520Y11012D01*
X7405Y11374D02*
X7529Y11251D01*
X17672D01*
X7477Y11549D02*
X7587Y11440D01*
X7742D01*
X5609Y11549D02*
X7477D01*
X5740Y11374D02*
X7405D01*
X5201Y10835D02*
X5740Y11374D01*
X5092Y11032D02*
X5609Y11549D01*
X10620Y9288D02*
X10930D01*
X10400Y9507D02*
X10620Y9288D01*
X10930D02*
X11015Y9373D01*
X10280Y9654D02*
X10400Y9534D01*
X4648Y7883D02*
X5642D01*
X5802Y7723D01*
X6435D01*
X4648Y9851D02*
X10438D01*
X4648Y9654D02*
X10280D01*
X7721Y8165D02*
X7907Y7980D01*
X-8296Y8439D02*
X-8212Y8354D01*
X4648Y7489D02*
X5303D01*
X6886Y3198D02*
X6931Y3243D01*
X6813Y3373D02*
X6859Y3418D01*
X6098Y3548D02*
X6144Y3593D01*
X6165D01*
X6026Y3722D02*
X6071Y3768D01*
X6238D01*
X5303Y7489D02*
X5525Y7267D01*
X4301Y3418D02*
X4351D01*
X4354Y3415D01*
X4229Y3593D02*
X4424D01*
X4427Y3590D01*
X4156Y3768D02*
X4496D01*
X4499Y3765D01*
X-8212Y8354D02*
X-3127D01*
X-3117Y8344D01*
X-2807D01*
X-2806Y8344D01*
X-2683D01*
X-1429Y8079D02*
X-1297D01*
X-1442Y8092D02*
X-1429Y8079D01*
X-1669Y8092D02*
X-1442D01*
X-2996Y8839D02*
X-2609Y9226D01*
X-2054D01*
X-1904Y9076D01*
X-1309D01*
X-1297Y9064D01*
X-2312Y8745D02*
Y8829D01*
X-2088D01*
X-1732Y8473D01*
X-1297D01*
X-2602Y8415D02*
X-1991D01*
X-1669Y8092D01*
X-2683Y8344D02*
Y8344D01*
Y8344D02*
X-2673D01*
X-2602Y8415D01*
X-1672Y6308D02*
X-1297D01*
X-2054Y6690D02*
X-1672Y6308D01*
X-2054Y6690D02*
Y7268D01*
X-2345Y7560D02*
X-2054Y7268D01*
X-3431Y7560D02*
X-2345D01*
X-3698Y7293D02*
X-3431Y7560D01*
X-3698Y5306D02*
Y7293D01*
X8103Y-5215D02*
Y-5065D01*
X7210Y-14602D02*
X7393D01*
X12923Y20863D02*
X13849D01*
X12743Y20687D02*
X13778D01*
X12670Y20511D02*
X13707D01*
X15591Y18627D01*
X15841D01*
X15663Y18802D02*
X15914D01*
X15735Y18977D02*
X15986D01*
X13778Y20687D02*
X15663Y18802D01*
X13849Y20863D02*
X15735Y18977D01*
X15986D02*
X19117Y15846D01*
Y15628D02*
Y15846D01*
Y15628D02*
X19434Y15310D01*
Y15056D02*
Y15310D01*
X15914Y18802D02*
X18942Y15774D01*
Y15555D02*
Y15774D01*
Y15555D02*
X19259Y15238D01*
Y14981D02*
Y15238D01*
X15841Y18627D02*
X18767Y15701D01*
Y15483D02*
Y15701D01*
Y15483D02*
X19085Y15166D01*
Y13304D02*
Y15166D01*
X20835Y5509D02*
X21991D01*
X22477Y5995D01*
X-12985Y3976D02*
X-12983Y3978D01*
X-14380Y3976D02*
X-12985D01*
X-21474Y6740D02*
X-17144D01*
X-14380Y3976D01*
X-10113Y6841D02*
Y8048D01*
X-9908Y5738D02*
X-9683Y5513D01*
X-9526D01*
X-10084Y5665D02*
X-9097Y4679D01*
X-9028D01*
X-9821Y3460D02*
X-9722Y3560D01*
X-10446Y832D02*
X-10435Y821D01*
X-10446Y832D02*
Y1831D01*
X-10921Y1495D02*
X-10871Y1545D01*
X-11384Y-9847D02*
X-10770Y-10461D01*
X-11220Y-9204D02*
X-11209D01*
X-11170Y2167D02*
X-10840D01*
X-11541Y1545D02*
X-10871D01*
X-11439Y-8984D02*
Y-8764D01*
X-10655Y291D02*
X-10435Y511D01*
Y821D01*
X-10810Y666D02*
Y954D01*
X-11226Y1370D02*
X-10810Y954D01*
X-7784Y4325D02*
X-4678D01*
X-3698Y5306D01*
X-8915Y3194D02*
X-7784Y4325D01*
X-21827Y10015D02*
X-19775Y12067D01*
X-21827Y7093D02*
Y10015D01*
Y7093D02*
X-21474Y6740D01*
X-7166Y3654D02*
X-1061D01*
X-7316Y3504D02*
X-7166Y3654D01*
X-8029Y3504D02*
X-7316D01*
X-8104Y3429D02*
X-8029Y3504D01*
X-1061Y3654D02*
X-293Y4421D01*
X-11468Y1370D02*
X-11226D01*
X-11884Y1453D02*
X-11170Y2167D01*
X-11884Y1448D02*
Y1453D01*
X-11567Y-501D02*
Y-190D01*
X-12091Y-718D02*
Y179D01*
X-11917Y-645D02*
Y252D01*
X-11742Y-573D02*
Y324D01*
Y-573D02*
X-11268Y-1046D01*
X-11567Y-501D02*
X-11094Y-974D01*
X-12106Y194D02*
X-12091Y179D01*
X-12106Y194D02*
Y1226D01*
X-11884Y1448D01*
X-11931Y267D02*
X-11917Y252D01*
X-11931Y267D02*
Y1154D01*
X-11541Y1545D01*
X-11757Y1082D02*
X-11468Y1370D01*
X-11757Y339D02*
Y1082D01*
Y339D02*
X-11742Y324D01*
X6714Y3768D02*
X8807D01*
X6787Y3593D02*
X8735D01*
X6859Y3418D02*
X8663D01*
X6931Y3243D02*
X8590D01*
X8668Y3166D01*
X9040D01*
X9172Y3034D01*
X9638D01*
X8663Y3418D02*
X8740Y3341D01*
X9113D01*
X9211Y3242D01*
X9687D01*
X8735Y3593D02*
X8812Y3516D01*
X9185D01*
X9274Y3427D01*
X10702D01*
X8807Y3768D02*
X8885Y3691D01*
X9257D01*
X9293Y3655D01*
X15756D01*
X4499Y3765D02*
X4971D01*
X4974Y3768D01*
X5508D01*
X4427Y3590D02*
X5044D01*
X5047Y3593D01*
X5436D01*
X4354Y3415D02*
X5116D01*
X5119Y3418D01*
X5364D01*
X3456Y3233D02*
X5181D01*
X5192Y3243D01*
X5291D01*
X5330Y3205D01*
X5578D01*
X5585Y3198D01*
X6886D01*
X5364Y3418D02*
X5402Y3380D01*
X5650D01*
X5657Y3373D01*
X6813D01*
X5436Y3593D02*
X5475Y3555D01*
X5722D01*
X5729Y3548D01*
X6098D01*
X5508Y3768D02*
X5547Y3729D01*
X5795D01*
X5802Y3722D01*
X6026D01*
X-11476Y-8726D02*
X-11439Y-8764D01*
X-11268Y-8382D02*
Y-1046D01*
X-11439Y-8984D02*
X-11220Y-9204D01*
X-10663Y-7738D02*
X-9001Y-9400D01*
X-10720Y-7738D02*
X-10663D01*
X-11094Y-7364D02*
X-10720Y-7738D01*
X-11094Y-7364D02*
Y-974D01*
X-11996Y7826D02*
Y11626D01*
X-11782Y11840D01*
X-6789D01*
X-12172Y7753D02*
Y11844D01*
X-11999Y12016D01*
X-6862D01*
X-12983Y3820D02*
X-12913Y3750D01*
X-11745Y2951D02*
X-9367D01*
X-11978Y3185D02*
X-11745Y2951D01*
X-9186Y16752D02*
X-8012Y17926D01*
X5254D01*
X5941Y17239D01*
X-9501Y16105D02*
X-7899Y17707D01*
X5114D01*
X5626Y17195D01*
X-5821Y15189D02*
X-3903Y17107D01*
X2617D01*
X3053Y16672D01*
Y11642D02*
Y16672D01*
X6435Y7723D02*
X6877Y8165D01*
X7721D01*
G54D34*
X-18831Y13032D02*
X-14169D01*
X-19945Y12443D02*
X-19419D01*
X-18831Y13032D01*
X-14169D02*
X-14000Y13201D01*
X-19658Y13019D02*
X-18777Y13900D01*
Y15318D01*
X-18027Y16068D01*
X-17285D01*
X-17198Y15981D01*
X-16929D01*
X-16222Y16688D02*
Y16688D01*
X-16929Y15981D02*
X-16222Y16688D01*
X-8560Y-12205D02*
X-8016Y-12749D01*
X-9156Y-12205D02*
X-8560D01*
X-9161Y-12199D02*
X-9156Y-12205D01*
X-10995Y-12199D02*
X-9161D01*
X-22202Y10186D02*
X-19945Y12443D01*
X-22202Y6287D02*
Y10186D01*
Y6287D02*
X-21029Y5114D01*
X-12134Y-10060D02*
X-10995Y-11199D01*
G54D36*
X-11050Y-17355D02*
Y-15241D01*
X-10579Y-14770D01*
X-11050Y-17355D02*
X-10514Y-17892D01*
X-2754Y-8943D02*
X-1897D01*
X-3832Y-7865D02*
X-2754Y-8943D01*
X-5018Y-7865D02*
X-3832D01*
X-5267Y-7617D02*
X-5018Y-7865D01*
X-5267Y-7617D02*
Y-6915D01*
X-4138Y-4295D02*
X-3788Y-3946D01*
X-4138Y-5786D02*
Y-4295D01*
X-5267Y-6915D02*
X-4138Y-5786D01*
X4018Y-18702D02*
Y-17907D01*
X-4721Y-20200D02*
X-3663D01*
X-3935Y-19311D02*
Y-18514D01*
X-4785Y-18054D02*
X-4712D01*
X-3534Y-20861D02*
Y-20125D01*
X-3663Y-20200D02*
X-3561Y-20098D01*
X-3534Y-20125D01*
X3920Y-5175D02*
Y-2335D01*
X2597Y1275D02*
X2645Y1323D01*
X2597Y-8D02*
Y1275D01*
Y-808D02*
X2645Y-857D01*
Y-2356D02*
Y-857D01*
X3986Y-20315D02*
Y-19885D01*
X4181Y-19690D01*
G54D37*
X-7769Y294D02*
Y1436D01*
X-9325Y-1262D02*
X-7769Y294D01*
X-9325Y-2121D02*
Y-1262D01*
X-3897Y4286D02*
Y4732D01*
X-3394Y5235D01*
X7347Y5586D02*
X10020D01*
X10998Y4608D01*
X11777Y4880D02*
Y4899D01*
X10998Y4608D02*
X11506D01*
X11777Y4880D01*
Y4899D02*
X13197Y6319D01*
Y6987D01*
X12692Y7493D02*
X13197Y6987D01*
X-11758Y-15982D02*
Y-14998D01*
Y-15982D02*
X-11673Y-16067D01*
X-9983Y-2780D02*
X-9325Y-2121D01*
X-6723Y2582D02*
X-6622D01*
X-7819Y1486D02*
X-6723Y2582D01*
G54D41*
X7350Y-3360D02*
D03*
Y-2360D02*
D03*
X-10995Y-12199D02*
D03*
Y-11199D02*
D03*
X20961Y8551D02*
D03*
X19961Y7551D02*
D03*
Y8551D02*
D03*
X18961Y7551D02*
D03*
Y8551D02*
D03*
X17961Y7551D02*
D03*
Y8551D02*
D03*
X16961Y7551D02*
D03*
Y8551D02*
D03*
X20961Y7551D02*
D03*
X-16961Y8551D02*
D03*
X-17961Y7551D02*
D03*
Y8551D02*
D03*
X-18961Y7551D02*
D03*
Y8551D02*
D03*
X-19961Y7551D02*
D03*
Y8551D02*
D03*
X-20961Y7551D02*
D03*
Y8551D02*
D03*
X-16961Y7551D02*
D03*
X-16929Y14567D02*
D03*
X-14808Y18102D02*
D03*
X-14101Y17395D02*
D03*
X-15515Y17395D02*
D03*
X-14808Y16688D02*
D03*
X-16222Y16688D02*
D03*
X-15515Y15981D02*
D03*
X-16929Y15981D02*
D03*
X-16222Y15274D02*
D03*
X-17636Y15274D02*
D03*
G54D42*
X-2559Y-9827D02*
D03*
Y-10827D02*
D03*
X-6496D02*
D03*
Y-9827D02*
D03*
X2559Y-10827D02*
D03*
Y-9827D02*
D03*
X6496D02*
D03*
Y-10827D02*
D03*
G54D43*
X14409Y16492D02*
D03*
X15116Y15785D02*
D03*
X13702Y17199D02*
D03*
X12995Y17907D02*
D03*
X15823Y15078D02*
D03*
X16956Y16174D02*
D03*
X14128Y19002D02*
D03*
X14835Y18295D02*
D03*
X16249Y16881D02*
D03*
X15542Y17588D02*
D03*
G54D44*
X12288Y18614D02*
D03*
X13421Y19709D02*
D03*
G54D45*
X-2819Y-1514D02*
D03*
X-3819D02*
D03*
X-4819D02*
D03*
X-5819D02*
D03*
X-6819D02*
D03*
X-7819D02*
D03*
X-8819D02*
D03*
X-9819D02*
D03*
X-2819Y1486D02*
D03*
X-3819D02*
D03*
X-4819D02*
D03*
X-5819D02*
D03*
X-6819D02*
D03*
X-7819D02*
D03*
X-8819D02*
D03*
X-9819D02*
D03*
X-9272Y22482D02*
D03*
Y19159D02*
D03*
X-9258Y21300D02*
D03*
X-9208Y20238D02*
D03*
G54D46*
X-11967Y-13881D02*
D03*
X-10967D02*
D03*
X-9967D02*
D03*
X-8967D02*
D03*
X-9156Y-12205D02*
D03*
X11357Y-1008D02*
D03*
X10357D02*
D03*
X11357Y-8D02*
D03*
X10357D02*
D03*
X11357Y992D02*
D03*
X10357D02*
D03*
X11560Y-7042D02*
D03*
X10560D02*
D03*
X11560Y-6042D02*
D03*
X10560D02*
D03*
X11560Y-5042D02*
D03*
X10560D02*
D03*
X-11673Y-16067D02*
D03*
X11811Y-11832D02*
D03*
G54D47*
X-7967Y-13881D02*
D03*
G54D48*
X-9156Y-11205D02*
D03*
X-11673Y-17067D02*
D03*
X11811Y-10832D02*
D03*
G54D49*
X8696Y-20027D02*
D03*
X7756Y-20369D02*
D03*
X6817Y-20711D02*
D03*
X7888Y-19257D02*
D03*
X6948Y-19599D02*
D03*
X6008Y-19941D02*
D03*
G54D50*
X-6378Y-20944D02*
D03*
X-7318Y-20602D02*
D03*
X-8258Y-20260D02*
D03*
X-6502Y-19835D02*
D03*
X-7442Y-19493D02*
D03*
X-8382Y-19151D02*
D03*
G54D51*
X-2008Y-23617D02*
D03*
Y-25074D02*
D03*
X2008D02*
D03*
Y-23617D02*
D03*
G54D52*
X-11417Y-19638D02*
D03*
X11417D02*
D03*
X17717Y3740D02*
D03*
X-17717D02*
D03*
G54D53*
X7350Y-1449D02*
D03*
X6858Y-559D02*
D03*
X-1772Y-22638D02*
D03*
X-5510Y-16550D02*
D03*
X-5808Y-15325D02*
D03*
X-4334Y-13974D02*
D03*
X-4836Y-17236D02*
D03*
X-5386Y-13950D02*
D03*
X-15627Y10601D02*
D03*
X5024Y-12019D02*
D03*
X-6006Y-4285D02*
D03*
X-11866Y3560D02*
D03*
X6009Y-13065D02*
D03*
X7226Y-12728D02*
D03*
X7510Y-12072D02*
D03*
X-706Y-10463D02*
D03*
X502Y-9803D02*
D03*
X956Y-8642D02*
D03*
X272Y-8801D02*
D03*
X42Y-11058D02*
D03*
X-3640Y-13732D02*
D03*
X-3601Y-11911D02*
D03*
X-6962Y-13028D02*
D03*
X-8254Y-11454D02*
D03*
X-8115Y-10336D02*
D03*
X-9001Y-9400D02*
D03*
X-6661Y-11993D02*
D03*
X3320Y-12411D02*
D03*
X-1936Y-8904D02*
D03*
X-265Y-7353D02*
D03*
X-1955Y-7280D02*
D03*
X-257Y-8351D02*
D03*
X-2746Y-12029D02*
D03*
X9763Y2251D02*
D03*
X-4531Y-7118D02*
D03*
X-9215Y-5225D02*
D03*
X-11133Y-8947D02*
D03*
X-13070Y8925D02*
D03*
X11475Y6617D02*
D03*
X20780Y11867D02*
D03*
X6785Y15483D02*
D03*
X-1676Y946D02*
D03*
X19007Y10019D02*
D03*
X8693Y13610D02*
D03*
X82Y14151D02*
D03*
X192Y14795D02*
D03*
X-12365Y-11655D02*
D03*
X-11832Y-12667D02*
D03*
X-9702Y3619D02*
D03*
X-13221Y4545D02*
D03*
X-9034Y4775D02*
D03*
X-10142Y-12997D02*
D03*
Y-10430D02*
D03*
X2465Y14463D02*
D03*
X975Y15690D02*
D03*
X-1090Y16123D02*
D03*
X6563Y16311D02*
D03*
X8573Y17557D02*
D03*
X2453Y15672D02*
D03*
X-19892Y9936D02*
D03*
X-5848Y16895D02*
D03*
X-6426Y18464D02*
D03*
X-19658Y13019D02*
D03*
X-13591Y14227D02*
D03*
X-11244Y18732D02*
D03*
X-11638Y19383D02*
D03*
X-14577Y14300D02*
D03*
X-6307Y14562D02*
D03*
X5018Y16833D02*
D03*
X9292Y4311D02*
D03*
X10165Y10241D02*
D03*
X10775Y9662D02*
D03*
X-20562Y10415D02*
D03*
X-13997Y7100D02*
D03*
X-8016Y-12749D02*
D03*
X-13950Y13250D02*
D03*
X6476Y4335D02*
D03*
X2874Y3937D02*
D03*
X2165D02*
D03*
X3910Y4327D02*
D03*
X-3813Y-2997D02*
D03*
X9626Y21201D02*
D03*
X5204Y21159D02*
D03*
X17126Y5669D02*
D03*
X17835Y5591D02*
D03*
X1338Y-17161D02*
D03*
X3191Y-18534D02*
D03*
X3780Y-23561D02*
D03*
X-3807Y-23694D02*
D03*
X-2618Y-19029D02*
D03*
X-4840Y-18018D02*
D03*
X11555Y-2466D02*
D03*
X-13024Y7804D02*
D03*
X8082Y13426D02*
D03*
X16372Y12665D02*
D03*
X15583Y10582D02*
D03*
X5269Y-18654D02*
D03*
X-1129Y12630D02*
D03*
X-944Y13225D02*
D03*
X7448Y13196D02*
D03*
X11475Y9435D02*
D03*
X16336Y10606D02*
D03*
X15175Y13103D02*
D03*
X11956Y20612D02*
D03*
X11494Y20109D02*
D03*
X17909Y13241D02*
D03*
X21752Y10246D02*
D03*
X-3673Y8965D02*
D03*
X-2962Y8719D02*
D03*
X7218Y12358D02*
D03*
X8316Y12310D02*
D03*
X6899Y-17883D02*
D03*
X3473Y-19274D02*
D03*
X6069Y-17805D02*
D03*
X5997Y-16832D02*
D03*
X12080Y-13896D02*
D03*
X11333Y1795D02*
D03*
X11333Y5063D02*
D03*
X9689Y-7297D02*
D03*
X9659Y-5223D02*
D03*
X-9895Y2252D02*
D03*
X-4607Y5464D02*
D03*
X-7471Y3879D02*
D03*
X9867Y17096D02*
D03*
X9809Y17805D02*
D03*
X2263Y16695D02*
D03*
X5953Y12729D02*
D03*
X8117Y14251D02*
D03*
X10241Y15173D02*
D03*
X-16119Y11080D02*
D03*
X-15087Y11961D02*
D03*
X-12564Y19786D02*
D03*
X10680Y12258D02*
D03*
X14620Y5832D02*
D03*
X12606Y6544D02*
D03*
X9844Y12481D02*
D03*
X785Y3976D02*
D03*
X1472D02*
D03*
X-1530Y5723D02*
D03*
X-3897Y4286D02*
D03*
X-3253Y5260D02*
D03*
X7347Y5586D02*
D03*
X-4360Y2715D02*
D03*
X7923Y10569D02*
D03*
X-1946Y-21508D02*
D03*
X-1727Y-18052D02*
D03*
X-1853Y-17378D02*
D03*
X6632Y5456D02*
D03*
X-11758Y-14998D02*
D03*
X-11622Y-18052D02*
D03*
X-9092Y-3482D02*
D03*
X6118Y8487D02*
D03*
X8734Y8854D02*
D03*
X7844Y8007D02*
D03*
X7544Y6494D02*
D03*
X8202Y7035D02*
D03*
X7296Y7683D02*
D03*
X10145Y6561D02*
D03*
X-8493Y-17094D02*
D03*
X-4749Y-8661D02*
D03*
X8762Y2038D02*
D03*
X-8382Y-17847D02*
D03*
X-3906Y-8766D02*
D03*
X-6037Y9454D02*
D03*
X-5428Y8993D02*
D03*
X5835Y4337D02*
D03*
X5892Y-14859D02*
D03*
X9560Y7481D02*
D03*
X4735Y4334D02*
D03*
X8853Y7211D02*
D03*
X14251Y9449D02*
D03*
X14595Y8184D02*
D03*
X13570Y8561D02*
D03*
X13435Y9404D02*
D03*
X13011Y8850D02*
D03*
X12633Y7547D02*
D03*
X-8461Y16508D02*
D03*
X-6813Y15399D02*
D03*
X-6689Y9025D02*
D03*
X-3299Y7117D02*
D03*
X-2469Y7113D02*
D03*
X-499Y-182D02*
D03*
X1169Y1522D02*
D03*
X-2312Y8829D02*
D03*
X-1769Y4345D02*
D03*
X-455Y2209D02*
D03*
X-859Y1626D02*
D03*
X-2683Y4276D02*
D03*
X6496Y-1201D02*
D03*
X5772Y-2052D02*
D03*
X8639Y-5573D02*
D03*
X-212Y-4157D02*
D03*
X336Y-3190D02*
D03*
X-732Y-2151D02*
D03*
X-2244Y-1995D02*
D03*
X-4577Y-2250D02*
D03*
X-6622Y2582D02*
D03*
X-9983Y-2780D02*
D03*
X2375Y2070D02*
D03*
X8233Y-15599D02*
D03*
X7393Y-14602D02*
D03*
X-7848Y-14773D02*
D03*
X18518Y15203D02*
D03*
X20443Y10955D02*
D03*
X19112Y4289D02*
D03*
X19205Y3408D02*
D03*
X17169Y10603D02*
D03*
X19395Y11812D02*
D03*
X18385Y9970D02*
D03*
X20660Y6187D02*
D03*
X20835Y5509D02*
D03*
X21987Y6136D02*
D03*
X22624Y6138D02*
D03*
X14575Y14179D02*
D03*
X14892Y10608D02*
D03*
X14158Y10084D02*
D03*
X-5741Y-8821D02*
D03*
X-14643Y4780D02*
D03*
X-7399Y8959D02*
D03*
X-8365Y9082D02*
D03*
X-14745Y10590D02*
D03*
X-13715Y9570D02*
D03*
X-10871Y1545D02*
D03*
X-10840Y2167D02*
D03*
X-10540Y7581D02*
D03*
X-11215Y7828D02*
D03*
X-14531Y8392D02*
D03*
X-9323Y5436D02*
D03*
X-15568Y5940D02*
D03*
X-19297Y5757D02*
D03*
X-10298Y5022D02*
D03*
X-10810Y666D02*
D03*
X10935Y-4007D02*
D03*
X10998Y-8420D02*
D03*
X-6011Y-3276D02*
D03*
X-5935Y2296D02*
D03*
X-6562Y-2201D02*
D03*
X-8104Y3429D02*
D03*
X-3788Y-3946D02*
D03*
X-6399Y5129D02*
D03*
X-8802Y2458D02*
D03*
X-19482Y3677D02*
D03*
X-23199Y5571D02*
D03*
X7295Y23846D02*
D03*
X-2305Y3173D02*
D03*
X3063Y2718D02*
D03*
X-19535Y4502D02*
D03*
X-11192Y-345D02*
D03*
X-12273Y-1914D02*
D03*
X-7118Y-4784D02*
D03*
X-4716Y-5175D02*
D03*
X-3631D02*
D03*
X7944Y2067D02*
D03*
X-1673Y-3031D02*
D03*
X-4592Y-4081D02*
D03*
X880Y-5417D02*
D03*
X2917Y-3007D02*
D03*
X8103Y-5065D02*
D03*
X1385Y-5073D02*
D03*
X5211Y-2445D02*
D03*
X5811Y-2668D02*
D03*
X1271Y-605D02*
D03*
X5308Y2555D02*
D03*
X5554Y1809D02*
D03*
X7231Y1737D02*
D03*
X-2230Y-8260D02*
D03*
X-8058Y-15622D02*
D03*
X-10514Y-17892D02*
D03*
X5673Y-15460D02*
D03*
X2728Y-17236D02*
D03*
X5028Y-17005D02*
D03*
X8113Y-17009D02*
D03*
X7515Y-16097D02*
D03*
X-1456Y-8346D02*
D03*
X-661Y-11950D02*
D03*
X-1388Y-10095D02*
D03*
X-240Y-4907D02*
D03*
X1733Y-4580D02*
D03*
X-11102Y-8347D02*
D03*
X-10381Y-8819D02*
D03*
X2246Y-16063D02*
D03*
X1861Y-11886D02*
D03*
X11582Y-12968D02*
D03*
G54D54*
X-869Y-5284D02*
D03*
X-2798D02*
D03*
X-869Y-6583D02*
D03*
X-2798D02*
D03*
X-10579Y-16069D02*
D03*
X-8650Y-16069D02*
D03*
X-10579Y-14770D02*
D03*
X-8650Y-14770D02*
D03*
X3045Y-16186D02*
D03*
X4975D02*
D03*
X3045Y-14886D02*
D03*
X4975D02*
D03*
G54D55*
X4734Y-20315D02*
D03*
X3986D02*
D03*
X4360Y-21102D02*
D03*
X4730Y-18827D02*
D03*
X3982D02*
D03*
X4356Y-19614D02*
D03*
X-2786Y-20861D02*
D03*
X-3534D02*
D03*
X-3160Y-21649D02*
D03*
X-3187Y-19311D02*
D03*
X-3935D02*
D03*
X-3561Y-20098D02*
D03*
G54D56*
X-8848Y7542D02*
D03*
X-5107D02*
D03*
G54D57*
X-12937Y5490D02*
D03*
X-11165D02*
D03*
G54D58*
X4138Y1622D02*
D03*
Y-2118D02*
D03*
G54D59*
X3920Y-5175D02*
D03*
X4235D02*
D03*
X4550D02*
D03*
X4865D02*
D03*
X5180D02*
D03*
X5495D02*
D03*
X5810D02*
D03*
X6125D02*
D03*
Y-8482D02*
D03*
X5810D02*
D03*
X5495D02*
D03*
X5180D02*
D03*
X4865D02*
D03*
X4550D02*
D03*
X4235D02*
D03*
X3920D02*
D03*
G54D60*
X6676Y-5726D02*
D03*
Y-6041D02*
D03*
Y-6356D02*
D03*
Y-6671D02*
D03*
Y-6986D02*
D03*
Y-7301D02*
D03*
Y-7616D02*
D03*
Y-7931D02*
D03*
X3369D02*
D03*
Y-7616D02*
D03*
Y-7301D02*
D03*
Y-6986D02*
D03*
Y-6671D02*
D03*
Y-6356D02*
D03*
Y-6041D02*
D03*
Y-5726D02*
D03*
G54D61*
X4038Y5698D02*
D03*
X3841D02*
D03*
X3644D02*
D03*
X3447D02*
D03*
X3250D02*
D03*
X3053D02*
D03*
X2856D02*
D03*
X2660D02*
D03*
X2463D02*
D03*
X2266D02*
D03*
X2069D02*
D03*
X1872D02*
D03*
X1675D02*
D03*
X1478D02*
D03*
X1282D02*
D03*
X1085D02*
D03*
X888D02*
D03*
X691D02*
D03*
X494D02*
D03*
X297D02*
D03*
X100D02*
D03*
X-96D02*
D03*
X-293D02*
D03*
X-490D02*
D03*
X-687D02*
D03*
Y11642D02*
D03*
X-490D02*
D03*
X-293D02*
D03*
X-96D02*
D03*
X100D02*
D03*
X297D02*
D03*
X494D02*
D03*
X691D02*
D03*
X888D02*
D03*
X1085D02*
D03*
X1282D02*
D03*
X1478D02*
D03*
X1675D02*
D03*
X1872D02*
D03*
X2069D02*
D03*
X2266D02*
D03*
X2463D02*
D03*
X2660D02*
D03*
X2856D02*
D03*
X3053D02*
D03*
X3250D02*
D03*
X3447D02*
D03*
X3644D02*
D03*
X3841D02*
D03*
X4038D02*
D03*
G54D62*
X-1297Y6308D02*
D03*
Y6505D02*
D03*
Y6701D02*
D03*
Y6898D02*
D03*
Y7095D02*
D03*
Y7292D02*
D03*
Y7489D02*
D03*
Y7686D02*
D03*
Y7883D02*
D03*
Y8079D02*
D03*
Y8276D02*
D03*
Y8473D02*
D03*
Y8670D02*
D03*
Y8867D02*
D03*
Y9064D02*
D03*
Y9261D02*
D03*
Y9457D02*
D03*
Y9654D02*
D03*
Y9851D02*
D03*
Y10048D02*
D03*
Y10245D02*
D03*
Y10442D02*
D03*
Y10638D02*
D03*
Y10835D02*
D03*
Y11032D02*
D03*
X4648D02*
D03*
Y10835D02*
D03*
Y10638D02*
D03*
Y10442D02*
D03*
Y10245D02*
D03*
Y10048D02*
D03*
Y9851D02*
D03*
Y9654D02*
D03*
Y9457D02*
D03*
Y9261D02*
D03*
Y9064D02*
D03*
Y8867D02*
D03*
Y8670D02*
D03*
Y8473D02*
D03*
Y8276D02*
D03*
Y8079D02*
D03*
Y7883D02*
D03*
Y7686D02*
D03*
Y7489D02*
D03*
Y7292D02*
D03*
Y7095D02*
D03*
Y6898D02*
D03*
Y6701D02*
D03*
Y6505D02*
D03*
Y6308D02*
D03*
G54D63*
X-8231Y8159D02*
X-4003D01*
M02*
