%FSLAX24Y24*%
%MOIN*%
G70*
G01*
G75*
G04 Layer_Physical_Order=1*
G04 Layer_Color=255*
%ADD10R,0.0400X0.0500*%
%ADD11R,0.0800X0.0800*%
%ADD12R,0.0500X0.0400*%
%ADD13R,0.0394X0.0787*%
%ADD14R,0.0787X0.0394*%
%ADD15R,0.0433X0.0236*%
%ADD16R,0.0295X0.0118*%
%ADD17R,0.0870X0.0866*%
%ADD18R,0.1335X0.0772*%
%ADD19R,0.0787X0.1378*%
%ADD20R,0.0800X0.0800*%
%ADD21R,0.0394X0.0217*%
G04:AMPARAMS|DCode=22|XSize=90.6mil|YSize=295.3mil|CornerRadius=0mil|HoleSize=0mil|Usage=FLASHONLY|Rotation=167.000|XOffset=0mil|YOffset=0mil|HoleType=Round|Shape=Rectangle|*
%AMROTATEDRECTD22*
4,1,4,0.0773,0.1337,0.0109,-0.1540,-0.0773,-0.1337,-0.0109,0.1540,0.0773,0.1337,0.0*
%
%ADD22ROTATEDRECTD22*%

G04:AMPARAMS|DCode=23|XSize=90.6mil|YSize=295.3mil|CornerRadius=0mil|HoleSize=0mil|Usage=FLASHONLY|Rotation=192.000|XOffset=0mil|YOffset=0mil|HoleType=Round|Shape=Rectangle|*
%AMROTATEDRECTD23*
4,1,4,0.0136,0.1538,0.0750,-0.1350,-0.0136,-0.1538,-0.0750,0.1350,0.0136,0.1538,0.0*
%
%ADD23ROTATEDRECTD23*%

%ADD24R,0.0354X0.0591*%
%ADD25R,0.0236X0.0433*%
%ADD26R,0.0453X0.0591*%
%ADD27R,0.0157X0.0591*%
%ADD28C,0.0250*%
%ADD29C,0.0315*%
%ADD30C,0.0200*%
%ADD31C,0.0120*%
%ADD32C,0.0100*%
%ADD33C,0.0157*%
%ADD34C,0.0500*%
%ADD35C,0.0394*%
%ADD36C,0.0197*%
%ADD37C,0.0238*%
%ADD38C,0.0217*%
%ADD39C,0.0161*%
%ADD40C,0.0150*%
%ADD41C,0.0700*%
%ADD42C,0.0551*%
G04:AMPARAMS|DCode=43|XSize=99.4mil|YSize=60mil|CornerRadius=0mil|HoleSize=0mil|Usage=FLASHONLY|Rotation=45.000|XOffset=0mil|YOffset=0mil|HoleType=Round|Shape=Round|*
%AMOVALD43*
21,1,0.0394,0.0600,0.0000,0.0000,45.0*
1,1,0.0600,-0.0139,-0.0139*
1,1,0.0600,0.0139,0.0139*
%
%ADD43OVALD43*%

G04:AMPARAMS|DCode=44|XSize=99.4mil|YSize=60mil|CornerRadius=0mil|HoleSize=0mil|Usage=FLASHONLY|Rotation=45.000|XOffset=0mil|YOffset=0mil|HoleType=Round|Shape=Rectangle|*
%AMROTATEDRECTD44*
4,1,4,-0.0139,-0.0563,-0.0563,-0.0139,0.0139,0.0563,0.0563,0.0139,-0.0139,-0.0563,0.0*
%
%ADD44ROTATEDRECTD44*%

%ADD45C,0.0600*%
%ADD46C,0.0591*%
%ADD47R,0.0591X0.0591*%
%ADD48R,0.0591X0.0591*%
G04:AMPARAMS|DCode=49|XSize=60mil|YSize=99.4mil|CornerRadius=0mil|HoleSize=0mil|Usage=FLASHONLY|Rotation=20.000|XOffset=0mil|YOffset=0mil|HoleType=Round|Shape=Round|*
%AMOVALD49*
21,1,0.0394,0.0600,0.0000,0.0000,110.0*
1,1,0.0600,0.0067,-0.0185*
1,1,0.0600,-0.0067,0.0185*
%
%ADD49OVALD49*%

G04:AMPARAMS|DCode=50|XSize=60mil|YSize=99.4mil|CornerRadius=0mil|HoleSize=0mil|Usage=FLASHONLY|Rotation=340.000|XOffset=0mil|YOffset=0mil|HoleType=Round|Shape=Round|*
%AMOVALD50*
21,1,0.0394,0.0600,0.0000,0.0000,70.0*
1,1,0.0600,-0.0067,-0.0185*
1,1,0.0600,0.0067,0.0185*
%
%ADD50OVALD50*%

G04:AMPARAMS|DCode=51|XSize=86.6mil|YSize=63mil|CornerRadius=15.7mil|HoleSize=0mil|Usage=FLASHONLY|Rotation=90.000|XOffset=0mil|YOffset=0mil|HoleType=Round|Shape=RoundedRectangle|*
%AMROUNDEDRECTD51*
21,1,0.0866,0.0315,0,0,90.0*
21,1,0.0551,0.0630,0,0,90.0*
1,1,0.0315,0.0157,0.0276*
1,1,0.0315,0.0157,-0.0276*
1,1,0.0315,-0.0157,-0.0276*
1,1,0.0315,-0.0157,0.0276*
%
%ADD51ROUNDEDRECTD51*%
%ADD52C,0.1654*%
%ADD53C,0.0500*%
G36*
X9891Y-202D02*
X10000Y-365D01*
X10164Y-475D01*
X10164Y-475D01*
X10025Y-625D01*
X10027Y-622D01*
X9634Y-629D01*
X9537Y-532D01*
X9670Y-162D01*
X9879Y-141D01*
X9891Y-202D01*
D02*
G37*
G36*
X5650Y1184D02*
Y-1442D01*
X5670Y-1543D01*
X5670Y-1543D01*
X5596Y-1628D01*
X5596D01*
X5596Y-1628D01*
X5447Y-1727D01*
X5122Y-1786D01*
X5093Y-1757D01*
X5007Y-1700D01*
X4905Y-1679D01*
X497D01*
X362Y-1353D01*
X375Y-1287D01*
X752Y-910D01*
X947Y-930D01*
X1095Y-1029D01*
X1271Y-1064D01*
X1447Y-1029D01*
X1595Y-930D01*
X1635Y-870D01*
X2972D01*
X3073Y-850D01*
X3160Y-793D01*
X3160Y-793D01*
X3160Y-793D01*
X5286Y1334D01*
X5650Y1184D01*
D02*
G37*
G36*
X-12350Y-245D02*
Y-960D01*
X-12727Y-1074D01*
X-12795Y-972D01*
Y-76D01*
X-12677Y-27D01*
X-12350Y-245D01*
D02*
G37*
G36*
X4706Y1995D02*
X4820Y1618D01*
X2862Y-340D01*
X1837D01*
X1686Y24D01*
X3785Y2122D01*
X4067D01*
X4706Y1995D01*
D02*
G37*
G36*
X-5117Y2196D02*
X-5125Y2155D01*
Y2151D01*
X-5163Y1940D01*
X-5300Y1846D01*
X-5529Y1854D01*
X-5619Y2138D01*
X-5606Y2159D01*
X-5600Y2188D01*
X-5223Y2303D01*
X-5117Y2196D01*
D02*
G37*
G36*
X-5699Y1102D02*
X-5663Y1109D01*
X-5531Y1198D01*
X-5531Y1198D01*
Y1198D01*
X-5290Y1291D01*
X-5290D01*
X-5179Y1126D01*
X-5014Y1015D01*
X-4819Y976D01*
X-4624Y1015D01*
X-4458Y1126D01*
X-4206Y1152D01*
X-4179Y1126D01*
X-4179Y1126D01*
Y1126D01*
X-4014Y1015D01*
X-3819Y976D01*
X-3624Y1015D01*
X-3458Y1126D01*
X-3206Y1152D01*
X-3179Y1126D01*
X-3179Y1126D01*
Y1126D01*
X-3014Y1015D01*
X-2819Y976D01*
X-2624Y1015D01*
X-2458Y1126D01*
X-2279Y1124D01*
X-2135Y946D01*
Y946D01*
X-2135D01*
D01*
D01*
D01*
X-2100Y770D01*
X-2000Y621D01*
X-2000D01*
D01*
Y621D01*
D01*
X-2000D01*
X-1812Y392D01*
X-2035Y169D01*
X-2101Y70D01*
X-2125Y-47D01*
Y-930D01*
X-2338Y-1073D01*
X-2472Y-1144D01*
X-2624Y-1043D01*
X-2819Y-1004D01*
X-3014Y-1043D01*
X-3179Y-1153D01*
X-3290Y-1319D01*
D01*
X-3458Y-1153D01*
X-3458Y-1153D01*
Y-1153D01*
X-3624Y-1043D01*
X-3819Y-1004D01*
X-4014Y-1043D01*
X-4161Y-1141D01*
X-4587Y-714D01*
X-4673Y-657D01*
X-4775Y-637D01*
X-5428D01*
X-6069Y4D01*
X-6155Y61D01*
X-6256Y82D01*
X-7455D01*
X-7907Y533D01*
X-7819Y976D01*
X-7624Y1015D01*
X-7458Y1126D01*
X-7348Y1291D01*
X-7348D01*
D01*
X-7107Y1198D01*
X-7107Y1198D01*
Y1198D01*
X-6975Y1109D01*
X-6939Y1102D01*
Y1486D01*
X-6699D01*
Y1102D01*
X-6663Y1109D01*
X-6531Y1198D01*
X-6516Y1220D01*
X-6122D01*
X-6107Y1198D01*
X-5975Y1109D01*
X-5939Y1102D01*
Y1486D01*
X-5699D01*
Y1102D01*
D02*
G37*
G36*
X-8103Y-567D02*
X-8017Y-624D01*
X-7953Y-637D01*
X-7953Y-1031D01*
X-8014Y-1043D01*
X-8179Y-1153D01*
X-8290Y-1319D01*
D01*
X-8458Y-1153D01*
X-8458Y-1153D01*
Y-1153D01*
X-8624Y-1043D01*
X-8819Y-1004D01*
X-9014Y-1043D01*
X-9088Y-1092D01*
X-9110Y-1017D01*
Y-1017D01*
D01*
D01*
D01*
X-9110Y-1017D01*
X-9124Y-996D01*
X-9124Y-996D01*
X-9168Y-931D01*
Y-931D01*
X-9275Y-824D01*
X-9361Y-767D01*
X-9462Y-747D01*
X-10192D01*
X-10192Y-747D01*
X-10294Y-767D01*
X-10380Y-824D01*
X-10393Y-838D01*
X-10690Y-807D01*
X-10774Y-530D01*
X-10768Y-521D01*
X-10763Y-494D01*
X-10675Y-332D01*
X-10072D01*
X-9971Y-311D01*
X-9885Y-254D01*
X-9885Y-254D01*
X-9885Y-254D01*
X-9469Y162D01*
X-8832D01*
X-8103Y-567D01*
D02*
G37*
G36*
X-6208Y-884D02*
X-6358Y-1248D01*
X-6516D01*
X-6531Y-1225D01*
X-6663Y-1137D01*
X-6699Y-1130D01*
Y-1514D01*
X-6939D01*
Y-1130D01*
X-6975Y-1137D01*
X-7107Y-1225D01*
X-7107Y-1225D01*
Y-1225D01*
X-7348Y-1319D01*
D01*
X-7458Y-1153D01*
X-7624Y-1043D01*
X-7658Y-1036D01*
X-7619Y-644D01*
X-6447D01*
X-6208Y-884D01*
D02*
G37*
G36*
X8322Y-1524D02*
Y-2264D01*
X8312D01*
Y-3064D01*
Y-3864D01*
X8312D01*
X8312Y-4273D01*
X7948Y-4637D01*
X7927Y-4641D01*
X7779Y-4740D01*
X7053Y-4256D01*
X7204Y-3892D01*
X7350Y-3921D01*
X7565Y-3878D01*
X7747Y-3757D01*
X7868Y-3575D01*
X7911Y-3360D01*
X7868Y-3146D01*
X7747Y-2964D01*
Y-2757D01*
X7868Y-2575D01*
X7911Y-2360D01*
X7868Y-2146D01*
X7747Y-1964D01*
X7747Y-1964D01*
X7747D01*
X7675Y-1773D01*
X7675Y-1773D01*
X7774Y-1624D01*
X7809Y-1449D01*
X7803Y-1418D01*
X7984Y-1322D01*
X8322Y-1524D01*
D02*
G37*
G36*
X-3014Y-1985D02*
X-2819Y-2024D01*
X-2819Y-2024D01*
X-2819Y-2024D01*
X-2679Y-2117D01*
X-2668Y-2171D01*
X-2569Y-2320D01*
X-2420Y-2419D01*
X-2420Y-2419D01*
X-2420D01*
X-2403Y-2444D01*
X-2405Y-2452D01*
Y-3207D01*
X-2381Y-3324D01*
X-2362Y-3354D01*
Y-3473D01*
X-2916Y-4028D01*
X-3330Y-3946D01*
X-3365Y-3770D01*
X-3464Y-3621D01*
X-3613Y-3522D01*
X-3489Y-3321D01*
X-3489Y-3321D01*
X-3489D01*
X-3389Y-3172D01*
X-3354Y-2997D01*
X-3389Y-2821D01*
X-3489Y-2672D01*
X-3507Y-2660D01*
Y-2356D01*
X-3513Y-2327D01*
Y-2097D01*
X-3301Y-1956D01*
X-3166Y-1883D01*
X-3014Y-1985D01*
D02*
G37*
G36*
X10499Y-4282D02*
X10475Y-4341D01*
X10098Y-4455D01*
X9995Y-4386D01*
X10014Y-4287D01*
X10014Y-4287D01*
Y-4186D01*
X10315Y-3938D01*
X10499Y-4282D01*
D02*
G37*
G36*
X4753Y-2444D02*
X4753Y-2445D01*
X4788Y-2621D01*
X4887Y-2770D01*
X4649Y-3126D01*
X3372D01*
X3274Y-3007D01*
X3247Y-2870D01*
X3169Y-2754D01*
X3403Y-2405D01*
X4714D01*
X4753Y-2444D01*
D02*
G37*
G36*
X11477Y-1395D02*
X11526Y-1389D01*
Y-2013D01*
X11380Y-2042D01*
X11231Y-2142D01*
X11131Y-2291D01*
X11096Y-2466D01*
X11131Y-2642D01*
X11231Y-2791D01*
X11380Y-2890D01*
X11555Y-2925D01*
X11573Y-2921D01*
X11877Y-3171D01*
Y-4290D01*
X11734Y-4408D01*
X11378Y-4239D01*
Y-4184D01*
X11368Y-4136D01*
X11394Y-4007D01*
X11359Y-3831D01*
X11260Y-3682D01*
X11111Y-3583D01*
X10935Y-3548D01*
X10760Y-3583D01*
X10611Y-3682D01*
X10535Y-3796D01*
X10158Y-3681D01*
Y-3104D01*
Y-2304D01*
X10005D01*
Y-1754D01*
X10310Y-1504D01*
X10357Y-1513D01*
X10550Y-1475D01*
X10714Y-1365D01*
X10714D01*
Y-1365D01*
X11072Y-1293D01*
X11072Y-1293D01*
D01*
X11072Y-1293D01*
Y-1293D01*
X11203Y-1381D01*
X11237Y-1387D01*
Y-1008D01*
X11477D01*
Y-1395D01*
D02*
G37*
G36*
X-5760Y-2219D02*
X-5695Y-2547D01*
X-5973Y-2825D01*
X-6011Y-2818D01*
X-6169Y-2849D01*
X-6422Y-2570D01*
X-6309Y-2453D01*
X-6309D01*
X-6309Y-2453D01*
X-6309Y-2453D01*
X-6309Y-2453D01*
D01*
X-6232Y-2337D01*
X-6205Y-2201D01*
X-6209Y-2178D01*
X-6136Y-2105D01*
X-5760Y-2219D01*
D02*
G37*
G36*
X2561Y-2599D02*
X2375Y-2946D01*
X816D01*
X581Y-2630D01*
X649Y-2405D01*
X2431D01*
X2561Y-2599D01*
D02*
G37*
G36*
X10681Y4496D02*
Y3076D01*
X10368Y2763D01*
X10119Y2597D01*
X9952Y2666D01*
X9939Y2675D01*
X9923Y2678D01*
X9756Y2747D01*
X9557Y3744D01*
Y3947D01*
X9617Y3987D01*
X9627Y4003D01*
X9640Y4005D01*
X9747Y4077D01*
X10317Y4647D01*
X10681Y4496D01*
D02*
G37*
G36*
X5296Y5084D02*
X5026Y4813D01*
X4968Y4727D01*
D01*
X4911Y4758D01*
D01*
X4911Y4758D01*
X4911Y4758D01*
X4735Y4793D01*
X4560Y4758D01*
X4411Y4659D01*
Y4659D01*
X4162Y4579D01*
X4162Y4579D01*
Y4579D01*
X4046Y4656D01*
X4030Y4660D01*
Y4327D01*
Y3994D01*
X4046Y3997D01*
X4123Y4048D01*
X4386Y3908D01*
X4444Y3518D01*
X3774Y2848D01*
X3473D01*
X3473Y2848D01*
X3419Y2837D01*
X3392Y2855D01*
Y2855D01*
X3392Y2855D01*
X3315Y2971D01*
X3199Y3048D01*
X3183Y3051D01*
Y2718D01*
X2943D01*
Y3079D01*
X2835Y3281D01*
X2866Y3440D01*
X3050Y3513D01*
X3050D01*
X3198Y3613D01*
X3298Y3761D01*
X3326Y3902D01*
X3690Y4053D01*
X3773Y3997D01*
X3790Y3994D01*
Y4327D01*
Y4660D01*
X3773Y4656D01*
X3657Y4579D01*
X3580Y4463D01*
X3553Y4327D01*
X3553Y4327D01*
X3198Y4261D01*
X3050Y4361D01*
X2874Y4396D01*
X2698Y4361D01*
X2550Y4261D01*
X2490D01*
X2341Y4361D01*
X2165Y4396D01*
X1990Y4361D01*
X1841Y4261D01*
X1797Y4301D01*
X1797Y4301D01*
X1648Y4400D01*
X1472Y4435D01*
X1297Y4400D01*
X1148Y4301D01*
X1110D01*
X961Y4400D01*
X785Y4435D01*
X770Y4432D01*
X521Y4737D01*
X653Y5056D01*
X3672D01*
X3797Y5081D01*
X3902Y5151D01*
X4181Y5430D01*
X5106D01*
X5111Y5431D01*
X5296Y5084D01*
D02*
G37*
G36*
X7742Y4500D02*
Y3114D01*
X7365Y2999D01*
X7340Y3037D01*
X7340Y3037D01*
X6804Y3573D01*
Y4016D01*
X6900Y4160D01*
X6935Y4335D01*
D01*
D01*
D01*
X6935Y4335D01*
X6935Y4335D01*
X6941Y4588D01*
D01*
X7670D01*
X7742Y4500D01*
D02*
G37*
G36*
X-3151Y4114D02*
X-3007Y3951D01*
D01*
X-3007Y3951D01*
X-3007Y3951D01*
X-3007Y3951D01*
X-3007Y3951D01*
D01*
X-2858Y3852D01*
X-2683Y3817D01*
X-2659Y3822D01*
X-2508Y3458D01*
X-2557Y3425D01*
Y3425D01*
X-2557Y3425D01*
X-2557Y3425D01*
X-2634Y3309D01*
X-2638Y3293D01*
X-2305D01*
Y3173D01*
X-2185D01*
Y2840D01*
X-2168Y2843D01*
X-1943Y2507D01*
X-2129Y2160D01*
X-2604D01*
X-2780Y2125D01*
X-2929Y2025D01*
X-2993Y1961D01*
X-3014Y1957D01*
X-3179Y1847D01*
X-3187Y1835D01*
X-3564Y1949D01*
Y3700D01*
X-3151Y4114D01*
Y4114D01*
D02*
G37*
G36*
X-18612Y5308D02*
X-18586Y5245D01*
X-18976Y4855D01*
X-19186Y4968D01*
X-19306Y5128D01*
X-19271Y5304D01*
X-19121Y5333D01*
X-18989Y5422D01*
X-18612Y5308D01*
D02*
G37*
G36*
X6029Y5775D02*
X6115Y5669D01*
X5947Y5314D01*
X5639D01*
X5634Y5325D01*
X5605Y5471D01*
X5854Y5775D01*
X6028D01*
X6029Y5775D01*
D02*
G37*
G36*
X-21520Y7560D02*
X-21521Y7551D01*
X-21479Y7337D01*
X-21357Y7155D01*
X-21175Y7033D01*
X-20961Y6990D01*
X-20746Y7033D01*
X-20639Y7104D01*
X-20292Y6919D01*
Y6610D01*
X-20267Y6483D01*
X-20195Y6376D01*
X-20185Y6365D01*
X-20335Y6002D01*
X-20661D01*
Y5726D01*
X-20384D01*
Y5606D01*
X-20264D01*
Y5211D01*
X-20107D01*
Y5211D01*
X-19931Y5540D01*
X-19640Y5439D01*
X-19494Y5293D01*
X-19561Y4955D01*
X-19710Y4925D01*
X-19859Y4826D01*
X-19959Y4677D01*
X-19994Y4502D01*
X-19989Y4477D01*
X-20238Y4172D01*
X-20761D01*
Y3324D01*
X-21306D01*
Y4172D01*
X-22060D01*
Y4172D01*
X-22315D01*
X-22315Y4348D01*
X-22315Y4348D01*
X-22315Y4348D01*
Y4349D01*
X-23015D01*
Y4348D01*
X-23015Y4348D01*
X-23015Y4348D01*
X-23015Y4169D01*
D01*
X-23115Y4069D01*
D01*
X-23184Y4001D01*
X-23394D01*
X-23551Y4158D01*
Y4872D01*
X-23404Y4992D01*
X-23033Y4860D01*
X-23015Y4769D01*
X-23015Y4769D01*
X-23015Y4769D01*
Y4589D01*
X-22785D01*
Y4769D01*
X-22948D01*
X-23001Y5037D01*
X-22752Y5341D01*
X-22060D01*
Y5111D01*
X-21306D01*
Y6102D01*
X-22060D01*
Y5871D01*
X-22737D01*
X-22987Y6176D01*
X-22930Y6464D01*
X-22122Y7272D01*
X-22051Y7379D01*
X-22025Y7506D01*
Y7727D01*
X-21824Y7810D01*
X-21520Y7560D01*
D02*
G37*
G36*
X22597Y5584D02*
Y5539D01*
X22874D01*
Y5419D01*
X22994D01*
Y5024D01*
X23151D01*
D01*
X23151D01*
X23274Y4902D01*
Y4265D01*
X22994Y3985D01*
X22497D01*
Y2995D01*
D01*
Y2995D01*
X22258Y2756D01*
X21952D01*
Y2756D01*
Y2995D01*
X21952Y3034D01*
X21952Y3034D01*
X21952Y3034D01*
Y3985D01*
X21198D01*
Y3886D01*
X20954D01*
X20854Y3986D01*
Y3986D01*
X20854Y4165D01*
X20854Y4165D01*
X20854Y4165D01*
Y4166D01*
X20154D01*
Y4165D01*
X20154Y4165D01*
X20154Y4165D01*
X20154Y3986D01*
D01*
X20054Y3886D01*
D01*
X19907Y3740D01*
X19583D01*
X19397Y4087D01*
X19441Y4153D01*
X19445Y4169D01*
X19112D01*
Y4289D01*
X18992D01*
Y4622D01*
X18975Y4619D01*
X18859Y4542D01*
X18782Y4426D01*
X18782Y4426D01*
Y4426D01*
X18449Y4472D01*
X18234Y4637D01*
X17985Y4740D01*
X17909Y4750D01*
X17896Y5144D01*
X18010Y5167D01*
X18159Y5266D01*
X18259Y5415D01*
X18262Y5434D01*
X20391D01*
X20411Y5334D01*
X20510Y5185D01*
X20659Y5085D01*
X20835Y5050D01*
X21010Y5085D01*
X21010Y5085D01*
X21010D01*
X21010D01*
D01*
D01*
D01*
D01*
X21198Y4924D01*
Y4924D01*
X21952D01*
Y5546D01*
X22290Y5749D01*
X22597Y5584D01*
D02*
G37*
G36*
X-6772Y5347D02*
X-6765Y5249D01*
X-6399D01*
Y5009D01*
X-6732D01*
X-6728Y4992D01*
X-6651Y4876D01*
X-6535Y4799D01*
X-6399Y4772D01*
X-6351Y4781D01*
X-6166Y4434D01*
X-6668Y3931D01*
X-7045Y4045D01*
X-7047Y4055D01*
X-7146Y4204D01*
X-7295Y4303D01*
X-7471Y4338D01*
X-7646Y4303D01*
X-7795Y4204D01*
X-7796Y4203D01*
X-8182Y4279D01*
X-8247Y4607D01*
Y4775D01*
X-7675Y5347D01*
X-6772D01*
Y5347D01*
D02*
G37*
G36*
X14047Y6107D02*
X14183Y5942D01*
X14162Y5832D01*
X14197Y5657D01*
X14296Y5508D01*
X14445Y5408D01*
X14620Y5373D01*
X14796Y5408D01*
X14945Y5508D01*
X14985Y5567D01*
X15500D01*
X15601Y5587D01*
X15687Y5645D01*
X16057Y6015D01*
X16450Y5995D01*
X16677Y5719D01*
X16667Y5669D01*
X16702Y5494D01*
X16802Y5345D01*
X16950Y5245D01*
X17126Y5210D01*
X17302Y5245D01*
X17332Y5266D01*
X17676Y5075D01*
X17666Y4769D01*
X17448Y4740D01*
X17199Y4637D01*
X16984Y4472D01*
X16820Y4258D01*
X16716Y4008D01*
X16681Y3740D01*
X16716Y3472D01*
X16820Y3222D01*
X16907Y3109D01*
X16732Y2756D01*
X13205D01*
X12876Y2822D01*
X12856Y2923D01*
X12798Y3009D01*
X12798Y3009D01*
X12449Y3359D01*
Y5957D01*
X12606Y6086D01*
X12782Y6121D01*
X12931Y6220D01*
X12948Y6246D01*
X13840D01*
X14047Y6107D01*
D02*
G37*
G36*
X-15102Y4780D02*
X-15067Y4604D01*
X-14968Y4455D01*
X-14819Y4356D01*
X-14643Y4321D01*
X-14468Y4356D01*
X-14319Y4455D01*
X-14233Y4584D01*
X-13711D01*
X-13680Y4545D01*
X-13645Y4370D01*
X-13545Y4221D01*
X-13396Y4121D01*
X-13221Y4086D01*
X-13143Y3693D01*
Y3315D01*
X-13117Y3188D01*
X-13061Y3103D01*
X-13104Y3022D01*
X-13370Y2756D01*
X-16732D01*
X-16907Y3109D01*
X-16820Y3222D01*
X-16716Y3472D01*
X-16681Y3740D01*
X-16716Y4008D01*
X-16820Y4258D01*
X-16984Y4472D01*
X-16999Y4697D01*
X-16730Y4985D01*
X-16134D01*
X-15102Y4780D01*
D02*
G37*
G36*
X11634Y2578D02*
X11541Y2404D01*
X11147D01*
X11052Y2582D01*
X11203Y2733D01*
X11203D01*
X11203Y2733D01*
X11203D01*
D01*
Y2733D01*
X11354Y2858D01*
Y2858D01*
X11634Y2578D01*
D02*
G37*
G36*
X25394Y11024D02*
Y7480D01*
Y2953D01*
X25197Y2756D01*
X23251D01*
Y2995D01*
X23251D01*
Y3492D01*
X23726Y3967D01*
X23784Y4053D01*
X23804Y4155D01*
Y7840D01*
X23804Y7840D01*
X23784Y7942D01*
X23726Y8028D01*
X23726Y8028D01*
X22899Y8855D01*
X22813Y8912D01*
X22812Y8913D01*
X22599Y9125D01*
Y9648D01*
X22696Y9745D01*
X22754Y9831D01*
X22774Y9933D01*
Y9966D01*
X22787Y10032D01*
Y11180D01*
X22767Y11282D01*
X22710Y11368D01*
X22084Y11993D01*
Y12485D01*
X22064Y12586D01*
X22007Y12672D01*
X20970Y13709D01*
Y14080D01*
X20963Y14116D01*
Y14128D01*
X20943Y14230D01*
X20885Y14316D01*
X14191Y21010D01*
X14105Y21067D01*
X14004Y21087D01*
X13609D01*
X12675Y22021D01*
X12589Y22079D01*
X12488Y22099D01*
X11833D01*
X11135Y22797D01*
X11049Y22855D01*
X10947Y22875D01*
X10372D01*
X9995Y23252D01*
X9909Y23309D01*
X9808Y23330D01*
X8187D01*
X7740Y23776D01*
X7754Y23846D01*
X7719Y24022D01*
X7620Y24171D01*
X7471Y24270D01*
X7295Y24305D01*
X7120Y24270D01*
X6971Y24171D01*
X6971Y24171D01*
X6971D01*
X6971D01*
D01*
Y24171D01*
X6780Y23994D01*
X6571Y24203D01*
X6488Y24258D01*
X6391Y24278D01*
X6352D01*
Y24473D01*
X5193D01*
X4958Y24789D01*
X5022Y25000D01*
X9843D01*
X10630Y25787D01*
X25394Y11024D01*
D02*
G37*
G36*
X-10757Y5022D02*
X-10722Y4846D01*
X-10623Y4697D01*
X-10563Y4658D01*
Y4172D01*
X-10890Y3845D01*
X-11442Y3736D01*
X-11542Y3884D01*
X-11691Y3984D01*
X-11866Y4019D01*
X-11944Y4083D01*
Y4513D01*
X-11965Y4614D01*
X-12022Y4700D01*
X-12198Y4876D01*
X-12047Y5240D01*
X-11854D01*
X-10757Y5022D01*
D02*
G37*
G36*
X-4490Y4172D02*
X-5557Y3104D01*
X-6116D01*
X-6267Y3468D01*
X-5199Y4535D01*
X-4640D01*
X-4490Y4172D01*
D02*
G37*
G36*
X-24540Y4218D02*
Y3313D01*
X-24540Y3313D01*
X-24540D01*
X-24520Y3212D01*
X-24463Y3126D01*
X-24457Y3120D01*
X-24556Y2880D01*
X-24945Y2821D01*
X-25144Y3058D01*
X-24933Y4253D01*
X-24540Y4218D01*
D02*
G37*
G36*
X7069Y-14926D02*
X7218Y-15026D01*
X7393Y-15061D01*
X7569Y-15026D01*
X7618Y-14993D01*
X7965Y-15179D01*
D01*
X7904Y-15463D01*
Y-15463D01*
X7877Y-15599D01*
X7877Y-15599D01*
X7877Y-15599D01*
X7691Y-15673D01*
X7515Y-15638D01*
X7340Y-15673D01*
X7191Y-15772D01*
X7091Y-15921D01*
X7084Y-15959D01*
X6425D01*
X6274Y-15595D01*
X6955Y-14915D01*
X7069Y-14926D01*
D02*
G37*
G36*
X-8768Y-15264D02*
X-8757Y-15321D01*
X-8691Y-15420D01*
X-8513Y-15598D01*
X-8517Y-15622D01*
X-8482Y-15798D01*
X-8383Y-15946D01*
X-8243Y-16040D01*
X-8240Y-16075D01*
X-8337Y-16564D01*
X-8423Y-16649D01*
X-8493Y-16635D01*
X-8668Y-16670D01*
X-8817Y-16770D01*
X-8916Y-16919D01*
X-8951Y-17094D01*
X-8916Y-17270D01*
X-8817Y-17419D01*
X-8817Y-17419D01*
X-8706Y-17522D01*
X-8806Y-17671D01*
X-8841Y-17847D01*
X-8806Y-18022D01*
X-8706Y-18171D01*
X-8662Y-18201D01*
X-8654Y-18594D01*
X-8690Y-18621D01*
X-8793Y-18791D01*
X-8928Y-19161D01*
X-8958Y-19358D01*
X-8911Y-19551D01*
X-8793Y-19711D01*
X-8623Y-19815D01*
D01*
X-8669Y-19901D01*
X-8669Y-19901D01*
D01*
X-8804Y-20271D01*
X-8834Y-20467D01*
X-8787Y-20660D01*
X-8669Y-20821D01*
X-8499Y-20924D01*
X-8303Y-20954D01*
X-8109Y-20907D01*
X-7949Y-20789D01*
X-7949Y-20789D01*
Y-20789D01*
X-7755Y-20959D01*
Y-20959D01*
X-7755Y-20959D01*
X-7661Y-21088D01*
X-7629Y-21107D01*
X-7431Y-20561D01*
X-7205Y-20643D01*
X-7404Y-21189D01*
X-7367Y-21194D01*
X-7213Y-21157D01*
X-7213Y-21157D01*
X-7213Y-21157D01*
X-6955Y-21151D01*
X-6908Y-21344D01*
X-6790Y-21505D01*
X-6620Y-21608D01*
X-6423Y-21638D01*
X-6230Y-21591D01*
X-6070Y-21473D01*
X-5966Y-21303D01*
X-5832Y-20933D01*
X-5802Y-20737D01*
X-5849Y-20544D01*
X-5966Y-20383D01*
X-6137Y-20280D01*
X-6091Y-20194D01*
X-6091Y-20194D01*
D01*
X-5956Y-19824D01*
X-5926Y-19627D01*
X-5973Y-19434D01*
X-6091Y-19274D01*
X-6261Y-19171D01*
X-6457Y-19140D01*
X-6650Y-19188D01*
X-6897Y-19126D01*
X-6913Y-19092D01*
Y-19092D01*
X-6913Y-19092D01*
X-7030Y-18932D01*
X-7200Y-18829D01*
X-7397Y-18798D01*
X-7590Y-18846D01*
X-7836Y-18784D01*
X-7852Y-18750D01*
Y-18750D01*
X-7852Y-18750D01*
X-7970Y-18590D01*
X-8140Y-18487D01*
D01*
X-8140Y-18487D01*
X-7958Y-18022D01*
Y-18022D01*
X-7923Y-17847D01*
X-7937Y-17777D01*
X-7748Y-17588D01*
X-7690Y-17502D01*
X-7677Y-17435D01*
X-7429D01*
Y-17435D01*
X-6630D01*
X-6405Y-17659D01*
X-6298Y-17731D01*
X-6171Y-17756D01*
X-5826D01*
Y-18087D01*
X-5801Y-18214D01*
X-5729Y-18321D01*
X-5729Y-18321D01*
X-5729Y-18321D01*
X-4944Y-19106D01*
Y-21970D01*
X-5284Y-23442D01*
X-5678Y-23444D01*
X-5742Y-23184D01*
X-5941Y-22912D01*
X-6230Y-22736D01*
X-6564Y-22685D01*
X-6893Y-22765D01*
X-7165Y-22965D01*
X-7341Y-23254D01*
X-7392Y-23588D01*
X-7312Y-23917D01*
X-7112Y-24189D01*
X-6823Y-24364D01*
X-6489Y-24416D01*
X-6161Y-24336D01*
X-5888Y-24136D01*
X-5816Y-24017D01*
X-5451Y-24166D01*
X-5626Y-24923D01*
X-4427Y-25199D01*
X-4472Y-25591D01*
X-10630D01*
X-12795Y-23425D01*
Y-22047D01*
Y-20003D01*
X-12409Y-19926D01*
X-12314Y-20156D01*
X-12150Y-20370D01*
X-11935Y-20535D01*
X-11685Y-20638D01*
X-11417Y-20673D01*
X-11149Y-20638D01*
X-10900Y-20535D01*
X-10685Y-20370D01*
X-10520Y-20156D01*
X-10417Y-19906D01*
X-10382Y-19638D01*
X-10417Y-19370D01*
X-10520Y-19120D01*
X-10685Y-18905D01*
D01*
X-10685Y-18906D01*
X-10685Y-18905D01*
X-10685Y-18905D01*
X-10685Y-18905D01*
Y-18905D01*
Y-18905D01*
X-10905Y-18713D01*
X-10538Y-18346D01*
X-10514Y-18351D01*
X-10338Y-18316D01*
X-10190Y-18216D01*
X-10090Y-18067D01*
X-10055Y-17892D01*
X-10090Y-17716D01*
X-10190Y-17567D01*
X-10241Y-17533D01*
X-10277Y-17161D01*
X-10272Y-17134D01*
X-9280Y-16142D01*
X-9213Y-16042D01*
X-9190Y-15925D01*
X-9190Y-15925D01*
X-9190Y-15925D01*
Y-15925D01*
Y-15407D01*
X-9162Y-15264D01*
X-8768Y-15264D01*
D02*
G37*
G36*
X-10160Y-14348D02*
X-9967Y-14386D01*
X-9802Y-14522D01*
Y-15799D01*
X-10814Y-16811D01*
X-11123Y-16683D01*
X-11237Y-16306D01*
X-11207Y-16260D01*
X-11168Y-16067D01*
X-11207Y-15874D01*
X-11316Y-15710D01*
X-11480Y-15600D01*
D01*
X-11434Y-15323D01*
X-11334Y-15174D01*
X-11333Y-15169D01*
X-10861Y-14697D01*
X-10764D01*
X-10639Y-14672D01*
X-10534Y-14602D01*
X-10247Y-14315D01*
X-10219Y-14309D01*
X-10160Y-14348D01*
D02*
G37*
G36*
X11495Y-14213D02*
X11775Y-14494D01*
Y-14741D01*
X10628Y-15889D01*
X10047D01*
X9022Y-15685D01*
X8901Y-15586D01*
X8840Y-15278D01*
X8950Y-15204D01*
X9035D01*
Y-14791D01*
X8500D01*
Y-14551D01*
X9035D01*
Y-14243D01*
X9506D01*
Y-14581D01*
X10576D01*
Y-14243D01*
X11259D01*
X11361Y-14223D01*
X11428Y-14178D01*
X11495Y-14213D01*
D02*
G37*
G36*
X-12297Y-12340D02*
X-12242Y-12472D01*
X-12255Y-12491D01*
X-12287Y-12649D01*
X-12673Y-12726D01*
X-12795Y-12543D01*
Y-12460D01*
X-12689Y-12301D01*
X-12297Y-12340D01*
D02*
G37*
G36*
X170Y-12058D02*
X182Y-12120D01*
Y-12577D01*
X208Y-12704D01*
X279Y-12811D01*
X313Y-12845D01*
X163Y-13209D01*
X-545D01*
Y-13281D01*
X-944D01*
X-1095Y-12918D01*
X-822Y-12645D01*
X-753Y-12599D01*
X-629Y-12475D01*
X-574Y-12392D01*
X-573Y-12392D01*
X-485Y-12374D01*
X-336Y-12275D01*
X-237Y-12126D01*
X-224Y-12058D01*
X170Y-12058D01*
D02*
G37*
G36*
X-1393Y-13558D02*
Y-13903D01*
X-1393Y-13903D01*
X-1393Y-13903D01*
X-1393Y-14081D01*
X-1293Y-14181D01*
X-1293Y-14360D01*
X-1293Y-14360D01*
X-1293Y-14360D01*
Y-14361D01*
X-943D01*
Y-14601D01*
X-1293D01*
Y-14684D01*
X-1293Y-14684D01*
X-1293Y-14684D01*
X-1293Y-14781D01*
Y-14781D01*
X-1298Y-14963D01*
X-1298Y-15060D01*
X-1298Y-15060D01*
X-1298Y-15060D01*
Y-15229D01*
X-1601Y-15532D01*
X-1965Y-15381D01*
Y-15217D01*
X-1965D01*
Y-14837D01*
X-2965D01*
Y-15217D01*
X-2965D01*
Y-15417D01*
X-3065Y-15517D01*
X-3065D01*
Y-16706D01*
X-3616D01*
Y-15543D01*
X-3716D01*
Y-15243D01*
X-3716D01*
Y-14863D01*
X-4216D01*
Y-14623D01*
X-3716D01*
Y-14243D01*
X-3716Y-14243D01*
D01*
X-3503Y-14061D01*
D01*
X-3387Y-13984D01*
X-3310Y-13868D01*
X-3307Y-13852D01*
X-3640D01*
Y-13612D01*
X-3257D01*
X-3164Y-13498D01*
X-2951Y-13356D01*
X-1638D01*
X-1638Y-13356D01*
X-1638Y-13356D01*
X-1541Y-13336D01*
X-1393Y-13558D01*
D02*
G37*
G36*
X10342Y-16778D02*
X10123Y-17105D01*
X8669D01*
X8644Y-17064D01*
X8553Y-16605D01*
X8610Y-16498D01*
X10226D01*
X10342Y-16778D01*
D02*
G37*
G36*
X5075Y-19557D02*
Y-21659D01*
X4925Y-21675D01*
X4925Y-21675D01*
X4925Y-21675D01*
X3655Y-21945D01*
X3349Y-21697D01*
Y-19834D01*
X3473Y-19733D01*
X3649Y-19698D01*
X3797Y-19599D01*
X3837Y-19539D01*
X5060D01*
X5075Y-19557D01*
D02*
G37*
G36*
X-3610Y-19716D02*
D01*
X-3610D01*
Y-19716D01*
D01*
X-3610D01*
Y-19716D01*
X-3610D01*
X-3610Y-19716D01*
Y-19716D01*
X-3610Y-19716D01*
Y-19716D01*
X-3502Y-19788D01*
X-3375Y-19813D01*
X-2936D01*
X-2809Y-19788D01*
X-2475Y-20289D01*
Y-20666D01*
X-2451Y-20783D01*
X-2385Y-20882D01*
X-2182Y-21086D01*
X-2198Y-21255D01*
X-2276Y-21371D01*
X-2279Y-21388D01*
X-1946D01*
Y-21628D01*
X-2279D01*
X-2276Y-21644D01*
X-2198Y-21760D01*
X-2082Y-21837D01*
X-2049Y-21844D01*
X-2023Y-21974D01*
X-2305Y-22248D01*
X-3261Y-22028D01*
Y-22028D01*
X-3600Y-21949D01*
Y-21949D01*
X-3600Y-21949D01*
X-4282Y-21792D01*
Y-19559D01*
X-3918Y-19408D01*
X-3610Y-19716D01*
D02*
G37*
G36*
X2687Y-21162D02*
Y-22151D01*
X2031Y-22290D01*
X2134Y-22773D01*
X1886Y-23079D01*
X1850D01*
X1750Y-23099D01*
X1665Y-23156D01*
X1618Y-23225D01*
X1242Y-23111D01*
Y-23022D01*
X1035D01*
Y-23417D01*
Y-23813D01*
X1242D01*
Y-23813D01*
X1508D01*
X1588Y-23893D01*
X1608Y-23993D01*
X1665Y-24079D01*
X1750Y-24135D01*
X1817Y-24149D01*
Y-24543D01*
X1750Y-24556D01*
X1665Y-24613D01*
X1608Y-24698D01*
X1588Y-24798D01*
Y-24954D01*
X2008D01*
Y-25194D01*
X1588D01*
Y-25350D01*
X377Y-25591D01*
X-377D01*
X-1588Y-25350D01*
Y-25194D01*
X-2008D01*
Y-24954D01*
X-1588D01*
Y-24798D01*
X-1608Y-24698D01*
X-1665Y-24613D01*
X-1750Y-24556D01*
X-1817Y-24543D01*
Y-24149D01*
X-1750Y-24135D01*
X-1665Y-24079D01*
X-1608Y-23993D01*
X-1588Y-23893D01*
Y-23813D01*
X-1242D01*
Y-23813D01*
X-1035D01*
Y-23417D01*
X-796D01*
X-795Y-23421D01*
Y-23813D01*
X-791D01*
Y-23913D01*
X535D01*
Y-23813D01*
X795D01*
Y-23417D01*
Y-22947D01*
X676Y-22658D01*
X2323Y-21011D01*
X2687Y-21162D01*
D02*
G37*
G36*
X12795Y-15818D02*
Y-19272D01*
X12409Y-19349D01*
X12314Y-19120D01*
X12150Y-18905D01*
X11935Y-18741D01*
X11685Y-18637D01*
X11417Y-18602D01*
X11149Y-18637D01*
X10900Y-18741D01*
X10685Y-18905D01*
X10520Y-19120D01*
X10417Y-19370D01*
X10382Y-19638D01*
X10417Y-19906D01*
X10520Y-20156D01*
X10685Y-20370D01*
X10900Y-20535D01*
X11149Y-20638D01*
X11417Y-20673D01*
X11685Y-20638D01*
X11935Y-20535D01*
X12150Y-20370D01*
X12314Y-20156D01*
X12409Y-19926D01*
X12795Y-20003D01*
Y-22047D01*
X11614Y-23228D01*
Y-25591D01*
X4512D01*
X4471Y-25199D01*
X5623Y-24954D01*
X5451Y-24146D01*
X5817Y-24000D01*
X5860Y-24072D01*
X6133Y-24272D01*
X6461Y-24352D01*
X6795Y-24301D01*
X7084Y-24126D01*
X7284Y-23853D01*
X7364Y-23525D01*
X7313Y-23191D01*
X7137Y-22902D01*
X6865Y-22702D01*
X6537Y-22622D01*
X6203Y-22673D01*
X6080Y-22747D01*
X5737Y-22554D01*
Y-20877D01*
X5938Y-20719D01*
X6316Y-20827D01*
X6405Y-21070D01*
X6508Y-21240D01*
X6668Y-21358D01*
X6862Y-21405D01*
X7058Y-21375D01*
X7228Y-21272D01*
X7346Y-21111D01*
X7393Y-20918D01*
X7651Y-20923D01*
X7651Y-20923D01*
X7651Y-20923D01*
X7806Y-20961D01*
X7842Y-20956D01*
X7643Y-20410D01*
X7869Y-20328D01*
X8068Y-20874D01*
X8099Y-20855D01*
X8193Y-20726D01*
X8193Y-20726D01*
Y-20726D01*
X8387Y-20556D01*
Y-20556D01*
X8387Y-20556D01*
X8548Y-20674D01*
X8741Y-20721D01*
X8938Y-20691D01*
X9108Y-20588D01*
X9225Y-20427D01*
X9273Y-20234D01*
X9242Y-20037D01*
X9108Y-19668D01*
X9004Y-19497D01*
X8844Y-19380D01*
X8651Y-19333D01*
X8454Y-19363D01*
X8434Y-19267D01*
Y-19267D01*
X8299Y-18897D01*
X8196Y-18727D01*
X8036Y-18610D01*
X7843Y-18563D01*
X7646Y-18593D01*
X7476Y-18696D01*
X7358Y-18856D01*
X7358D01*
X7005Y-18770D01*
X6932Y-18578D01*
X7106Y-18326D01*
X7106Y-18326D01*
X7106D01*
X7154Y-18253D01*
X7223Y-18207D01*
X7323Y-18058D01*
X7357Y-17883D01*
X7455Y-17764D01*
X8562D01*
X8664Y-17744D01*
X8684Y-17731D01*
X8709Y-17714D01*
X10259D01*
X10375Y-17690D01*
X10474Y-17624D01*
X12432Y-15667D01*
X12795Y-15818D01*
D02*
G37*
G36*
X4819Y-16311D02*
X4839Y-16413D01*
X4808Y-16731D01*
X4776Y-16752D01*
X4698Y-16868D01*
X4695Y-16885D01*
X5028D01*
Y-17125D01*
X4695D01*
X4698Y-17141D01*
X4712Y-17162D01*
X4700Y-17222D01*
X4457Y-17465D01*
X3387D01*
X3182Y-17260D01*
X3187Y-17236D01*
X3152Y-17060D01*
X3053Y-16911D01*
X2904Y-16812D01*
X2728Y-16777D01*
X2664Y-16790D01*
X2514Y-16426D01*
X2571Y-16388D01*
X2670Y-16239D01*
X2705Y-16063D01*
X2670Y-15888D01*
X2571Y-15739D01*
X2512Y-15699D01*
Y-14518D01*
X2875Y-14368D01*
X4819Y-16311D01*
D02*
G37*
G36*
X-2571Y-17302D02*
X-2436Y-17672D01*
X-2451Y-17695D01*
X-2475Y-17812D01*
Y-18453D01*
X-2618Y-18570D01*
X-2793Y-18605D01*
X-2942Y-18705D01*
X-3042Y-18853D01*
X-3042Y-18856D01*
X-3419Y-18970D01*
X-4383Y-18005D01*
X-4416Y-17842D01*
X-4500Y-17716D01*
X-4315Y-17369D01*
X-2911D01*
X-2784Y-17343D01*
X-2676Y-17272D01*
X-2571Y-17302D01*
D02*
G37*
G36*
X-12432Y-18521D02*
X-12186Y-18767D01*
X-12186Y-18767D01*
D01*
X-12150Y-18905D01*
D01*
X-12150D01*
X-12150Y-18905D01*
X-12150D01*
X-12150D01*
D01*
X-12314Y-19120D01*
X-12409Y-19349D01*
X-12795Y-19272D01*
Y-18672D01*
X-12432Y-18521D01*
Y-18521D01*
D02*
G37*
G36*
X2755Y-12507D02*
X2535Y-12727D01*
X2531Y-12733D01*
X2140Y-12771D01*
X2125Y-12756D01*
X2072Y-12492D01*
X2073Y-12495D01*
X2308Y-12179D01*
X2587Y-12151D01*
X2755Y-12507D01*
D02*
G37*
G36*
X-844Y-4123D02*
X-667Y-4177D01*
X-636Y-4333D01*
X-537Y-4482D01*
X-537Y-4482D01*
X-565Y-4582D01*
X-565Y-4582D01*
X-565D01*
X-664Y-4731D01*
X-699Y-4907D01*
X-664Y-5082D01*
X-565Y-5231D01*
X-416Y-5331D01*
X-240Y-5366D01*
X-65Y-5331D01*
X84Y-5231D01*
X277Y-5237D01*
X421Y-5417D01*
X456Y-5593D01*
X555Y-5742D01*
X704Y-5841D01*
X822Y-5864D01*
Y-5924D01*
X829Y-5964D01*
Y-7146D01*
X747D01*
Y-7534D01*
X179D01*
X150Y-7473D01*
X-598D01*
X-595Y-7490D01*
X-595Y-7490D01*
X-730Y-7562D01*
X-730D01*
X-730Y-7562D01*
X-838Y-7633D01*
X-1153Y-7949D01*
X-1220Y-7962D01*
X-1281Y-7922D01*
X-1456Y-7887D01*
X-1572Y-7910D01*
X-1723Y-7546D01*
X-1702Y-7533D01*
X-1625Y-7417D01*
X-1622Y-7400D01*
X-2288D01*
X-2284Y-7417D01*
X-2248Y-7471D01*
X-2318Y-7640D01*
X-2689Y-7773D01*
X-2826Y-7700D01*
Y-5844D01*
X-1062Y-4080D01*
X-844Y-4123D01*
D02*
G37*
G36*
X-5222Y-6299D02*
X-5222D01*
X-5222Y-6299D01*
X-5222D01*
X-5222Y-6299D01*
Y-6299D01*
X-5222Y-6299D01*
Y-6299D01*
X-5123Y-6365D01*
X-5006Y-6388D01*
X-4665D01*
X-4627Y-6780D01*
X-4667Y-6788D01*
X-4783Y-6866D01*
X-4860Y-6981D01*
X-4864Y-6998D01*
X-4531D01*
Y-7238D01*
X-4864D01*
X-4860Y-7254D01*
X-4783Y-7370D01*
X-4755Y-7389D01*
X-4869Y-7766D01*
X-5180D01*
X-5281Y-7786D01*
X-5367Y-7844D01*
X-5419Y-7896D01*
X-5783Y-7745D01*
Y-7659D01*
X-6163D01*
Y-8039D01*
X-6077D01*
X-6012Y-8196D01*
X-5945Y-8416D01*
X-6065Y-8496D01*
X-6165Y-8645D01*
X-6200Y-8821D01*
X-6330Y-8979D01*
X-6744D01*
X-6768Y-8963D01*
X-6885Y-8940D01*
X-7001Y-8963D01*
X-7100Y-9029D01*
X-7313Y-9242D01*
X-7781Y-9242D01*
X-7798Y-9236D01*
X-7822Y-9115D01*
X-7894Y-9007D01*
X-8398Y-8503D01*
X-8248Y-8139D01*
X-8233D01*
Y-8139D01*
X-7061D01*
X-7061Y-8139D01*
X-7061Y-8139D01*
X-7033Y-8139D01*
X-6783Y-8039D01*
D01*
X-6754Y-8039D01*
X-6754Y-8039D01*
X-6754Y-8039D01*
X-6403D01*
Y-7539D01*
X-6283D01*
Y-7419D01*
X-5783D01*
Y-7039D01*
X-5783D01*
Y-6700D01*
X-5741Y-6658D01*
X-5741D01*
Y-6295D01*
X-5377Y-6144D01*
X-5222Y-6299D01*
D02*
G37*
G36*
X-12066Y-2569D02*
X-11980Y-2626D01*
X-11878Y-2647D01*
X-11878Y-2647D01*
X-10551D01*
X-10442Y-2780D01*
X-10421Y-2887D01*
Y-4085D01*
X-10439Y-4112D01*
X-10464Y-4237D01*
Y-7813D01*
X-10475Y-7821D01*
X-10811Y-8000D01*
X-10926Y-7923D01*
X-11102Y-7888D01*
X-11277Y-7923D01*
X-11426Y-8023D01*
X-11525Y-8172D01*
X-11560Y-8347D01*
X-11544Y-8429D01*
X-11689Y-8574D01*
X-11744Y-8656D01*
X-11756Y-8716D01*
X-12188Y-9148D01*
X-12243Y-9231D01*
X-12262Y-9328D01*
Y-10691D01*
X-12566Y-11060D01*
X-12589Y-11068D01*
X-12656Y-11058D01*
X-12795Y-10849D01*
Y-2857D01*
X-12560Y-2505D01*
X-12168Y-2466D01*
X-12066Y-2569D01*
D02*
G37*
G36*
X10366Y-7508D02*
X10366Y-7508D01*
X10366Y-7508D01*
X10560Y-7547D01*
D01*
D01*
D01*
X10560Y-7547D01*
X10560Y-7547D01*
X10848Y-7559D01*
Y-7991D01*
X10823Y-7996D01*
X10674Y-8095D01*
X10611Y-8189D01*
X10400Y-8210D01*
X10153Y-8160D01*
X9829Y-7837D01*
X10013Y-7621D01*
X10013D01*
Y-7621D01*
D01*
D01*
X10013D01*
X10113Y-7473D01*
D01*
X10113Y-7473D01*
D01*
X10366Y-7508D01*
D02*
G37*
G36*
X1210Y-4357D02*
X1297Y-4464D01*
X1188Y-4636D01*
X1106Y-4718D01*
X1060Y-4749D01*
X997Y-4843D01*
X684Y-4843D01*
X591Y-4824D01*
X487Y-4667D01*
X816Y-4338D01*
X1210Y-4357D01*
D02*
G37*
G36*
X-6227Y-5294D02*
X-6377Y-5658D01*
X-6741D01*
Y-5658D01*
X-6891D01*
X-6991Y-5558D01*
Y-5558D01*
X-6991D01*
Y-5217D01*
X-6943Y-5208D01*
X-6794Y-5108D01*
Y-5108D01*
D01*
X-6794D01*
D01*
Y-5108D01*
X-6592Y-4928D01*
X-6227Y-5294D01*
D02*
G37*
G36*
X-7899Y-4387D02*
X-7565Y-4721D01*
X-7577Y-4784D01*
X-7542Y-4959D01*
X-7443Y-5108D01*
X-7333Y-5181D01*
X-7447Y-5558D01*
X-8191D01*
Y-5693D01*
X-8359Y-5794D01*
X-8554Y-5875D01*
X-8839Y-5590D01*
Y-5472D01*
X-8791Y-5400D01*
X-8757Y-5225D01*
X-8791Y-5049D01*
X-8891Y-4900D01*
X-9040Y-4801D01*
X-9215Y-4766D01*
X-9233Y-4770D01*
X-9330Y-4690D01*
X-9349Y-4297D01*
X-8968Y-3916D01*
X-8917Y-3906D01*
X-8768Y-3806D01*
X-7899Y-4387D01*
D02*
G37*
G36*
X11877Y-7692D02*
Y-9291D01*
X11606Y-9562D01*
X11242Y-9412D01*
Y-9360D01*
X11222Y-9258D01*
X11164Y-9172D01*
X11174Y-8844D01*
D01*
X11174Y-8844D01*
X11174D01*
X11323Y-8744D01*
X11422Y-8595D01*
X11457Y-8420D01*
X11422Y-8244D01*
X11378Y-8178D01*
Y-7742D01*
X11734Y-7574D01*
X11877Y-7692D01*
D02*
G37*
G36*
X-3145Y-9687D02*
X-3222Y-10073D01*
X-3364Y-10149D01*
X-3640Y-9873D01*
X-3569Y-9702D01*
X-3180Y-9645D01*
X-3145Y-9687D01*
D02*
G37*
G36*
X3344Y-10781D02*
X3344Y-10781D01*
X3445Y-10801D01*
X3700D01*
Y-10811D01*
X4050D01*
Y-10931D01*
X4170D01*
Y-11231D01*
X4400D01*
Y-11231D01*
X4400D01*
X4400Y-11231D01*
X4683D01*
Y-11231D01*
X4913D01*
Y-10931D01*
X5153D01*
Y-11231D01*
X5383D01*
Y-11162D01*
X5625Y-11061D01*
X5645D01*
X5992Y-11225D01*
X6031Y-11355D01*
X6031Y-11573D01*
X5775Y-11829D01*
X5743Y-11876D01*
X5464D01*
Y-11876D01*
X5350D01*
D01*
X5276Y-11766D01*
X5160Y-11689D01*
X5144Y-11686D01*
Y-12019D01*
Y-12352D01*
X5160Y-12348D01*
X5276Y-12271D01*
X5301Y-12234D01*
X5406Y-12266D01*
Y-12266D01*
X5678Y-12348D01*
Y-12751D01*
X5585Y-12889D01*
X5550Y-13065D01*
X5585Y-13240D01*
X5685Y-13389D01*
X5833Y-13488D01*
X6009Y-13523D01*
X6185Y-13488D01*
X6333Y-13389D01*
X6433Y-13240D01*
X6468Y-13065D01*
X6857Y-12987D01*
X6901Y-13053D01*
X7050Y-13152D01*
X7138Y-13169D01*
X7252Y-13546D01*
X6625Y-14174D01*
X6619Y-14183D01*
X6262Y-14539D01*
X6216Y-14534D01*
X6067Y-14435D01*
X5892Y-14400D01*
X5716Y-14435D01*
X5567Y-14534D01*
X5468Y-14683D01*
X5433Y-14859D01*
X5468Y-15034D01*
X5468Y-15034D01*
X5468Y-15034D01*
X5463Y-15058D01*
X5348Y-15135D01*
X5249Y-15284D01*
X5244Y-15308D01*
X4867Y-15422D01*
X3101Y-13656D01*
Y-13099D01*
X3332Y-12868D01*
X3495Y-12835D01*
X3644Y-12736D01*
X3744Y-12587D01*
X3778Y-12411D01*
X3744Y-12236D01*
X3644Y-12087D01*
X3495Y-11987D01*
X3332Y-11955D01*
X2890Y-11513D01*
Y-11177D01*
X2902Y-11170D01*
X3007Y-11012D01*
X3044Y-10827D01*
Y-10827D01*
X3044Y-10827D01*
X3344Y-10781D01*
X3344Y-10781D01*
D02*
G37*
G36*
X-5531Y-10152D02*
X-5531Y-10152D01*
X-5531Y-10152D01*
X-5531Y-10293D01*
Y-10330D01*
Y-10321D01*
Y-10330D01*
X-5431Y-10430D01*
X-5431Y-10609D01*
X-5431Y-10609D01*
X-5431Y-10609D01*
Y-10610D01*
X-5081D01*
Y-10730D01*
X-4961D01*
Y-11030D01*
X-4805D01*
X-4805Y-11030D01*
X-4805Y-11030D01*
X-4731Y-11030D01*
X-4527Y-11025D01*
X-4527D01*
X-4452Y-11025D01*
X-4452Y-11025D01*
X-4452Y-11025D01*
X-4297D01*
Y-10725D01*
X-4057D01*
Y-11025D01*
X-3827D01*
X-3827Y-11025D01*
Y-11025D01*
X-3492Y-10886D01*
X-3335Y-11043D01*
X-3335Y-11043D01*
X-3236Y-11109D01*
X-3216Y-11113D01*
X-3119Y-11133D01*
D01*
X-2836Y-11215D01*
X-2832Y-11217D01*
X-2908Y-11603D01*
X-2922Y-11605D01*
X-3070Y-11705D01*
X-3070Y-11705D01*
Y-11705D01*
X-3272Y-11774D01*
D01*
X-3349Y-11658D01*
X-3465Y-11581D01*
X-3481Y-11578D01*
Y-11911D01*
X-3601D01*
Y-12031D01*
X-3973D01*
X-3988Y-12154D01*
X-5151D01*
X-6146Y-11159D01*
X-6048Y-11012D01*
X-6011Y-10827D01*
X-6048Y-10641D01*
X-6153Y-10484D01*
X-5918Y-10133D01*
X-5531D01*
Y-10152D01*
D02*
G37*
G36*
X6165Y-8158D02*
Y-9476D01*
X6153Y-9484D01*
X6048Y-9641D01*
X6019Y-9786D01*
X5667Y-9961D01*
X5602Y-9929D01*
X5602Y-9929D01*
Y-9929D01*
X5495Y-9858D01*
X5483Y-9855D01*
Y-9731D01*
X4583D01*
D01*
D01*
X4583Y-9731D01*
X4500D01*
Y-9731D01*
X3727D01*
X3589Y-9592D01*
X3481Y-9521D01*
X3354Y-9495D01*
X3126D01*
X2949Y-9377D01*
X3027Y-9119D01*
X3035Y-9109D01*
X3253Y-9001D01*
X3394D01*
Y-8611D01*
X3809Y-8196D01*
X4284D01*
Y-7800D01*
X4309Y-7779D01*
X5786D01*
X6165Y-8158D01*
D02*
G37*
G36*
X7578Y-7121D02*
Y-8512D01*
X7191Y-8899D01*
X6960Y-8803D01*
X6827Y-8714D01*
Y-8021D01*
X6802Y-7894D01*
X6730Y-7787D01*
X6157Y-7213D01*
X6050Y-7141D01*
X5923Y-7116D01*
X4309D01*
D01*
X4309Y-7116D01*
D01*
X4184Y-7013D01*
Y-6696D01*
X3954D01*
Y-6996D01*
X3834D01*
Y-7116D01*
X3484D01*
Y-7140D01*
X2678D01*
Y-5078D01*
X2678Y-5078D01*
X2658Y-4976D01*
X2601Y-4890D01*
X2601Y-4890D01*
X2433Y-4722D01*
X2439Y-4691D01*
X2579Y-4354D01*
X4811D01*
X7578Y-7121D01*
D02*
G37*
G36*
X-241Y-8791D02*
X-152Y-8977D01*
Y-8977D01*
X-52Y-9126D01*
X96Y-9225D01*
X96D01*
X230Y-9252D01*
X178Y-9479D01*
X178Y-9479D01*
X178D01*
X78Y-9628D01*
X43Y-9803D01*
D01*
X-286Y-9778D01*
X-393Y-9706D01*
X-520Y-9681D01*
X-588D01*
Y-8972D01*
X-558Y-8928D01*
X-362Y-8767D01*
X-241Y-8791D01*
D02*
G37*
G36*
X9783Y-9005D02*
X9633Y-9369D01*
X9381D01*
D01*
D01*
X9381Y-9369D01*
X9076D01*
D01*
X8791Y-9369D01*
Y-8528D01*
X9155Y-8377D01*
X9783Y-9005D01*
D02*
G37*
G36*
X19860Y14067D02*
X20061Y13865D01*
Y13453D01*
X19128Y13267D01*
X18363D01*
X18333Y13416D01*
X18234Y13565D01*
X18085Y13665D01*
X18192Y14205D01*
X18777Y14790D01*
X19860Y14067D01*
D02*
G37*
G36*
X12935Y19931D02*
X12575Y19570D01*
Y19570D01*
X12464Y19460D01*
X12427D01*
X12427D01*
X11777Y18809D01*
X11413Y18960D01*
Y19515D01*
X11562Y19664D01*
X11669Y19686D01*
X11818Y19785D01*
X11917Y19934D01*
X11952Y20109D01*
X11952Y20109D01*
X11952Y20109D01*
X11956Y20153D01*
D01*
X11956Y20153D01*
X12131Y20188D01*
X12280Y20288D01*
X12285Y20294D01*
X12784D01*
X12935Y19931D01*
D02*
G37*
G36*
X-17538Y13522D02*
D01*
X-17538D01*
Y13522D01*
D01*
X-17538D01*
Y13522D01*
X-17538D01*
X-17538Y13522D01*
Y13522D01*
X-17538Y13522D01*
Y13522D01*
X-17430Y13450D01*
X-17303Y13425D01*
X-17016D01*
X-17010Y13415D01*
X-15543Y11948D01*
X-15511Y11785D01*
X-15411Y11636D01*
X-15262Y11537D01*
X-15087Y11502D01*
X-14911Y11537D01*
X-14693Y11210D01*
X-14882Y10919D01*
X-14997Y10842D01*
X-14997Y10842D01*
Y10842D01*
X-15302Y10925D01*
D01*
X-15451Y11024D01*
X-15627Y11059D01*
X-15627Y11059D01*
X-15627Y11059D01*
X-15660Y11080D01*
Y11080D01*
X-15695Y11256D01*
X-15794Y11405D01*
X-15943Y11504D01*
X-16119Y11539D01*
X-16294Y11504D01*
X-16443Y11405D01*
X-16542Y11256D01*
X-16548Y11226D01*
X-17108Y10666D01*
X-17726D01*
Y10785D01*
X-18347D01*
X-18347Y10785D01*
X-18347Y10785D01*
X-18526Y10785D01*
X-18626Y10685D01*
X-18804Y10685D01*
X-18804Y10685D01*
X-18804Y10685D01*
X-18806D01*
Y10335D01*
X-19046D01*
Y10685D01*
X-19226D01*
Y10489D01*
X-19519Y10293D01*
X-19573Y10264D01*
X-19717Y10360D01*
X-19892Y10395D01*
X-19892D01*
X-20103Y10415D01*
X-20138Y10590D01*
X-20237Y10739D01*
X-20386Y10838D01*
X-20562Y10873D01*
X-20737Y10838D01*
X-20886Y10739D01*
X-20986Y10590D01*
X-21021Y10415D01*
X-21007Y10345D01*
X-21662Y9690D01*
X-22025Y9840D01*
Y10559D01*
X-20670Y11915D01*
X-20598Y12022D01*
X-20573Y12149D01*
Y12626D01*
X-20398Y12801D01*
X-20178Y12845D01*
X-19947Y12822D01*
X-19910Y12767D01*
X-19794Y12690D01*
X-19778Y12686D01*
Y13019D01*
X-19658D01*
Y13139D01*
X-19325D01*
X-19328Y13156D01*
X-19405Y13272D01*
X-19460Y13308D01*
X-19483Y13540D01*
X-19447Y13719D01*
X-18421Y14405D01*
X-17538Y13522D01*
D02*
G37*
G36*
X-10455Y13401D02*
X-10324Y13313D01*
X-10169Y13282D01*
X-9994D01*
X-9862Y13308D01*
X-9804Y13260D01*
X-9558Y12892D01*
Y12730D01*
X-9527Y12575D01*
X-9439Y12444D01*
X-9341Y12346D01*
Y11806D01*
X-9341Y11806D01*
X-9341Y11806D01*
X-9341Y11806D01*
X-9421Y11708D01*
X-9530D01*
Y9930D01*
X-8747D01*
X-8510Y9616D01*
X-8541Y9505D01*
X-8690Y9406D01*
X-8729Y9347D01*
X-12891D01*
X-12895Y9349D01*
X-13070Y9384D01*
D01*
X-13313Y9541D01*
X-13094Y9831D01*
X-13073Y9827D01*
X-12897Y9862D01*
X-12796Y9930D01*
X-11886D01*
Y11708D01*
X-11886D01*
X-12056Y11785D01*
X-12056D01*
X-12021Y11961D01*
Y12841D01*
X-11488Y13374D01*
X-11316D01*
X-11141Y13409D01*
X-10992Y13508D01*
X-10981Y13524D01*
X-10919D01*
Y13524D01*
X-10919D01*
X-10919Y13524D01*
X-10650D01*
Y13524D01*
X-10537D01*
X-10455Y13401D01*
D02*
G37*
G36*
X-2547Y24838D02*
X-2547D01*
Y23650D01*
X-2490D01*
Y23281D01*
X-2465Y23154D01*
X-2393Y23046D01*
X-427Y21081D01*
X-320Y21009D01*
X-319Y21009D01*
X-192Y20882D01*
X-93Y20815D01*
X24Y20792D01*
X125Y20812D01*
X3162D01*
Y20304D01*
Y19517D01*
Y18729D01*
D01*
Y18729D01*
X2971Y18539D01*
X-2429D01*
X-2441Y18597D01*
X-2513Y18705D01*
X-4781Y20973D01*
X-4889Y21045D01*
X-5016Y21070D01*
X-7591D01*
X-8748Y21300D01*
X-8787Y21495D01*
X-8897Y21661D01*
X-8927Y21680D01*
Y22112D01*
X-8912Y22122D01*
X-8801Y22287D01*
X-8762Y22482D01*
X-8801Y22677D01*
X-8912Y22843D01*
X-9077Y22953D01*
X-9272Y22992D01*
X-9467Y22953D01*
X-9633Y22843D01*
X-9743Y22677D01*
X-9782Y22482D01*
X-9743Y22287D01*
X-9633Y22122D01*
X-9589Y22093D01*
Y21680D01*
X-9618Y21661D01*
X-9682Y21565D01*
X-13253D01*
X-13354Y21545D01*
X-13440Y21488D01*
X-19059Y15869D01*
X-19083D01*
X-19185Y15848D01*
X-19271Y15791D01*
X-19271Y15791D01*
X-21130Y13932D01*
X-21187Y13846D01*
X-21208Y13744D01*
Y13217D01*
X-21762Y12662D01*
X-21820Y12576D01*
X-21840Y12475D01*
Y11987D01*
X-22858Y10969D01*
X-22915Y10883D01*
X-22936Y10782D01*
Y9618D01*
X-23535Y9018D01*
X-23536Y9018D01*
X-23612Y8942D01*
X-23669Y8856D01*
X-23689Y8754D01*
Y7394D01*
X-24063Y7020D01*
X-24412Y7202D01*
X-23425Y12795D01*
X-11220Y25000D01*
X-2547D01*
Y24838D01*
D02*
G37*
G36*
X-3079Y18333D02*
Y17567D01*
X-3053Y17440D01*
X-2982Y17332D01*
X-2757Y17108D01*
Y16376D01*
X-2718D01*
X-2657Y16364D01*
Y16076D01*
X-2657D01*
Y15696D01*
X-2157D01*
Y15456D01*
X-2657D01*
Y15076D01*
X-2657D01*
Y14988D01*
X-2935Y14710D01*
X-2977D01*
D01*
X-3246D01*
Y14710D01*
X-3366D01*
X-3645Y14988D01*
Y15073D01*
X-3645D01*
Y15453D01*
X-4145D01*
Y15693D01*
X-3645D01*
Y16073D01*
X-3645D01*
Y16273D01*
X-3545Y16373D01*
X-3545D01*
Y17573D01*
X-4745D01*
Y17417D01*
X-4747D01*
X-4922Y17382D01*
X-5071Y17283D01*
X-5316Y17038D01*
X-5523Y17220D01*
Y17220D01*
X-5523D01*
D01*
D01*
Y17220D01*
X-5672Y17319D01*
X-5848Y17354D01*
X-5848Y17354D01*
X-5848Y17354D01*
X-6095Y17513D01*
Y18150D01*
X-6002Y18288D01*
X-5967Y18464D01*
X-6002Y18640D01*
X-6102Y18788D01*
X-6251Y18888D01*
X-6426Y18923D01*
X-6602Y18888D01*
X-6751Y18788D01*
X-6850Y18640D01*
X-6885Y18464D01*
X-6850Y18288D01*
X-6836Y18267D01*
X-6950Y17891D01*
X-7121Y17820D01*
X-7694Y18392D01*
X-7843Y18492D01*
X-8018Y18527D01*
X-8754D01*
X-8967Y18845D01*
X-8982Y18874D01*
X-8895Y19003D01*
X-8888Y19039D01*
X-9656D01*
X-9649Y19003D01*
X-9563Y18874D01*
X-9578Y18845D01*
X-9786Y18533D01*
X-10785Y18732D01*
X-10820Y18907D01*
X-10920Y19056D01*
X-11069Y19156D01*
X-11069D01*
X-11214Y19207D01*
X-11179Y19383D01*
X-11214Y19558D01*
X-11313Y19707D01*
X-11409Y19771D01*
X-11429Y19974D01*
X-11377Y20233D01*
X-11203Y20407D01*
X-10467D01*
X-9616Y20238D01*
X-9585Y20082D01*
X-9497Y19950D01*
X-9448Y19917D01*
Y19523D01*
X-9561Y19448D01*
X-9649Y19316D01*
X-9656Y19279D01*
X-8888D01*
X-8895Y19316D01*
X-8984Y19448D01*
X-9033Y19481D01*
Y19874D01*
X-8920Y19950D01*
X-8831Y20082D01*
X-8800Y20238D01*
X-7950Y20407D01*
X-5153D01*
X-3079Y18333D01*
D02*
G37*
G36*
X14653Y14927D02*
X14607Y14695D01*
X14558Y14532D01*
X14439Y14508D01*
X14323Y14431D01*
X14246Y14315D01*
X14242Y14299D01*
X14575D01*
Y14179D01*
X14695D01*
Y13846D01*
X14712Y13849D01*
X14828Y13926D01*
X14905Y14042D01*
X14929Y14161D01*
X15091Y14210D01*
X15245Y14096D01*
X15407Y13963D01*
Y13557D01*
X15175Y13562D01*
X15175Y13562D01*
Y13562D01*
D01*
D01*
D01*
X14999Y13527D01*
X14850Y13427D01*
X14751Y13279D01*
X14716Y13103D01*
X14751Y12927D01*
X14850Y12779D01*
X14999Y12679D01*
X15160Y12647D01*
D01*
X15160Y12353D01*
X15160Y12353D01*
X15160D01*
X15180Y12252D01*
X15238Y12166D01*
X15300Y12103D01*
X15318Y12091D01*
Y11370D01*
X15052Y10971D01*
X15014Y10940D01*
X15012Y10941D01*
Y10608D01*
X14772D01*
Y10941D01*
X14756Y10937D01*
X14640Y10860D01*
Y10860D01*
D01*
X14640D01*
D01*
Y10860D01*
X14482Y10720D01*
X13868Y11334D01*
X13846Y11349D01*
X13845Y11349D01*
X13856Y11383D01*
X13856D01*
X13856Y11383D01*
Y12649D01*
X13842D01*
Y13887D01*
X13160D01*
X12971Y14170D01*
X13093Y14393D01*
X13842D01*
Y15224D01*
X14205Y15375D01*
X14653Y14927D01*
D02*
G37*
G36*
X8413Y11740D02*
X8490Y11354D01*
X8216Y11079D01*
X7826Y11137D01*
X7703Y11368D01*
X8174Y11839D01*
X8413Y11740D01*
D02*
G37*
G36*
X-6330Y11970D02*
X-6330D01*
X-6166Y11806D01*
Y11092D01*
X-6248Y11058D01*
X-6575Y11277D01*
Y11944D01*
X-6557Y11957D01*
X-6548Y11970D01*
X-6330D01*
D01*
D02*
G37*
G36*
X18890Y11483D02*
X18786Y11289D01*
X18173D01*
X18075Y11269D01*
X17993Y11214D01*
X17798Y11020D01*
X17510Y11139D01*
X17378Y11510D01*
X17544Y11821D01*
X18688D01*
X18890Y11483D01*
D02*
G37*
G36*
X-7206Y11957D02*
X-7187Y11944D01*
Y11527D01*
X-7492Y11277D01*
X-7492Y11278D01*
X-8012D01*
Y11602D01*
X-8025Y11666D01*
X-7837Y11895D01*
X-7724Y11970D01*
X-7219D01*
X-7206Y11957D01*
D02*
G37*
G36*
X-5403Y14641D02*
Y12986D01*
X-5784Y12605D01*
X-5883Y12456D01*
X-5918Y12281D01*
Y12199D01*
X-6166Y12199D01*
D01*
X-6330Y12363D01*
Y13142D01*
X-6356D01*
X-6507Y13506D01*
X-6073Y13940D01*
X-6001Y14047D01*
X-5976Y14174D01*
X-5976Y14174D01*
Y14174D01*
X-5884Y14386D01*
X-5884Y14386D01*
X-5884Y14386D01*
X-5849Y14562D01*
X-5884Y14737D01*
X-5750Y14826D01*
X-5403Y14641D01*
D02*
G37*
G36*
X-8064Y12525D02*
Y12272D01*
X-8101Y12217D01*
X-8176Y12155D01*
X-8532Y12324D01*
Y12514D01*
X-8439Y12644D01*
X-8064Y12525D01*
D02*
G37*
G36*
X5143Y12485D02*
X4613Y11955D01*
X1657D01*
Y12210D01*
X-77D01*
Y12151D01*
X-221Y12091D01*
X-368Y12169D01*
X-492Y12363D01*
X-484Y12415D01*
X-484Y12415D01*
X-484D01*
D01*
X-50Y12848D01*
X4992D01*
X5143Y12485D01*
D02*
G37*
G36*
X9912Y14855D02*
X9917Y14849D01*
X10058Y14707D01*
X10207Y14608D01*
X10098Y14059D01*
X9830Y13791D01*
X9453Y13905D01*
X9449Y13924D01*
X9378Y14031D01*
X9200Y14209D01*
Y14573D01*
X9521Y14893D01*
X9912Y14855D01*
D02*
G37*
G36*
X2037Y17019D02*
X1835Y16681D01*
X981Y16511D01*
X977D01*
X500Y16987D01*
X651Y17351D01*
X1937D01*
X2037Y17019D01*
D02*
G37*
G36*
X8839Y16997D02*
X8971Y16800D01*
X8856Y16423D01*
X8629Y16329D01*
X8273Y16685D01*
X8359Y16967D01*
X8736Y17082D01*
X8839Y16997D01*
D02*
G37*
G36*
X7631Y16135D02*
X7415Y15920D01*
X7032Y16007D01*
X6987Y16135D01*
X7022Y16311D01*
D01*
D01*
D01*
X7022Y16311D01*
X7022Y16311D01*
D01*
X7022Y16311D01*
X6993Y16499D01*
D01*
X7480D01*
X7631Y16135D01*
D02*
G37*
G36*
X8277Y18629D02*
X8404Y18604D01*
X8404Y18604D01*
X8623D01*
X8891Y18336D01*
X8705Y17989D01*
X8573Y18015D01*
X8397Y17980D01*
X8248Y17881D01*
X8149Y17732D01*
X8136Y17668D01*
X6801D01*
X6650Y18032D01*
X7155Y18538D01*
X7433D01*
Y18606D01*
X7730D01*
X7787Y18618D01*
X8114D01*
Y18618D01*
X8170Y18701D01*
D01*
X8170Y18701D01*
X8277Y18629D01*
D02*
G37*
G36*
X15627Y17503D02*
X15216Y17092D01*
X15247Y17072D01*
X15403Y17041D01*
X15403Y17041D01*
X15403Y17041D01*
X15465Y17013D01*
X15538Y16626D01*
X15382Y16471D01*
X14995Y16543D01*
X14956Y16632D01*
Y16632D01*
X14956D01*
X14956Y16632D01*
X14925Y16788D01*
X14905Y16818D01*
X14494Y16407D01*
X14324Y16577D01*
X14735Y16988D01*
X14705Y17008D01*
X14548Y17039D01*
X14548Y17039D01*
X14548Y17039D01*
X14486Y17067D01*
X14414Y17454D01*
X14569Y17609D01*
X14956Y17537D01*
X14995Y17449D01*
X14995Y17449D01*
X14995D01*
X15026Y17293D01*
X15047Y17262D01*
X15457Y17673D01*
X15627Y17503D01*
D02*
G37*
G36*
X-12849Y19199D02*
X-12835Y19060D01*
X-13777Y18119D01*
X-13799Y18085D01*
X-14191Y18046D01*
X-14247Y18102D01*
X-14290Y18317D01*
X-14411Y18499D01*
X-14415Y18501D01*
X-14453Y18893D01*
X-13891Y19455D01*
X-12955D01*
X-12849Y19199D01*
D02*
G37*
G36*
X4417Y18451D02*
Y18311D01*
X4321Y18215D01*
X3810D01*
X3758Y18267D01*
Y18539D01*
D01*
Y18539D01*
X3949Y18729D01*
X4138D01*
X4417Y18451D01*
D02*
G37*
G36*
X-10443Y17454D02*
Y16526D01*
X-10343D01*
Y16226D01*
X-10343D01*
Y15846D01*
X-9343D01*
Y16226D01*
X-9343D01*
Y16426D01*
X-9243Y16526D01*
X-9243D01*
Y16750D01*
X-8847D01*
Y16750D01*
X-8833Y16628D01*
X-8461D01*
Y16388D01*
X-8794D01*
X-8791Y16371D01*
X-8714Y16256D01*
X-8719Y16110D01*
X-8739Y16099D01*
Y16099D01*
D01*
D01*
X-8739Y16099D01*
X-8739D01*
X-8739Y16099D01*
Y15919D01*
X-8389D01*
Y15679D01*
X-8739D01*
Y15677D01*
X-8739Y15677D01*
X-8739Y15677D01*
X-8739Y15499D01*
X-8839Y15399D01*
X-8839Y15223D01*
X-9118Y14945D01*
X-9343D01*
Y15226D01*
X-9343D01*
Y15606D01*
X-10343D01*
Y15226D01*
X-10343D01*
Y14927D01*
X-10393Y14917D01*
X-10435Y14889D01*
X-10650D01*
D01*
D01*
X-10650Y14889D01*
X-10919D01*
Y14889D01*
X-10981D01*
X-10992Y14905D01*
X-11141Y15004D01*
X-11316Y15039D01*
Y15186D01*
X-11304Y15199D01*
X-11304D01*
Y15579D01*
X-11804D01*
Y15819D01*
X-11304D01*
Y16199D01*
X-11304D01*
Y16399D01*
X-11204Y16499D01*
X-11204D01*
Y16784D01*
X-11193Y16792D01*
X-11138Y16829D01*
X-11038Y16978D01*
X-11003Y17153D01*
Y17332D01*
X-10676Y17551D01*
X-10443Y17454D01*
D02*
G37*
G36*
X5702Y16433D02*
X5817Y16056D01*
X4631Y14871D01*
X4039D01*
X3888Y15235D01*
X5030Y16376D01*
X5193Y16409D01*
X5328Y16499D01*
X5371D01*
X5702Y16433D01*
D02*
G37*
G36*
X-15588Y14619D02*
Y13846D01*
X-15563Y13720D01*
X-15491Y13612D01*
X-15491Y13612D01*
X-15491Y13612D01*
X-14623Y12744D01*
X-14658Y12389D01*
X-14911Y12385D01*
Y12385D01*
X-14911Y12385D01*
X-14911D01*
X-14911D01*
X-14911Y12385D01*
X-15074Y12417D01*
X-16452Y13794D01*
X-16469Y13883D01*
X-16541Y13990D01*
D01*
X-16541Y13990D01*
X-16541Y13990D01*
X-16541Y13990D01*
X-16541D01*
X-16623Y14110D01*
D01*
X-16533Y14170D01*
X-16411Y14352D01*
X-16368Y14567D01*
X-16222Y14713D01*
X-16007Y14756D01*
X-15935Y14804D01*
X-15588Y14619D01*
D02*
G37*
G36*
X-13082Y16013D02*
Y15163D01*
X-13047Y14988D01*
Y14988D01*
X-12969Y14817D01*
X-13150Y14636D01*
X-13249Y14584D01*
X-13605Y14752D01*
X-13795Y15708D01*
Y15815D01*
X-13446Y16164D01*
X-13082Y16013D01*
D02*
G37*
G36*
X17207Y15645D02*
X17513Y15338D01*
Y14837D01*
X16301Y13624D01*
X15937Y13775D01*
Y14283D01*
X15917Y14385D01*
X15873Y14451D01*
X15879Y14468D01*
X16045Y14578D01*
X16323Y14857D01*
X16434Y15022D01*
X16472Y15217D01*
X16464Y15261D01*
X16742Y15540D01*
X16817Y15525D01*
X17012Y15564D01*
X17166Y15666D01*
X17207Y15645D01*
D02*
G37*
G36*
X8855Y15165D02*
X8635Y14945D01*
X8563Y14837D01*
X8538Y14710D01*
D01*
X8293Y14675D01*
X8293Y14675D01*
X8293Y14675D01*
X8117Y14710D01*
X7942Y14675D01*
X7793Y14576D01*
X7714Y14457D01*
X5593D01*
X5442Y14821D01*
X5822Y15200D01*
X6361Y15308D01*
X6461Y15159D01*
X6609Y15059D01*
X6785Y15024D01*
X6961Y15059D01*
X7099Y15152D01*
X7448D01*
X7575Y15177D01*
X7682Y15249D01*
X7682Y15249D01*
X7682Y15249D01*
X8172Y15738D01*
X8282D01*
X8855Y15165D01*
D02*
G37*
G36*
X605Y15946D02*
X551Y15866D01*
X516Y15690D01*
X551Y15516D01*
X272Y15238D01*
X192Y15253D01*
X154Y15246D01*
X-150Y15496D01*
Y16186D01*
X214Y16337D01*
X605Y15946D01*
D02*
G37*
G36*
X8137Y9145D02*
X8170Y8927D01*
X7908Y8712D01*
X7229D01*
X7127Y8692D01*
X7041Y8634D01*
X6925Y8518D01*
X6548Y8632D01*
X6542Y8663D01*
X6443Y8811D01*
X6423Y9009D01*
X6744Y9330D01*
X7861D01*
X8137Y9145D01*
D02*
G37*
G36*
X-376Y7430D02*
X-376D01*
X-376Y7430D01*
X-376D01*
X-376Y7430D01*
Y7430D01*
X-376Y7430D01*
Y7430D01*
X-277Y7364D01*
X-354Y6980D01*
X-1901D01*
X-2010Y7113D01*
X-2045Y7288D01*
X-2145Y7437D01*
X-2294Y7537D01*
X-2469Y7572D01*
X-2551Y7555D01*
X-2911Y7916D01*
X-2797Y8293D01*
X-2786Y8295D01*
X-2637Y8394D01*
X-2637D01*
Y8394D01*
X-2509Y8420D01*
X-2487Y8405D01*
X-2312Y8371D01*
X-2136Y8405D01*
X-1987Y8505D01*
X-1941Y8574D01*
X-1520D01*
X-376Y7430D01*
D02*
G37*
G36*
X-22688Y8601D02*
Y7846D01*
X-23015Y7627D01*
X-23159Y7686D01*
Y8442D01*
X-22832Y8661D01*
X-22688Y8601D01*
D02*
G37*
G36*
X-11876Y20672D02*
X-12348Y20199D01*
X-12367Y20196D01*
X-12389Y20210D01*
X-12564Y20245D01*
X-12740Y20210D01*
X-12878Y20118D01*
X-13546D01*
X-13697Y20481D01*
X-13143Y21035D01*
X-12026D01*
X-11876Y20672D01*
D02*
G37*
G36*
X-14033Y9415D02*
X-13967Y9318D01*
X-13852Y9240D01*
X-13728Y9216D01*
X-13660Y9027D01*
X-13656Y9007D01*
X-13710Y8781D01*
X-13734D01*
X-13850Y8758D01*
X-13949Y8692D01*
X-13949Y8692D01*
Y8692D01*
X-14062Y8603D01*
X-14206Y8716D01*
X-14206Y8716D01*
X-14355Y8815D01*
X-14531Y8850D01*
X-14577Y8888D01*
X-14597Y9282D01*
X-14544Y9334D01*
X-14102Y9422D01*
X-14033Y9415D01*
D02*
G37*
G36*
X-6864Y8601D02*
X-6689Y8566D01*
X-6665Y8570D01*
X-5438Y7343D01*
X-5589Y6980D01*
X-8866D01*
X-9774Y7888D01*
X-9624Y8251D01*
X-7665D01*
X-7549Y8275D01*
X-7450Y8341D01*
X-7263Y8528D01*
X-7223Y8535D01*
X-7075Y8635D01*
X-7075Y8635D01*
X-7013Y8700D01*
X-6864Y8601D01*
D02*
G37*
G36*
X2971Y23650D02*
X3162D01*
Y23460D01*
X3162D01*
Y22666D01*
Y21879D01*
Y21384D01*
X171D01*
X113Y21441D01*
X113Y21442D01*
X41Y21549D01*
X-1696Y23287D01*
X-1545Y23650D01*
X2971D01*
Y23650D01*
D02*
G37*
G36*
X13475Y7288D02*
X13660Y6941D01*
X13592Y6776D01*
X12993D01*
X12931Y6869D01*
X12931Y6869D01*
X12931D01*
X12841Y7055D01*
X13082Y7366D01*
X13475Y7288D01*
D02*
G37*
G36*
X4067Y24210D02*
X4153Y24152D01*
X4255Y24132D01*
X4668D01*
X4752Y24048D01*
Y23573D01*
X4821D01*
Y23200D01*
X4818Y23187D01*
X4818D01*
Y23187D01*
Y23187D01*
X4818D01*
X4818D01*
X4815Y23169D01*
X4815Y23169D01*
X4840Y23042D01*
X4912Y22935D01*
X5019Y22863D01*
X5019Y22863D01*
X5037Y22860D01*
Y22860D01*
Y22860D01*
X5037Y22860D01*
X5037Y22860D01*
X5037D01*
X5146Y22838D01*
X5623D01*
X5692Y22769D01*
D01*
X5792Y22669D01*
X5792Y22491D01*
X5792Y22491D01*
X5792Y22491D01*
Y22489D01*
X6492D01*
Y22491D01*
X6492Y22491D01*
X6492Y22491D01*
X6492Y22669D01*
X6592Y22769D01*
X6592Y22946D01*
X6956Y23097D01*
X6973Y23080D01*
X7056Y23025D01*
X7153Y23005D01*
X7513D01*
X7820Y22699D01*
X7903Y22643D01*
X8000Y22624D01*
X9513D01*
X9735Y22402D01*
Y22402D01*
X9692Y22129D01*
X9692D01*
Y22129D01*
D01*
X9692D01*
D01*
X9439Y21875D01*
X9381Y21789D01*
X9361Y21688D01*
Y21565D01*
X9302Y21525D01*
X9202Y21376D01*
X9167Y21201D01*
X9202Y21025D01*
X9302Y20876D01*
X9450Y20777D01*
X9626Y20742D01*
X9802Y20777D01*
X9950Y20876D01*
X10050Y21025D01*
X10085Y21201D01*
X10051Y21372D01*
X10060Y21383D01*
X10498Y21676D01*
X10981D01*
X11418Y21239D01*
X11474Y21202D01*
X11542Y20862D01*
X11323Y20534D01*
X11318Y20533D01*
X11169Y20434D01*
X11070Y20285D01*
X11035Y20109D01*
X11070Y19934D01*
X11075Y19926D01*
X10960Y19812D01*
X10903Y19726D01*
X10883Y19625D01*
Y18808D01*
X10883Y18808D01*
X10883D01*
X10903Y18706D01*
X10960Y18620D01*
X13558Y16022D01*
X13408Y15659D01*
X12572D01*
Y15659D01*
X12243D01*
X12237Y15665D01*
Y15665D01*
X10967D01*
Y15490D01*
X10573D01*
X10565Y15497D01*
X10417Y15597D01*
X10241Y15632D01*
X10065Y15597D01*
X10003Y15555D01*
X9675Y15774D01*
X9867Y16739D01*
X10004Y16766D01*
X10120Y16844D01*
X10197Y16959D01*
X10200Y16976D01*
X9867D01*
Y17216D01*
X10200D01*
X10197Y17232D01*
X10120Y17348D01*
Y17471D01*
X10134Y17481D01*
X10233Y17630D01*
X10268Y17805D01*
X10233Y17981D01*
X10134Y18130D01*
X10056Y18182D01*
Y18701D01*
X10056Y18701D01*
X10056Y18701D01*
X10056Y18880D01*
X9956Y18980D01*
X9956Y19158D01*
X9956Y19158D01*
X9956Y19158D01*
Y19160D01*
X9606D01*
Y19280D01*
X9486D01*
Y19580D01*
X9355D01*
X9355Y19580D01*
X9355Y19580D01*
X9256Y19580D01*
D01*
D01*
D01*
X9256D01*
X9177D01*
X9177D01*
Y20002D01*
X8827D01*
X8760Y20015D01*
X8381D01*
X8254Y19990D01*
X8221Y19968D01*
X8114Y20002D01*
X8114Y20002D01*
X7333D01*
Y20038D01*
X7103D01*
Y19738D01*
X6983D01*
Y19618D01*
X6633D01*
Y19438D01*
X6633D01*
Y19438D01*
X6533Y19338D01*
X6533D01*
Y19060D01*
X5688Y18215D01*
X5117D01*
Y18215D01*
Y18311D01*
X5117Y18491D01*
X4767D01*
Y18611D01*
X4647D01*
Y18911D01*
X4417D01*
Y18911D01*
D01*
D01*
D01*
X4417D01*
D01*
D01*
X4349D01*
X4349D01*
Y19517D01*
Y20304D01*
Y20812D01*
X4913D01*
X5028Y20736D01*
X5204Y20701D01*
X5379Y20736D01*
X5528Y20835D01*
X5627Y20984D01*
X5662Y21159D01*
X5627Y21335D01*
X5528Y21484D01*
X5379Y21583D01*
X5204Y21618D01*
X5028Y21583D01*
X4879Y21484D01*
X4812Y21384D01*
X4349D01*
Y21879D01*
Y22666D01*
Y23460D01*
X3658D01*
Y23750D01*
X3658D01*
Y24104D01*
X4022Y24255D01*
X4067Y24210D01*
D02*
G37*
G36*
X23274Y7731D02*
Y6680D01*
X23148Y6596D01*
X22966Y6498D01*
X22610Y6667D01*
X22530Y7070D01*
Y7960D01*
X22894Y8110D01*
X23274Y7731D01*
D02*
G37*
G36*
X15740Y8069D02*
X15702Y7677D01*
X15581Y7597D01*
X15162D01*
X14976Y7944D01*
X15019Y8008D01*
X15054Y8184D01*
X15044Y8233D01*
X15391Y8418D01*
X15740Y8069D01*
D02*
G37*
G36*
X-4345Y8600D02*
X-3819Y7813D01*
X-4005Y7465D01*
X-4699D01*
X-5152Y8063D01*
X-5228Y8446D01*
X-5201Y8603D01*
X-5104Y8669D01*
X-5064Y8728D01*
X-4473D01*
X-4345Y8600D01*
D02*
G37*
G36*
X6368Y7914D02*
X6474Y7715D01*
X6179Y7420D01*
X5793Y7497D01*
X5708Y7702D01*
X5978Y7972D01*
X6368Y7914D01*
D02*
G37*
G36*
X20178Y8997D02*
X20081Y9003D01*
Y8551D01*
X19841D01*
Y8986D01*
X19785Y8975D01*
X19636Y8876D01*
X19537Y8727D01*
X19285Y8876D01*
X19285Y8876D01*
Y8876D01*
X19136Y8975D01*
Y8975D01*
X19136D01*
D01*
Y8975D01*
X19136D01*
X18926Y9183D01*
X19194Y9498D01*
X19194Y9498D01*
X19194D01*
X19252Y9584D01*
X19265Y9650D01*
X19331Y9694D01*
X19431Y9843D01*
X19433Y9854D01*
X19761D01*
Y9854D01*
X20178D01*
Y8997D01*
D02*
G37*
G36*
X-17247Y9640D02*
X-17521Y9366D01*
X-17735Y9541D01*
X-17726Y9534D01*
X-17726Y9885D01*
X-17349D01*
X-17247Y9640D01*
D02*
G37*
G36*
X-3246Y13345D02*
X-3246D01*
X-3246Y13345D01*
X-2977D01*
D01*
X-2895Y13345D01*
Y12492D01*
X-2895Y12492D01*
X-2895D01*
X-2860Y12316D01*
X-2761Y12168D01*
X-2622Y12029D01*
Y10421D01*
X-1435D01*
Y10851D01*
X-1047D01*
X-1045Y10849D01*
X-896Y10749D01*
X-844Y10739D01*
X-77Y9973D01*
X-77Y9529D01*
X-77D01*
Y9315D01*
X-441Y9164D01*
X-1046Y9768D01*
X-1051Y9797D01*
X-1117Y9895D01*
X-1216Y9961D01*
X-1332Y9985D01*
X-3436D01*
X-3553Y9961D01*
X-3651Y9895D01*
X-3888Y9659D01*
X-3954Y9560D01*
X-3973Y9464D01*
X-4300Y9246D01*
X-4363Y9258D01*
X-5064D01*
X-5104Y9318D01*
X-5252Y9417D01*
X-5428Y9452D01*
X-5428Y9452D01*
X-5428Y9452D01*
X-5579Y9454D01*
X-5579D01*
X-5579Y9454D01*
X-5614Y9629D01*
X-5647Y9680D01*
X-5647Y9680D01*
X-5713Y9778D01*
X-5715Y10161D01*
X-5715Y10161D01*
X-5326Y10421D01*
X-4978D01*
Y12113D01*
X-4620Y12472D01*
X-4520Y12620D01*
X-4502Y12712D01*
X-4181Y13033D01*
X-3779D01*
X-3603Y13068D01*
X-3455Y13168D01*
X-3439Y13183D01*
X-3339Y13332D01*
X-3337Y13345D01*
X-3246D01*
Y13345D01*
D02*
G37*
G36*
X-18724Y9621D02*
X-19195Y9150D01*
X-19267Y9043D01*
X-19271Y9023D01*
X-19636Y8875D01*
X-19636Y8876D01*
X-19636Y8876D01*
Y8876D01*
X-19785Y8975D01*
X-19841Y8986D01*
Y8551D01*
X-20081D01*
Y8986D01*
X-20136Y8975D01*
X-20216Y8922D01*
X-20600Y9008D01*
X-20706Y9185D01*
X-20706D01*
X-20706Y9185D01*
X-20273Y9618D01*
X-20217Y9612D01*
X-20068Y9513D01*
X-19892Y9478D01*
X-19717Y9513D01*
X-19568Y9612D01*
X-19468Y9761D01*
X-19433Y9936D01*
D01*
X-19428Y9945D01*
X-19226Y9985D01*
X-19226Y9985D01*
X-19226Y9985D01*
X-18875D01*
X-18724Y9621D01*
D02*
G37*
G36*
X7471Y10604D02*
X7464Y10569D01*
X7499Y10394D01*
X7571Y10286D01*
X7386Y9939D01*
X6787D01*
X6637Y10302D01*
X7124Y10790D01*
X7471Y10604D01*
D02*
G37*
G36*
X10356Y11933D02*
X10505Y11834D01*
X10680Y11799D01*
X10706Y11804D01*
X11011Y11554D01*
Y11383D01*
X11515D01*
X11734Y11055D01*
X11619Y10777D01*
X11111D01*
Y10365D01*
X10879Y10175D01*
X10509Y10307D01*
X10495Y10377D01*
X10469Y10416D01*
X10469Y10416D01*
X10417Y10493D01*
Y10493D01*
X10370Y10524D01*
X10370Y10524D01*
X10302Y10570D01*
X10302Y10570D01*
X10285Y10574D01*
Y10241D01*
X10045D01*
Y10610D01*
X9933Y10621D01*
Y11555D01*
X9938Y11581D01*
Y11880D01*
X10315Y11995D01*
X10356Y11933D01*
D02*
G37*
G36*
X17310Y9888D02*
X17390Y9486D01*
X17006Y9103D01*
X16961Y9112D01*
X16746Y9069D01*
X16564Y8948D01*
X16443Y8766D01*
X16416Y8634D01*
X16040Y8520D01*
X15046Y9514D01*
X15015Y9535D01*
X15129Y9911D01*
X17300D01*
X17310Y9888D01*
D02*
G37*
G36*
X19761Y10554D02*
D01*
D01*
Y10554D01*
X19761D01*
Y10378D01*
X19582Y10324D01*
X19303Y10602D01*
X19357Y10779D01*
X19761D01*
Y10554D01*
D02*
G37*
G36*
X-14921Y10064D02*
X-14963Y9853D01*
X-15189Y9626D01*
X-15261Y9519D01*
X-15286Y9392D01*
Y8531D01*
X-15261Y8404D01*
X-15189Y8297D01*
X-15189Y8297D01*
X-15189Y8297D01*
X-15013Y8121D01*
X-15164Y7757D01*
X-15530D01*
X-16080Y8307D01*
Y8734D01*
X-16100Y8835D01*
X-16158Y8921D01*
X-16461Y9224D01*
X-16474Y9233D01*
X-16501Y9511D01*
X-16470Y9667D01*
X-15915Y10222D01*
X-15870D01*
X-15802Y10177D01*
X-15627Y10142D01*
X-15451Y10177D01*
X-15302Y10276D01*
D01*
X-15302Y10276D01*
X-14944Y10302D01*
X-14944Y10302D01*
X-14921Y10064D01*
D02*
G37*
G36*
X4838Y10852D02*
X3310Y9325D01*
X2540D01*
X2401Y9297D01*
X2282Y9218D01*
X2203Y9100D01*
X2198Y9072D01*
X1851Y8886D01*
X1657Y8966D01*
Y9529D01*
X1249D01*
Y9754D01*
X1214Y9930D01*
X1114Y10079D01*
X519Y10674D01*
X669Y11038D01*
X1657D01*
Y11292D01*
X4750D01*
X4838Y10852D01*
D02*
G37*
G36*
X-13040Y12225D02*
X-13100Y12136D01*
X-13116Y12053D01*
X-13397Y11772D01*
X-13497Y11623D01*
X-13532Y11448D01*
X-13532Y11448D01*
X-13532D01*
X-13532Y11448D01*
X-13532D01*
Y11014D01*
X-13924Y10975D01*
X-13942Y11068D01*
Y11510D01*
X-13731Y12572D01*
X-13226D01*
X-13040Y12225D01*
D02*
G37*
G36*
X21698Y9549D02*
Y9175D01*
X21539Y9069D01*
X21306Y9194D01*
X21192Y9407D01*
Y9661D01*
X21360Y9751D01*
X21698Y9549D01*
D02*
G37*
%LPC*%
G36*
X-2585Y-14217D02*
X-2965D01*
Y-14597D01*
X-2585D01*
Y-14217D01*
D02*
G37*
G36*
X-10323Y-21317D02*
X-10652Y-21397D01*
X-10924Y-21597D01*
X-11099Y-21886D01*
X-11151Y-22220D01*
X-11070Y-22548D01*
X-10871Y-22821D01*
X-10582Y-22996D01*
X-10248Y-23048D01*
X-9919Y-22967D01*
X-9647Y-22768D01*
X-9471Y-22479D01*
X-9420Y-22145D01*
X-9500Y-21816D01*
X-9700Y-21544D01*
X-9989Y-21368D01*
X-10323Y-21317D01*
D02*
G37*
G36*
X-1965Y-14217D02*
X-2345D01*
Y-14597D01*
X-1965D01*
Y-14217D01*
D02*
G37*
G36*
X10576Y-14821D02*
X10161D01*
Y-15234D01*
X10576D01*
Y-14821D01*
D02*
G37*
G36*
X5117Y18911D02*
X4887D01*
Y18731D01*
X5117D01*
Y18911D01*
D02*
G37*
G36*
X6863Y20038D02*
X6633D01*
Y19858D01*
X6863D01*
Y20038D01*
D02*
G37*
G36*
X9956Y19580D02*
X9726D01*
Y19400D01*
X9956D01*
Y19580D01*
D02*
G37*
G36*
X9921Y-14821D02*
X9506D01*
Y-15234D01*
X9921D01*
Y-14821D01*
D02*
G37*
G36*
X10295Y-21253D02*
X9961Y-21305D01*
X9672Y-21480D01*
X9473Y-21753D01*
X9392Y-22081D01*
X9444Y-22415D01*
X9619Y-22704D01*
X9891Y-22904D01*
X10220Y-22984D01*
X10554Y-22933D01*
X10843Y-22758D01*
X11043Y-22485D01*
X11123Y-22157D01*
X11072Y-21823D01*
X10896Y-21534D01*
X10624Y-21334D01*
X10295Y-21253D01*
D02*
G37*
G36*
X6492Y22249D02*
X6262D01*
Y22069D01*
X6492D01*
Y22249D01*
D02*
G37*
G36*
X6022D02*
X5792D01*
Y22069D01*
X6022D01*
Y22249D01*
D02*
G37*
G36*
X-2425Y3053D02*
X-2638D01*
X-2634Y3036D01*
X-2557Y2921D01*
X-2441Y2843D01*
X-2425Y2840D01*
Y3053D01*
D02*
G37*
G36*
X20384Y4586D02*
X20154D01*
Y4406D01*
X20384D01*
Y4586D01*
D02*
G37*
G36*
X-19325Y12899D02*
X-19538D01*
Y12686D01*
X-19521Y12690D01*
X-19405Y12767D01*
X-19328Y12883D01*
X-19325Y12899D01*
D02*
G37*
G36*
X-1835Y-6947D02*
Y-7160D01*
X-1622D01*
X-1625Y-7144D01*
X-1702Y-7028D01*
X-1818Y-6951D01*
X-1835Y-6947D01*
D02*
G37*
G36*
X3714Y-6696D02*
X3484D01*
Y-6876D01*
X3714D01*
Y-6696D01*
D02*
G37*
G36*
X22754Y5299D02*
X22597D01*
Y5024D01*
X22754D01*
Y5299D01*
D02*
G37*
G36*
X-20504Y5486D02*
X-20661D01*
Y5211D01*
X-20504D01*
Y5486D01*
D02*
G37*
G36*
X-22315Y4769D02*
X-22545D01*
Y4589D01*
X-22315D01*
Y4769D01*
D02*
G37*
G36*
X20854Y4586D02*
X20624D01*
Y4406D01*
X20854D01*
Y4586D01*
D02*
G37*
G36*
X19232Y4622D02*
Y4409D01*
X19445D01*
X19441Y4426D01*
X19364Y4542D01*
X19248Y4619D01*
X19232Y4622D01*
D02*
G37*
G36*
X-3721Y-11578D02*
X-3738Y-11581D01*
X-3854Y-11658D01*
X-3931Y-11774D01*
X-3934Y-11791D01*
X-3721D01*
Y-11578D01*
D02*
G37*
G36*
X3930Y-11051D02*
X3700D01*
Y-11231D01*
X3930D01*
Y-11051D01*
D02*
G37*
G36*
X4904Y-11686D02*
X4887Y-11689D01*
X4771Y-11766D01*
X4694Y-11882D01*
X4691Y-11899D01*
X4904D01*
Y-11686D01*
D02*
G37*
G36*
X14987Y17149D02*
X14867Y17029D01*
X14964Y16932D01*
X15084Y17052D01*
X14987Y17149D01*
D02*
G37*
G36*
X4904Y-12139D02*
X4691D01*
X4694Y-12155D01*
X4771Y-12271D01*
X4887Y-12348D01*
X4904Y-12352D01*
Y-12139D01*
D02*
G37*
G36*
X-145Y-7020D02*
Y-7233D01*
X68D01*
X65Y-7217D01*
X38Y-7178D01*
X38Y-7178D01*
X-13Y-7101D01*
Y-7101D01*
X-60Y-7069D01*
X-60Y-7069D01*
X-129Y-7024D01*
X-129Y-7024D01*
X-145Y-7020D01*
D02*
G37*
G36*
X-2075Y-6947D02*
X-2091Y-6951D01*
X-2207Y-7028D01*
X-2284Y-7144D01*
X-2288Y-7160D01*
X-2075D01*
Y-6947D01*
D02*
G37*
G36*
X-385Y-7020D02*
X-402Y-7024D01*
X-517Y-7101D01*
X-595Y-7217D01*
X-598Y-7233D01*
X-385D01*
Y-7020D01*
D02*
G37*
G36*
X-5201Y-10850D02*
X-5431D01*
Y-11030D01*
X-5201D01*
Y-10850D01*
D02*
G37*
G36*
X14455Y14059D02*
X14242D01*
X14246Y14042D01*
X14323Y13926D01*
X14439Y13849D01*
X14455Y13846D01*
Y14059D01*
D02*
G37*
%LPD*%
G54D10*
X2994Y-8551D02*
D03*
X2194D02*
D03*
X-1883Y13898D02*
D03*
X-1083D02*
D03*
X5952Y24023D02*
D03*
X5152D02*
D03*
X-234Y-17203D02*
D03*
X-1034D02*
D03*
X655Y-13659D02*
D03*
X-145D02*
D03*
X-1181Y-22244D02*
D03*
X-381D02*
D03*
X-18126Y10335D02*
D03*
X-18926D02*
D03*
X20861Y10204D02*
D03*
X20061D02*
D03*
G54D11*
X-6241Y-6158D02*
D03*
X-7591D02*
D03*
X-6283Y-7539D02*
D03*
X-7633D02*
D03*
G54D12*
X-9215Y-7004D02*
D03*
Y-6204D02*
D03*
X-9004Y-7797D02*
D03*
Y-8597D02*
D03*
X9606Y18480D02*
D03*
Y19280D02*
D03*
X6983Y19738D02*
D03*
Y18938D02*
D03*
X7855Y-365D02*
D03*
Y435D02*
D03*
X9122Y334D02*
D03*
Y1134D02*
D03*
X-5081Y-10730D02*
D03*
Y-9930D02*
D03*
X-4177Y-10725D02*
D03*
Y-9925D02*
D03*
X4050Y-10931D02*
D03*
Y-10131D02*
D03*
X5033Y-10931D02*
D03*
Y-10131D02*
D03*
X3834Y-6996D02*
D03*
Y-7796D02*
D03*
X-11083Y-1176D02*
D03*
Y-1976D02*
D03*
X-1508Y1701D02*
D03*
Y2501D02*
D03*
X-1025Y15502D02*
D03*
Y14702D02*
D03*
X-8369Y14002D02*
D03*
Y13202D02*
D03*
X-8389Y15799D02*
D03*
Y14999D02*
D03*
X6142Y23169D02*
D03*
Y22369D02*
D03*
X4767Y17811D02*
D03*
Y18611D02*
D03*
X541Y-16918D02*
D03*
Y-16118D02*
D03*
X519Y-15387D02*
D03*
Y-14587D02*
D03*
X-943Y-13681D02*
D03*
Y-14481D02*
D03*
X20504Y3486D02*
D03*
Y4286D02*
D03*
X-22665Y3669D02*
D03*
Y4469D02*
D03*
X9708Y-2704D02*
D03*
Y-3504D02*
D03*
X8762Y-2664D02*
D03*
Y-3464D02*
D03*
G54D13*
X-2150Y24244D02*
D03*
X-1363D02*
D03*
X-575D02*
D03*
X212D02*
D03*
X999D02*
D03*
X1787D02*
D03*
X2574D02*
D03*
X3362D02*
D03*
Y17945D02*
D03*
X2574D02*
D03*
X1787D02*
D03*
X999D02*
D03*
X212D02*
D03*
X-575D02*
D03*
X-1363D02*
D03*
X-2150D02*
D03*
G54D14*
X3755Y23063D02*
D03*
Y22276D02*
D03*
Y21488D02*
D03*
Y20701D02*
D03*
Y19913D02*
D03*
Y19126D02*
D03*
G54D15*
X8760Y18936D02*
D03*
Y19310D02*
D03*
Y19684D02*
D03*
X7697D02*
D03*
Y18936D02*
D03*
G54D16*
X2236Y-7406D02*
D03*
Y-7602D02*
D03*
Y-7799D02*
D03*
Y-7996D02*
D03*
X1094D02*
D03*
Y-7799D02*
D03*
Y-7602D02*
D03*
Y-7406D02*
D03*
G54D17*
X10016Y-10002D02*
D03*
Y-11774D02*
D03*
X11602Y15031D02*
D03*
Y13260D02*
D03*
X10041Y-12929D02*
D03*
Y-14701D02*
D03*
X11646Y12016D02*
D03*
Y10244D02*
D03*
X8500Y-12900D02*
D03*
Y-14671D02*
D03*
X13220Y12016D02*
D03*
Y10244D02*
D03*
X8441Y-10002D02*
D03*
Y-11774D02*
D03*
X13207Y15026D02*
D03*
Y13254D02*
D03*
X-6794Y-15030D02*
D03*
Y-16802D02*
D03*
G54D18*
X790Y11624D02*
D03*
Y8943D02*
D03*
X-7197Y12556D02*
D03*
Y9875D02*
D03*
G54D19*
X-5572Y11310D02*
D03*
X-2029D02*
D03*
X-12480Y10819D02*
D03*
X-8936D02*
D03*
G54D20*
X-4145Y16973D02*
D03*
Y15573D02*
D03*
X-2157Y16976D02*
D03*
Y15576D02*
D03*
X-11804Y17099D02*
D03*
Y15699D02*
D03*
X-9843Y17126D02*
D03*
Y15726D02*
D03*
X-2465Y-16117D02*
D03*
Y-14717D02*
D03*
X-4216Y-16143D02*
D03*
Y-14743D02*
D03*
G54D21*
X-3643Y13653D02*
D03*
Y14401D02*
D03*
X-2580D02*
D03*
Y14027D02*
D03*
Y13653D02*
D03*
X-11316Y13832D02*
D03*
Y14581D02*
D03*
X-10253D02*
D03*
Y14206D02*
D03*
Y13832D02*
D03*
G54D22*
X-4613Y-23436D02*
D03*
X-3002Y-23808D02*
D03*
G54D23*
X3018Y-23794D02*
D03*
X4635Y-23450D02*
D03*
G54D24*
X21575Y3490D02*
D03*
Y5419D02*
D03*
X22874Y3490D02*
D03*
Y5419D02*
D03*
X-21683Y3677D02*
D03*
Y5606D02*
D03*
X-20384Y3677D02*
D03*
Y5606D02*
D03*
G54D25*
X-232Y-16481D02*
D03*
X-980D02*
D03*
Y-15379D02*
D03*
X-606D02*
D03*
X-232D02*
D03*
G54D26*
X-915Y-23417D02*
D03*
X915D02*
D03*
G54D27*
X-512D02*
D03*
X-256D02*
D03*
X0D02*
D03*
X256D02*
D03*
X512D02*
D03*
G54D28*
X-347Y-7280D02*
X-338Y-7272D01*
X-265Y-7353D02*
X-132Y-7221D01*
Y-5528D01*
X3257Y-18599D02*
X5269D01*
X701Y-23503D02*
X915D01*
X1030Y-23617D01*
X2008D01*
X-3002Y-23808D02*
Y-23474D01*
X-2165Y-22638D01*
X-1772D01*
X-1893Y-21550D02*
X-1181Y-22262D01*
Y-23152D02*
Y-22262D01*
Y-23152D02*
X-915Y-23417D01*
X-5109Y-16785D02*
X-4649D01*
X-5748Y-17425D02*
X-5109Y-16785D01*
X-5495Y-18087D02*
Y-17632D01*
X-6171Y-17425D02*
X-5748D01*
X-5090Y-17227D02*
X-4809D01*
X-5495Y-17632D02*
X-5090Y-17227D01*
X-4420Y-17015D02*
X-4420D01*
X-4649Y-16785D02*
X-4420Y-17015D01*
X-4420D02*
X-4379Y-16974D01*
X-6794Y-16802D02*
X-6171Y-17425D01*
X-4021Y-13404D02*
X-3510Y-13915D01*
X-5004Y-13404D02*
X-4021D01*
X-15257Y13846D02*
X-14273Y12863D01*
Y10073D02*
Y12863D01*
X-14955Y9392D02*
X-14273Y10073D01*
X-16775Y13649D02*
X-15087Y11961D01*
X-16775Y13649D02*
Y13756D01*
X-17303D02*
X-16775D01*
X9659Y-7267D02*
X9689Y-7297D01*
X9659Y-7267D02*
Y-5223D01*
X-14710Y15822D02*
Y16007D01*
X-14257Y16460D02*
Y16460D01*
X-13542Y17175D02*
Y17884D01*
X-14257Y16460D02*
X-13542Y17175D01*
X-14710Y16007D02*
X-14257Y16460D01*
X-15257Y15276D02*
X-14710Y15822D01*
X-13542Y17884D02*
X-12114Y19313D01*
X-15257Y13846D02*
Y15276D01*
X-12811Y3315D02*
X-12483Y2986D01*
Y595D02*
Y2986D01*
Y595D02*
X-12019Y131D01*
X-12811Y3315D02*
Y4167D01*
X-13236Y4592D02*
X-12811Y4167D01*
X6009Y-13065D02*
Y-12064D01*
X7010Y-11063D01*
Y-10341D01*
X6496Y-9827D02*
X7010Y-10341D01*
X4309Y-7448D02*
X5923D01*
X6496Y-9827D02*
Y-8021D01*
X5923Y-7448D02*
X6496Y-8021D01*
X1455Y-10567D02*
Y-8965D01*
X5204Y-3457D02*
X8460Y-6713D01*
X2730Y-3457D02*
X5204D01*
X2550Y-3277D02*
X2730Y-3457D01*
X2997Y-3079D02*
X5349D01*
X2353Y-2434D02*
X2997Y-3079D01*
X1715Y-10827D02*
X2559D01*
X1455Y-10567D02*
X1715Y-10827D01*
X-189Y-9190D02*
X36Y-9415D01*
Y-10108D02*
Y-9415D01*
Y-10108D02*
X70Y-10141D01*
Y-12048D02*
Y-10141D01*
X-256Y-10649D02*
Y-10276D01*
X-520Y-10012D02*
X-256Y-10276D01*
X514Y-9933D02*
X644Y-9802D01*
X514Y-12577D02*
Y-9933D01*
X502Y-9803D02*
X645D01*
X514Y-12577D02*
X1312Y-13376D01*
X-189Y-9190D02*
Y-8419D01*
X-551Y-12669D02*
X70Y-12048D01*
X-919Y-11313D02*
X-256Y-10649D01*
X2559Y-11651D02*
X3320Y-12411D01*
X2559Y-11651D02*
Y-10827D01*
X4569Y-15014D02*
X5461Y-15905D01*
X-6553Y-12024D02*
Y-11106D01*
X-2170Y-12811D02*
X-919Y-11560D01*
X-6775Y-12577D02*
X-6541Y-12811D01*
X-2170D01*
X-3177Y-12486D02*
X-2746Y-12055D01*
X-5288Y-12486D02*
X-3177D01*
X-6496Y-11278D02*
X-5288Y-12486D01*
X-6496Y-11278D02*
Y-10827D01*
X-6975Y-12577D02*
X-6775D01*
X-7306Y-12246D02*
X-6975Y-12577D01*
X-8129Y-10336D02*
Y-9242D01*
X-6496Y-9874D02*
Y-9827D01*
X-6972Y-10351D02*
X-6496Y-9874D01*
X-6972Y-11459D02*
Y-10351D01*
X-7306Y-11793D02*
X-6972Y-11459D01*
X-7306Y-12246D02*
Y-11793D01*
X-6613Y-12094D02*
X-6596Y-12076D01*
X-6613Y-12094D02*
Y-12084D01*
X-6553Y-12024D01*
X-2746Y-12029D02*
X-2228D01*
X-1733Y-11534D01*
Y-10913D01*
X-1758Y-10888D02*
X-1733Y-10913D01*
X-2559Y-10090D02*
X-1761Y-10888D01*
X-2559Y-10090D02*
Y-9827D01*
X-1761Y-10888D02*
X-1758D01*
X2559Y-9827D02*
X3354D01*
X3659Y-10131D01*
X4050D01*
X6031Y-10827D02*
X6496D01*
X5368Y-10164D02*
X6031Y-10827D01*
X5066Y-10164D02*
X5368D01*
X5033Y-10131D02*
X5066Y-10164D01*
X2769Y-13793D02*
X5267Y-16291D01*
X2769Y-13793D02*
Y-12962D01*
X3320Y-12411D01*
X-603Y-7868D02*
X111D01*
X-919Y-8183D02*
X-603Y-7868D01*
X-1955Y-7280D02*
X-347D01*
X-257Y-8351D02*
X-189Y-8419D01*
X-919Y-9882D02*
Y-8183D01*
X11333Y1795D02*
X11858Y1270D01*
X-8271Y-6158D02*
X-7591D01*
X-9117Y-7004D02*
X-8271Y-6158D01*
X-9215Y-7004D02*
X-9117D01*
X-7891Y-7797D02*
X-7633Y-7539D01*
X-9004Y-7797D02*
X-7891D01*
X-8773Y-8597D02*
X-8129Y-9242D01*
X-9004Y-8597D02*
X-8773D01*
X-9170Y-6002D02*
Y-5232D01*
X10656Y5455D02*
Y8147D01*
X20215Y12623D02*
X20992Y11847D01*
X17407Y12623D02*
X20215D01*
X-864Y24902D02*
X253D01*
X-5016Y20739D02*
X-2747Y18470D01*
Y17567D02*
Y18470D01*
Y17567D02*
X-2157Y16976D01*
X5146Y23169D02*
X5152Y23175D01*
Y24023D01*
X-1371Y24307D02*
Y24394D01*
X-864Y24902D01*
X-2159Y23281D02*
Y24307D01*
X8420Y16070D02*
X9324Y15165D01*
X7659Y16830D02*
X8420Y16070D01*
X6785Y15483D02*
X7448D01*
X8034Y16070D01*
X8420D01*
X19645Y10620D02*
X20061Y10204D01*
X-2083Y15502D02*
X-1025D01*
X-2157Y16976D02*
X-822D01*
X-17961Y7175D02*
Y7551D01*
X3405Y15220D02*
X5018Y16833D01*
X1445Y15220D02*
X3405D01*
X975Y15690D02*
X1445Y15220D01*
X-18961Y8551D02*
Y8916D01*
X-18126Y9751D01*
Y10335D01*
X-18926Y9935D02*
Y10335D01*
X-19839Y9022D02*
X-18926Y9935D01*
X-6426Y17376D02*
X-5907Y16856D01*
X-6426Y17376D02*
Y18464D01*
X-19658Y13019D02*
X-18511Y11872D01*
X18961Y8551D02*
X19961D01*
X20061Y8651D01*
Y10204D01*
X20861Y8651D02*
Y10204D01*
X-7541Y12941D02*
X-6307Y14174D01*
Y14562D01*
X9324Y15165D02*
Y18372D01*
X5136Y16830D02*
X7659D01*
X-18926Y10335D02*
Y11014D01*
X-21579D02*
X-18926D01*
X-22031Y7556D02*
X-20384Y5908D01*
Y5606D02*
Y5908D01*
X-19961Y6610D02*
Y7551D01*
X-8033Y-12749D02*
X-8016D01*
X-6794Y-13971D01*
Y-15030D02*
Y-13971D01*
X-4379Y-17028D02*
Y-16974D01*
Y-17028D02*
X-4370Y-17037D01*
X-2911D01*
X-2141Y-16268D01*
X6983Y18938D02*
X7730D01*
X6142Y20081D02*
Y22369D01*
Y19486D02*
Y20081D01*
X6485Y19738D01*
X6983D01*
X-9258Y21300D02*
Y22460D01*
X5266Y18611D02*
X6142Y19486D01*
X6983Y19738D02*
X7399Y20154D01*
X9174D01*
X9139D02*
X9606Y19687D01*
Y19280D02*
Y19687D01*
X8404Y18936D02*
X8760D01*
X8206Y19134D02*
X8404Y18936D01*
X8206Y19134D02*
Y19509D01*
X8381Y19684D01*
X8760D01*
Y19310D02*
X9425D01*
X8760Y18936D02*
X9324Y18372D01*
X-2159Y23281D02*
X-193Y21315D01*
X-6819Y1118D02*
Y1486D01*
X5146Y23169D02*
X6142D01*
X4666Y22369D02*
X6142D01*
X-2618Y-19164D02*
Y-19029D01*
X-2936Y-19482D02*
X-2618Y-19164D01*
X-3375Y-19482D02*
X-2936D01*
X541Y-16918D02*
X1200D01*
X-1324Y-16579D02*
X-1077D01*
X-980Y-16481D01*
X-2141Y-16268D02*
X-1869D01*
X-980Y-15379D01*
X541Y-16118D02*
Y-15409D01*
X-943Y-13681D02*
X-167D01*
X65Y-14545D02*
X561D01*
X-232Y-15379D02*
Y-14842D01*
X65Y-14545D01*
X561D02*
X563Y-14542D01*
Y-13651D01*
X-232Y-17201D02*
Y-16481D01*
X-606Y-15379D02*
Y-14497D01*
X-677Y-14426D02*
X-606Y-14497D01*
X3018Y-23794D02*
Y-19379D01*
X-5495Y-18087D02*
X-4613Y-18969D01*
Y-23436D02*
Y-18969D01*
X-4840Y-18018D02*
X-3375Y-19482D01*
X3780Y-23561D02*
X3891Y-23450D01*
X4635D01*
X-3816Y-23661D02*
X-3669Y-23808D01*
X-3002D01*
X636Y-23537D02*
X667D01*
X701Y-23503D01*
X-852Y-12669D02*
X-551D01*
X-1755Y-13572D02*
X-852Y-12669D01*
X-1755Y-14481D02*
Y-13572D01*
X-22665Y3669D02*
X-21691D01*
X20504Y3486D02*
X21571D01*
X21575Y3490D01*
X20504Y4286D02*
X22540D01*
X22874Y4620D01*
Y5419D01*
X-822Y16976D02*
X-481Y16636D01*
X-1083Y13898D02*
X-969D01*
X-481Y14386D01*
Y16636D01*
X-1907Y13074D02*
X-1083Y13898D01*
X-1907Y12738D02*
Y13074D01*
Y12738D02*
X-1172Y12002D01*
X-912D01*
X-533Y11624D01*
X790D01*
X-3535Y11610D02*
X-3226D01*
X-3807Y11337D02*
X-3535Y11610D01*
X-1808Y-23417D02*
X-915D01*
X-2008Y-23617D02*
X-1808Y-23417D01*
X-915Y-23862D02*
Y-23417D01*
Y-23862D02*
X-800Y-23978D01*
X706D01*
X915Y-23768D01*
Y-23503D01*
X4635Y-23450D02*
X5406Y-22680D01*
Y-19557D01*
X6872Y-18091D01*
X11555Y-2466D02*
X11858Y-2164D01*
Y1270D01*
X-4092Y19159D02*
X-3155Y18222D01*
Y15558D02*
Y18222D01*
X-9272Y19159D02*
X-4092D01*
X-9272Y20268D02*
X-9124D01*
X-9272Y19159D02*
Y20268D01*
X9606Y19280D02*
X10554Y18331D01*
Y17733D02*
Y18331D01*
X9925Y17103D02*
X10554Y17733D01*
X9606Y18008D02*
Y18480D01*
Y18008D02*
X9809Y17805D01*
X790Y11624D02*
X4750D01*
X5921Y12794D01*
X-18126Y10335D02*
X-16970D01*
X-18187Y14639D02*
X-17303Y13756D01*
X-14002Y19786D02*
X-12564D01*
X-14015Y19800D02*
X-14002Y19786D01*
X-18187Y15628D02*
X-14015Y19800D01*
X8869Y14710D02*
X9324Y15165D01*
X9143Y13424D02*
Y13797D01*
X8869Y14071D02*
Y14710D01*
Y13149D02*
X9143Y13424D01*
X8869Y14071D02*
X9143Y13797D01*
X8869Y9707D02*
Y11300D01*
Y13149D01*
X-16970Y10335D02*
X-16172Y11133D01*
X-22665Y4469D02*
X-21658D01*
X-20521Y5606D01*
X-20384D01*
X-18894Y14774D02*
X-18187D01*
X-20904Y12764D02*
X-18894Y14774D01*
X-20904Y12149D02*
Y12764D01*
X-23882Y5980D02*
X-22357Y7506D01*
X-23882Y4020D02*
Y5980D01*
Y4020D02*
X-23531Y3669D01*
X-22665D01*
X-18187Y14639D02*
Y14774D01*
Y15628D01*
X-22031Y7556D02*
Y10562D01*
X-21579Y11014D01*
X-22357Y7506D02*
Y10696D01*
X-20904Y12149D01*
X-19961Y6610D02*
X-19769Y6419D01*
X-17961Y7175D02*
X-17531Y6744D01*
X-14278D01*
X-14183Y6650D01*
X-13810D01*
X-13715Y6744D01*
X-14413Y6419D02*
X-14318Y6324D01*
X-13675D01*
X-19769Y6419D02*
X-14413D01*
X9292Y4311D02*
X9513D01*
X10656Y5455D01*
X8869Y9707D02*
X9698Y8879D01*
X9925D01*
X10656Y8147D01*
X-3807Y10371D02*
Y11337D01*
X-13675Y6324D02*
X-13556Y6205D01*
X-10546Y-640D02*
X-7693D01*
X-6819Y-1514D01*
X8233Y-15599D02*
X8653D01*
X9581Y-14671D01*
X5267Y-16291D02*
X7446D01*
X16985Y13044D02*
X17407Y12623D01*
X16985Y13044D02*
Y13466D01*
X18543Y15024D01*
Y15113D01*
X20861Y10204D02*
X21380Y10724D01*
X19977Y10620D02*
X20330Y10974D01*
X19645Y10620D02*
X19977D01*
X19115Y4286D02*
X20504D01*
X19205Y3408D02*
X20426D01*
X20504Y3486D01*
X18342Y10620D02*
X19645D01*
X13639Y9838D02*
X14003D01*
X14065Y9900D02*
X14438D01*
X14500Y9838D01*
X13220Y10244D02*
X13233D01*
X13639Y9838D01*
X17559D02*
X18342Y10620D01*
X14500Y9838D02*
X17559D01*
X14575Y10925D02*
Y14179D01*
Y10925D02*
X14892Y10608D01*
X-11340Y20739D02*
X-5016D01*
X-12114Y19965D02*
X-11340Y20739D01*
X-12114Y19313D02*
Y19965D01*
X-14955Y8531D02*
Y9392D01*
Y8531D02*
X-14660Y8236D01*
X-19045Y5940D02*
X-15568D01*
X-19280Y5705D02*
X-19045Y5940D01*
X-10682Y-1870D02*
X-10175D01*
X-9819Y-1514D01*
X-10768Y-1957D02*
X-10682Y-1870D01*
X-11083Y-1176D02*
X-10546Y-640D01*
X-9819Y1486D02*
Y1691D01*
X-9445Y2065D01*
X-8612Y3429D02*
X-8104D01*
X-9445Y2065D02*
Y2597D01*
X-8612Y3429D01*
X20992Y11541D02*
Y11847D01*
Y11541D02*
X21380Y11152D01*
Y10724D02*
Y11152D01*
X-12019Y-1473D02*
Y131D01*
Y-1473D02*
X-11515Y-1976D01*
X-11083D01*
X-789Y-10012D02*
X-520D01*
X-919Y-9882D02*
X-789Y-10012D01*
X-919Y-11560D02*
Y-11313D01*
X336Y-3190D02*
X425Y-3279D01*
X627D01*
X629Y-3277D01*
X8441Y-10002D02*
X8460Y-9983D01*
Y-6713D01*
X5349Y-3079D02*
X5684Y-2744D01*
X6264Y-15599D02*
X8233D01*
X5953Y-15910D02*
X6264Y-15599D01*
X5486Y-15910D02*
X5953D01*
X5481Y-15905D02*
X5486Y-15910D01*
X5461Y-15905D02*
X5481D01*
X7446Y-16291D02*
X7515Y-16221D01*
Y-16097D01*
X1338Y-17161D02*
Y-14000D01*
X-1456Y-10027D02*
Y-8346D01*
Y-10027D02*
X-1388Y-10095D01*
X-115Y-3003D02*
X454Y-2434D01*
X2353D01*
X629Y-3277D02*
X2550D01*
X-1065Y-5063D02*
X-1000D01*
X-535Y-5528D01*
X-132D01*
X1208Y-4188D01*
X1312Y-13974D02*
X1338Y-14000D01*
X1312Y-13974D02*
Y-13376D01*
X-575Y17945D02*
X-513Y17883D01*
Y17532D02*
Y17883D01*
Y17532D02*
X839Y16180D01*
X2398D01*
X3362Y17143D01*
Y17945D01*
X2690Y-19106D02*
X2958Y-19374D01*
X2690Y-19106D02*
Y-19104D01*
X2682Y-19097D02*
X2690Y-19104D01*
X2682Y-19097D02*
Y-17282D01*
X-115Y-3018D02*
Y-3003D01*
X-1065Y-5063D02*
Y-4076D01*
X-862Y-3873D01*
Y-3765D01*
X-115Y-3018D01*
G54D29*
X7855Y395D02*
X8567Y1107D01*
X7855Y435D02*
Y1113D01*
Y395D02*
Y435D01*
X3461Y8960D02*
X6859Y12358D01*
X2540Y8960D02*
X3461D01*
X6859Y12358D02*
X7218D01*
X9315Y1713D02*
X11251D01*
X7231Y1737D02*
X7855Y1113D01*
X9641Y-2637D02*
Y-1152D01*
X9122Y-633D02*
X9641Y-1152D01*
X9122Y-633D02*
Y334D01*
X7866Y-433D02*
X8701Y-1268D01*
X8567Y1107D02*
X9096D01*
X-8369Y14002D02*
Y14979D01*
X-10253Y14581D02*
X-8768D01*
X-8369Y14979D01*
X9292Y1304D02*
Y2116D01*
X8686Y-2459D02*
Y-1283D01*
G54D30*
X7350Y-1449D02*
Y-69D01*
X7855Y435D01*
X6675Y-535D02*
Y1783D01*
X7123Y2231D01*
X6390Y1887D02*
X6848Y2345D01*
X6390Y-735D02*
Y1887D01*
Y-735D02*
X6486Y-831D01*
Y-909D02*
Y-831D01*
X6222Y3332D02*
X6848Y2707D01*
X6498Y3446D02*
X7123Y2821D01*
Y2231D02*
Y2821D01*
X6848Y2345D02*
Y2707D01*
X12157Y14303D02*
X13207Y13254D01*
X10775Y14303D02*
X12157D01*
X9360Y12889D02*
X10775Y14303D01*
X-394Y-22244D02*
Y-22047D01*
X-659Y-21782D02*
X-394Y-22047D01*
X-888Y-21782D02*
X-659D01*
X-1213Y-21457D02*
X-888Y-21782D01*
X-1378Y-21457D02*
X-1213D01*
X-2169Y-20666D02*
X-1378Y-21457D01*
X-2169Y-20666D02*
Y-17812D01*
X-5193Y-16233D02*
X-4777D01*
X-5510Y-16550D02*
X-5193Y-16233D01*
X-6037Y9454D02*
Y10017D01*
X-6881Y10861D02*
X-6037Y10017D01*
X-6881Y10861D02*
Y12281D01*
X-6481Y10888D02*
X-5964Y10371D01*
X-6481Y10888D02*
Y11971D01*
X-5929Y12523D01*
Y14292D01*
X9708Y-4287D02*
Y-3504D01*
X8639Y-5357D02*
X9708Y-4287D01*
X8639Y-5573D02*
Y-5357D01*
X8762Y-4255D02*
Y-3464D01*
X8103Y-4914D02*
X8762Y-4255D01*
X8103Y-5065D02*
Y-4914D01*
X-6776Y-3702D02*
X-5834D01*
X-8819Y-1659D02*
X-6776Y-3702D01*
X-8819Y-1659D02*
Y-1514D01*
X-5834Y-3702D02*
X-4948Y-4588D01*
X-3819Y-2362D02*
X-3813Y-2356D01*
Y-2997D02*
Y-2356D01*
X10986Y7077D02*
Y7538D01*
Y7077D02*
X10987Y7076D01*
Y7538D02*
Y8242D01*
X10986Y7538D02*
X10987Y7538D01*
Y5319D02*
Y7076D01*
X10908Y5240D02*
X10987Y5319D01*
X10049Y9179D02*
X10987Y8242D01*
X7372Y-9150D02*
X7884Y-8638D01*
X7372Y-11246D02*
Y-9150D01*
X6783Y-11836D02*
X7372Y-11246D01*
X7683Y-9467D02*
X8159Y-8991D01*
X7683Y-10574D02*
Y-9467D01*
Y-10574D02*
X7857Y-10748D01*
X7433Y-11632D02*
X8317Y-10748D01*
X7433Y-12072D02*
Y-11632D01*
X6783Y-12285D02*
X7226Y-12728D01*
X6783Y-12285D02*
Y-11836D01*
X8329Y-12728D02*
X8441Y-12841D01*
X7226Y-12728D02*
X8329D01*
X7857Y-10748D02*
X9592D01*
X8315Y-11900D02*
X8441Y-11774D01*
X1455Y-8965D02*
X1869Y-8551D01*
X2194D01*
X5080Y-3758D02*
X8159Y-6838D01*
X4938Y-4048D02*
X7884Y-6994D01*
X2506Y-4048D02*
X4938D01*
X2312Y-3853D02*
X2506Y-4048D01*
X2606Y-3758D02*
X5080D01*
X2426Y-3578D02*
X2606Y-3758D01*
X4569Y-15014D02*
Y-14389D01*
X5033Y-13925D01*
Y-10931D01*
X-3681Y-11793D02*
X-3572Y-11901D01*
X-3681Y-11793D02*
Y-11221D01*
X-5009Y-10772D02*
X-4141D01*
X-4177Y-10725D02*
X-3681Y-11221D01*
X-9716Y-9728D02*
X-9642Y-9654D01*
X-3119Y-10827D02*
X-2559D01*
X-3970Y-9975D02*
X-3119Y-10827D01*
X-4126Y-9975D02*
X-3970D01*
X-4177Y-9925D02*
X-4126Y-9975D01*
X-5184Y-9827D02*
X-5081Y-9930D01*
X-6496Y-9827D02*
X-5184D01*
X4050Y-10931D02*
X5033D01*
X-5032Y-10794D02*
X-5009Y-10772D01*
X-4851Y-7539D02*
X-4429Y-7118D01*
X-4531D02*
X-4429D01*
X2375Y2006D02*
X3910Y3540D01*
X-6283Y-7539D02*
X-4851D01*
X-9844Y-8311D02*
Y-4359D01*
Y-8311D02*
X-9642Y-8513D01*
Y-9654D02*
Y-8513D01*
X-9844Y-4359D02*
X-9024Y-3540D01*
X-3819Y-2362D02*
Y-1516D01*
X5142Y21098D02*
X5204Y21159D01*
X-193Y21315D02*
X24Y21098D01*
X4372Y22664D02*
X4666Y22369D01*
X2686Y22871D02*
X2893Y22664D01*
X2686Y23353D02*
X3242Y23908D01*
X2686Y22871D02*
Y23353D01*
X-4777Y-16205D02*
X-4088D01*
X-1240Y-177D02*
X2874Y3937D01*
X-1240Y-177D02*
X-1229Y-2586D01*
X-3819Y-1516D02*
X-3799Y-1496D01*
X-3819Y-1516D02*
Y-1514D01*
X4767Y18611D02*
X5266D01*
X-1710Y-17380D02*
Y-16964D01*
X-2141Y-14868D02*
X-1755Y-14481D01*
X-943D01*
X-1034Y-17203D02*
X-606Y-16775D01*
Y-15379D01*
X-10663Y14206D02*
X-10253D01*
X-10793Y14336D02*
X-10663Y14206D01*
X-10793Y13236D02*
Y14336D01*
Y15753D01*
X-2578Y14403D02*
X-1783D01*
X-2956Y14027D02*
X-2580D01*
X-3123Y14195D02*
X-2956Y14027D01*
X-3155Y12884D02*
Y15558D01*
X-1783Y14403D02*
X-1483Y14704D01*
X-1026D01*
X-1025Y14702D01*
X-1479D02*
X-1025D01*
X-1883Y13898D02*
Y14298D01*
X-1479Y14702D01*
X-3123Y14195D02*
Y15558D01*
X-6507Y2798D02*
X-5403D01*
X9360Y9781D02*
Y12889D01*
X-4819Y1486D02*
Y2155D01*
X-4360Y2715D01*
X9763Y2251D02*
X10289D01*
X7923Y10569D02*
X8138D01*
X8869Y11300D01*
X9592Y-10748D02*
X10016Y-11172D01*
Y-11774D02*
Y-11172D01*
X-1798Y-17441D02*
X-1695D01*
X-2169Y-17812D02*
X-1798Y-17441D01*
X-1758Y-17378D02*
X-1695Y-17441D01*
X-1853Y-17378D02*
X-1758D01*
X-1034Y-17586D02*
Y-17203D01*
X-1500Y-18052D02*
X-1034Y-17586D01*
X-1727Y-18052D02*
X-1500D01*
X5038Y5456D02*
X6632D01*
X3910Y4327D02*
X5038Y5456D01*
X-11622Y-18052D02*
X-9496Y-15925D01*
Y-13025D01*
X-9732Y-12789D02*
X-9496Y-13025D01*
X-9732Y-12789D02*
Y-10622D01*
X10289Y2251D02*
X10987Y2949D01*
Y4808D01*
X10908Y4887D02*
X10987Y4808D01*
X10908Y4887D02*
Y5240D01*
X9360Y9781D02*
X9962Y9179D01*
X10049D01*
X-8873Y15799D02*
X-8431Y16241D01*
X-6813Y15399D02*
X-6446D01*
X-5929Y14292D02*
X-5882Y14339D01*
X-6446Y15399D02*
X-5882Y14835D01*
Y14339D02*
Y14835D01*
X-5964Y10371D02*
X-3807D01*
X-490Y-82D02*
X1106Y1513D01*
X-3077Y4835D02*
X-2887Y5024D01*
X-262D02*
X785Y3976D01*
X-2887Y5024D02*
X-1876D01*
X-1836Y4984D01*
X-1223D01*
X-1183Y5024D01*
X-262D01*
X5799Y4292D02*
X6222Y3868D01*
X6436Y4334D02*
X6498Y4272D01*
X-2819Y-1514D02*
X-2726D01*
X-2244Y-1995D01*
X-4819Y-2007D02*
Y-1514D01*
Y-2007D02*
X-4577Y-2250D01*
X-7819Y-1651D02*
Y-1514D01*
X-3298Y2064D02*
X-2861Y2501D01*
X-3298Y991D02*
Y2064D01*
X-3607Y682D02*
X-3298Y991D01*
X-6819Y682D02*
X-3607D01*
X3910Y3540D02*
Y4327D01*
X2375Y2006D02*
Y2070D01*
X-3436Y4841D02*
X-3429Y4835D01*
X-3077D01*
X-6194Y-3276D02*
X-6011D01*
X-7819Y-1651D02*
X-6194Y-3276D01*
X-8819Y1486D02*
X-8681D01*
X-5326Y4841D01*
X-3436D01*
X-1726Y2501D02*
X-1508D01*
X-2285Y3059D02*
X-1726Y2501D01*
X-2861D02*
X-1726D01*
X-1819Y-2172D02*
Y-47D01*
X2165Y3937D01*
X-2099Y-3207D02*
X-2056Y-3250D01*
X-2099Y-3207D02*
Y-2452D01*
X-1819Y-2172D01*
X-1673Y-3031D02*
Y-3031D01*
X-1229Y-2586D01*
X164Y-4558D02*
X868Y-3853D01*
X-69Y-4098D02*
X233D01*
X754Y-3578D01*
X7884Y-8638D02*
Y-6994D01*
X8159Y-8991D02*
Y-6838D01*
X6486Y-909D02*
X6527Y-950D01*
X6498Y3446D02*
Y4272D01*
X6222Y3332D02*
Y3868D01*
X-4948Y-4588D02*
X-3044D01*
X-2056Y-3600D01*
Y-3250D01*
X108Y-4558D02*
X164D01*
X-240Y-4907D02*
X108Y-4558D01*
X868Y-3853D02*
X2312D01*
X754Y-3578D02*
X2426D01*
X1208Y-4188D02*
X1241Y-4155D01*
X2058D01*
X3834Y-5930D01*
Y-6996D02*
Y-5930D01*
X-9732Y-10622D02*
X-9716Y-10607D01*
Y-9728D01*
G54D31*
X6135Y1966D02*
X6612Y2443D01*
X6135Y1568D02*
Y1966D01*
X6111Y1544D02*
X6135Y1568D01*
X6111Y-1361D02*
Y1544D01*
X5939Y1649D02*
Y1969D01*
X5915Y1625D02*
X5939Y1649D01*
X5889Y2018D02*
X5939Y1969D01*
X6612Y2443D02*
Y2609D01*
X5987Y3234D02*
X6612Y2609D01*
X2968Y18546D02*
X3033Y18611D01*
X2968Y17433D02*
Y18546D01*
X2227Y16692D02*
X2968Y17433D01*
X5889Y2018D02*
Y3055D01*
X5213Y3731D02*
X5889Y3055D01*
X1724Y-17678D02*
X2228Y-18183D01*
Y-20385D02*
Y-18183D01*
X1573Y-21040D02*
X2228Y-20385D01*
X1724Y-17678D02*
Y-17001D01*
X-256Y-22875D02*
X1573Y-21047D01*
X-256Y-23417D02*
Y-22875D01*
X3849Y24803D02*
X4255Y24397D01*
X2490Y24803D02*
X3849D01*
X2391Y24902D02*
X2490Y24803D01*
X-5220Y-15997D02*
X-5026Y-15804D01*
X-5291Y-15997D02*
X-5220D01*
X-5301Y-15802D02*
X-5227Y-15728D01*
X-5372Y-15802D02*
X-5301D01*
X-5421Y-16127D02*
X-5291Y-15997D01*
X-5502Y-15931D02*
X-5372Y-15802D01*
X-5227Y-15728D02*
Y-14194D01*
X-5580Y-15733D02*
X-5423Y-15576D01*
Y-15020D01*
X-7330Y-15931D02*
X-5502D01*
X-7357Y-15733D02*
X-5580D01*
X-7196Y-16127D02*
X-5421D01*
X-8493Y-17094D02*
X-7330Y-15931D01*
X-7935Y-16866D02*
X-7196Y-16127D01*
X-4665Y-13974D02*
X-4334D01*
X-5026Y-14335D02*
X-4665Y-13974D01*
X-5026Y-15804D02*
Y-14335D01*
X-5849Y-14594D02*
X-5423Y-15020D01*
X-5374Y-14047D02*
X-5227Y-14194D01*
X-5849Y-14594D02*
Y-13632D01*
X-5621Y-13404D01*
X-5004D01*
X-9355Y-1735D02*
Y-1119D01*
X-5383Y-2912D02*
X-4592Y-3704D01*
Y-4081D02*
Y-3704D01*
X-11367Y678D02*
Y1234D01*
X-11432Y1300D02*
X-11367Y1234D01*
X-11432Y2928D02*
X-10298Y4062D01*
X-11432Y1300D02*
Y2928D01*
X-12355Y3504D02*
X-12026Y3175D01*
X-12551Y3423D02*
X-12222Y3094D01*
X-11831Y865D02*
Y3489D01*
X-11834Y3493D02*
X-11831Y3489D01*
Y865D02*
X-10900Y-66D01*
X-12026Y784D02*
X-11192Y-50D01*
X-12026Y784D02*
Y3175D01*
X-12222Y703D02*
X-11758Y239D01*
X-12222Y703D02*
Y3094D01*
X-11968Y3663D02*
Y3663D01*
Y3663D02*
X-11941D01*
X-11968Y3663D02*
X-11866D01*
X-12441Y4014D02*
Y4310D01*
X-12551Y3904D02*
X-12441Y4014D01*
X-12551Y3423D02*
Y3904D01*
X-12209Y3969D02*
Y4513D01*
X-12355Y3823D02*
X-12209Y3969D01*
X-12355Y3504D02*
Y3823D01*
X-12946Y5250D02*
X-12209Y4513D01*
X-13061Y4931D02*
X-12441Y4310D01*
X20326Y13453D02*
Y13975D01*
X20698Y14087D02*
Y14128D01*
Y14087D02*
X20705Y14080D01*
Y13599D02*
Y14080D01*
X17779Y14727D02*
Y16246D01*
X14004Y20822D02*
X20698Y14128D01*
X2386Y-7995D02*
X2590Y-8198D01*
Y-9200D02*
Y-8198D01*
X2095Y-9695D02*
X2590Y-9200D01*
X3831Y-7799D02*
X3834Y-7796D01*
X3153Y-8477D02*
X3831Y-7799D01*
X3046Y-8477D02*
X3153D01*
X2237Y-7995D02*
X2386D01*
X2236Y-7996D02*
X2237Y-7995D01*
X266Y-8913D02*
X962Y-9609D01*
Y-10691D02*
Y-9609D01*
X814Y-10838D02*
X962Y-10691D01*
X2095Y-10071D02*
Y-9695D01*
Y-10071D02*
X2262Y-10238D01*
X-235Y-8607D02*
X376Y-7996D01*
X-235Y-9043D02*
Y-8607D01*
Y-9043D02*
X42Y-9320D01*
X376Y-7996D02*
X1094D01*
X179Y-7799D02*
X1094D01*
X814Y-12509D02*
Y-10838D01*
Y-12509D02*
X1573Y-13268D01*
X2262Y-10238D02*
X3148D01*
X-4031Y-8031D02*
X-3796Y-7796D01*
X-3773Y-8305D02*
X-3370Y-7902D01*
X-4392Y-8305D02*
X-3773D01*
X-4749Y-8661D02*
X-4392Y-8305D01*
X-3091Y-8227D02*
Y-5734D01*
X-3630Y-8766D02*
X-3091Y-8227D01*
X-3906Y-8766D02*
X-3630D01*
X-5180Y-8031D02*
X-4031D01*
X-5741Y-8593D02*
X-5180Y-8031D01*
X-5741Y-8821D02*
Y-8593D01*
X-3101Y-9244D02*
X-2140Y-8283D01*
X-6885Y-9244D02*
X-3101D01*
X4628Y-10536D02*
X5033Y-10131D01*
X3445Y-10536D02*
X4628D01*
X3148Y-10238D02*
X3445Y-10536D01*
X-1936Y-10344D02*
X-1653Y-10627D01*
X-1936Y-10344D02*
Y-8904D01*
X111Y-7868D02*
X179Y-7799D01*
X1668Y-12078D02*
X1861Y-11886D01*
X1668Y-12675D02*
Y-12078D01*
X7261Y13151D02*
X7396Y13286D01*
X7874Y13634D02*
X8082Y13426D01*
X-14719Y7492D02*
X-13734Y8477D01*
X-1332Y9680D02*
X23Y8325D01*
X1905D01*
X2540Y8960D01*
X9258Y5712D02*
Y6654D01*
X11251Y1713D02*
X11333Y1795D01*
X9641Y-2637D02*
X9708Y-2704D01*
X10935Y-4007D02*
X11113Y-4184D01*
Y-8305D02*
Y-4184D01*
X10998Y-8420D02*
X11113Y-8305D01*
X4528Y-17769D02*
X4887Y-17409D01*
X7060Y-17499D02*
X8562D01*
X7058Y-17497D02*
X7060Y-17499D01*
X6739Y-17497D02*
X7058D01*
X6737Y-17499D02*
X6739Y-17497D01*
X6324Y-17499D02*
X6737D01*
X8562D02*
X8652Y-17409D01*
X6238Y-17413D02*
X6324Y-17499D01*
X5756Y-17413D02*
X6238D01*
X5752Y-17409D02*
X5756Y-17413D01*
X4887Y-17409D02*
X5752D01*
X5837Y-17217D02*
X6157D01*
X5624Y-17005D02*
X5837Y-17217D01*
X6157D02*
X6352Y-17022D01*
X12184Y3249D02*
X12611Y2822D01*
Y-15061D02*
Y2822D01*
X5997Y-16832D02*
X6109Y-16720D01*
X-8483Y-14296D02*
X-8476Y-14304D01*
X-346Y-1634D02*
X3675Y2387D01*
X-346Y-2311D02*
Y-1634D01*
X3675Y2387D02*
X5257D01*
X2761Y2059D02*
X3035Y2333D01*
X2761Y1911D02*
Y2059D01*
X3035Y2333D02*
X3223D01*
X-9138Y6323D02*
X4508D01*
X-16345Y8197D02*
Y8734D01*
X-16648Y9037D02*
X-16345Y8734D01*
X-17162Y9037D02*
X-16648D01*
X-3370Y-7902D02*
Y-5736D01*
X-6006Y-4430D02*
X-4876Y-5561D01*
X-6006Y-4430D02*
Y-4410D01*
X-4876Y-5561D02*
X-3471D01*
X-10972Y-9619D02*
X-10283Y-8930D01*
X-11878Y-2382D02*
X-9529D01*
X-11590Y-10238D02*
X-10972Y-9621D01*
Y-9619D01*
X5654Y-18220D02*
X6069Y-17805D01*
X5194Y-19274D02*
X5654Y-18814D01*
X3473Y-19274D02*
X5194D01*
X5654Y-18814D02*
Y-18220D01*
X11956Y3086D02*
X12405Y2637D01*
X11956Y3086D02*
Y7005D01*
X12184Y3249D02*
Y7079D01*
X11967Y7296D02*
X12184Y7079D01*
X11967Y7296D02*
Y7976D01*
X11580Y8086D02*
Y8594D01*
X10775Y9399D02*
X11580Y8594D01*
Y8086D02*
X11771Y7895D01*
X9668Y9950D02*
X11284Y8333D01*
Y6807D02*
Y8333D01*
Y6807D02*
X11475Y6617D01*
X11646Y9810D02*
X12162Y9293D01*
Y7435D02*
Y9293D01*
Y7435D02*
X12518Y7079D01*
X11860Y8083D02*
Y8844D01*
Y8083D02*
X11967Y7976D01*
X11771Y7190D02*
X11956Y7005D01*
X11771Y7190D02*
Y7895D01*
X-22670Y10782D02*
X-21575Y11877D01*
X-22670Y9508D02*
Y10782D01*
X-23348Y8831D02*
X-22670Y9508D01*
X-21575Y12475D02*
X-20943Y13107D01*
X-21575Y11877D02*
Y12475D01*
X-19083Y15604D02*
X-18950D01*
X-20943Y13744D02*
X-19083Y15604D01*
X-20943Y13107D02*
Y13744D01*
X-13253Y21300D02*
X-9258D01*
X-18950Y15604D02*
X-13253Y21300D01*
X11605Y21427D02*
X12370D01*
X11091Y21941D02*
X11605Y21427D01*
X12488Y21834D02*
X13500Y20822D01*
X11723Y21834D02*
X12488D01*
X10947Y22610D02*
X11723Y21834D01*
X9879Y21941D02*
X11091D01*
X10263Y22610D02*
X10947D01*
X9808Y23065D02*
X10263Y22610D01*
X8077Y23065D02*
X9808D01*
X21819Y11883D02*
X22522Y11180D01*
X21448Y11730D02*
X22151Y11027D01*
X21963Y9911D02*
X22138Y10086D01*
X22522Y10032D02*
Y11180D01*
X22509Y10019D02*
X22522Y10032D01*
X22151Y10186D02*
Y11027D01*
X22138Y10173D02*
X22151Y10186D01*
X22138Y10086D02*
Y10173D01*
X20705Y13599D02*
X21819Y12485D01*
X20326Y13453D02*
X21448Y12331D01*
Y11730D02*
Y12331D01*
X21819Y11883D02*
Y12485D01*
X18148Y13002D02*
X20422D01*
X17909Y13241D02*
X18148Y13002D01*
X21252Y11648D02*
Y12172D01*
X20422Y13002D02*
X21252Y12172D01*
X253Y24902D02*
X2391D01*
X4255Y24397D02*
X4778D01*
X5152Y24023D01*
X19007Y9685D02*
Y10019D01*
X17961Y8639D02*
X19007Y9685D01*
X17961Y8551D02*
Y8639D01*
X1982Y14151D02*
X2232Y13901D01*
X82Y14151D02*
X1982D01*
X-1090Y15570D02*
Y16123D01*
X9626Y21201D02*
Y21688D01*
X9122Y1134D02*
X9292Y1304D01*
X9096Y1107D02*
X9122Y1134D01*
X-21642Y8233D02*
X-20961Y7551D01*
X-21642Y8233D02*
Y9334D01*
X-20562Y10415D01*
X-17018Y8551D02*
X-16961D01*
X18206Y6797D02*
X18961Y7551D01*
X16742Y7332D02*
X16961Y7551D01*
X17441Y6024D02*
X20571D01*
X17126Y5709D02*
X17441Y6024D01*
X17126Y5669D02*
Y5709D01*
X-1733Y-17403D02*
X-1710Y-17380D01*
Y-16964D02*
X-1324Y-16579D01*
X1094Y-7602D02*
X1386D01*
X1583Y-7799D01*
X2236D01*
X-13024Y7828D02*
X-11215D01*
X16372Y12629D02*
X16915Y12086D01*
X16372Y12629D02*
Y12665D01*
X17648Y7551D02*
X17961D01*
X17162Y8037D02*
X17648Y7551D01*
X16147Y8037D02*
X17162D01*
X14858Y9326D02*
X16147Y8037D01*
X14190Y9326D02*
X14858D01*
X14336Y7332D02*
X16742D01*
X13570Y8561D02*
X13570D01*
X13496Y8487D02*
X13570Y8561D01*
X13570Y8098D02*
Y8561D01*
Y8098D02*
X14336Y7332D01*
X15911Y12859D02*
X17779Y14727D01*
X15175Y13103D02*
X15425Y12853D01*
X11148Y18808D02*
X15672Y14283D01*
X11148Y18808D02*
Y19625D01*
X11682Y20159D01*
X-18961Y7551D02*
X-18907D01*
X-18392Y8066D01*
X-17759D01*
X-17446Y8752D02*
X-17162Y9037D01*
X-17759Y8066D02*
X-17446Y8379D01*
Y8752D01*
X9292Y2116D02*
Y4311D01*
X12143Y-9401D02*
Y2444D01*
X11333Y3253D02*
X12143Y2444D01*
X11333Y3253D02*
Y5063D01*
X7406Y6494D02*
X7544D01*
X7157Y6742D02*
X7406Y6494D01*
X-24275Y3313D02*
X-24021Y3059D01*
X-24275Y3313D02*
Y6433D01*
X3033Y18611D02*
X4767D01*
X8402Y13901D02*
X8693Y13610D01*
X2232Y13901D02*
X7922D01*
X7958Y13866D01*
X8277D01*
X8312Y13901D01*
X8402D01*
X19698Y6288D02*
X20961Y7551D01*
X14620Y5832D02*
X15500D01*
X15956Y6288D01*
X19698D01*
X18920Y6511D02*
X19961Y7551D01*
X12762Y6511D02*
X18920D01*
X9668Y9950D02*
Y11575D01*
X9673Y12310D02*
X9844Y12481D01*
X9673Y11581D02*
Y12310D01*
X9668Y11575D02*
X9673Y11581D01*
X13321Y9389D02*
Y9389D01*
X-24275Y6433D02*
X-23424Y7284D01*
X-23348Y8831D02*
Y8831D01*
X-23424Y8754D02*
X-23348Y8831D01*
X-23424Y7284D02*
Y8754D01*
X5317Y6419D02*
X7073D01*
X8655Y8447D02*
X8734Y8526D01*
Y8854D01*
X7933Y6108D02*
X8202Y6377D01*
Y7035D01*
X7073Y6419D02*
X7384Y6108D01*
X7933D01*
X6858Y7724D02*
Y8077D01*
X-8382Y-17847D02*
X-7935Y-17400D01*
Y-16866D01*
X7296Y7683D02*
X7357Y7622D01*
X8004D01*
X8065Y7683D01*
X8850D01*
X9183Y8016D01*
X9851D01*
X9987Y7880D01*
X9699Y7095D02*
X9720D01*
X9987Y7362D02*
Y7880D01*
X9720Y7095D02*
X9987Y7362D01*
X9258Y6654D02*
X9699Y7095D01*
X8865Y5915D02*
Y6633D01*
X7803Y4853D02*
X8865Y5915D01*
X5717Y4853D02*
X7803D01*
X5409Y4545D02*
X5717Y4853D01*
X8865Y6633D02*
X9643Y7411D01*
X5409Y4128D02*
Y4545D01*
X8587Y6945D02*
X8853Y7211D01*
X8587Y6281D02*
Y6945D01*
X7355Y5048D02*
X8587Y6281D01*
X5636Y5048D02*
X7355D01*
X5213Y4626D02*
X5636Y5048D01*
X5213Y3731D02*
Y4626D01*
X13564Y9286D02*
X14569Y8280D01*
X11475Y9229D02*
X11860Y8844D01*
X13011Y8246D02*
Y8850D01*
Y8246D02*
X14461Y6797D01*
X18206D01*
X11646Y9810D02*
Y10244D01*
X12518Y7079D02*
X12895D01*
X13125Y7310D01*
Y7637D01*
X12626Y9105D02*
X12720Y9199D01*
X12626Y8136D02*
X13125Y7637D01*
X12626Y8136D02*
Y9105D01*
X12720Y9199D02*
Y9744D01*
X1094Y-7406D02*
Y-5932D01*
X1087Y-5924D02*
X1094Y-5932D01*
X1609Y-7367D02*
X1757Y-7515D01*
X1945D02*
X2030Y-7600D01*
X2072D01*
X1757Y-7515D02*
X1945D01*
X2236Y-7799D02*
X3831D01*
X4194Y-7406D02*
X4230Y-7441D01*
X6207Y7073D02*
X6858Y7724D01*
X5019Y6742D02*
X7157D01*
X5103Y6205D02*
X5317Y6419D01*
X4346Y6715D02*
X6118Y8487D01*
X-9611Y7073D02*
X-9057Y6519D01*
X4427D02*
X4981Y7073D01*
X6207D01*
X-13715Y6744D02*
X-9559D01*
X-9138Y6323D01*
X4508D02*
X4929Y6744D01*
X5452D01*
X-13556Y6205D02*
X-9296D01*
X-9219Y6128D01*
X4589D02*
X4666Y6205D01*
X5103D01*
X-9219Y6128D02*
X4589D01*
X-9057Y6519D02*
X4427D01*
X-8976Y6715D02*
X4346D01*
X-5428Y8993D02*
X-4363D01*
X-2483Y7113D01*
X-2469D01*
X-2785Y5754D02*
X-1560D01*
X-1530Y5723D01*
X-1769Y4345D02*
X-1091D01*
X21Y3233D01*
Y2685D02*
Y3233D01*
X-455Y2209D02*
X21Y2685D01*
X-859Y1626D02*
Y2931D01*
X-1664Y3735D02*
X-859Y2931D01*
X-2142Y3735D02*
X-1664D01*
X-2683Y4276D02*
X-2142Y3735D01*
X5409Y4128D02*
X5987Y3550D01*
X4735Y3434D02*
Y4334D01*
X-732Y-2151D02*
Y-1512D01*
X-712Y-2176D02*
Y-2151D01*
X5872Y-15568D02*
X5927D01*
X-7806Y-15284D02*
X-7357Y-15733D01*
X-7806Y-15284D02*
Y-14773D01*
X16961Y8551D02*
Y8682D01*
X18230Y9952D01*
Y10093D01*
X17169Y10603D02*
Y11289D01*
X15911Y12548D02*
X17169Y11289D01*
X15911Y12548D02*
Y12859D01*
X16336Y10606D02*
Y11758D01*
X15672Y12422D02*
X16336Y11758D01*
X15672Y12422D02*
Y14283D01*
X15583Y10582D02*
Y12204D01*
X15428Y12359D02*
X15583Y12204D01*
X15425Y12353D02*
Y12853D01*
Y12353D02*
X15488Y12291D01*
X12720Y9744D02*
X13220Y10244D01*
X19338Y11812D02*
X19395D01*
X16915Y12086D02*
X19121D01*
X19395Y11812D01*
X18230Y10093D02*
X18353Y9970D01*
X18385D01*
X21987Y6136D02*
Y6718D01*
X-13381Y4931D02*
X-13061D01*
X-13462Y4849D02*
X-13381Y4931D01*
X-14643Y4849D02*
X-13462D01*
X-7399Y8822D02*
Y8959D01*
X-12986Y9082D02*
X-8365D01*
X-13112Y8955D02*
X-12986Y9082D01*
X-17961Y8551D02*
X-16025Y10487D01*
X-15740D01*
X-15627Y10601D01*
X-16961Y7551D02*
X-16437Y7028D01*
X-14614D01*
X-16961Y8447D02*
Y8551D01*
Y8447D02*
X-15803Y7289D01*
X-14630D01*
X-14614Y7028D02*
X-14156Y7486D01*
X-10702Y7418D02*
X-10540Y7581D01*
X-14630Y7289D02*
X-14237Y7681D01*
X-13692D01*
X-13924Y7073D02*
X-9611D01*
X-13692Y7681D02*
X-13184Y8190D01*
X-12865D01*
X-12698Y8023D01*
X-11564D01*
X-10452Y8191D02*
X-8976Y6715D01*
X-11374Y8213D02*
X-11055D01*
X-11032Y8191D01*
X-10452D01*
X-11564Y8023D02*
X-11374Y8213D01*
X-13691Y7418D02*
X-10702D01*
X-13759Y7486D02*
X-13691Y7418D01*
X-14156Y7486D02*
X-13759D01*
X-16345Y8197D02*
X-15640Y7492D01*
X-14719D01*
X-19102Y4355D02*
X-17951Y5505D01*
X-9483Y5821D02*
X-9164D01*
X-3554Y5505D02*
X-3413Y5646D01*
X-3093D01*
X-3083Y5636D01*
X-2903D01*
X-2785Y5754D01*
X-4103Y5505D02*
X-3554D01*
X-17951D02*
X-9799D01*
X-9483Y5821D01*
X-4448Y5850D02*
X-4103Y5505D01*
X-9164Y5821D02*
X-9135Y5850D01*
X-4448D01*
X-10072Y-66D02*
X-9579Y427D01*
X-10298Y4062D02*
Y5022D01*
X-10506Y209D02*
X-10014Y701D01*
X-9579Y427D02*
X-8722D01*
X-7916Y-379D01*
X-5383Y-2912D02*
Y-1333D01*
X-7916Y-379D02*
X-6337D01*
X-5383Y-1333D01*
X-10014Y701D02*
X-8450D01*
X-7565Y-184D01*
X-6256D01*
X-5538Y-902D01*
X-4775D01*
X-4254Y-1422D01*
Y-2027D02*
Y-1422D01*
Y-2027D02*
X-4191Y-2090D01*
Y-2829D02*
Y-2090D01*
X-4199Y-2837D02*
X-4191Y-2829D01*
X-4199Y-3382D02*
Y-2837D01*
Y-3382D02*
X-3733Y-3848D01*
Y-3921D02*
Y-3848D01*
X-11553Y-1537D02*
X-10717D01*
X-10192Y-1012D01*
X-9462D01*
X-9355Y-1119D01*
X-6399Y4101D02*
Y5129D01*
X-7874Y2626D02*
X-6399Y4101D01*
X-8216Y3044D02*
X-7945D01*
X-7471Y3517D02*
Y3879D01*
X-7945Y3044D02*
X-7471Y3517D01*
X-8802Y2458D02*
X-8216Y3044D01*
X-7976Y2626D02*
X-7874D01*
X-8530Y2072D02*
X-7976Y2626D01*
X-8913Y2072D02*
X-8530D01*
X-9310Y1676D02*
X-8913Y2072D01*
X-9310Y1134D02*
Y1676D01*
Y1134D02*
X-9072Y896D01*
X-8369D01*
X-8155Y682D01*
X-6819D01*
X-24021Y3059D02*
X-19119D01*
X-16929Y5250D02*
X-12946D01*
X-19119Y3059D02*
X-18679Y3499D01*
Y4139D01*
X-18115Y4703D01*
X-17476D01*
X-16929Y5250D01*
X-20384Y3677D02*
X-19482D01*
X-23143Y5606D02*
X-21683D01*
X-23173Y5636D02*
X-23143Y5606D01*
X23539Y4155D02*
Y7840D01*
X22874Y3490D02*
X23539Y4155D01*
X21987Y6718D02*
X22090Y6820D01*
X7295Y23846D02*
X8077Y23065D01*
X9626Y21688D02*
X9879Y21941D01*
X12062Y20559D02*
X12961D01*
X13289Y20231D01*
X12370Y21427D02*
X13370Y20427D01*
X22682Y8668D02*
X22712D01*
X23539Y7840D01*
X22334Y9015D02*
X22682Y8668D01*
X22090Y6820D02*
Y8735D01*
X21963Y8862D02*
X22090Y8735D01*
X21963Y8862D02*
Y9911D01*
X22334Y9015D02*
Y9758D01*
X22509Y9933D01*
Y10019D01*
X21252Y11648D02*
X21955Y10946D01*
Y10267D02*
Y10946D01*
X13793Y20231D02*
X17779Y16246D01*
X13874Y20427D02*
X20326Y13975D01*
X13370Y20427D02*
X13874D01*
X13289Y20231D02*
X13793D01*
X13500Y20822D02*
X14004D01*
X-19388Y4355D02*
X-19102D01*
X-11758Y-1332D02*
X-11553Y-1537D01*
X-11758Y-1332D02*
Y239D01*
X-11192Y-345D02*
Y-50D01*
X-11367Y678D02*
X-10899Y209D01*
X-10506D01*
X-10900Y-66D02*
X-10072D01*
X-12273Y-1986D02*
Y-1914D01*
Y-1986D02*
X-11878Y-2382D01*
X-9529D02*
X-7056Y-4855D01*
X-4689Y-5175D02*
X-3631D01*
X-4752Y-5113D02*
X-4689Y-5175D01*
X7944Y2067D02*
X8046Y2168D01*
X1087Y-5924D02*
Y-5624D01*
X880Y-5417D02*
X1087Y-5624D01*
X1609Y-7367D02*
Y-5056D01*
X1814Y-4479D02*
X2413Y-5078D01*
Y-7406D02*
Y-5078D01*
Y-7406D02*
X4194D01*
X10586Y-9703D02*
Y-9433D01*
X8721Y-7568D02*
X10586Y-9433D01*
X8916Y-7299D02*
Y-6524D01*
X8721Y-7568D02*
Y-6605D01*
X6312Y-4197D02*
X8721Y-6605D01*
X6312Y-4197D02*
Y-1984D01*
X6545Y-4153D02*
X8916Y-6524D01*
X1376Y-4823D02*
X1609Y-5056D01*
X1273Y-4926D02*
X1376Y-4823D01*
X1273Y-5010D02*
Y-4926D01*
Y-5010D02*
X1337Y-5073D01*
X1385D01*
X-732Y-1512D02*
X-542Y-1322D01*
Y-1183D01*
X3884Y2583D02*
X4735Y3434D01*
X-542Y-1183D02*
X2326Y1685D01*
X2535D01*
X2761Y1911D01*
X3473Y2583D02*
X3884D01*
X3223Y2333D02*
X3473Y2583D01*
X1271Y-605D02*
X2972D01*
X5391Y1813D01*
X6545Y-4153D02*
Y-1922D01*
X6055Y-1727D02*
X6312Y-1984D01*
X5987Y3234D02*
Y3550D01*
X6250Y-1627D02*
X6545Y-1922D01*
X6111Y-1361D02*
X6250Y-1501D01*
Y-1627D02*
Y-1501D01*
X5915Y-1442D02*
X6055Y-1582D01*
X5915Y-1442D02*
Y1625D01*
X6055Y-1727D02*
Y-1582D01*
X5257Y2387D02*
X5308Y2438D01*
Y2555D01*
X5028Y-17005D02*
X5624D01*
X6352Y-17022D02*
X7991D01*
X-1653Y-10627D02*
X-871D01*
X-706Y-10463D01*
X5927Y-15568D02*
X7008Y-14487D01*
X5892Y-14859D02*
X6317D01*
X7008Y-14442D02*
X7234Y-14216D01*
X6317Y-14859D02*
X6812Y-14364D01*
Y-14361D01*
X7008Y-14487D02*
Y-14442D01*
X7234Y-14216D02*
X7279D01*
X-1514Y-3417D02*
X-1288Y-3191D01*
Y-3165D01*
X-1092Y-3272D02*
Y-3246D01*
X-1288Y-3165D02*
X-659Y-2537D01*
X-572D01*
X-1092Y-3246D02*
X-578Y-2732D01*
X-491D01*
X-896Y-3327D02*
X-497Y-2928D01*
X-410D01*
X-572Y-2537D02*
X-346Y-2311D01*
X-410Y-2928D02*
X378Y-2140D01*
X4824D01*
X5194Y-2510D01*
X297Y-1945D02*
X4905D01*
X5012Y-2052D01*
X5772D01*
X-491Y-2732D02*
X297Y-1945D01*
X-11458Y-13270D02*
X-11188Y-13000D01*
Y-12739D01*
X-11590Y-12336D02*
X-11188Y-12739D01*
X-11590Y-12336D02*
Y-10238D01*
X1573Y-13866D02*
Y-13268D01*
Y-21047D02*
Y-21040D01*
X1599Y-16876D02*
X1724Y-17001D01*
X1599Y-16876D02*
Y-13892D01*
X1573Y-13866D02*
X1599Y-13892D01*
X2246Y-16063D02*
Y-14023D01*
X1978Y-13755D02*
X2246Y-14023D01*
X1978Y-13755D02*
Y-12985D01*
X1668Y-12675D02*
X1978Y-12985D01*
X12405Y-12832D02*
Y2637D01*
X11434Y-12968D02*
X11582D01*
X8916Y-7299D02*
X10977Y-9360D01*
X10904Y-13313D02*
Y-10021D01*
X10586Y-9703D02*
X10904Y-10021D01*
X10977Y-9817D02*
X11100Y-9940D01*
X10977Y-9817D02*
Y-9360D01*
X11296Y-10248D02*
X12143Y-9401D01*
X11296Y-12682D02*
Y-10248D01*
Y-12682D02*
X11582Y-12968D01*
X11100Y-13399D02*
Y-9940D01*
X11259Y-13978D02*
X12405Y-12832D01*
X10717Y-13782D02*
X11100Y-13399D01*
X10630Y-13587D02*
X10904Y-13313D01*
X7587Y-13587D02*
X10630D01*
X7713Y-13782D02*
X10717D01*
X7279Y-14216D02*
X7713Y-13782D01*
X6812Y-14361D02*
X7587Y-13587D01*
X7393Y-14602D02*
Y-14405D01*
X7820Y-13978D01*
X11259D01*
X-896Y-3353D02*
Y-3327D01*
X-3471Y-5561D02*
X-1514Y-3604D01*
Y-3417D01*
X-3370Y-5736D02*
X-1318Y-3685D01*
Y-3498D01*
X-1092Y-3272D01*
X-3091Y-5734D02*
X-1122Y-3766D01*
Y-3579D01*
X-896Y-3353D01*
X6858Y8077D02*
X7229Y8447D01*
X8655D01*
G54D32*
X-14050Y15921D02*
X-11244Y18726D01*
Y18732D01*
X-14050Y14685D02*
Y15921D01*
X-11638Y18581D02*
Y19383D01*
X-14460Y15759D02*
X-11638Y18581D01*
X-14460Y14417D02*
Y15759D01*
X1909Y-17601D02*
X2414Y-18106D01*
X0Y-22974D02*
X2414Y-20560D01*
Y-18106D01*
X1909Y-17601D02*
Y-16924D01*
X10890Y13976D02*
X12114D01*
X10680Y13767D02*
X10890Y13976D01*
X10680Y12258D02*
Y13767D01*
X12371Y11571D02*
Y13719D01*
X12114Y13976D02*
X12371Y13719D01*
X0Y-23417D02*
Y-22974D01*
X-1638Y-13101D02*
X-956Y-12419D01*
X-6161Y-14971D02*
X-5808Y-15325D01*
X-6161Y-14971D02*
Y-13446D01*
X-6025Y-13310D01*
X-5816Y-13101D02*
X-1638D01*
X-6025Y-13310D02*
X-5816Y-13101D01*
X-10142Y-12838D02*
X-10006Y-12974D01*
X-14050Y14685D02*
X-13591Y14227D01*
X-14577Y14300D02*
X-14460Y14417D01*
X-10810Y666D02*
Y940D01*
X-11247Y1377D02*
X-10810Y940D01*
X-11247Y1377D02*
Y2606D01*
X-9858Y3995D01*
X12788Y11154D02*
X13688D01*
X12371Y11571D02*
X12788Y11154D01*
X13688D02*
X14675Y10166D01*
X20512Y13529D02*
Y14052D01*
X13927Y20637D02*
X20512Y14052D01*
X1162Y-10753D02*
Y-8966D01*
X956Y-8760D02*
X1162Y-8966D01*
X1026Y-10888D02*
X1162Y-10753D01*
X956Y-8760D02*
Y-8642D01*
X1026Y-12459D02*
Y-10888D01*
Y-12459D02*
X1759Y-13191D01*
X-6680Y-13310D02*
X-6025D01*
X-6962Y-13028D02*
X-6680Y-13310D01*
X-8616Y-11396D02*
X-8459Y-11553D01*
X-8616Y-11396D02*
Y-10390D01*
X-9001Y-10006D02*
X-8616Y-10390D01*
X-9001Y-10006D02*
Y-9400D01*
X8381Y17364D02*
X8573Y17557D01*
X-1268Y9353D02*
X-54Y8139D01*
X-2891Y9353D02*
X-1268D01*
X-54Y8139D02*
X2540D01*
X-2962Y9282D02*
X-2891Y9353D01*
X8485Y9634D02*
X9491Y8628D01*
X2540Y8139D02*
X2933Y8533D01*
X9739Y5552D02*
Y6720D01*
X-11508Y-8754D02*
X-11102Y-8347D01*
X-11508Y-8829D02*
Y-8754D01*
X-12007Y-9328D02*
X-11508Y-8829D01*
X10775Y9399D02*
Y9662D01*
X11653Y21641D02*
X12418D01*
X11168Y22127D02*
X11653Y21641D01*
X10371Y22127D02*
X11168D01*
X9619Y22879D02*
X10371Y22127D01*
X8000Y22879D02*
X9619D01*
X21634Y11806D02*
X22336Y11103D01*
X22148Y9835D02*
X22323Y10009D01*
X22336Y10109D02*
Y11103D01*
X22323Y10096D02*
X22336Y10109D01*
X22323Y10009D02*
Y10096D01*
X20512Y13529D02*
X21634Y12408D01*
Y11806D02*
Y12408D01*
X2735Y14202D02*
X8300D01*
X2620Y14087D02*
X2735Y14202D01*
X2309Y14087D02*
X2620D01*
X1601Y14795D02*
X2309Y14087D01*
X192Y14795D02*
X1601D01*
X-12365Y-11655D02*
X-12333D01*
X-12380D02*
X-12365D01*
X-12333D02*
X-12007Y-11329D01*
Y-9328D01*
Y-13841D02*
X-11967Y-13881D01*
X-9856Y3995D02*
X-9420Y4431D01*
X-9702Y3474D02*
Y3619D01*
Y3474D02*
X-9697Y3469D01*
X-10530Y2636D02*
X-9697Y3469D01*
X-9420Y4431D02*
Y5339D01*
X-9323Y5436D01*
X-11832Y-12667D02*
Y-9731D01*
X-11581Y-9481D01*
X-10530Y2630D02*
Y2636D01*
X-10142Y-12838D02*
Y-10430D01*
X2465Y14463D02*
X2568Y14567D01*
X2453Y15672D02*
X2733D01*
X-20265Y9986D02*
X-19962D01*
X-20961Y9290D02*
X-20265Y9986D01*
X-20961Y8551D02*
Y9290D01*
X-14577Y14218D02*
Y14300D01*
X17933Y5689D02*
X20787D01*
X17835Y5591D02*
X17933Y5689D01*
X5952Y24023D02*
X6391D01*
X11475Y9229D02*
Y9435D01*
X8214Y12310D02*
X8316D01*
X-956Y-12419D02*
X-933D01*
X-809Y-12295D01*
Y-12098D01*
X-661Y-11950D01*
X-9034Y3744D02*
Y4775D01*
X-7781Y5602D02*
X-4565D01*
X10145Y6561D02*
X10366Y6781D01*
X7844Y8007D02*
X8634D01*
X9079Y8452D01*
X9739Y6720D02*
X10190Y7172D01*
X9079Y8452D02*
X9748D01*
X10190Y8010D01*
X10188Y7384D02*
Y7798D01*
X9491Y8628D02*
X9821D01*
X10366Y8083D01*
Y6781D02*
Y8083D01*
X10188Y7384D02*
X10190Y7382D01*
Y7172D02*
Y7382D01*
X10188Y7798D02*
X10190Y7801D01*
Y8010D01*
X-2962Y8719D02*
Y9282D01*
X-2312Y8829D02*
X-1345D01*
X351Y3473D02*
X969D01*
X-897Y4720D02*
X351Y3473D01*
X-3015Y4609D02*
X-2983D01*
X-2872Y4720D02*
X-897D01*
X-2983Y4609D02*
X-2872Y4720D01*
X-3819Y3806D02*
X-3015Y4609D01*
X-3819Y1486D02*
Y3806D01*
X969Y3473D02*
X1472Y3976D01*
X7218Y-14558D02*
X7262Y-14602D01*
X7393D01*
X14675Y10166D02*
X17305D01*
X18173Y11034D01*
X19829D01*
X20210Y11415D01*
X20571Y10580D02*
X20598D01*
X20946Y10927D01*
X20433Y10441D02*
X20571Y10580D01*
X20433Y8752D02*
Y10441D01*
Y8752D02*
X20436Y8748D01*
Y8351D02*
Y8748D01*
X20433Y8347D02*
X20436Y8351D01*
X20433Y8347D02*
X20753Y8027D01*
X21344D01*
X21592Y7779D01*
Y5436D02*
Y7779D01*
X21575Y5419D02*
X21592Y5436D01*
X-9858Y3995D02*
X-9856D01*
X-10426Y2352D02*
X-9034Y3744D01*
X-10840Y2167D02*
Y2320D01*
X-10723Y1753D02*
X-10426Y2049D01*
X-10840Y2320D02*
X-10530Y2630D01*
X-10426Y2049D02*
Y2352D01*
X-8502Y4880D02*
X-7781Y5602D01*
X-8502Y3981D02*
Y4880D01*
X-9895Y2252D02*
Y2588D01*
X-8502Y3981D01*
X22275Y6487D02*
X22624Y6138D01*
X6391Y24023D02*
X7153Y23260D01*
X7619D01*
X8000Y22879D01*
X12418Y21641D02*
X13423Y20637D01*
X22275Y6487D02*
Y8812D01*
X22148Y8938D02*
X22275Y8812D01*
X22148Y8938D02*
Y9835D01*
X20210Y11415D02*
X20763D01*
X20946Y11232D01*
Y10927D02*
Y11232D01*
X13423Y20637D02*
X13927D01*
X-11133Y-8947D02*
Y-8930D01*
X-11581Y-9481D02*
Y-9395D01*
X-11133Y-8947D01*
X-11133Y-8930D02*
X-11133D01*
X-11133Y-8947D02*
Y-8930D01*
X1759Y-13789D02*
Y-13191D01*
X1784Y-16799D02*
X1909Y-16924D01*
X1784Y-16799D02*
Y-13815D01*
X1759Y-13789D02*
X1784Y-13815D01*
G54D33*
X-511Y-22875D02*
Y-22361D01*
X-394Y-22244D01*
X-512Y-23417D02*
Y-22958D01*
G54D34*
X-3417Y-14868D02*
X-2141D01*
X-4216Y-14743D02*
X-4071Y-14888D01*
X-3436D01*
X-8417Y10819D02*
X-7492D01*
X-12480Y11961D02*
Y13031D01*
X-13073Y10286D02*
Y11448D01*
X-12676Y11845D01*
Y11961D01*
X-12480D01*
X-16018Y11872D02*
X-14941Y10796D01*
X-18511Y11872D02*
X-16018D01*
X-4747Y16958D02*
X-4190D01*
X-5295Y16410D02*
X-4747Y16958D01*
X-5295Y15345D02*
Y16410D01*
Y15345D02*
X-4944Y14994D01*
X-6819Y-1747D02*
X-6385Y-2181D01*
X-13715Y9570D02*
X-11554D01*
X-1676Y946D02*
X-1508Y1114D01*
Y1701D01*
X-2436Y12492D02*
Y13429D01*
X-19839Y8673D02*
Y9022D01*
X-10992Y18068D02*
X-8018D01*
X-11462Y17598D02*
X-10992Y18068D01*
X10169Y10244D02*
X11646D01*
X-18926Y11014D02*
Y11680D01*
X-10793Y10024D02*
Y13236D01*
X-11554Y9570D02*
X-11100Y10024D01*
X-10793D01*
X-13950Y13250D02*
X-13731Y13031D01*
X-12480D01*
X-12062Y17153D02*
X-11462D01*
X-8018Y18068D02*
X-4944Y14994D01*
X-19961Y8551D02*
X-19839Y8673D01*
X-2819Y1486D02*
X-2604Y1701D01*
X-6819Y1486D02*
X-5819D01*
X-6819Y-1514D02*
X-5819D01*
X8441Y-10002D02*
X10016D01*
X-12041Y14581D02*
X-11316D01*
X-12623Y15163D02*
Y16592D01*
X-12062Y17153D01*
X-8369Y13202D02*
X-7802D01*
X-11462Y15753D02*
X-10793D01*
X-9856D01*
X-9801Y17208D02*
X-8271D01*
X-7541Y16478D01*
X-7802Y13202D02*
X-7541Y12941D01*
X-6881Y12281D01*
X-11679Y13832D02*
X-11316D01*
X-12480Y13031D02*
X-11679Y13832D01*
X-4944Y12796D02*
Y12919D01*
X-4371Y13492D01*
X-3779D01*
X-3763Y13508D01*
X-12480Y13031D02*
Y14769D01*
X-12355Y14894D01*
X-12623Y15163D02*
X-12355Y14894D01*
X-12041Y14581D01*
X-4944Y14994D02*
X-4352Y14401D01*
X-3956D01*
X-4944Y12919D02*
Y14994D01*
X-3875Y15558D02*
X-3155D01*
X-3123D02*
X-2175D01*
X-11462Y17153D02*
Y17598D01*
X-7541Y12941D02*
Y16478D01*
X8441Y-12841D02*
Y-11774D01*
X10016Y-12904D02*
Y-11774D01*
X11608Y15026D02*
X13207D01*
X11602Y13260D02*
X11646Y13217D01*
Y12016D02*
Y13217D01*
X13207Y12030D02*
Y13254D01*
Y12030D02*
X13220Y12016D01*
X-3510Y-13915D02*
X-3436Y-13989D01*
Y-14888D02*
X-3417Y-14868D01*
X-3436Y-14888D02*
Y-13989D01*
X-3226Y12813D02*
X-3155Y12884D01*
X-3226Y11610D02*
Y12813D01*
X-2436Y12492D02*
X-2029Y12084D01*
Y11310D02*
Y12084D01*
Y11310D02*
X-857D01*
X-720Y11173D01*
X-629D01*
X790Y9754D01*
Y8943D02*
Y9754D01*
X10382Y15031D02*
X11602D01*
X10241Y15173D02*
X10382Y15031D01*
X-18926Y11680D02*
X-18733Y11872D01*
X-18511D01*
X-5459Y12281D02*
X-4944Y12796D01*
X-5459Y11422D02*
Y12281D01*
X-9791Y15799D02*
X-8873D01*
X-7492Y10819D02*
X-7307Y10633D01*
Y10624D02*
Y10633D01*
Y10624D02*
X-6881Y10198D01*
Y9600D02*
Y10198D01*
X-6819Y682D02*
Y1118D01*
X8500Y-14671D02*
X9581D01*
X-2604Y1701D02*
X-1508D01*
X-5819Y1486D02*
Y2120D01*
X-5900Y2201D02*
X-5819Y2120D01*
X-6819Y-1747D02*
Y-1514D01*
X-6283Y-7539D02*
X-6241Y-7497D01*
Y-6158D01*
G54D35*
X-8417Y10819D02*
Y11602D01*
Y10276D02*
Y10819D01*
X-8936Y11806D02*
Y12514D01*
X-8446Y10247D02*
X-8417Y10276D01*
X-8733Y11602D02*
X-8417D01*
X-8936Y11806D02*
X-8733Y11602D01*
X5856Y17811D02*
X6983Y18938D01*
X4767Y17811D02*
X5856D01*
X3642D02*
X4767D01*
X-9153Y12730D02*
X-8936Y12514D01*
X-9153Y12730D02*
Y13384D01*
X-9595Y13825D02*
X-9153Y13384D01*
X-9855Y13825D02*
X-9595D01*
X-9994Y13687D02*
X-9855Y13825D01*
X-10169Y13687D02*
X-9994D01*
X3376Y18077D02*
X3642Y17811D01*
G54D36*
X-9355Y-1735D02*
X-5006Y-6084D01*
X-4309D01*
X-7498Y-11430D02*
Y-9857D01*
X-8520Y-12452D02*
X-7498Y-11430D01*
Y-9857D02*
X-6885Y-9244D01*
X-4309Y-6084D02*
X-3796Y-6597D01*
Y-7796D02*
Y-6597D01*
X-699Y12630D02*
X-176Y13153D01*
X6129D01*
X6131Y13151D02*
X7261D01*
X6129Y13153D02*
X6131Y13151D01*
X-437Y13634D02*
X7874D01*
X-785Y13287D02*
X-437Y13634D01*
X4425Y17364D02*
X8381D01*
X2733Y15672D02*
X4425Y17364D01*
X-10906Y8477D02*
X-10827Y8556D01*
X-13734Y8477D02*
X-10906D01*
X-7665Y8556D02*
X-7399Y8822D01*
X-10827Y8556D02*
X-7665D01*
X-3436Y9680D02*
X-1332D01*
X-3673Y9444D02*
X-3436Y9680D01*
X-3673Y8965D02*
Y9444D01*
X6618Y9634D02*
X8485D01*
X4629Y7645D02*
X6618Y9634D01*
X-161Y7645D02*
X4629D01*
X-1345Y8829D02*
X-161Y7645D01*
X4437Y8533D02*
X8214Y12310D01*
X2933Y8533D02*
X4437D01*
X8046Y4500D02*
X9258Y5712D01*
X8046Y2168D02*
Y4500D01*
X8843Y2025D02*
Y4657D01*
X3261Y-17769D02*
X4528D01*
X2728Y-17236D02*
X3261Y-17769D01*
X8652Y-17409D02*
X10259D01*
X12607Y-15061D01*
X6109Y-16720D02*
X7659D01*
X8185Y-16193D01*
X12080Y-14867D02*
Y-13896D01*
X10754Y-16193D02*
X12080Y-14867D01*
X8185Y-16193D02*
X10754D01*
X-12370Y-18153D02*
X-11971Y-18551D01*
X-12571Y-14018D02*
X-12370Y-14220D01*
X-8483Y-14296D02*
Y-13408D01*
X-8520Y-13371D02*
Y-12452D01*
X-8476Y-15205D02*
X-8058Y-15622D01*
X-8476Y-15205D02*
Y-14304D01*
X4757Y14567D02*
X6587Y16396D01*
X2568Y14567D02*
X4757D01*
X-1129Y12630D02*
X-699D01*
X-6689Y9025D02*
X-4825Y7161D01*
X-3527D01*
X-11174Y-18551D02*
X-10514Y-17892D01*
X-11971Y-18551D02*
X-11174D01*
X-12571Y-14018D02*
Y-13461D01*
X-12381Y-13270D01*
X-11458D01*
X-12370Y-18153D02*
Y-14220D01*
G54D37*
X-10133Y-9728D02*
X-9936Y-9531D01*
X-10138Y-8433D02*
Y-4237D01*
Y-8433D02*
X-9936Y-8635D01*
Y-9531D02*
Y-8635D01*
X-10095Y-4194D02*
Y-2780D01*
X-10138Y-4237D02*
X-10095Y-4194D01*
X-10133Y-9728D02*
Y-9728D01*
X-10624Y-10219D02*
X-10133Y-9728D01*
X-5403Y2798D02*
X-3949Y4252D01*
X11646Y11725D02*
Y12016D01*
X6735Y6101D02*
X7266Y5570D01*
X5451Y6101D02*
X6735D01*
X-10587Y-13441D02*
X-10477Y-13551D01*
X-10587Y-13441D02*
Y-12561D01*
X-10450Y-12425D01*
Y-10819D01*
X-10605Y-10665D02*
X-10450Y-10819D01*
X-10624Y-10646D02*
Y-10219D01*
X-10764Y-14371D02*
X-10477Y-14084D01*
X-10996Y-14371D02*
X-10764D01*
X-11613Y-14989D02*
X-10996Y-14371D01*
X-10477Y-14084D02*
Y-13551D01*
X11646Y11725D02*
X12399Y10971D01*
X4046Y5755D02*
X5106D01*
X5451Y6101D01*
X-3253Y5260D02*
X-3132Y5381D01*
X3672D02*
X4046Y5755D01*
X-3132Y5381D02*
X-1816D01*
X-1243D02*
X3672D01*
X-1714Y5279D02*
X-1345D01*
X-1816Y5381D02*
X-1714Y5279D01*
X-1345D02*
X-1243Y5381D01*
X-10095Y-2780D02*
X-9983D01*
X-7719Y1486D02*
X-6622Y2582D01*
X-7819Y1486D02*
X-7719D01*
G54D38*
X8843Y4657D02*
X9739Y5552D01*
G54D39*
X24Y21098D02*
X5142D01*
X2893Y22664D02*
X4372D01*
G54D40*
X12399Y7542D02*
Y10971D01*
G54D41*
X7350Y-3360D02*
D03*
Y-2360D02*
D03*
X-10995Y-12199D02*
D03*
Y-11199D02*
D03*
X20961Y8551D02*
D03*
X19961Y7551D02*
D03*
Y8551D02*
D03*
X18961Y7551D02*
D03*
Y8551D02*
D03*
X17961Y7551D02*
D03*
Y8551D02*
D03*
X16961Y7551D02*
D03*
Y8551D02*
D03*
X20961Y7551D02*
D03*
X-16961Y8551D02*
D03*
X-17961Y7551D02*
D03*
Y8551D02*
D03*
X-18961Y7551D02*
D03*
Y8551D02*
D03*
X-19961Y7551D02*
D03*
Y8551D02*
D03*
X-20961Y7551D02*
D03*
Y8551D02*
D03*
X-16961Y7551D02*
D03*
X-16929Y14567D02*
D03*
X-14808Y18102D02*
D03*
X-14101Y17395D02*
D03*
X-15515Y17395D02*
D03*
X-14808Y16688D02*
D03*
X-16222Y16688D02*
D03*
X-15515Y15981D02*
D03*
X-16929Y15981D02*
D03*
X-16222Y15274D02*
D03*
X-17636Y15274D02*
D03*
G54D42*
X-2559Y-9827D02*
D03*
Y-10827D02*
D03*
X-6496D02*
D03*
Y-9827D02*
D03*
X2559Y-10827D02*
D03*
Y-9827D02*
D03*
X6496D02*
D03*
Y-10827D02*
D03*
G54D43*
X14409Y16492D02*
D03*
X15116Y15785D02*
D03*
X13702Y17199D02*
D03*
X12995Y17907D02*
D03*
X15823Y15078D02*
D03*
X16956Y16174D02*
D03*
X14128Y19002D02*
D03*
X14835Y18295D02*
D03*
X16249Y16881D02*
D03*
X15542Y17588D02*
D03*
G54D44*
X12288Y18614D02*
D03*
X13421Y19709D02*
D03*
G54D45*
X-2819Y-1514D02*
D03*
X-3819D02*
D03*
X-4819D02*
D03*
X-5819D02*
D03*
X-6819D02*
D03*
X-7819D02*
D03*
X-8819D02*
D03*
X-9819D02*
D03*
X-2819Y1486D02*
D03*
X-3819D02*
D03*
X-4819D02*
D03*
X-5819D02*
D03*
X-6819D02*
D03*
X-7819D02*
D03*
X-8819D02*
D03*
X-9819D02*
D03*
X-9272Y22482D02*
D03*
Y19159D02*
D03*
X-9258Y21300D02*
D03*
X-9208Y20238D02*
D03*
G54D46*
X-11967Y-13881D02*
D03*
X-10967D02*
D03*
X-9967D02*
D03*
X-8967D02*
D03*
X-9156Y-12205D02*
D03*
X11357Y-1008D02*
D03*
X10357D02*
D03*
X11357Y-8D02*
D03*
X10357D02*
D03*
X11357Y992D02*
D03*
X10357D02*
D03*
X11560Y-7042D02*
D03*
X10560D02*
D03*
X11560Y-6042D02*
D03*
X10560D02*
D03*
X11560Y-5042D02*
D03*
X10560D02*
D03*
X-11673Y-16067D02*
D03*
X11811Y-11832D02*
D03*
G54D47*
X-7967Y-13881D02*
D03*
G54D48*
X-9156Y-11205D02*
D03*
X-11673Y-17067D02*
D03*
X11811Y-10832D02*
D03*
G54D49*
X8696Y-20027D02*
D03*
X7756Y-20369D02*
D03*
X6817Y-20711D02*
D03*
X7888Y-19257D02*
D03*
X6948Y-19599D02*
D03*
X6008Y-19941D02*
D03*
G54D50*
X-6378Y-20944D02*
D03*
X-7318Y-20602D02*
D03*
X-8258Y-20260D02*
D03*
X-6502Y-19835D02*
D03*
X-7442Y-19493D02*
D03*
X-8382Y-19151D02*
D03*
G54D51*
X-2008Y-23617D02*
D03*
Y-25074D02*
D03*
X2008D02*
D03*
Y-23617D02*
D03*
G54D52*
X-11417Y-19638D02*
D03*
X11417D02*
D03*
X17717Y3740D02*
D03*
X-17717D02*
D03*
G54D53*
X7350Y-1449D02*
D03*
X6858Y-559D02*
D03*
X-1772Y-22638D02*
D03*
X-5510Y-16550D02*
D03*
X-5808Y-15325D02*
D03*
X-4334Y-13974D02*
D03*
X-4836Y-17236D02*
D03*
X-5386Y-13950D02*
D03*
X-15627Y10601D02*
D03*
X5024Y-12019D02*
D03*
X-6006Y-4285D02*
D03*
X-11866Y3560D02*
D03*
X6009Y-13065D02*
D03*
X7226Y-12728D02*
D03*
X7510Y-12072D02*
D03*
X-706Y-10463D02*
D03*
X502Y-9803D02*
D03*
X956Y-8642D02*
D03*
X272Y-8801D02*
D03*
X42Y-11058D02*
D03*
X-3640Y-13732D02*
D03*
X-3601Y-11911D02*
D03*
X-6962Y-13028D02*
D03*
X-8254Y-11454D02*
D03*
X-8115Y-10336D02*
D03*
X-9001Y-9400D02*
D03*
X-6661Y-11993D02*
D03*
X3320Y-12411D02*
D03*
X-1936Y-8904D02*
D03*
X-265Y-7353D02*
D03*
X-1955Y-7280D02*
D03*
X-257Y-8351D02*
D03*
X-2746Y-12029D02*
D03*
X9763Y2251D02*
D03*
X-4531Y-7118D02*
D03*
X-9215Y-5225D02*
D03*
X-11133Y-8947D02*
D03*
X-13070Y8925D02*
D03*
X11475Y6617D02*
D03*
X20780Y11867D02*
D03*
X6785Y15483D02*
D03*
X-1676Y946D02*
D03*
X19007Y10019D02*
D03*
X8693Y13610D02*
D03*
X82Y14151D02*
D03*
X192Y14795D02*
D03*
X-12365Y-11655D02*
D03*
X-11832Y-12667D02*
D03*
X-9702Y3619D02*
D03*
X-13221Y4545D02*
D03*
X-9034Y4775D02*
D03*
X-10142Y-12997D02*
D03*
Y-10430D02*
D03*
X2465Y14463D02*
D03*
X975Y15690D02*
D03*
X-1090Y16123D02*
D03*
X6563Y16311D02*
D03*
X8573Y17557D02*
D03*
X2453Y15672D02*
D03*
X-19892Y9936D02*
D03*
X-5848Y16895D02*
D03*
X-6426Y18464D02*
D03*
X-19658Y13019D02*
D03*
X-13591Y14227D02*
D03*
X-11244Y18732D02*
D03*
X-11638Y19383D02*
D03*
X-14577Y14300D02*
D03*
X-6307Y14562D02*
D03*
X5018Y16833D02*
D03*
X9292Y4311D02*
D03*
X10165Y10241D02*
D03*
X10775Y9662D02*
D03*
X-20562Y10415D02*
D03*
X-13997Y7100D02*
D03*
X-8016Y-12749D02*
D03*
X-13950Y13250D02*
D03*
X6476Y4335D02*
D03*
X2874Y3937D02*
D03*
X2165D02*
D03*
X3910Y4327D02*
D03*
X-3813Y-2997D02*
D03*
X9626Y21201D02*
D03*
X5204Y21159D02*
D03*
X17126Y5669D02*
D03*
X17835Y5591D02*
D03*
X1338Y-17161D02*
D03*
X3191Y-18534D02*
D03*
X3780Y-23561D02*
D03*
X-3807Y-23694D02*
D03*
X-2618Y-19029D02*
D03*
X-4840Y-18018D02*
D03*
X11555Y-2466D02*
D03*
X-13024Y7804D02*
D03*
X8082Y13426D02*
D03*
X16372Y12665D02*
D03*
X15583Y10582D02*
D03*
X5269Y-18654D02*
D03*
X-1129Y12630D02*
D03*
X-944Y13225D02*
D03*
X7448Y13196D02*
D03*
X11475Y9435D02*
D03*
X16336Y10606D02*
D03*
X15175Y13103D02*
D03*
X11956Y20612D02*
D03*
X11494Y20109D02*
D03*
X17909Y13241D02*
D03*
X21752Y10246D02*
D03*
X-3673Y8965D02*
D03*
X-2962Y8719D02*
D03*
X7218Y12358D02*
D03*
X8316Y12310D02*
D03*
X6899Y-17883D02*
D03*
X3473Y-19274D02*
D03*
X6069Y-17805D02*
D03*
X5997Y-16832D02*
D03*
X12080Y-13896D02*
D03*
X11333Y1795D02*
D03*
X11333Y5063D02*
D03*
X9689Y-7297D02*
D03*
X9659Y-5223D02*
D03*
X-9895Y2252D02*
D03*
X-4607Y5464D02*
D03*
X-7471Y3879D02*
D03*
X9867Y17096D02*
D03*
X9809Y17805D02*
D03*
X2263Y16695D02*
D03*
X5953Y12729D02*
D03*
X8117Y14251D02*
D03*
X10241Y15173D02*
D03*
X-16119Y11080D02*
D03*
X-15087Y11961D02*
D03*
X-12564Y19786D02*
D03*
X10680Y12258D02*
D03*
X14620Y5832D02*
D03*
X12606Y6544D02*
D03*
X9844Y12481D02*
D03*
X785Y3976D02*
D03*
X1472D02*
D03*
X-1530Y5723D02*
D03*
X-3897Y4286D02*
D03*
X-3253Y5260D02*
D03*
X7347Y5586D02*
D03*
X-4360Y2715D02*
D03*
X7923Y10569D02*
D03*
X-1946Y-21508D02*
D03*
X-1727Y-18052D02*
D03*
X-1853Y-17378D02*
D03*
X6632Y5456D02*
D03*
X-11758Y-14998D02*
D03*
X-11622Y-18052D02*
D03*
X-9092Y-3482D02*
D03*
X6118Y8487D02*
D03*
X8734Y8854D02*
D03*
X7844Y8007D02*
D03*
X7544Y6494D02*
D03*
X8202Y7035D02*
D03*
X7296Y7683D02*
D03*
X10145Y6561D02*
D03*
X-8493Y-17094D02*
D03*
X-4749Y-8661D02*
D03*
X8762Y2038D02*
D03*
X-8382Y-17847D02*
D03*
X-3906Y-8766D02*
D03*
X-6037Y9454D02*
D03*
X-5428Y8993D02*
D03*
X5835Y4337D02*
D03*
X5892Y-14859D02*
D03*
X9560Y7481D02*
D03*
X4735Y4334D02*
D03*
X8853Y7211D02*
D03*
X14251Y9449D02*
D03*
X14595Y8184D02*
D03*
X13570Y8561D02*
D03*
X13435Y9404D02*
D03*
X13011Y8850D02*
D03*
X12633Y7547D02*
D03*
X-8461Y16508D02*
D03*
X-6813Y15399D02*
D03*
X-6689Y9025D02*
D03*
X-3299Y7117D02*
D03*
X-2469Y7113D02*
D03*
X-499Y-182D02*
D03*
X1169Y1522D02*
D03*
X-2312Y8829D02*
D03*
X-1769Y4345D02*
D03*
X-455Y2209D02*
D03*
X-859Y1626D02*
D03*
X-2683Y4276D02*
D03*
X6496Y-1201D02*
D03*
X5772Y-2052D02*
D03*
X8639Y-5573D02*
D03*
X-212Y-4157D02*
D03*
X336Y-3190D02*
D03*
X-732Y-2151D02*
D03*
X-2244Y-1995D02*
D03*
X-4577Y-2250D02*
D03*
X-6622Y2582D02*
D03*
X-9983Y-2780D02*
D03*
X2375Y2070D02*
D03*
X8233Y-15599D02*
D03*
X7393Y-14602D02*
D03*
X-7848Y-14773D02*
D03*
X18518Y15203D02*
D03*
X20443Y10955D02*
D03*
X19112Y4289D02*
D03*
X19205Y3408D02*
D03*
X17169Y10603D02*
D03*
X19395Y11812D02*
D03*
X18385Y9970D02*
D03*
X20660Y6187D02*
D03*
X20835Y5509D02*
D03*
X21987Y6136D02*
D03*
X22624Y6138D02*
D03*
X14575Y14179D02*
D03*
X14892Y10608D02*
D03*
X14158Y10084D02*
D03*
X-5741Y-8821D02*
D03*
X-14643Y4780D02*
D03*
X-7399Y8959D02*
D03*
X-8365Y9082D02*
D03*
X-14745Y10590D02*
D03*
X-13715Y9570D02*
D03*
X-10871Y1545D02*
D03*
X-10840Y2167D02*
D03*
X-10540Y7581D02*
D03*
X-11215Y7828D02*
D03*
X-14531Y8392D02*
D03*
X-9323Y5436D02*
D03*
X-15568Y5940D02*
D03*
X-19297Y5757D02*
D03*
X-10298Y5022D02*
D03*
X-10810Y666D02*
D03*
X10935Y-4007D02*
D03*
X10998Y-8420D02*
D03*
X-6011Y-3276D02*
D03*
X-5935Y2296D02*
D03*
X-6562Y-2201D02*
D03*
X-8104Y3429D02*
D03*
X-3788Y-3946D02*
D03*
X-6399Y5129D02*
D03*
X-8802Y2458D02*
D03*
X-19482Y3677D02*
D03*
X-23199Y5571D02*
D03*
X7295Y23846D02*
D03*
X-2305Y3173D02*
D03*
X3063Y2718D02*
D03*
X-19535Y4502D02*
D03*
X-11192Y-345D02*
D03*
X-12273Y-1914D02*
D03*
X-7118Y-4784D02*
D03*
X-4716Y-5175D02*
D03*
X-3631D02*
D03*
X7944Y2067D02*
D03*
X-1673Y-3031D02*
D03*
X-4592Y-4081D02*
D03*
X880Y-5417D02*
D03*
X2917Y-3007D02*
D03*
X8103Y-5065D02*
D03*
X1385Y-5073D02*
D03*
X5211Y-2445D02*
D03*
X5811Y-2668D02*
D03*
X1271Y-605D02*
D03*
X5308Y2555D02*
D03*
X5554Y1809D02*
D03*
X7231Y1737D02*
D03*
X-2230Y-8260D02*
D03*
X-8058Y-15622D02*
D03*
X-10514Y-17892D02*
D03*
X5673Y-15460D02*
D03*
X2728Y-17236D02*
D03*
X5028Y-17005D02*
D03*
X8113Y-17009D02*
D03*
X7515Y-16097D02*
D03*
X-1456Y-8346D02*
D03*
X-661Y-11950D02*
D03*
X-1388Y-10095D02*
D03*
X-240Y-4907D02*
D03*
X1733Y-4580D02*
D03*
X-11102Y-8347D02*
D03*
X-10381Y-8819D02*
D03*
X2246Y-16063D02*
D03*
X1861Y-11886D02*
D03*
X11582Y-12968D02*
D03*
M02*
