%FSLAX24Y24*%
%MOIN*%
G70*
G01*
G75*
G04 Layer_Color=8388736*
%ADD10R,0.0400X0.0500*%
%ADD11R,0.0800X0.0800*%
%ADD12R,0.0500X0.0400*%
%ADD13R,0.0394X0.0787*%
%ADD14R,0.0787X0.0394*%
%ADD15R,0.0433X0.0236*%
%ADD16R,0.0295X0.0118*%
%ADD17R,0.0870X0.0866*%
%ADD18R,0.1335X0.0772*%
%ADD19R,0.0787X0.1378*%
%ADD20R,0.0800X0.0800*%
%ADD21R,0.0394X0.0217*%
G04:AMPARAMS|DCode=22|XSize=90.6mil|YSize=295.3mil|CornerRadius=0mil|HoleSize=0mil|Usage=FLASHONLY|Rotation=167.000|XOffset=0mil|YOffset=0mil|HoleType=Round|Shape=Rectangle|*
%AMROTATEDRECTD22*
4,1,4,0.0773,0.1337,0.0109,-0.1540,-0.0773,-0.1337,-0.0109,0.1540,0.0773,0.1337,0.0*
%
%ADD22ROTATEDRECTD22*%

G04:AMPARAMS|DCode=23|XSize=90.6mil|YSize=295.3mil|CornerRadius=0mil|HoleSize=0mil|Usage=FLASHONLY|Rotation=192.000|XOffset=0mil|YOffset=0mil|HoleType=Round|Shape=Rectangle|*
%AMROTATEDRECTD23*
4,1,4,0.0136,0.1538,0.0750,-0.1350,-0.0136,-0.1538,-0.0750,0.1350,0.0136,0.1538,0.0*
%
%ADD23ROTATEDRECTD23*%

%ADD24R,0.0354X0.0591*%
%ADD25R,0.0236X0.0433*%
%ADD26R,0.0453X0.0591*%
%ADD27R,0.0157X0.0591*%
%ADD28C,0.0250*%
%ADD29C,0.0315*%
%ADD30C,0.0200*%
%ADD31C,0.0120*%
%ADD32C,0.0100*%
%ADD33C,0.0157*%
%ADD34C,0.0500*%
%ADD35C,0.0394*%
%ADD36C,0.0197*%
%ADD37C,0.0238*%
%ADD38C,0.0217*%
%ADD39C,0.0161*%
%ADD40C,0.0150*%
%ADD41C,0.0700*%
%ADD42C,0.0551*%
G04:AMPARAMS|DCode=43|XSize=99.4mil|YSize=60mil|CornerRadius=0mil|HoleSize=0mil|Usage=FLASHONLY|Rotation=45.000|XOffset=0mil|YOffset=0mil|HoleType=Round|Shape=Round|*
%AMOVALD43*
21,1,0.0394,0.0600,0.0000,0.0000,45.0*
1,1,0.0600,-0.0139,-0.0139*
1,1,0.0600,0.0139,0.0139*
%
%ADD43OVALD43*%

G04:AMPARAMS|DCode=44|XSize=99.4mil|YSize=60mil|CornerRadius=0mil|HoleSize=0mil|Usage=FLASHONLY|Rotation=45.000|XOffset=0mil|YOffset=0mil|HoleType=Round|Shape=Rectangle|*
%AMROTATEDRECTD44*
4,1,4,-0.0139,-0.0563,-0.0563,-0.0139,0.0139,0.0563,0.0563,0.0139,-0.0139,-0.0563,0.0*
%
%ADD44ROTATEDRECTD44*%

%ADD45C,0.0600*%
%ADD46C,0.0591*%
%ADD47R,0.0591X0.0591*%
%ADD48R,0.0591X0.0591*%
G04:AMPARAMS|DCode=49|XSize=60mil|YSize=99.4mil|CornerRadius=0mil|HoleSize=0mil|Usage=FLASHONLY|Rotation=20.000|XOffset=0mil|YOffset=0mil|HoleType=Round|Shape=Round|*
%AMOVALD49*
21,1,0.0394,0.0600,0.0000,0.0000,110.0*
1,1,0.0600,0.0067,-0.0185*
1,1,0.0600,-0.0067,0.0185*
%
%ADD49OVALD49*%

G04:AMPARAMS|DCode=50|XSize=60mil|YSize=99.4mil|CornerRadius=0mil|HoleSize=0mil|Usage=FLASHONLY|Rotation=340.000|XOffset=0mil|YOffset=0mil|HoleType=Round|Shape=Round|*
%AMOVALD50*
21,1,0.0394,0.0600,0.0000,0.0000,70.0*
1,1,0.0600,-0.0067,-0.0185*
1,1,0.0600,0.0067,0.0185*
%
%ADD50OVALD50*%

G04:AMPARAMS|DCode=51|XSize=86.6mil|YSize=63mil|CornerRadius=15.7mil|HoleSize=0mil|Usage=FLASHONLY|Rotation=90.000|XOffset=0mil|YOffset=0mil|HoleType=Round|Shape=RoundedRectangle|*
%AMROUNDEDRECTD51*
21,1,0.0866,0.0315,0,0,90.0*
21,1,0.0551,0.0630,0,0,90.0*
1,1,0.0315,0.0157,0.0276*
1,1,0.0315,0.0157,-0.0276*
1,1,0.0315,-0.0157,-0.0276*
1,1,0.0315,-0.0157,0.0276*
%
%ADD51ROUNDEDRECTD51*%
%ADD52C,0.1654*%
%ADD53C,0.0500*%
%ADD54R,0.0591X0.0354*%
%ADD55R,0.0315X0.0354*%
%ADD56R,0.2165X0.0787*%
%ADD57R,0.0866X0.0870*%
%ADD58R,0.0787X0.2165*%
%ADD59O,0.0217X0.0650*%
%ADD60O,0.0650X0.0217*%
%ADD61O,0.0118X0.0709*%
%ADD62O,0.0709X0.0118*%
%ADD63C,0.0120*%
%ADD64C,0.0080*%
%ADD65C,0.0020*%
%ADD66C,0.0079*%
%ADD67C,0.0039*%
%ADD68C,0.0020*%
%ADD69C,0.0061*%
%ADD70R,0.0480X0.0580*%
%ADD71R,0.0880X0.0880*%
%ADD72R,0.0580X0.0480*%
%ADD73R,0.0433X0.0827*%
%ADD74R,0.0827X0.0433*%
%ADD75R,0.0513X0.0316*%
%ADD76R,0.0335X0.0157*%
%ADD77R,0.0950X0.0946*%
%ADD78R,0.1374X0.0811*%
%ADD79R,0.1575X0.2165*%
%ADD80R,0.0880X0.0880*%
%ADD81R,0.0433X0.0256*%
G04:AMPARAMS|DCode=82|XSize=98.6mil|YSize=303.3mil|CornerRadius=0mil|HoleSize=0mil|Usage=FLASHONLY|Rotation=167.000|XOffset=0mil|YOffset=0mil|HoleType=Round|Shape=Rectangle|*
%AMROTATEDRECTD82*
4,1,4,0.0821,0.1367,0.0139,-0.1588,-0.0821,-0.1367,-0.0139,0.1588,0.0821,0.1367,0.0*
%
%ADD82ROTATEDRECTD82*%

G04:AMPARAMS|DCode=83|XSize=98.6mil|YSize=303.3mil|CornerRadius=0mil|HoleSize=0mil|Usage=FLASHONLY|Rotation=192.000|XOffset=0mil|YOffset=0mil|HoleType=Round|Shape=Rectangle|*
%AMROTATEDRECTD83*
4,1,4,0.0167,0.1586,0.0797,-0.1381,-0.0167,-0.1586,-0.0797,0.1381,0.0167,0.1586,0.0*
%
%ADD83ROTATEDRECTD83*%

%ADD84R,0.0434X0.0671*%
%ADD85R,0.0276X0.0472*%
%ADD86R,0.0492X0.0630*%
%ADD87R,0.0197X0.0630*%
%ADD88C,0.0780*%
G04:AMPARAMS|DCode=89|XSize=107.4mil|YSize=68mil|CornerRadius=0mil|HoleSize=0mil|Usage=FLASHONLY|Rotation=45.000|XOffset=0mil|YOffset=0mil|HoleType=Round|Shape=Round|*
%AMOVALD89*
21,1,0.0394,0.0680,0.0000,0.0000,45.0*
1,1,0.0680,-0.0139,-0.0139*
1,1,0.0680,0.0139,0.0139*
%
%ADD89OVALD89*%

G04:AMPARAMS|DCode=90|XSize=107.4mil|YSize=68mil|CornerRadius=0mil|HoleSize=0mil|Usage=FLASHONLY|Rotation=45.000|XOffset=0mil|YOffset=0mil|HoleType=Round|Shape=Rectangle|*
%AMROTATEDRECTD90*
4,1,4,-0.0139,-0.0620,-0.0620,-0.0139,0.0139,0.0620,0.0620,0.0139,-0.0139,-0.0620,0.0*
%
%ADD90ROTATEDRECTD90*%

%ADD91C,0.0680*%
%ADD92C,0.0671*%
%ADD93R,0.0671X0.0671*%
%ADD94R,0.0671X0.0671*%
%ADD95C,0.0080*%
G04:AMPARAMS|DCode=96|XSize=68mil|YSize=107.4mil|CornerRadius=0mil|HoleSize=0mil|Usage=FLASHONLY|Rotation=20.000|XOffset=0mil|YOffset=0mil|HoleType=Round|Shape=Round|*
%AMOVALD96*
21,1,0.0394,0.0680,0.0000,0.0000,110.0*
1,1,0.0680,0.0067,-0.0185*
1,1,0.0680,-0.0067,0.0185*
%
%ADD96OVALD96*%

G04:AMPARAMS|DCode=97|XSize=68mil|YSize=107.4mil|CornerRadius=0mil|HoleSize=0mil|Usage=FLASHONLY|Rotation=340.000|XOffset=0mil|YOffset=0mil|HoleType=Round|Shape=Round|*
%AMOVALD97*
21,1,0.0394,0.0680,0.0000,0.0000,70.0*
1,1,0.0680,-0.0067,-0.0185*
1,1,0.0680,0.0067,0.0185*
%
%ADD97OVALD97*%

G04:AMPARAMS|DCode=98|XSize=90.6mil|YSize=66.9mil|CornerRadius=17.7mil|HoleSize=0mil|Usage=FLASHONLY|Rotation=90.000|XOffset=0mil|YOffset=0mil|HoleType=Round|Shape=RoundedRectangle|*
%AMROUNDEDRECTD98*
21,1,0.0906,0.0315,0,0,90.0*
21,1,0.0551,0.0669,0,0,90.0*
1,1,0.0354,0.0157,0.0276*
1,1,0.0354,0.0157,-0.0276*
1,1,0.0354,-0.0157,-0.0276*
1,1,0.0354,-0.0157,0.0276*
%
%ADD98ROUNDEDRECTD98*%
%ADD99C,0.0630*%
%ADD100C,0.1734*%
%ADD101C,0.0580*%
G54D46*
X-2559Y-9827D02*
D03*
Y-10827D02*
D03*
X-6496D02*
D03*
Y-9827D02*
D03*
X2559Y-10827D02*
D03*
Y-9827D02*
D03*
X6496D02*
D03*
Y-10827D02*
D03*
G54D70*
X2994Y-8551D02*
D03*
X2194D02*
D03*
X-1883Y13898D02*
D03*
X-1083D02*
D03*
X5952Y24023D02*
D03*
X5152D02*
D03*
X-234Y-17203D02*
D03*
X-1034D02*
D03*
X655Y-13659D02*
D03*
X-145D02*
D03*
X-1181Y-22244D02*
D03*
X-381D02*
D03*
X-18126Y10335D02*
D03*
X-18926D02*
D03*
X20861Y10204D02*
D03*
X20061D02*
D03*
G54D71*
X-6241Y-6158D02*
D03*
X-7591D02*
D03*
X-6283Y-7539D02*
D03*
X-7633D02*
D03*
G54D72*
X-9215Y-7004D02*
D03*
Y-6204D02*
D03*
X-9004Y-7797D02*
D03*
Y-8597D02*
D03*
X9606Y18480D02*
D03*
Y19280D02*
D03*
X6983Y19738D02*
D03*
Y18938D02*
D03*
X7855Y-365D02*
D03*
Y435D02*
D03*
X9122Y334D02*
D03*
Y1134D02*
D03*
X-5081Y-10730D02*
D03*
Y-9930D02*
D03*
X-4177Y-10725D02*
D03*
Y-9925D02*
D03*
X4050Y-10931D02*
D03*
Y-10131D02*
D03*
X5033Y-10931D02*
D03*
Y-10131D02*
D03*
X3834Y-6996D02*
D03*
Y-7796D02*
D03*
X-11083Y-1176D02*
D03*
Y-1976D02*
D03*
X-1508Y1701D02*
D03*
Y2501D02*
D03*
X-1025Y15502D02*
D03*
Y14702D02*
D03*
X-8369Y14002D02*
D03*
Y13202D02*
D03*
X-8389Y15799D02*
D03*
Y14999D02*
D03*
X6142Y23169D02*
D03*
Y22369D02*
D03*
X4767Y17811D02*
D03*
Y18611D02*
D03*
X541Y-16918D02*
D03*
Y-16118D02*
D03*
X519Y-15387D02*
D03*
Y-14587D02*
D03*
X-943Y-13681D02*
D03*
Y-14481D02*
D03*
X20504Y3486D02*
D03*
Y4286D02*
D03*
X-22665Y3669D02*
D03*
Y4469D02*
D03*
X9708Y-2704D02*
D03*
Y-3504D02*
D03*
X8762Y-2664D02*
D03*
Y-3464D02*
D03*
G54D73*
X-2150Y24244D02*
D03*
X-1363D02*
D03*
X-575D02*
D03*
X212D02*
D03*
X999D02*
D03*
X1787D02*
D03*
X2574D02*
D03*
X3362D02*
D03*
Y17945D02*
D03*
X2574D02*
D03*
X1787D02*
D03*
X999D02*
D03*
X212D02*
D03*
X-575D02*
D03*
X-1363D02*
D03*
X-2150D02*
D03*
G54D74*
X3755Y23063D02*
D03*
Y22276D02*
D03*
Y21488D02*
D03*
Y20701D02*
D03*
Y19913D02*
D03*
Y19126D02*
D03*
G54D75*
X8760Y18936D02*
D03*
Y19310D02*
D03*
Y19684D02*
D03*
X7697D02*
D03*
Y18936D02*
D03*
G54D76*
X2236Y-7406D02*
D03*
Y-7602D02*
D03*
Y-7799D02*
D03*
Y-7996D02*
D03*
X1094D02*
D03*
Y-7799D02*
D03*
Y-7602D02*
D03*
Y-7406D02*
D03*
G54D77*
X10016Y-10002D02*
D03*
Y-11774D02*
D03*
X11602Y15031D02*
D03*
Y13260D02*
D03*
X10041Y-12929D02*
D03*
Y-14701D02*
D03*
X11646Y12016D02*
D03*
Y10244D02*
D03*
X8500Y-12900D02*
D03*
Y-14671D02*
D03*
X13220Y12016D02*
D03*
Y10244D02*
D03*
X8441Y-10002D02*
D03*
Y-11774D02*
D03*
X13207Y15026D02*
D03*
Y13254D02*
D03*
X-6794Y-15030D02*
D03*
Y-16802D02*
D03*
G54D78*
X790Y11624D02*
D03*
Y8943D02*
D03*
X-7197Y12556D02*
D03*
Y9875D02*
D03*
G54D79*
X-5572Y11310D02*
D03*
X-2029D02*
D03*
X-12480Y10819D02*
D03*
X-8936D02*
D03*
G54D80*
X-4145Y16973D02*
D03*
Y15573D02*
D03*
X-2157Y16976D02*
D03*
Y15576D02*
D03*
X-11804Y17099D02*
D03*
Y15699D02*
D03*
X-9843Y17126D02*
D03*
Y15726D02*
D03*
X-2465Y-16117D02*
D03*
Y-14717D02*
D03*
X-4216Y-16143D02*
D03*
Y-14743D02*
D03*
G54D81*
X-3643Y13653D02*
D03*
Y14401D02*
D03*
X-2580D02*
D03*
Y14027D02*
D03*
Y13653D02*
D03*
X-11316Y13832D02*
D03*
Y14581D02*
D03*
X-10253D02*
D03*
Y14206D02*
D03*
Y13832D02*
D03*
G54D82*
X-4613Y-23436D02*
D03*
X-3002Y-23808D02*
D03*
G54D83*
X3018Y-23794D02*
D03*
X4635Y-23450D02*
D03*
G54D84*
X21575Y3490D02*
D03*
Y5419D02*
D03*
X22874Y3490D02*
D03*
Y5419D02*
D03*
X-21683Y3677D02*
D03*
Y5606D02*
D03*
X-20384Y3677D02*
D03*
Y5606D02*
D03*
G54D85*
X-232Y-16481D02*
D03*
X-980D02*
D03*
Y-15379D02*
D03*
X-606D02*
D03*
X-232D02*
D03*
G54D86*
X-915Y-23417D02*
D03*
X915D02*
D03*
G54D87*
X-512D02*
D03*
X-256D02*
D03*
X0D02*
D03*
X256D02*
D03*
X512D02*
D03*
G54D88*
X7350Y-3360D02*
D03*
Y-2360D02*
D03*
X-10995Y-12199D02*
D03*
Y-11199D02*
D03*
X20961Y8551D02*
D03*
X19961Y7551D02*
D03*
Y8551D02*
D03*
X18961Y7551D02*
D03*
Y8551D02*
D03*
X17961Y7551D02*
D03*
Y8551D02*
D03*
X16961Y7551D02*
D03*
Y8551D02*
D03*
X20961Y7551D02*
D03*
X-16961Y8551D02*
D03*
X-17961Y7551D02*
D03*
Y8551D02*
D03*
X-18961Y7551D02*
D03*
Y8551D02*
D03*
X-19961Y7551D02*
D03*
Y8551D02*
D03*
X-20961Y7551D02*
D03*
Y8551D02*
D03*
X-16961Y7551D02*
D03*
X-16929Y14567D02*
D03*
X-14808Y18102D02*
D03*
X-14101Y17395D02*
D03*
X-15515Y17395D02*
D03*
X-14808Y16688D02*
D03*
X-16222Y16688D02*
D03*
X-15515Y15981D02*
D03*
X-16929Y15981D02*
D03*
X-16222Y15274D02*
D03*
X-17636Y15274D02*
D03*
G54D89*
X14409Y16492D02*
D03*
X15116Y15785D02*
D03*
X13702Y17199D02*
D03*
X12995Y17907D02*
D03*
X15823Y15078D02*
D03*
X16956Y16174D02*
D03*
X14128Y19002D02*
D03*
X14835Y18295D02*
D03*
X16249Y16881D02*
D03*
X15542Y17588D02*
D03*
G54D90*
X12288Y18614D02*
D03*
X13421Y19709D02*
D03*
G54D91*
X-2819Y-1514D02*
D03*
X-3819D02*
D03*
X-4819D02*
D03*
X-5819D02*
D03*
X-6819D02*
D03*
X-7819D02*
D03*
X-8819D02*
D03*
X-9819D02*
D03*
X-2819Y1486D02*
D03*
X-3819D02*
D03*
X-4819D02*
D03*
X-5819D02*
D03*
X-6819D02*
D03*
X-7819D02*
D03*
X-8819D02*
D03*
X-9819D02*
D03*
X-9272Y22482D02*
D03*
Y19159D02*
D03*
X-9258Y21300D02*
D03*
X-9208Y20238D02*
D03*
G54D92*
X-11967Y-13881D02*
D03*
X-10967D02*
D03*
X-9967D02*
D03*
X-8967D02*
D03*
X-9156Y-12205D02*
D03*
X-11673Y-16067D02*
D03*
X11811Y-11832D02*
D03*
G54D93*
X-7967Y-13881D02*
D03*
G54D94*
X-9156Y-11205D02*
D03*
X-11673Y-17067D02*
D03*
X11811Y-10832D02*
D03*
G54D95*
X10258Y-22119D02*
D03*
X6499Y-23487D02*
D03*
X-6527Y-23550D02*
D03*
X-10285Y-22182D02*
D03*
X-0Y-19638D02*
D03*
G54D96*
X8696Y-20027D02*
D03*
X7756Y-20369D02*
D03*
X6817Y-20711D02*
D03*
X7888Y-19257D02*
D03*
X6948Y-19599D02*
D03*
X6008Y-19941D02*
D03*
G54D97*
X-6378Y-20944D02*
D03*
X-7318Y-20602D02*
D03*
X-8258Y-20260D02*
D03*
X-6502Y-19835D02*
D03*
X-7442Y-19493D02*
D03*
X-8382Y-19151D02*
D03*
G54D98*
X-2008Y-23617D02*
D03*
Y-25074D02*
D03*
X2008D02*
D03*
Y-23617D02*
D03*
G54D99*
X11357Y-1008D02*
D03*
X10357D02*
D03*
X11357Y-8D02*
D03*
X10357D02*
D03*
X11357Y992D02*
D03*
X10357D02*
D03*
X11560Y-7042D02*
D03*
X10560D02*
D03*
X11560Y-6042D02*
D03*
X10560D02*
D03*
X11560Y-5042D02*
D03*
X10560D02*
D03*
G54D100*
X-11417Y-19638D02*
D03*
X11417D02*
D03*
X17717Y3740D02*
D03*
X-17717D02*
D03*
G54D101*
X7350Y-1449D02*
D03*
X6858Y-559D02*
D03*
X-1772Y-22638D02*
D03*
X-5510Y-16550D02*
D03*
X-5808Y-15325D02*
D03*
X-4334Y-13974D02*
D03*
X-4836Y-17236D02*
D03*
X-5386Y-13950D02*
D03*
X-15627Y10601D02*
D03*
X5024Y-12019D02*
D03*
X-6006Y-4285D02*
D03*
X-11866Y3560D02*
D03*
X6009Y-13065D02*
D03*
X7226Y-12728D02*
D03*
X7510Y-12072D02*
D03*
X-706Y-10463D02*
D03*
X502Y-9803D02*
D03*
X956Y-8642D02*
D03*
X272Y-8801D02*
D03*
X42Y-11058D02*
D03*
X-3640Y-13732D02*
D03*
X-3601Y-11911D02*
D03*
X-6962Y-13028D02*
D03*
X-8254Y-11454D02*
D03*
X-8115Y-10336D02*
D03*
X-9001Y-9400D02*
D03*
X-6661Y-11993D02*
D03*
X3320Y-12411D02*
D03*
X-1936Y-8904D02*
D03*
X-265Y-7353D02*
D03*
X-1955Y-7280D02*
D03*
X-257Y-8351D02*
D03*
X-2746Y-12029D02*
D03*
X9763Y2251D02*
D03*
X-4531Y-7118D02*
D03*
X-9215Y-5225D02*
D03*
X-11133Y-8947D02*
D03*
X-13070Y8925D02*
D03*
X11475Y6617D02*
D03*
X20780Y11867D02*
D03*
X6785Y15483D02*
D03*
X-1676Y946D02*
D03*
X19007Y10019D02*
D03*
X8693Y13610D02*
D03*
X82Y14151D02*
D03*
X192Y14795D02*
D03*
X-12365Y-11655D02*
D03*
X-11832Y-12667D02*
D03*
X-9702Y3619D02*
D03*
X-13221Y4545D02*
D03*
X-9034Y4775D02*
D03*
X-10142Y-12997D02*
D03*
Y-10430D02*
D03*
X2465Y14463D02*
D03*
X975Y15690D02*
D03*
X-1090Y16123D02*
D03*
X6563Y16311D02*
D03*
X8573Y17557D02*
D03*
X2453Y15672D02*
D03*
X-19892Y9936D02*
D03*
X-5848Y16895D02*
D03*
X-6426Y18464D02*
D03*
X-19658Y13019D02*
D03*
X-13591Y14227D02*
D03*
X-11244Y18732D02*
D03*
X-11638Y19383D02*
D03*
X-14577Y14300D02*
D03*
X-6307Y14562D02*
D03*
X5018Y16833D02*
D03*
X9292Y4311D02*
D03*
X10165Y10241D02*
D03*
X10775Y9662D02*
D03*
X-20562Y10415D02*
D03*
X-13997Y7100D02*
D03*
X-8016Y-12749D02*
D03*
X-13950Y13250D02*
D03*
X6476Y4335D02*
D03*
X2874Y3937D02*
D03*
X2165D02*
D03*
X3910Y4327D02*
D03*
X-3813Y-2997D02*
D03*
X9626Y21201D02*
D03*
X5204Y21159D02*
D03*
X17126Y5669D02*
D03*
X17835Y5591D02*
D03*
X1338Y-17161D02*
D03*
X3191Y-18534D02*
D03*
X3780Y-23561D02*
D03*
X-3807Y-23694D02*
D03*
X-2618Y-19029D02*
D03*
X-4840Y-18018D02*
D03*
X11555Y-2466D02*
D03*
X-13024Y7804D02*
D03*
X8082Y13426D02*
D03*
X16372Y12665D02*
D03*
X15583Y10582D02*
D03*
X5269Y-18654D02*
D03*
X-1129Y12630D02*
D03*
X-944Y13225D02*
D03*
X7448Y13196D02*
D03*
X11475Y9435D02*
D03*
X16336Y10606D02*
D03*
X15175Y13103D02*
D03*
X11956Y20612D02*
D03*
X11494Y20109D02*
D03*
X17909Y13241D02*
D03*
X21752Y10246D02*
D03*
X-3673Y8965D02*
D03*
X-2962Y8719D02*
D03*
X7218Y12358D02*
D03*
X8316Y12310D02*
D03*
X6899Y-17883D02*
D03*
X3473Y-19274D02*
D03*
X6069Y-17805D02*
D03*
X5997Y-16832D02*
D03*
X12080Y-13896D02*
D03*
X11333Y1795D02*
D03*
X11333Y5063D02*
D03*
X9689Y-7297D02*
D03*
X9659Y-5223D02*
D03*
X-9895Y2252D02*
D03*
X-4607Y5464D02*
D03*
X-7471Y3879D02*
D03*
X9867Y17096D02*
D03*
X9809Y17805D02*
D03*
X2263Y16695D02*
D03*
X5953Y12729D02*
D03*
X8117Y14251D02*
D03*
X10241Y15173D02*
D03*
X-16119Y11080D02*
D03*
X-15087Y11961D02*
D03*
X-12564Y19786D02*
D03*
X10680Y12258D02*
D03*
X14620Y5832D02*
D03*
X12606Y6544D02*
D03*
X9844Y12481D02*
D03*
X785Y3976D02*
D03*
X1472D02*
D03*
X-1530Y5723D02*
D03*
X-3897Y4286D02*
D03*
X-3253Y5260D02*
D03*
X7347Y5586D02*
D03*
X-4360Y2715D02*
D03*
X7923Y10569D02*
D03*
X-1946Y-21508D02*
D03*
X-1727Y-18052D02*
D03*
X-1853Y-17378D02*
D03*
X6632Y5456D02*
D03*
X-11758Y-14998D02*
D03*
X-11622Y-18052D02*
D03*
X-9092Y-3482D02*
D03*
X6118Y8487D02*
D03*
X8734Y8854D02*
D03*
X7844Y8007D02*
D03*
X7544Y6494D02*
D03*
X8202Y7035D02*
D03*
X7296Y7683D02*
D03*
X10145Y6561D02*
D03*
X-8493Y-17094D02*
D03*
X-4749Y-8661D02*
D03*
X8762Y2038D02*
D03*
X-8382Y-17847D02*
D03*
X-3906Y-8766D02*
D03*
X-6037Y9454D02*
D03*
X-5428Y8993D02*
D03*
X5835Y4337D02*
D03*
X5892Y-14859D02*
D03*
X9560Y7481D02*
D03*
X4735Y4334D02*
D03*
X8853Y7211D02*
D03*
X14251Y9449D02*
D03*
X14595Y8184D02*
D03*
X13570Y8561D02*
D03*
X13435Y9404D02*
D03*
X13011Y8850D02*
D03*
X12633Y7547D02*
D03*
X-8461Y16508D02*
D03*
X-6813Y15399D02*
D03*
X-6689Y9025D02*
D03*
X-3299Y7117D02*
D03*
X-2469Y7113D02*
D03*
X-499Y-182D02*
D03*
X1169Y1522D02*
D03*
X-2312Y8829D02*
D03*
X-1769Y4345D02*
D03*
X-455Y2209D02*
D03*
X-859Y1626D02*
D03*
X-2683Y4276D02*
D03*
X6496Y-1201D02*
D03*
X5772Y-2052D02*
D03*
X8639Y-5573D02*
D03*
X-212Y-4157D02*
D03*
X336Y-3190D02*
D03*
X-732Y-2151D02*
D03*
X-2244Y-1995D02*
D03*
X-4577Y-2250D02*
D03*
X-6622Y2582D02*
D03*
X-9983Y-2780D02*
D03*
X2375Y2070D02*
D03*
X8233Y-15599D02*
D03*
X7393Y-14602D02*
D03*
X-7848Y-14773D02*
D03*
X18518Y15203D02*
D03*
X20443Y10955D02*
D03*
X19112Y4289D02*
D03*
X19205Y3408D02*
D03*
X17169Y10603D02*
D03*
X19395Y11812D02*
D03*
X18385Y9970D02*
D03*
X20660Y6187D02*
D03*
X20835Y5509D02*
D03*
X21987Y6136D02*
D03*
X22624Y6138D02*
D03*
X14575Y14179D02*
D03*
X14892Y10608D02*
D03*
X14158Y10084D02*
D03*
X-5741Y-8821D02*
D03*
X-14643Y4780D02*
D03*
X-7399Y8959D02*
D03*
X-8365Y9082D02*
D03*
X-14745Y10590D02*
D03*
X-13715Y9570D02*
D03*
X-10871Y1545D02*
D03*
X-10840Y2167D02*
D03*
X-10540Y7581D02*
D03*
X-11215Y7828D02*
D03*
X-14531Y8392D02*
D03*
X-9323Y5436D02*
D03*
X-15568Y5940D02*
D03*
X-19297Y5757D02*
D03*
X-10298Y5022D02*
D03*
X-10810Y666D02*
D03*
X10935Y-4007D02*
D03*
X10998Y-8420D02*
D03*
X-6011Y-3276D02*
D03*
X-5935Y2296D02*
D03*
X-6562Y-2201D02*
D03*
X-8104Y3429D02*
D03*
X-3788Y-3946D02*
D03*
X-6399Y5129D02*
D03*
X-8802Y2458D02*
D03*
X-19482Y3677D02*
D03*
X-23199Y5571D02*
D03*
X7295Y23846D02*
D03*
X-2305Y3173D02*
D03*
X3063Y2718D02*
D03*
X-19535Y4502D02*
D03*
X-11192Y-345D02*
D03*
X-12273Y-1914D02*
D03*
X-7118Y-4784D02*
D03*
X-4716Y-5175D02*
D03*
X-3631D02*
D03*
X7944Y2067D02*
D03*
X-1673Y-3031D02*
D03*
X-4592Y-4081D02*
D03*
X880Y-5417D02*
D03*
X2917Y-3007D02*
D03*
X8103Y-5065D02*
D03*
X1385Y-5073D02*
D03*
X5211Y-2445D02*
D03*
X5811Y-2668D02*
D03*
X1271Y-605D02*
D03*
X5308Y2555D02*
D03*
X5554Y1809D02*
D03*
X7231Y1737D02*
D03*
X-2230Y-8260D02*
D03*
X-8058Y-15622D02*
D03*
X-10514Y-17892D02*
D03*
X5673Y-15460D02*
D03*
X2728Y-17236D02*
D03*
X5028Y-17005D02*
D03*
X8113Y-17009D02*
D03*
X7515Y-16097D02*
D03*
X-1456Y-8346D02*
D03*
X-661Y-11950D02*
D03*
X-1388Y-10095D02*
D03*
X-240Y-4907D02*
D03*
X1733Y-4580D02*
D03*
X-11102Y-8347D02*
D03*
X-10381Y-8819D02*
D03*
X2246Y-16063D02*
D03*
X1861Y-11886D02*
D03*
X11582Y-12968D02*
D03*
M02*
