M48
;Layer_Color=9474304
;FILE_FORMAT=2:4
INCH,TZ
;TYPE=PLATED
T1F00S00C0.0280
T2F00S00C0.0300
T3F00S00C0.0315
T5F00S00C0.0354
T6F00S00C0.0360
T7F00S00C0.0394
T8F00S00C0.0400
T9F00S00C0.1260
T10F00S00C0.1299
T11F00S00C0.3937
%
T01
X8113Y-17009
X8233Y-15599
X12080Y-13896
X11582Y-12968
X10998Y-8420
X7510Y-12072
X7226Y-12728
X6009Y-13065
X5892Y-14859
X5673Y-15460
X5997Y-16832
X6069Y-17805
X6899Y-17883
X5269Y-18654
X5028Y-17005
X2728Y-17236
X1338Y-17161
X2246Y-16063
X3191Y-18534
X3473Y-19274
X3780Y-23561
X-1772Y-22638
X-1946Y-21508
X-2618Y-19029
X-1727Y-18052
X-1853Y-17378
X-4836Y-17236
X-4840Y-18018
X-5510Y-16550
X-5808Y-15325
X-5386Y-13950
X-4334Y-13974
X-3640Y-13732
X-3601Y-11911
X-2746Y-12029
X-661Y-11950
X-706Y-10463
X-1388Y-10095
X-1936Y-8904
X-2230Y-8260
X-1456Y-8346
X-257Y-8351
X272Y-8801
X956Y-8642
X502Y-9803
X42Y-11058
X1861Y-11886
X3320Y-12411
X5024Y-12019
X7393Y-14602
X7515Y-16097
X-7848Y-14773
X-8016Y-12749
X-6962Y-13028
X-6661Y-11993
X-5741Y-8821
X-4749Y-8661
X-3906Y-8766
X-3807Y-23694
X-8382Y-17847
X-8493Y-17094
X-8058Y-15622
X-11758Y-14998
X-11832Y-12667
X-12365Y-11655
X-10142Y-10430
X-10381Y-8819
X-11133Y-8947
X-11102Y-8347
X-9001Y-9400
X-8115Y-10336
X-8254Y-11454
X-10142Y-12997
X-10514Y-17892
X-11622Y-18052
X-9215Y-5225
X-9092Y-3482
X-9983Y-2780
X-12273Y-1914
X-11192Y-345
X-10810Y666
X-10871Y1545
X-10840Y2167
X-9895Y2252
X-8802Y2458
X-8104Y3429
X-9702Y3619
X-9034Y4775
X-9323Y5436
X-10298Y5022
X-11866Y3560
X-13221Y4545
X-14643Y4780
X-15568Y5940
X-13997Y7100
X-19297Y5757
X-19535Y4502
X-19482Y3677
X-23199Y5571
X-6399Y5129
X-4607Y5464
X-3253Y5260
X-2683Y4276
X-1769Y4345
X-1530Y5723
X-2469Y7113
X-3299Y7117
X-3897Y4286
X-4360Y2715
X-5935Y2296
X-6622Y2582
X-7471Y3879
X-2305Y3173
X-455Y2209
X-859Y1626
X-1676Y946
X-499Y-182
X1271Y-605
X1169Y1522
X2375Y2070
X3063Y2718
X2874Y3937
X2165
X1472Y3976
X785
X3910Y4327
X4735Y4334
X5835Y4337
X6476Y4335
X6632Y5456
X7347Y5586
X7544Y6494
X7231Y1737
X5554Y1809
X5308Y2555
X6858Y-559
X6496Y-1201
X7350Y-1449
X5772Y-2052
X5811Y-2668
X5211Y-2445
X2917Y-3007
X1733Y-4580
X1385Y-5073
X880Y-5417
X-240Y-4907
X-212Y-4157
X336Y-3190
X-732Y-2151
X-2244Y-1995
X-1673Y-3031
X-3813Y-2997
X-3788Y-3946
X-4592Y-4081
X-4716Y-5175
X-3631
X-4531Y-7118
X-1955Y-7280
X-265Y-7353
X-6006Y-4285
X-6011Y-3276
X-6562Y-2201
X-4577Y-2250
X-7118Y-4784
X8103Y-5065
X8639Y-5573
X9659Y-5223
X9689Y-7297
X10935Y-4007
X11555Y-2466
X11333Y1795
X9763Y2251
X8762Y2038
X7944Y2067
X9292Y4311
X11333Y5063
X11475Y6617
X12606Y6544
X10145Y6561
X8853Y7211
X8202Y7035
X14620Y5832
X17126Y5669
X17835Y5591
X19112Y4289
X19205Y3408
X20835Y5509
X20660Y6187
X21987Y6136
X22624Y6138
X21752Y10246
X20443Y10955
X20780Y11867
X19395Y11812
X19007Y10019
X18385Y9970
X17169Y10603
X16336Y10606
X15583Y10582
X14892Y10608
X14158Y10084
X14251Y9449
X13435Y9404
X13011Y8850
X13570Y8561
X14595Y8184
X12633Y7547
X11475Y9435
X10775Y9662
X10165Y10241
X10680Y12258
X9844Y12481
X8316Y12310
X8082Y13426
X8693Y13610
X8117Y14251
X10241Y15173
X9867Y17096
X9809Y17805
X8573Y17557
X9626Y21201
X11956Y20612
X11494Y20109
X14575Y14179
X15175Y13103
X16372Y12665
X17909Y13241
X18518Y15203
X7923Y10569
X8734Y8854
X7844Y8007
X9560Y7481
X7296Y7683
X6118Y8487
X5953Y12729
X7218Y12358
X7448Y13196
X6785Y15483
X6563Y16311
X5018Y16833
X2263Y16695
X2453Y15672
X2465Y14463
X192Y14795
X82Y14151
X-944Y13225
X-1129Y12630
X-1090Y16123
X975Y15690
X-5848Y16895
X-6426Y18464
X-6813Y15399
X-6307Y14562
X-6037Y9454
X-5428Y8993
X-6689Y9025
X-7399Y8959
X-3673Y8965
X-2962Y8719
X-2312Y8829
X5204Y21159
X-8461Y16508
X-11244Y18732
X-11638Y19383
X-12564Y19786
X-13591Y14227
X-14577Y14300
X-13950Y13250
X-15087Y11961
X-14745Y10590
X-15627Y10601
X-16119Y11080
X-13715Y9570
X-13070Y8925
X-13024Y7804
X-11215Y7828
X-10540Y7581
X-8365Y9082
X-14531Y8392
X-19892Y9936
X-20562Y10415
X-19658Y13019
X7295Y23846
T02
X-9819Y-1514
X-8819
Y1486
X-9819
X-7819
X-6819
X-5819
X-4819
X-3819
X-2819
Y-1514
X-3819
X-4819
X-5819
X-6819
X-7819
X-9272Y19159
X-9208Y20238
X-9258Y21300
T03
X-6496Y-10827
Y-9827
X-2559
Y-10827
X2559
Y-9827
X6496
Y-10827
X-9272Y22482
T05
X11811Y-11832
Y-10832
X-7967Y-13881
X-8967
X-9967
X-10967
X-11967
X-11673Y-16067
Y-17067
X-9156Y-12205
Y-11205
T06
X16961Y7551
X17961
X18961
X19961
Y8551
X20961
Y7551
X18961Y8551
X17961
X16961
X-16961
X-17961
Y7551
X-18961
Y8551
X-19961
Y7551
X-20961
Y8551
X-16961Y7551
X-16929Y14567
Y15981
X-17636Y15274
X-16222Y15274
X-15515Y15981
Y17395
X-14808Y18102
X-14101Y17395
X-14808Y16688
X-16222Y16688
T07
X7756Y-20369
X7888Y-19257
X8696Y-20027
X6948Y-19599
X6817Y-20711
X6008Y-19941
X-6502Y-19835
X-6378Y-20944
X-7318Y-20602
X-7442Y-19493
X-8382Y-19151
X-8258Y-20260
X10560Y-7042
X11560
Y-6042
X10560
Y-5042
X11560
X11357Y-1008
X10357
Y-8
X11357
Y992
X10357
X14409Y16492
X13702Y17199
X12995Y17907
X12288Y18614
X13421Y19709
X14128Y19002
X14835Y18295
X15542Y17588
X16249Y16881
X16956Y16174
X15116Y15785
X15823Y15078
T08
X-10995Y-12199
Y-11199
X7350Y-3360
Y-2360
T09
X11417Y-19638
X-11417
X-17717Y3740
X17717
T10
X10258Y-22119
X6499Y-23487
X-6527Y-23550
X-10285Y-22182
T11
X-0Y-19638
M30
