%FSLAX24Y24*%
%MOIN*%
G70*
G01*
G75*
G04 Layer_Physical_Order=1*
G04 Layer_Color=255*
%ADD10R,0.0400X0.0500*%
G04:AMPARAMS|DCode=11|XSize=90.6mil|YSize=295.3mil|CornerRadius=0mil|HoleSize=0mil|Usage=FLASHONLY|Rotation=337.500|XOffset=0mil|YOffset=0mil|HoleType=Round|Shape=Rectangle|*
%AMROTATEDRECTD11*
4,1,4,-0.0983,-0.1191,0.0147,0.1537,0.0983,0.1191,-0.0147,-0.1537,-0.0983,-0.1191,0.0*
%
%ADD11ROTATEDRECTD11*%

%ADD12R,0.0354X0.0315*%
%ADD13R,0.0315X0.0354*%
%ADD14R,0.0500X0.0400*%
%ADD15R,0.0906X0.2953*%
G04:AMPARAMS|DCode=16|XSize=90.6mil|YSize=295.3mil|CornerRadius=0mil|HoleSize=0mil|Usage=FLASHONLY|Rotation=22.500|XOffset=0mil|YOffset=0mil|HoleType=Round|Shape=Rectangle|*
%AMROTATEDRECTD16*
4,1,4,0.0147,-0.1537,-0.0983,0.1191,-0.0147,0.1537,0.0983,-0.1191,0.0147,-0.1537,0.0*
%
%ADD16ROTATEDRECTD16*%

%ADD17R,0.0591X0.0354*%
G04:AMPARAMS|DCode=18|XSize=90.6mil|YSize=295.3mil|CornerRadius=0mil|HoleSize=0mil|Usage=FLASHONLY|Rotation=315.000|XOffset=0mil|YOffset=0mil|HoleType=Round|Shape=Rectangle|*
%AMROTATEDRECTD18*
4,1,4,-0.1364,-0.0724,0.0724,0.1364,0.1364,0.0724,-0.0724,-0.1364,-0.1364,-0.0724,0.0*
%
%ADD18ROTATEDRECTD18*%

G04:AMPARAMS|DCode=19|XSize=90.6mil|YSize=295.3mil|CornerRadius=0mil|HoleSize=0mil|Usage=FLASHONLY|Rotation=45.000|XOffset=0mil|YOffset=0mil|HoleType=Round|Shape=Rectangle|*
%AMROTATEDRECTD19*
4,1,4,0.0724,-0.1364,-0.1364,0.0724,-0.0724,0.1364,0.1364,-0.0724,0.0724,-0.1364,0.0*
%
%ADD19ROTATEDRECTD19*%

%ADD20R,0.0800X0.0800*%
%ADD21C,0.0197*%
%ADD22C,0.0157*%
%ADD23C,0.0315*%
%ADD24C,0.0100*%
%ADD25C,0.1575*%
%ADD26C,0.0700*%
%ADD27C,0.0600*%
%ADD28C,0.0669*%
%ADD29C,0.0500*%
G36*
X18864Y16018D02*
X18922Y15628D01*
X18799Y15504D01*
X18412Y15581D01*
X18381Y15658D01*
X18783Y16061D01*
X18864Y16018D01*
D02*
G37*
G36*
X4192Y16760D02*
X4273Y16638D01*
X4254Y16609D01*
X4200Y16339D01*
X4216Y16258D01*
X4049Y16055D01*
X3678Y16188D01*
Y16465D01*
X3751D01*
Y16741D01*
X3906Y16788D01*
X4192Y16760D01*
D02*
G37*
G36*
X1298Y17183D02*
X1182Y17010D01*
X1069Y16917D01*
Y16535D01*
Y16202D01*
X1085Y16206D01*
X1201Y16283D01*
X1265Y16288D01*
X1426Y16239D01*
D01*
X1426Y16239D01*
Y16239D01*
X1426D01*
D01*
Y16239D01*
D01*
D01*
X1426Y16239D01*
D01*
D01*
D01*
D01*
X1656D01*
Y16539D01*
X1896D01*
Y16239D01*
X2031D01*
X2031Y16239D01*
X2031Y16239D01*
X2126Y16239D01*
X2126D01*
X2309Y16191D01*
X2404Y16191D01*
X2404Y16191D01*
X2404Y16191D01*
X2467D01*
Y16449D01*
X2707D01*
Y16191D01*
X2718D01*
X2718Y16191D01*
X2718Y16191D01*
X2864Y16191D01*
D01*
Y16191D01*
X2864D01*
X3044Y16011D01*
Y15954D01*
X3044D01*
Y15562D01*
X2895Y15339D01*
X2740Y15212D01*
X2626Y15234D01*
X2450Y15199D01*
X2302Y15100D01*
X2202Y14951D01*
X2167Y14776D01*
X2202Y14600D01*
X2302Y14451D01*
X2450Y14352D01*
X2626Y14317D01*
X2802Y14352D01*
X2950Y14451D01*
X2964Y14471D01*
X3516D01*
X3632Y14494D01*
X3731Y14560D01*
X4129Y14959D01*
X4519Y14901D01*
X4623Y14707D01*
X4567Y14623D01*
X4536Y14468D01*
X4567Y14314D01*
X4655Y14182D01*
X4786Y14095D01*
X4941Y14064D01*
D01*
D01*
D01*
X4941Y14064D01*
X4941Y14064D01*
X5168Y14056D01*
Y13780D01*
X5168Y13780D01*
X5168Y13780D01*
X5168Y13658D01*
X5011Y13501D01*
X4728D01*
X4612Y13478D01*
X4513Y13412D01*
X4424Y13323D01*
X4295Y13349D01*
X4120Y13314D01*
X3971Y13214D01*
X3666Y13166D01*
X3666Y13166D01*
X3146Y13685D01*
X3054Y13747D01*
X2945Y13768D01*
X1484D01*
X1375Y13747D01*
X1283Y13685D01*
X772Y13174D01*
X424Y13359D01*
X436Y13417D01*
X833Y13815D01*
X899Y13913D01*
X922Y14030D01*
X922Y14030D01*
X922Y14030D01*
Y14030D01*
Y14748D01*
D01*
Y14748D01*
X922D01*
D01*
Y14748D01*
X922D01*
Y14748D01*
D01*
D01*
D01*
D01*
D01*
X922Y14748D01*
X899Y14864D01*
X877Y14897D01*
X877Y14897D01*
X833Y14963D01*
X833Y14963D01*
X147Y15649D01*
Y16532D01*
X481Y16740D01*
X619Y16672D01*
X616Y16655D01*
X829D01*
Y16868D01*
X812Y16865D01*
X696Y16788D01*
X669Y16747D01*
X293Y16861D01*
Y17632D01*
Y17728D01*
X1190D01*
X1298Y17183D01*
D02*
G37*
G36*
X19954Y15166D02*
Y14540D01*
X20396D01*
X20677Y14259D01*
X20569Y13998D01*
Y13618D01*
Y13341D01*
X20844D01*
Y13577D01*
X21208Y13728D01*
X21558Y13378D01*
Y12232D01*
X21127Y11802D01*
X21091Y11809D01*
X20915Y11774D01*
X20766Y11675D01*
X20667Y11526D01*
X20632Y11350D01*
X20667Y11175D01*
X20766Y11026D01*
X20915Y10927D01*
D01*
X21132Y10682D01*
X20942Y10554D01*
X20723Y10228D01*
X20647Y9843D01*
X20723Y9457D01*
X20750Y9418D01*
X20564Y9071D01*
X20266D01*
Y8571D01*
Y8071D01*
X20646D01*
Y8071D01*
X20884D01*
X20999Y7956D01*
D01*
D01*
Y7905D01*
X20772Y7677D01*
X19702D01*
X19628Y8064D01*
X19646Y8071D01*
D01*
X19674Y8071D01*
X19674Y8071D01*
X19674Y8071D01*
X20026D01*
Y8571D01*
Y9071D01*
X19674D01*
X19674Y9071D01*
X19674Y9071D01*
X19646Y9071D01*
D01*
X19396Y9171D01*
X19367Y9171D01*
X19367Y9171D01*
X19367Y9171D01*
X18196D01*
Y8875D01*
X17554D01*
Y9021D01*
X16334D01*
X16013Y9342D01*
Y11122D01*
X16093Y11242D01*
X16128Y11417D01*
X16121Y11454D01*
X16371Y11758D01*
X16443D01*
Y12058D01*
X16563D01*
Y12178D01*
X16913D01*
Y12180D01*
X16913Y12180D01*
X16913Y12180D01*
X16913Y12358D01*
X17013Y12458D01*
X17013Y12637D01*
X17013Y12637D01*
X17013Y12637D01*
Y13258D01*
X17013D01*
Y13585D01*
X17209D01*
Y13585D01*
X17439D01*
Y13885D01*
X17679D01*
Y13585D01*
X17746D01*
X17746Y13585D01*
X17746Y13585D01*
X17909Y13585D01*
X18024Y13470D01*
Y13241D01*
X19015D01*
Y13995D01*
X18187D01*
X18187Y13995D01*
X18187Y13995D01*
X18024Y13995D01*
X18009Y14285D01*
D01*
X18024Y14540D01*
D01*
X19015D01*
Y14860D01*
X19563Y15408D01*
X19587Y15403D01*
X19649Y15416D01*
X19954Y15166D01*
D02*
G37*
G36*
X5760Y14797D02*
X5818Y14408D01*
X5793Y14383D01*
X5400Y14402D01*
X5354Y14458D01*
X5487Y14829D01*
X5575Y14846D01*
X5616Y14874D01*
X5760Y14797D01*
D02*
G37*
G36*
X-7767Y15041D02*
X-7668Y14975D01*
X-7552Y14952D01*
X-6845D01*
X-6791Y14870D01*
X-6614Y14752D01*
X-6406Y14711D01*
X-6197Y14752D01*
X-6020Y14870D01*
X-5791D01*
X-5614Y14752D01*
X-5406Y14711D01*
X-5197Y14752D01*
X-5176Y14767D01*
X-4953Y14722D01*
X-4828Y14671D01*
X-4752Y14285D01*
X-4952Y14085D01*
X-5137D01*
X-5254Y14061D01*
X-5352Y13995D01*
X-5812Y13535D01*
X-5882Y13549D01*
X-6057Y13514D01*
X-6206Y13415D01*
X-6306Y13266D01*
X-6341Y13091D01*
X-6306Y12915D01*
X-6306Y12915D01*
Y12915D01*
Y12915D01*
X-6306Y12915D01*
X-6306D01*
X-6328Y12660D01*
X-6666Y12626D01*
X-7220Y13180D01*
X-7319Y13246D01*
X-7435Y13270D01*
X-8035D01*
X-8051Y13273D01*
X-8693D01*
X-9722Y14302D01*
X-9787Y14345D01*
X-9787Y14739D01*
X-9782Y14742D01*
X-9755Y14783D01*
X-9618D01*
X-9509Y14804D01*
X-9417Y14866D01*
X-9417Y14866D01*
X-9081Y14882D01*
X-9046Y14706D01*
X-8946Y14557D01*
X-8798Y14458D01*
X-8622Y14423D01*
X-8446Y14458D01*
X-8298Y14557D01*
X-8198Y14706D01*
X-8163Y14882D01*
X-8168Y14906D01*
X-7931Y15143D01*
X-7875Y15149D01*
X-7767Y15041D01*
D02*
G37*
G36*
X-1954Y15650D02*
X-1902D01*
X-1623Y15372D01*
Y15090D01*
X-1617Y15061D01*
X-1796Y14843D01*
X-1925Y14756D01*
X-2999D01*
Y14789D01*
X-2999D01*
Y15589D01*
Y15650D01*
X-2668D01*
Y15650D01*
X-1954D01*
Y15650D01*
D02*
G37*
G36*
X-11912Y22018D02*
X-11641Y21872D01*
X-11643Y21862D01*
X-11620Y21746D01*
X-11594Y21707D01*
Y21485D01*
X-11152D01*
X-10870Y21204D01*
X-10913Y21102D01*
X-10916Y21097D01*
X-10917Y21091D01*
X-10978Y20943D01*
Y20563D01*
Y20286D01*
X-10703D01*
Y20286D01*
X-10457D01*
X-10406Y20032D01*
X-10774Y19664D01*
X-10840Y19565D01*
X-10863Y19449D01*
Y19012D01*
X-10863Y19012D01*
X-10863D01*
X-10840Y18895D01*
X-10774Y18797D01*
X-10154Y18176D01*
X-10305Y17813D01*
X-10309D01*
Y17535D01*
X-10429D01*
Y17415D01*
X-10687D01*
Y17404D01*
X-10687Y17404D01*
X-10687Y17404D01*
X-10687Y17258D01*
X-10413Y17125D01*
D01*
X-10413Y17125D01*
Y16371D01*
X-9698D01*
Y16371D01*
X-9630D01*
X-9529Y16270D01*
Y15640D01*
X-9876Y15454D01*
X-9931Y15491D01*
X-10106Y15526D01*
X-10282Y15491D01*
X-10431Y15391D01*
X-10530Y15243D01*
X-10565Y15067D01*
X-10530Y14891D01*
X-10431Y14742D01*
X-10666Y14391D01*
X-11320D01*
Y14537D01*
X-12920D01*
Y14537D01*
X-13068D01*
X-13068Y14703D01*
X-13068Y14703D01*
X-13068Y14703D01*
Y15172D01*
X-13372D01*
X-13604Y15404D01*
X-13702Y15470D01*
X-13819Y15493D01*
X-15519D01*
X-15635Y15470D01*
X-15734Y15404D01*
X-16157Y14981D01*
X-16398D01*
X-16398Y14981D01*
X-16398Y14981D01*
X-16576Y14981D01*
X-16664Y14894D01*
X-17050Y14971D01*
X-17164Y15245D01*
X-16975Y15434D01*
X-16975D01*
X-16975Y15434D01*
X-16272Y16137D01*
X-15539D01*
X-15525Y16117D01*
X-15376Y16017D01*
X-15201Y15982D01*
X-15025Y16017D01*
X-14876Y16117D01*
X-14825Y16193D01*
X-14448Y16079D01*
Y15904D01*
X-14218D01*
Y16204D01*
X-14098D01*
Y16324D01*
X-13748D01*
Y16407D01*
X-12975D01*
X-12923Y16329D01*
X-12774Y16230D01*
X-12598Y16195D01*
X-12423Y16230D01*
X-12274Y16329D01*
X-12175Y16478D01*
X-12140Y16654D01*
X-12041Y16752D01*
X-12008Y16746D01*
X-11832Y16781D01*
X-11683Y16880D01*
X-11584Y17029D01*
X-11549Y17205D01*
X-11584Y17380D01*
X-11683Y17529D01*
X-11832Y17629D01*
X-12008Y17664D01*
X-12089Y17647D01*
X-12308Y17975D01*
X-12269Y18033D01*
X-12234Y18209D01*
X-12269Y18384D01*
X-12368Y18533D01*
X-12436Y18578D01*
Y19701D01*
X-12459Y19817D01*
X-12525Y19916D01*
X-12532Y19923D01*
X-12532Y20186D01*
X-12532D01*
Y20940D01*
X-13005D01*
X-13095Y21158D01*
X-12876Y21485D01*
X-12532D01*
Y21574D01*
X-12498Y21581D01*
X-12399Y21647D01*
X-12029Y22018D01*
X-11912D01*
D02*
G37*
G36*
X3563Y17595D02*
X3556Y17585D01*
X3526Y17434D01*
X3456Y17396D01*
X3028Y17311D01*
X2964Y17338D01*
Y17554D01*
X2964D01*
Y17564D01*
X2968Y17568D01*
X2968D01*
Y17909D01*
X3001Y17942D01*
X3246Y17942D01*
X3246Y17942D01*
X3246Y17942D01*
X3377D01*
X3563Y17595D01*
D02*
G37*
G36*
X-7310Y21609D02*
X-6030D01*
X-5934Y21513D01*
D01*
X-5834Y21413D01*
X-5834Y21235D01*
X-5834Y21235D01*
X-5834Y21235D01*
Y21233D01*
X-5134D01*
Y21235D01*
X-5134Y21235D01*
X-5134Y21235D01*
X-5134Y21413D01*
X-5034Y21513D01*
D01*
X-4939Y21609D01*
X-3807D01*
X-3537Y21339D01*
X-3541Y21319D01*
X-3507Y21143D01*
X-3407Y20994D01*
X-3258Y20895D01*
X-3083Y20860D01*
X-2907Y20895D01*
X-2758Y20994D01*
X-2691Y21095D01*
X-2315Y20980D01*
X-2315Y20908D01*
X-2315Y20908D01*
X-2315Y20908D01*
Y20907D01*
X-1965D01*
Y20667D01*
X-2315D01*
Y20487D01*
X-2315D01*
X-2315Y20327D01*
X-2318Y20322D01*
X-2321Y20305D01*
X-1988D01*
Y20185D01*
X-1868D01*
Y19852D01*
X-1852Y19855D01*
X-1494Y19698D01*
D01*
X-1494Y19698D01*
X-1593Y19550D01*
X-1628Y19374D01*
X-1593Y19198D01*
X-1494Y19050D01*
X-1345Y18950D01*
X-1169Y18915D01*
X-1169Y18915D01*
X-1169Y18915D01*
X-1141Y18912D01*
X-1046Y18781D01*
Y17991D01*
X-1224Y17980D01*
X-1497Y18109D01*
X-1513Y18191D01*
X-1613Y18340D01*
X-1761Y18440D01*
X-1937Y18475D01*
X-2077Y18447D01*
X-2167Y18521D01*
X-2273Y18679D01*
X-2681D01*
Y18799D01*
X-2801D01*
Y19149D01*
X-2803D01*
X-2803Y19149D01*
X-2803Y19149D01*
X-2981Y19149D01*
X-3081Y19249D01*
X-3259Y19249D01*
X-3259Y19249D01*
X-3259Y19249D01*
X-3881D01*
Y19249D01*
X-4011Y19170D01*
X-4042Y19187D01*
X-4042Y19187D01*
Y19187D01*
X-4191Y19286D01*
X-4366Y19321D01*
X-4542Y19286D01*
X-4691Y19187D01*
X-4790Y19038D01*
X-4807Y18950D01*
X-5199Y18989D01*
Y19248D01*
X-5212D01*
Y19571D01*
X-5212D01*
Y19801D01*
X-5512D01*
Y19921D01*
X-5632D01*
Y20271D01*
X-5633D01*
X-5633Y20271D01*
X-5633Y20271D01*
X-5812Y20271D01*
X-5912Y20371D01*
X-6090Y20371D01*
X-6090Y20371D01*
X-6090Y20371D01*
X-6712D01*
Y20131D01*
X-8059D01*
X-8175Y20108D01*
X-8274Y20042D01*
X-8409Y19907D01*
X-8728Y20226D01*
X-8596Y20544D01*
X-8566Y20589D01*
X-8319D01*
X-8202Y20613D01*
X-8104Y20679D01*
X-7956Y20826D01*
X-7927Y20832D01*
X-7778Y20931D01*
X-7678Y21080D01*
X-7644Y21256D01*
X-7661Y21345D01*
X-7383Y21624D01*
X-7310Y21609D01*
D02*
G37*
G36*
X-5497Y18437D02*
X-5339Y18243D01*
X-5346Y18209D01*
X-5315Y18054D01*
X-5315Y18054D01*
X-5227Y17923D01*
X-5286Y17904D01*
Y17421D01*
X-5526D01*
Y17841D01*
X-5575Y17831D01*
X-5679Y17761D01*
X-6026Y17947D01*
Y18320D01*
X-5899Y18448D01*
D01*
X-5891Y18456D01*
X-5497Y18437D01*
D02*
G37*
G36*
X-8820Y18745D02*
X-8820D01*
X-8787Y18712D01*
Y18371D01*
X-8714D01*
Y18191D01*
X-8992Y17913D01*
X-9156Y17913D01*
X-9377Y18134D01*
D01*
X-9377Y18134D01*
X-9400Y18250D01*
X-9422Y18284D01*
X-9422Y18284D01*
X-9466Y18349D01*
X-9466Y18349D01*
X-9498Y18381D01*
X-9498Y18381D01*
X-9347Y18745D01*
X-8820D01*
D01*
D02*
G37*
G36*
X6197Y16918D02*
X6197D01*
X6197Y16918D01*
D01*
X6254Y16609D01*
X6254D01*
X6254Y16609D01*
X6200Y16339D01*
X6254Y16069D01*
X6254Y16069D01*
X6254Y16069D01*
X6197Y15760D01*
D01*
X6197D01*
D01*
D01*
X6197Y15760D01*
D01*
X6020Y15641D01*
X6020D01*
Y15641D01*
X5903Y15613D01*
X5572Y15826D01*
X5531Y16029D01*
X5557Y16069D01*
X5611Y16339D01*
X5557Y16609D01*
X5557Y16609D01*
X5557Y16609D01*
X5614Y16918D01*
D01*
X5614Y16918D01*
X5614D01*
X5791Y17036D01*
X6020D01*
X6197Y16918D01*
D02*
G37*
G36*
X-5572Y16851D02*
X-5531Y16648D01*
X-5557Y16609D01*
X-5611Y16339D01*
X-5557Y16069D01*
X-5557Y16069D01*
X-5557Y16069D01*
X-5614Y15760D01*
D01*
X-5614D01*
D01*
D01*
X-5614Y15760D01*
D01*
X-5791Y15641D01*
X-6020D01*
X-6197Y15760D01*
D01*
X-6197Y15760D01*
D01*
D01*
X-6197D01*
D01*
X-6254Y16069D01*
X-6254D01*
X-6254Y16069D01*
X-6200Y16339D01*
X-6254Y16609D01*
X-6254Y16609D01*
X-6254Y16609D01*
X-6197Y16918D01*
D01*
X-6197Y16918D01*
X-6197D01*
X-6020Y17036D01*
X-6020D01*
Y17036D01*
X-5903Y17064D01*
X-5572Y16851D01*
D02*
G37*
G36*
X-7744Y17687D02*
X-7684Y17542D01*
X-8028Y17198D01*
X-8414Y17275D01*
X-8471Y17413D01*
X-8194Y17690D01*
X-8128Y17789D01*
X-8115Y17857D01*
X-7983Y17883D01*
X-7744Y17687D01*
D02*
G37*
G36*
X14919Y11475D02*
X15232Y11308D01*
X15245Y11242D01*
X15345Y11093D01*
X15404Y11053D01*
Y9216D01*
X15404Y9216D01*
X15404D01*
X15428Y9099D01*
X15494Y9001D01*
X15954Y8541D01*
Y8121D01*
X17554D01*
Y8267D01*
X18196D01*
X18196Y7971D01*
X18196D01*
Y7956D01*
X17917Y7677D01*
X14764D01*
Y11443D01*
X14866Y11486D01*
X14919Y11475D01*
D02*
G37*
G36*
X3743Y10740D02*
X3742Y10732D01*
X3777Y10557D01*
X3876Y10408D01*
X4025Y10308D01*
X4201Y10273D01*
D01*
D01*
D01*
X4201Y10273D01*
X4201Y10273D01*
D01*
X4201Y10273D01*
X4382Y10305D01*
Y9691D01*
X4324Y9632D01*
X3631Y9169D01*
X3304Y9388D01*
X3317Y9453D01*
X3274Y9667D01*
X3152Y9849D01*
Y10056D01*
X3274Y10238D01*
X3317Y10453D01*
X3274Y10667D01*
X3202Y10775D01*
X3406Y10942D01*
X3743Y10740D01*
D02*
G37*
G36*
X-3302Y10564D02*
X-3317Y10488D01*
X-3274Y10274D01*
X-3152Y10092D01*
Y9885D01*
X-3274Y9703D01*
X-3317Y9488D01*
X-3274Y9274D01*
X-3152Y9092D01*
Y8885D01*
X-3274Y8703D01*
X-3317Y8488D01*
X-3274Y8274D01*
X-3152Y8092D01*
X-2970Y7970D01*
X-2756Y7927D01*
X-2541Y7970D01*
X-2359Y8092D01*
X-2152D01*
X-1971Y7970D01*
X-1756Y7927D01*
X-1541Y7970D01*
X-1359Y8092D01*
D01*
X-1359Y8092D01*
X-1359Y8092D01*
X-1359Y8092D01*
Y8092D01*
X-1160Y8297D01*
X-806Y7942D01*
X-786Y7844D01*
X-687Y7695D01*
X-538Y7596D01*
X-362Y7561D01*
X-187Y7596D01*
X-86Y7663D01*
X142Y7555D01*
X274Y7446D01*
X280Y7390D01*
X228Y7131D01*
X179Y7081D01*
X102Y7097D01*
X-73Y7062D01*
X-222Y6962D01*
X-322Y6813D01*
X-356Y6638D01*
X-334Y6526D01*
X-465Y6366D01*
X-682Y6222D01*
X-1953D01*
X-4881Y9150D01*
Y9466D01*
X-4550Y9962D01*
X-4374Y9927D01*
X-4198Y9962D01*
X-4050Y10061D01*
X-4047Y10065D01*
X-4006Y10073D01*
X-3907Y10139D01*
X-3841Y10238D01*
X-3818Y10354D01*
Y10457D01*
X-3480Y10659D01*
X-3302Y10564D01*
D02*
G37*
G36*
X-18852Y16917D02*
X-20364Y15405D01*
X-20806D01*
Y14963D01*
X-21388Y14381D01*
X-21454Y14282D01*
X-21477Y14165D01*
X-21477Y14165D01*
X-21477D01*
X-21477Y14165D01*
X-21477D01*
Y13105D01*
X-21615D01*
Y12483D01*
X-21615Y12483D01*
X-21615Y12483D01*
X-21615Y12305D01*
X-21515Y12205D01*
X-21515Y12026D01*
X-21515Y12026D01*
X-21515Y12026D01*
Y12025D01*
X-20815D01*
Y12026D01*
X-20815Y12026D01*
X-20815Y12026D01*
X-20815Y12205D01*
X-20715Y12305D01*
Y12318D01*
X-20352Y12469D01*
D01*
X-20255Y12250D01*
Y12250D01*
X-20155Y12101D01*
X-20006Y12001D01*
X-19831Y11966D01*
X-19655Y12001D01*
X-19506Y12101D01*
X-19407Y12250D01*
X-19372Y12425D01*
X-19407Y12601D01*
X-19506Y12750D01*
X-19655Y12849D01*
X-19831Y12884D01*
X-19831Y12884D01*
X-19831Y12884D01*
X-19983Y12971D01*
X-19882Y13351D01*
X-19816D01*
Y14106D01*
X-20288D01*
X-20378Y14323D01*
X-20160Y14650D01*
X-19816D01*
Y15093D01*
X-18422Y16487D01*
X-17851Y15916D01*
X-17809Y15709D01*
X-18059Y15405D01*
X-18877D01*
Y14650D01*
X-17887D01*
X-17887Y14650D01*
Y14650D01*
X-17854Y14668D01*
X-17758Y14604D01*
X-17583Y14569D01*
X-17581Y14569D01*
X-17276Y14319D01*
Y14319D01*
X-17276Y14319D01*
X-17276Y14319D01*
X-17276Y14181D01*
X-17194Y14041D01*
X-17194Y13903D01*
X-17194Y13903D01*
X-17194Y13903D01*
Y13884D01*
X-16937D01*
Y13644D01*
X-17194D01*
Y13632D01*
X-17194Y13632D01*
X-17194Y13632D01*
X-17194Y13487D01*
X-16920Y13354D01*
D01*
X-16920Y13354D01*
Y12599D01*
X-16206D01*
Y12672D01*
X-13953D01*
X-13836Y12695D01*
X-13738Y12761D01*
X-13230Y13269D01*
X-13230Y13269D01*
X-13230Y13269D01*
X-13164Y13368D01*
X-13141Y13484D01*
Y13637D01*
X-12920D01*
Y13637D01*
X-11320D01*
Y13782D01*
X-10063D01*
X-9034Y12753D01*
X-8935Y12687D01*
X-8819Y12664D01*
X-8064D01*
X-8048Y12661D01*
X-7561D01*
X-7272Y12372D01*
X-7422Y12008D01*
X-14764D01*
Y7677D01*
X-24657D01*
X-24883Y8000D01*
X-22638Y14173D01*
X-19373Y17438D01*
X-18852Y16917D01*
D02*
G37*
G36*
X-2664Y6072D02*
X-2815Y5709D01*
X-5512D01*
Y8406D01*
X-5148Y8556D01*
X-2664Y6072D01*
D02*
G37*
G36*
X3600Y6939D02*
X3714Y6683D01*
X3252Y6222D01*
X886D01*
X721Y6332D01*
X682Y6724D01*
X906Y6948D01*
X3217D01*
X3333Y6971D01*
X3432Y7037D01*
X3494Y7040D01*
X3600Y6939D01*
D02*
G37*
G36*
X5512Y6770D02*
Y5709D01*
X4114D01*
X3963Y6072D01*
X4299Y6408D01*
X4348Y6482D01*
X4431Y6427D01*
X4606Y6392D01*
X4782Y6427D01*
X4931Y6526D01*
X5030Y6675D01*
X5034Y6695D01*
X5398Y6846D01*
X5512Y6770D01*
D02*
G37*
G36*
X-4709Y13499D02*
X-4709Y13499D01*
X-4614Y13480D01*
X-4576Y13424D01*
X-4428Y13324D01*
X-4252Y13289D01*
X-4076Y13324D01*
X-4076Y13324D01*
D01*
X-3918Y12995D01*
X-3941Y12879D01*
Y12879D01*
X-3918Y12762D01*
X-3852Y12664D01*
X-3669Y12481D01*
Y11590D01*
X-4290Y10969D01*
X-4428Y10983D01*
X-4856Y11268D01*
X-4881Y11305D01*
Y12102D01*
X-4904Y12219D01*
X-4970Y12317D01*
X-5135Y12483D01*
X-5234Y12549D01*
X-5350Y12572D01*
D01*
X-5350Y12572D01*
D01*
D01*
D01*
X-5458Y12915D01*
X-5430Y13057D01*
X-5011Y13476D01*
X-4826D01*
X-4709Y13499D01*
X-4709Y13499D01*
D02*
G37*
G36*
X25000Y12008D02*
Y7677D01*
X24398D01*
Y7677D01*
Y7905D01*
X24398Y7956D01*
X24398Y7956D01*
X24398Y7956D01*
Y9105D01*
X22766D01*
X22580Y9452D01*
X22584Y9457D01*
X22660Y9843D01*
X22584Y10228D01*
X22365Y10554D01*
X22039Y10773D01*
X21654Y10849D01*
X21415Y11026D01*
X21415Y11026D01*
X21514Y11175D01*
X21549Y11350D01*
X21547Y11361D01*
X22077Y11891D01*
X22077Y11891D01*
X22077Y11891D01*
X22143Y11990D01*
X22166Y12106D01*
Y13504D01*
Y13504D01*
Y13504D01*
X22166D01*
D01*
D01*
X22166Y13504D01*
D01*
D01*
D01*
D01*
X22166Y13504D01*
X22143Y13620D01*
X22121Y13654D01*
X22121Y13654D01*
X22077Y13719D01*
X22077Y13719D01*
X20944Y14852D01*
Y15294D01*
X20166D01*
X19980Y15642D01*
X20011Y15687D01*
X20045Y15862D01*
X20011Y16038D01*
X19911Y16187D01*
X19762Y16286D01*
X19587Y16321D01*
X19574Y16318D01*
X19388Y16666D01*
X19865Y17143D01*
X25000Y12008D01*
D02*
G37*
G36*
X11441Y14609D02*
X11532Y14518D01*
X11882D01*
Y14398D01*
X12002D01*
Y14065D01*
X12018Y14068D01*
X12134Y14145D01*
X12212Y14261D01*
X12228Y14345D01*
X12420D01*
X12694Y14212D01*
D01*
X12694Y14212D01*
Y13537D01*
X10489D01*
X10338Y13900D01*
X11047Y14609D01*
X11441D01*
D02*
G37*
G36*
X14178Y14607D02*
Y14607D01*
X14231Y14607D01*
Y14139D01*
X13783D01*
Y14139D01*
Y14245D01*
Y14329D01*
X14061Y14607D01*
X14178D01*
D02*
G37*
G36*
X8285Y15959D02*
X8486Y15875D01*
X8486Y15875D01*
Y15875D01*
X8486D01*
X8486D01*
X8486Y15875D01*
X8661Y15840D01*
D01*
D01*
D01*
X8661Y15840D01*
X8661Y15840D01*
D01*
D01*
X8857Y15865D01*
Y15294D01*
Y14494D01*
X8886D01*
Y14111D01*
X8769Y14088D01*
X8671Y14022D01*
X8150Y13501D01*
X8002D01*
X7507Y13832D01*
X7541Y14008D01*
X7507Y14183D01*
X7407Y14332D01*
X7258Y14432D01*
X7083Y14467D01*
X6907Y14432D01*
X6907Y14432D01*
X6907Y14432D01*
X6859Y14436D01*
X6795Y14516D01*
X6730Y14765D01*
X6743Y14838D01*
X6791Y14870D01*
X6845Y14952D01*
X6929D01*
X7046Y14975D01*
X7144Y15041D01*
X7865Y15761D01*
X8285D01*
Y15959D01*
D01*
X8285Y15959D01*
D02*
G37*
G36*
X1220Y12327D02*
X1238Y12238D01*
X1359Y12056D01*
Y11849D01*
X1238Y11667D01*
X1195Y11453D01*
X1238Y11238D01*
X1359Y11056D01*
X1541Y10935D01*
X1541Y10935D01*
X1431Y10777D01*
X1431Y10777D01*
X1431D01*
X1332Y10628D01*
X1321Y10573D01*
X1756D01*
Y10333D01*
X1321D01*
X1332Y10277D01*
X1431Y10128D01*
X1580Y10029D01*
X1580Y10029D01*
X1431Y9777D01*
X1431Y9777D01*
X1431D01*
X1332Y9628D01*
X1321Y9573D01*
X1756D01*
Y9333D01*
X1321D01*
X1332Y9277D01*
X1431Y9128D01*
D01*
X1431Y9128D01*
X1431D01*
X1431Y9128D01*
X1359Y8849D01*
D01*
X1238Y8667D01*
X1202Y8486D01*
X1053Y8424D01*
X785Y8371D01*
X703Y8426D01*
X685Y8447D01*
X719Y8614D01*
X684Y8790D01*
X584Y8939D01*
X533Y8973D01*
Y9599D01*
X553Y9613D01*
X652Y9761D01*
X687Y9937D01*
X652Y10113D01*
X553Y10261D01*
X404Y10361D01*
X228Y10396D01*
X228Y10396D01*
X228Y10396D01*
X94Y10485D01*
X89Y10510D01*
X-10Y10659D01*
X-159Y10759D01*
X-335Y10793D01*
X-510Y10759D01*
X-826Y11231D01*
Y12159D01*
X-717Y12268D01*
X-445Y12322D01*
X-226Y11995D01*
X-271Y11928D01*
X-274Y11911D01*
X392D01*
X389Y11928D01*
X512Y12228D01*
D01*
X512Y12228D01*
X621Y12249D01*
X713Y12311D01*
X843Y12441D01*
X1220Y12327D01*
D02*
G37*
G36*
X16134Y14005D02*
X16259Y13818D01*
Y13358D01*
X16137Y13258D01*
X16113D01*
Y13258D01*
X16113Y13258D01*
X16030Y13217D01*
X15710Y13368D01*
Y13620D01*
Y13906D01*
X15971Y14029D01*
X16134Y14005D01*
D02*
G37*
G36*
X-15412Y14257D02*
X-15318Y14239D01*
X-15310Y14226D01*
X-15211Y14160D01*
X-15094Y14137D01*
X-14609D01*
Y14083D01*
X-14100D01*
X-14100Y14083D01*
X-14100Y14083D01*
X-13855Y14083D01*
X-13822Y14050D01*
X-13822Y13709D01*
X-13822D01*
X-13822Y13559D01*
X-14100Y13281D01*
X-15831D01*
Y13281D01*
Y13387D01*
X-15832Y13559D01*
X-15831Y13559D01*
X-15832Y13559D01*
Y14081D01*
X-15776D01*
Y14083D01*
X-15429Y14269D01*
X-15412Y14257D01*
D02*
G37*
G36*
X17773Y19235D02*
X16874Y18336D01*
X14487Y20723D01*
X14388Y20789D01*
X14474Y21038D01*
X14474Y21038D01*
X14474D01*
X14574Y21187D01*
X14608Y21362D01*
X14574Y21538D01*
X14474Y21687D01*
X14325Y21786D01*
X14150Y21821D01*
X14126Y21816D01*
X13928Y22014D01*
X13829Y22080D01*
X13713Y22103D01*
X13543D01*
Y22176D01*
X12552D01*
Y21422D01*
X13456D01*
X13543Y21235D01*
X13543Y20973D01*
X13487Y20908D01*
X13487D01*
X13487Y20877D01*
X12552D01*
Y20123D01*
X12552Y20123D01*
X12552D01*
X12525Y19988D01*
X12512Y19990D01*
X12336Y19955D01*
X12187Y19856D01*
X12131Y19772D01*
X11892D01*
X11613Y20050D01*
Y20123D01*
X11613D01*
Y20877D01*
X10623D01*
Y20123D01*
X10814D01*
Y19890D01*
X10837Y19773D01*
X10903Y19675D01*
X10911Y19666D01*
X10888Y19547D01*
X10908Y19446D01*
X10755Y19260D01*
X10656Y19194D01*
Y18791D01*
Y18441D01*
X10836D01*
Y18622D01*
X11171Y19123D01*
X11346Y19088D01*
X11522Y19123D01*
X11671Y19223D01*
X11727Y19307D01*
X12121D01*
X12187Y19207D01*
X12336Y19108D01*
X12512Y19073D01*
X12687Y19108D01*
X12836Y19207D01*
X12936Y19356D01*
X12950Y19429D01*
X13223Y19702D01*
X13480Y19596D01*
X13587Y19525D01*
Y19408D01*
X13817D01*
Y19708D01*
X14057D01*
Y19408D01*
X14287D01*
Y19548D01*
X14651Y19698D01*
X16443Y17906D01*
X15473Y16936D01*
X15494Y16915D01*
X15455Y16523D01*
X15317Y16431D01*
X15304Y16411D01*
X15236D01*
X15175Y16398D01*
X15120Y16387D01*
X15120Y16387D01*
X15120Y16387D01*
X15069Y16354D01*
X15021Y16321D01*
X15021Y16321D01*
X15021Y16321D01*
X15005Y16298D01*
X14856Y16149D01*
X14552D01*
Y15394D01*
D01*
Y15394D01*
X14519Y15361D01*
X14178Y15361D01*
D01*
X13920Y15619D01*
Y16068D01*
X13920Y16068D01*
X13920D01*
X13887Y16130D01*
X13944Y16214D01*
X13979Y16390D01*
X13944Y16565D01*
X13844Y16714D01*
X13695Y16814D01*
X13520Y16849D01*
X13344Y16814D01*
X13195Y16714D01*
X13096Y16565D01*
X13061Y16390D01*
X13084Y16272D01*
X12964Y16126D01*
X12840Y16044D01*
Y15618D01*
X12720D01*
Y15498D01*
X12420D01*
Y15268D01*
X12420D01*
Y14900D01*
X12420Y14899D01*
X12420D01*
Y14877D01*
X12074Y14692D01*
X12064Y14697D01*
X12018Y14727D01*
X11980Y14735D01*
X11869Y14785D01*
X11672Y15080D01*
X11703Y15236D01*
X11668Y15412D01*
X11569Y15561D01*
X11420Y15660D01*
X11244Y15695D01*
X11069Y15660D01*
X10920Y15561D01*
X10820Y15412D01*
X10785Y15236D01*
X10790Y15212D01*
X10121Y14543D01*
X9757Y14694D01*
Y15294D01*
Y16094D01*
X9611D01*
Y16772D01*
D01*
X9611Y16772D01*
D01*
X9819Y17042D01*
Y17042D01*
X10032D01*
X10032Y17042D01*
X10032Y17042D01*
X10210Y17042D01*
X10310Y17142D01*
X10489Y17142D01*
X10489Y17142D01*
X10489Y17142D01*
X10490D01*
Y17492D01*
Y17842D01*
X10489D01*
X10489Y17842D01*
X10489Y17842D01*
X10310Y17842D01*
X10210Y17942D01*
X10032Y17942D01*
X10032Y17942D01*
X10032Y17942D01*
X10025D01*
X9806Y18269D01*
X9836Y18341D01*
X9958D01*
X9958Y18341D01*
X9958Y18341D01*
X10136Y18341D01*
X10236Y18441D01*
X10415Y18441D01*
X10415Y18441D01*
X10415Y18441D01*
X10416D01*
Y18791D01*
Y19141D01*
X10415D01*
X10415Y19141D01*
X10415Y19141D01*
X10236Y19141D01*
X10195Y19394D01*
X10195Y19394D01*
X10195D01*
X10160Y19569D01*
X10061Y19718D01*
X10040Y19732D01*
Y20746D01*
X10362Y21522D01*
X10723D01*
Y21522D01*
X10998D01*
Y21799D01*
Y22076D01*
X10946D01*
X10727Y22404D01*
X11308Y23805D01*
X10102Y24305D01*
D01*
X9780Y24438D01*
Y24438D01*
X9780Y24438D01*
X8574Y24938D01*
X8229Y24105D01*
X7921Y23899D01*
X7799Y23862D01*
X7683Y23940D01*
X7508Y23975D01*
X7332Y23940D01*
X7183Y23840D01*
X7084Y23691D01*
X7049Y23516D01*
X7063Y23444D01*
X7046Y23358D01*
Y20696D01*
X6993D01*
Y20460D01*
X6629Y20309D01*
X6629Y20310D01*
X6530Y20376D01*
X6413Y20399D01*
X5173D01*
X5057Y20376D01*
X4958Y20310D01*
D01*
X4670Y20429D01*
X4670Y20429D01*
Y20429D01*
X4554Y20507D01*
X4537Y20510D01*
Y20177D01*
X4297D01*
Y20510D01*
X4281Y20507D01*
X4263Y20495D01*
X4121Y20554D01*
X3988Y20924D01*
X4058Y21056D01*
X4257D01*
Y21678D01*
X4257Y21678D01*
X4257Y21678D01*
X4257Y21856D01*
X4157Y21956D01*
X4157Y22134D01*
X4157Y22134D01*
X4157Y22134D01*
Y22136D01*
X3807D01*
Y22256D01*
X3687D01*
Y22556D01*
X3457D01*
Y22556D01*
X3229D01*
X3165Y22621D01*
Y22674D01*
X3165D01*
Y23319D01*
X3165Y23319D01*
X3165Y23319D01*
X3165Y23428D01*
X3319Y23443D01*
X3319Y23443D01*
Y23443D01*
X3494Y23478D01*
X3643Y23577D01*
X3743Y23726D01*
X3745Y23738D01*
X4131Y23814D01*
X4209Y23698D01*
X4536Y23479D01*
X4921Y23403D01*
X5307Y23479D01*
X5633Y23698D01*
X5851Y24024D01*
X5928Y24409D01*
X5851Y24795D01*
X5633Y25121D01*
X5307Y25340D01*
X4921Y25416D01*
X4536Y25340D01*
X4209Y25121D01*
X3991Y24795D01*
X3920Y24435D01*
X3620Y24311D01*
X3293Y24530D01*
Y24715D01*
X2993D01*
Y24835D01*
X2873D01*
Y25185D01*
X2871D01*
X2871Y25185D01*
X2871Y25185D01*
X2693Y25185D01*
X2593Y25285D01*
X2415Y25285D01*
X2415Y25285D01*
X2415Y25285D01*
X1793D01*
Y25285D01*
X1758D01*
X1480Y25563D01*
Y26181D01*
X10827D01*
X17773Y19235D01*
D02*
G37*
G36*
X8231Y21303D02*
Y21035D01*
X8231Y21035D01*
X8231D01*
X8254Y20919D01*
X8320Y20820D01*
X8518Y20622D01*
X8514Y20598D01*
X8549Y20423D01*
X8648Y20274D01*
X8668Y20261D01*
Y19676D01*
X8383Y19442D01*
X8082Y19644D01*
Y19909D01*
X7708D01*
Y19942D01*
X7708D01*
Y20696D01*
X7655D01*
Y21335D01*
X7884Y21488D01*
X8231Y21303D01*
D02*
G37*
G36*
X3793Y20180D02*
X3793Y20180D01*
X4088Y20041D01*
X4165Y19925D01*
X4165Y19925D01*
X4313Y19693D01*
X4113Y19432D01*
X4113Y19432D01*
X4014Y19498D01*
X3898Y19521D01*
X3430D01*
X3386Y19628D01*
X3432Y19864D01*
X3537Y20059D01*
X3644Y20080D01*
X3793Y20180D01*
X3793D01*
D02*
G37*
G36*
X-6712Y19471D02*
X-6699Y19348D01*
Y19348D01*
X-6699Y19193D01*
X-6699Y19193D01*
X-6699Y19193D01*
Y18771D01*
X-7050Y18537D01*
X-7198Y18636D01*
X-7374Y18671D01*
X-7550Y18636D01*
X-7685Y18546D01*
X-7819Y18617D01*
X-8032Y18760D01*
Y19086D01*
D01*
Y19086D01*
X-8032Y19086D01*
Y19119D01*
X-8032D01*
Y19423D01*
X-7933Y19523D01*
X-6763D01*
X-6712Y19471D01*
D02*
G37*
G36*
X5856Y19289D02*
X5873Y19292D01*
X5989Y19370D01*
X6066Y19485D01*
X6072Y19515D01*
X6303Y19585D01*
X6619Y19350D01*
Y19154D01*
X7334D01*
Y19154D01*
X7334D01*
X7334Y19154D01*
X7367D01*
D01*
X7400Y19154D01*
Y19104D01*
X7400D01*
Y18947D01*
X7657D01*
Y18707D01*
X7400D01*
Y18550D01*
X7674D01*
Y18417D01*
X7674D01*
Y17976D01*
X7491Y17702D01*
X7375Y17726D01*
D01*
X7375Y17726D01*
Y17726D01*
X6845D01*
X6791Y17807D01*
X6614Y17925D01*
X6406Y17966D01*
X6197Y17925D01*
X6020Y17807D01*
X5791D01*
X5614Y17925D01*
X5406Y17966D01*
X5310Y17947D01*
X4743Y18514D01*
X4644Y18580D01*
Y18580D01*
X4644Y18580D01*
Y18580D01*
D01*
X4644D01*
X4528Y18701D01*
X4581Y18781D01*
X4616Y18957D01*
X4581Y19132D01*
X4581Y19132D01*
Y19132D01*
X4772Y19234D01*
X4772Y19234D01*
Y19234D01*
X4947Y19269D01*
X5096Y19368D01*
X5196Y19517D01*
X5484Y19370D01*
X5484Y19370D01*
Y19370D01*
X5600Y19292D01*
X5616Y19289D01*
Y19622D01*
X5856D01*
Y19289D01*
D02*
G37*
G36*
X1644Y20278D02*
X1918Y20278D01*
Y20145D01*
X1918D01*
Y19391D01*
X1971D01*
Y19244D01*
X1064Y18337D01*
X293D01*
Y18432D01*
X-147D01*
X-297Y18796D01*
X97Y19190D01*
X163Y19289D01*
X186Y19406D01*
X186Y19406D01*
X186Y19406D01*
Y19406D01*
Y20034D01*
X504D01*
X689Y19687D01*
X619Y19581D01*
X616Y19565D01*
X1282D01*
X1279Y19581D01*
X1238Y19642D01*
X1338Y20023D01*
X1360Y20034D01*
D01*
X1360D01*
X1360Y20278D01*
D01*
X1644D01*
Y20278D01*
D02*
G37*
G36*
X-469Y21233D02*
X-469D01*
X-422Y21186D01*
Y20688D01*
X-469D01*
Y20688D01*
X-1336D01*
X-1615Y20967D01*
Y21087D01*
X-1515Y21187D01*
D01*
X-1468Y21233D01*
X-1460D01*
Y21233D01*
X-469D01*
D01*
D02*
G37*
G36*
X1460Y21233D02*
Y21233D01*
X1645Y21196D01*
X1774Y21068D01*
X1644Y20832D01*
X1644D01*
X1644Y20588D01*
X1360D01*
Y20588D01*
X1085D01*
Y20311D01*
X845D01*
Y20588D01*
X569D01*
Y20588D01*
X465D01*
X186Y20867D01*
Y21233D01*
X469D01*
Y21233D01*
X1460D01*
X1460Y21233D01*
D02*
G37*
G36*
X-11369Y23867D02*
X-11308Y23805D01*
X-11308D01*
X-11308Y23805D01*
X-11031Y23138D01*
X-11250Y22811D01*
X-11970D01*
X-12086Y22788D01*
X-12185Y22722D01*
X-12667Y22239D01*
X-13523D01*
Y21797D01*
X-13601Y21719D01*
X-14470D01*
Y21556D01*
X-14503Y21534D01*
X-15909Y20127D01*
X-15933Y20132D01*
X-16109Y20097D01*
X-16257Y19998D01*
X-16357Y19849D01*
X-16392Y19673D01*
X-16357Y19498D01*
X-16257Y19349D01*
X-16109Y19249D01*
X-15933Y19214D01*
X-15844Y19232D01*
X-15393Y18781D01*
X-15543Y18418D01*
X-16168D01*
X-17281Y19530D01*
X-14567Y22244D01*
Y22835D01*
X-12795D01*
X-11763Y23867D01*
X-11369D01*
D02*
G37*
G36*
X-13900Y20219D02*
X-13801D01*
X-13801Y20219D01*
X-13801Y20219D01*
X-13670Y20219D01*
X-13670D01*
X-13523Y20186D01*
X-13522D01*
X-13523D01*
X-13391D01*
X-13332Y19988D01*
X-13332Y19988D01*
D01*
X-13309Y19872D01*
X-13243Y19773D01*
X-13044Y19575D01*
Y18493D01*
X-13117Y18384D01*
X-13152Y18209D01*
X-13117Y18033D01*
X-13091Y17994D01*
X-13157Y17807D01*
X-13506Y17755D01*
X-15267Y19516D01*
Y19909D01*
X-14733Y20443D01*
X-14370Y20292D01*
Y20219D01*
X-14140D01*
Y20519D01*
X-13900D01*
Y20219D01*
D02*
G37*
G36*
X-2042Y22471D02*
X-1925Y22448D01*
X-1131D01*
Y21987D01*
X-1460D01*
Y21987D01*
X-1515D01*
Y21987D01*
X-2415D01*
Y21873D01*
X-2726Y21665D01*
X-2762Y21646D01*
X-2907Y21743D01*
X-3083Y21778D01*
X-3110Y21772D01*
X-3445Y22108D01*
X-3388Y22245D01*
X-3237Y22471D01*
X-2042D01*
X-2042Y22471D01*
D02*
G37*
G36*
X-1480Y23056D02*
X-1832D01*
X-1832Y23057D01*
X-1949Y23080D01*
X-4536D01*
X-4575Y23472D01*
X-4536Y23479D01*
X-4209Y23698D01*
X-3991Y24024D01*
X-3915Y24409D01*
X-3991Y24795D01*
X-4209Y25121D01*
X-4536Y25340D01*
X-4921Y25416D01*
X-5307Y25340D01*
X-5633Y25121D01*
X-5851Y24795D01*
X-5928Y24409D01*
X-5851Y24024D01*
X-5633Y23698D01*
X-5307Y23479D01*
X-5268Y23472D01*
X-5307Y23080D01*
X-6224D01*
X-6341Y23057D01*
X-6370Y23037D01*
X-6413Y23045D01*
X-6589Y23010D01*
X-6738Y22911D01*
X-6837Y22762D01*
X-6872Y22587D01*
X-6859Y22522D01*
X-6957Y22403D01*
X-7350Y22384D01*
X-7634Y22668D01*
X-8574Y24938D01*
X-9780Y24438D01*
X-9780D01*
X-9780Y24438D01*
X-10102Y24305D01*
X-10102Y24305D01*
X-11258Y23826D01*
X-11477Y24153D01*
X-9449Y26181D01*
X-1480D01*
Y23056D01*
D02*
G37*
G36*
X1480Y23028D02*
X1480D01*
X1702Y22806D01*
Y22674D01*
X1702D01*
D01*
X1657Y22412D01*
D01*
X1482Y22377D01*
X1333Y22277D01*
X1234Y22128D01*
X1206Y21987D01*
X582D01*
X431Y22351D01*
X1042Y22962D01*
X1086Y23028D01*
X1480D01*
D01*
D02*
G37*
G36*
X-2466Y18261D02*
X-2370Y18145D01*
X-2396Y18016D01*
X-2361Y17840D01*
X-2261Y17691D01*
X-2241Y17678D01*
Y17245D01*
X-2294Y17192D01*
D01*
X-2428Y17092D01*
D01*
X-2565Y17092D01*
Y16815D01*
X-2805D01*
Y17092D01*
X-2813D01*
X-2813Y17092D01*
X-2813Y17092D01*
X-2943Y17092D01*
D01*
X-3091Y17172D01*
Y17189D01*
Y17206D01*
X-3091Y17451D01*
X-3091Y17451D01*
X-3091Y17451D01*
Y17920D01*
X-3177D01*
Y18253D01*
X-3081Y18349D01*
D01*
X-2981Y18449D01*
X-2803Y18449D01*
X-2803Y18449D01*
X-2803Y18449D01*
X-2747D01*
X-2466Y18261D01*
D02*
G37*
G36*
X1793Y24385D02*
X2037D01*
X2076D01*
Y24216D01*
X2076Y24106D01*
X2076Y24106D01*
X2076Y24106D01*
Y23707D01*
X2076Y23707D01*
X2076Y23707D01*
X2076Y23461D01*
X2043Y23428D01*
X1702Y23428D01*
D01*
X1480Y23650D01*
Y24385D01*
X1793D01*
Y24385D01*
D02*
G37*
G36*
X-3785Y18291D02*
Y17920D01*
X-3846D01*
Y17580D01*
X-3879Y17546D01*
X-4124Y17546D01*
X-4124Y17546D01*
X-4124Y17546D01*
X-4404D01*
X-4655Y17923D01*
X-4567Y18054D01*
X-4536Y18209D01*
X-4412Y18394D01*
X-4366Y18403D01*
X-4366Y18403D01*
Y18403D01*
X-4191Y18438D01*
X-4133Y18477D01*
X-3785Y18291D01*
D02*
G37*
%LPC*%
G36*
X17660Y12805D02*
X17643Y12802D01*
X17527Y12725D01*
X17450Y12609D01*
X17447Y12592D01*
X17660D01*
Y12805D01*
D02*
G37*
G36*
X17900D02*
Y12592D01*
X18113D01*
X18109Y12609D01*
X18032Y12725D01*
X17916Y12802D01*
X17900Y12805D01*
D02*
G37*
G36*
X18113Y12352D02*
X17900D01*
Y12139D01*
X17916Y12143D01*
X18032Y12220D01*
X18109Y12336D01*
X18113Y12352D01*
D02*
G37*
G36*
X11513Y22076D02*
X11238D01*
Y21919D01*
X11513D01*
Y22076D01*
D02*
G37*
G36*
X-5604Y20993D02*
X-5834D01*
Y20813D01*
X-5604D01*
Y20993D01*
D02*
G37*
G36*
X20329Y13498D02*
X20054D01*
Y13341D01*
X20329D01*
Y13498D01*
D02*
G37*
G36*
X-5134Y20993D02*
X-5364D01*
Y20813D01*
X-5134D01*
Y20993D01*
D02*
G37*
G36*
X3293Y25185D02*
X3113D01*
Y24955D01*
X3293D01*
Y25185D01*
D02*
G37*
G36*
X11513Y21679D02*
X11238D01*
Y21522D01*
X11513D01*
Y21679D01*
D02*
G37*
G36*
X-20815Y11785D02*
X-21045D01*
Y11605D01*
X-20815D01*
Y11785D01*
D02*
G37*
G36*
X16913Y11938D02*
X16683D01*
Y11758D01*
X16913D01*
Y11938D01*
D02*
G37*
G36*
X392Y11671D02*
X179D01*
Y11458D01*
X196Y11462D01*
X311Y11539D01*
X389Y11655D01*
X392Y11671D01*
D02*
G37*
G36*
X-21285Y11785D02*
X-21515D01*
Y11605D01*
X-21285D01*
Y11785D01*
D02*
G37*
G36*
X17660Y12352D02*
X17447D01*
X17450Y12336D01*
X17527Y12220D01*
X17643Y12143D01*
X17660Y12139D01*
Y12352D01*
D02*
G37*
G36*
X-61Y11671D02*
X-274D01*
X-271Y11655D01*
X-193Y11539D01*
X-78Y11462D01*
X-61Y11458D01*
Y11671D01*
D02*
G37*
G36*
X4157Y22556D02*
X3927D01*
Y22376D01*
X4157D01*
Y22556D01*
D02*
G37*
G36*
X-21654Y10849D02*
X-22039Y10773D01*
X-22365Y10554D01*
X-22584Y10228D01*
X-22660Y9843D01*
X-22584Y9457D01*
X-22365Y9131D01*
X-22039Y8912D01*
X-21654Y8836D01*
X-21268Y8912D01*
X-21116Y9014D01*
X-20768Y8829D01*
Y8133D01*
X-15170D01*
Y9333D01*
X-15290D01*
Y10353D01*
X-20288D01*
Y10048D01*
X-20680Y10009D01*
X-20723Y10228D01*
X-20942Y10554D01*
X-21268Y10773D01*
X-21654Y10849D01*
D02*
G37*
G36*
X-18502Y13608D02*
X-18777D01*
Y13451D01*
X-18502D01*
Y13608D01*
D02*
G37*
G36*
X10910Y17372D02*
X10730D01*
Y17142D01*
X10910D01*
Y17372D01*
D02*
G37*
G36*
X-2381Y19149D02*
X-2561D01*
Y18919D01*
X-2381D01*
Y19149D01*
D02*
G37*
G36*
X829Y19325D02*
X616D01*
X619Y19308D01*
X696Y19193D01*
X812Y19115D01*
X829Y19112D01*
Y19325D01*
D02*
G37*
G36*
Y16415D02*
X616D01*
X619Y16399D01*
X696Y16283D01*
X812Y16206D01*
X829Y16202D01*
Y16415D01*
D02*
G37*
G36*
X1282Y19325D02*
X1069D01*
Y19112D01*
X1085Y19115D01*
X1201Y19193D01*
X1279Y19308D01*
X1282Y19325D01*
D02*
G37*
G36*
X10910Y17842D02*
X10730D01*
Y17612D01*
X10910D01*
Y17842D01*
D02*
G37*
G36*
X11703Y18293D02*
X11490D01*
X11493Y18277D01*
X11571Y18161D01*
X11686Y18084D01*
X11703Y18080D01*
Y18293D01*
D02*
G37*
G36*
X12156D02*
X11943D01*
Y18080D01*
X11959Y18084D01*
X12075Y18161D01*
X12153Y18277D01*
X12156Y18293D01*
D02*
G37*
G36*
X11703Y18746D02*
X11686Y18743D01*
X11571Y18666D01*
X11493Y18550D01*
X11490Y18533D01*
X11703D01*
Y18746D01*
D02*
G37*
G36*
X-10549Y17813D02*
X-10687D01*
Y17655D01*
X-10549D01*
Y17813D01*
D02*
G37*
G36*
X11943Y18746D02*
Y18533D01*
X12156D01*
X12153Y18550D01*
X12075Y18666D01*
X11959Y18743D01*
X11943Y18746D01*
D02*
G37*
G36*
X20329Y13895D02*
X20054D01*
Y13738D01*
X20329D01*
Y13895D01*
D02*
G37*
G36*
X-18502Y14006D02*
X-18777D01*
Y13848D01*
X-18502D01*
Y14006D01*
D02*
G37*
G36*
X-11218Y20443D02*
X-11494D01*
Y20286D01*
X-11218D01*
Y20443D01*
D02*
G37*
G36*
X-17987Y13608D02*
X-18262D01*
Y13451D01*
X-17987D01*
Y13608D01*
D02*
G37*
G36*
X-11218Y20840D02*
X-11494D01*
Y20683D01*
X-11218D01*
Y20840D01*
D02*
G37*
G36*
X-17987Y14006D02*
X-18262D01*
Y13848D01*
X-17987D01*
Y14006D01*
D02*
G37*
G36*
X12600Y15968D02*
X12420D01*
Y15738D01*
X12600D01*
Y15968D01*
D02*
G37*
G36*
X-13748Y16084D02*
X-13978D01*
Y15904D01*
X-13748D01*
Y16084D01*
D02*
G37*
G36*
X-2108Y20065D02*
X-2321D01*
X-2318Y20048D01*
X-2241Y19933D01*
X-2125Y19855D01*
X-2108Y19852D01*
Y20065D01*
D02*
G37*
G36*
X11762Y14278D02*
X11549D01*
X11552Y14261D01*
X11630Y14145D01*
X11745Y14068D01*
X11762Y14065D01*
Y14278D01*
D02*
G37*
G36*
X-5212Y20271D02*
X-5392D01*
Y20041D01*
X-5212D01*
Y20271D01*
D02*
G37*
%LPD*%
G54D10*
X2193Y24835D02*
D03*
X2993D02*
D03*
X4244Y15504D02*
D03*
X3444D02*
D03*
X12720Y15618D02*
D03*
X13520D02*
D03*
X9736Y18791D02*
D03*
X10536D02*
D03*
X10610Y17492D02*
D03*
X9810D02*
D03*
X-5512Y19921D02*
D03*
X-6312D02*
D03*
X-16976Y14532D02*
D03*
X-16176D02*
D03*
X6268Y14008D02*
D03*
X5468D02*
D03*
X-6299Y18898D02*
D03*
X-5499D02*
D03*
X17154Y8571D02*
D03*
X16354D02*
D03*
X-2681Y18799D02*
D03*
X-3481D02*
D03*
X-11720Y14087D02*
D03*
X-12520D02*
D03*
G54D11*
X8535Y23139D02*
D03*
X10063Y22506D02*
D03*
G54D12*
X2587Y16449D02*
D03*
Y17197D02*
D03*
X3374Y16823D02*
D03*
X2591Y17925D02*
D03*
Y18673D02*
D03*
X3378Y18299D02*
D03*
X-3469Y17563D02*
D03*
Y16815D02*
D03*
X-4256Y17189D02*
D03*
X-8409Y19476D02*
D03*
Y18728D02*
D03*
X-9197Y19102D02*
D03*
X-13445Y14815D02*
D03*
Y14067D02*
D03*
X-14232Y14441D02*
D03*
G54D13*
X1902Y20555D02*
D03*
X2650D02*
D03*
X2276Y19768D02*
D03*
X15283Y14984D02*
D03*
X14535D02*
D03*
X14909Y15772D02*
D03*
X12677Y14622D02*
D03*
X13425D02*
D03*
X13051Y13835D02*
D03*
X-16937Y13764D02*
D03*
X-16189D02*
D03*
X-16563Y12976D02*
D03*
X-2685Y16815D02*
D03*
X-1937D02*
D03*
X-2311Y16028D02*
D03*
X2807Y23051D02*
D03*
X2059D02*
D03*
X2433Y23839D02*
D03*
X7724Y19532D02*
D03*
X6976D02*
D03*
X7350Y20319D02*
D03*
X7657Y18827D02*
D03*
X8406D02*
D03*
X8031Y18039D02*
D03*
X-10429Y17535D02*
D03*
X-9681D02*
D03*
X-10055Y16748D02*
D03*
G54D14*
X3807Y22256D02*
D03*
Y21456D02*
D03*
X15260Y13220D02*
D03*
Y14020D02*
D03*
X16563Y12858D02*
D03*
Y12058D02*
D03*
X7835Y16161D02*
D03*
Y16961D02*
D03*
X9307Y14894D02*
D03*
Y15694D02*
D03*
X-3449Y15189D02*
D03*
Y15989D02*
D03*
X-14020Y21319D02*
D03*
Y20519D02*
D03*
X-21165Y12705D02*
D03*
Y11905D02*
D03*
X-1965Y21587D02*
D03*
Y20787D02*
D03*
X17559Y14685D02*
D03*
Y13885D02*
D03*
X13937Y20508D02*
D03*
Y19708D02*
D03*
X-8146Y16650D02*
D03*
Y15850D02*
D03*
X1776Y16539D02*
D03*
Y17339D02*
D03*
X-157Y17232D02*
D03*
Y18032D02*
D03*
X-9079Y15870D02*
D03*
Y16670D02*
D03*
X-5484Y21913D02*
D03*
Y21113D02*
D03*
X-14098Y17004D02*
D03*
Y16204D02*
D03*
G54D15*
X-827Y24705D02*
D03*
X827D02*
D03*
G54D16*
X-10063Y22506D02*
D03*
X-8535Y23139D02*
D03*
G54D17*
X11118Y21799D02*
D03*
X13047D02*
D03*
X11118Y20500D02*
D03*
X13047D02*
D03*
X20449Y13618D02*
D03*
X18520D02*
D03*
X20449Y14917D02*
D03*
X18520D02*
D03*
X-11098Y20563D02*
D03*
X-13028D02*
D03*
X-11098Y21862D02*
D03*
X-13028D02*
D03*
X-18382Y13728D02*
D03*
X-20311D02*
D03*
X-18382Y15028D02*
D03*
X-20311D02*
D03*
X965Y20311D02*
D03*
X-965D02*
D03*
X965Y21610D02*
D03*
X-965D02*
D03*
G54D18*
X17120Y17659D02*
D03*
X18289Y16490D02*
D03*
G54D19*
X-16726Y18053D02*
D03*
X-17896Y16884D02*
D03*
G54D20*
X20146Y8571D02*
D03*
X18796D02*
D03*
G54D21*
X12559Y19468D02*
X13047Y19957D01*
X7835Y16961D02*
X7999D01*
X8661Y16299D01*
X8937Y19252D02*
X8972Y19287D01*
Y20598D01*
X7375Y17421D02*
X7835Y16961D01*
X6406Y17421D02*
X7375D01*
X-8622Y14882D02*
X-8146Y15358D01*
Y15850D01*
X-13465Y17283D02*
X-12205D01*
X-15854Y19673D02*
X-13465Y17283D01*
X-15933Y19673D02*
X-15854D01*
X-13095Y17780D02*
X-11688D01*
X-14020Y18705D02*
X-13095Y17780D01*
X-14020Y18705D02*
Y20519D01*
X-14098Y16204D02*
X-12119D01*
X-11098Y17224D01*
X-11688Y17780D02*
X-11098Y18370D01*
X14790Y12362D02*
X15702Y11450D01*
X15709Y9216D02*
Y11417D01*
Y9216D02*
X16354Y8571D01*
X8616Y12362D02*
X14790D01*
X8605Y12352D02*
X8616Y12362D01*
X5269Y12352D02*
X8605D01*
X4963Y12047D02*
X5269Y12352D01*
X4963Y7208D02*
Y12047D01*
X4606Y6850D02*
X4963Y7208D01*
X-7552Y15256D02*
X-6406D01*
X-8146Y15850D02*
X-7552Y15256D01*
X-5882Y13091D02*
X-5827D01*
X-5953D02*
X-5882D01*
X-1320Y14452D02*
X-1303Y14468D01*
X-3946Y14452D02*
X-1320D01*
X-4139Y14259D02*
X-3946Y14452D01*
X-4347Y14259D02*
X-4139D01*
X-4826Y13780D02*
X-4347Y14259D01*
X-5137Y13780D02*
X-4826D01*
X-5827Y13091D02*
X-5137Y13780D01*
X-5350Y12268D02*
X-5185Y12102D01*
Y9024D02*
Y12102D01*
X-6737Y12268D02*
X-5350D01*
X-7435Y12965D02*
X-6737Y12268D01*
X-2079Y5917D02*
X3378D01*
X-5185Y9024D02*
X-2079Y5917D01*
X-1319Y15090D02*
Y17516D01*
Y15090D02*
X-875Y14646D01*
Y14528D02*
Y14646D01*
Y14528D02*
X-437Y14091D01*
X-742Y18781D02*
X-118Y19406D01*
X-742Y15242D02*
Y18781D01*
X-2968Y13583D02*
X-220D01*
X-4122Y10706D02*
X-3365Y11464D01*
X780Y7252D02*
X3217D01*
X262Y6734D02*
X780Y7252D01*
X3217D02*
X4252Y8287D01*
X-1130Y8697D02*
X-362Y7929D01*
X-335Y8603D02*
Y10135D01*
X4687Y9565D02*
Y12161D01*
X2961Y7839D02*
X4687Y9565D01*
X4248Y7219D02*
Y7449D01*
X4083Y7055D02*
X4248Y7219D01*
X4083Y6623D02*
Y7055D01*
X3378Y5917D02*
X4083Y6623D01*
X-8048Y12965D02*
X-7435D01*
X-8051Y12968D02*
X-8048Y12965D01*
X-3637Y12879D02*
X-2951Y13565D01*
X-3637Y12879D02*
Y12879D01*
Y12879D02*
X-3365Y12607D01*
Y11464D02*
Y12607D01*
X-4122Y10354D02*
Y10706D01*
X4346Y12815D02*
X4728Y13197D01*
X8276D02*
X8886Y13807D01*
X4728Y13197D02*
X8276D01*
X5039Y12906D02*
X8376D01*
X5154Y12629D02*
X8490D01*
X8376Y12906D02*
X8990Y13520D01*
X8490Y12629D02*
X8536Y12674D01*
X8651D01*
X4687Y12161D02*
X5154Y12629D01*
X4240Y12106D02*
X5039Y12906D01*
X4240Y11543D02*
Y12106D01*
X618Y14030D02*
Y14748D01*
X-157Y15523D02*
X618Y14748D01*
X-35Y14795D02*
X217Y14543D01*
Y14020D02*
Y14543D01*
X-220Y13583D02*
X217Y14020D01*
X-106Y13306D02*
X618Y14030D01*
X-1130Y12285D02*
X-109Y13306D01*
X-106D01*
X228Y8728D02*
Y9937D01*
X-1130Y8697D02*
Y12285D01*
X-157Y15523D02*
Y17232D01*
X7083Y14008D02*
X7130Y14055D01*
X6268Y14008D02*
X7083D01*
X8990Y13520D02*
X9528D01*
X9209Y13232D02*
X15335D01*
X8651Y12674D02*
X9209Y13232D01*
X16488Y12783D02*
X16563Y12858D01*
X16059Y12783D02*
X16488D01*
X15945Y12669D02*
X16059Y12783D01*
X15854Y12669D02*
X15945D01*
X-3815Y15189D02*
X-3449D01*
X-4317Y14687D02*
X-3815Y15189D01*
X-7658Y20472D02*
X-7524Y20606D01*
X-11008Y20472D02*
X-7658D01*
X-11098Y20563D02*
X-11008Y20472D01*
X-9488Y21114D02*
X-9268Y20894D01*
X-5512Y20606D02*
Y21086D01*
Y19921D02*
Y20606D01*
X-7524D02*
X-5512D01*
X-5531Y17546D02*
Y18925D01*
X1772Y16535D02*
X1776Y16539D01*
X949Y16535D02*
X1772D01*
X2626Y14776D02*
X3516D01*
X4244Y15504D01*
X2256Y14319D02*
X4209D01*
X1776Y14799D02*
Y16539D01*
X4209Y14319D02*
X5146Y15256D01*
X-827Y24705D02*
X-73Y23951D01*
X-965Y19579D02*
Y20311D01*
X-1169Y19374D02*
X-965Y19579D01*
X2287Y21154D02*
Y21791D01*
X2276Y19118D02*
Y19768D01*
X1190Y18032D02*
X2276Y19118D01*
X-157Y18032D02*
X1190D01*
X2276Y19768D02*
X2732D01*
X3469Y20504D01*
X2086Y21993D02*
X2287Y21791D01*
X2086Y21993D02*
Y23024D01*
X2059Y23051D02*
X2086Y23024D01*
X-1988Y20185D02*
X-1965Y20209D01*
Y20787D01*
X1315Y21610D02*
X1657Y21953D01*
X965Y21610D02*
X1315D01*
X-13028Y19988D02*
X-12740Y19701D01*
Y18370D02*
Y19701D01*
X-6413Y22587D02*
X-6224Y22776D01*
X-1949D01*
X-827Y22752D02*
Y24705D01*
Y21748D02*
Y22752D01*
X-1949Y22776D02*
X-1925Y22752D01*
X-827D01*
X2433Y23839D02*
X2496Y23902D01*
X3319D01*
X3807Y22256D02*
Y24555D01*
X3528Y24835D02*
X3807Y24555D01*
X2993Y24835D02*
X3528D01*
X-965Y21610D02*
X-827Y21748D01*
X4417Y20177D02*
X4445Y20205D01*
X949Y19445D02*
X965Y19461D01*
Y20311D01*
X1209Y20555D01*
X1902D01*
X-3681Y21913D02*
X-3142Y21374D01*
X-5484Y21913D02*
X-3681D01*
X-118Y19406D02*
Y22232D01*
X827Y23177D01*
Y24705D01*
X957Y24835D01*
X2193D01*
X3241Y21456D02*
X3807D01*
X2807Y21890D02*
X3241Y21456D01*
X2807Y21890D02*
Y23051D01*
X3550Y21456D02*
X3807D01*
X2650Y20555D02*
X3550Y21456D01*
X11118Y19890D02*
X11315Y19693D01*
X11118Y19890D02*
Y20500D01*
X8535Y21035D02*
X8972Y20598D01*
X8535Y21035D02*
Y23139D01*
X13047Y19957D02*
Y20508D01*
X13937Y19047D02*
Y19708D01*
X13681Y18791D02*
X13937Y19047D01*
X11909Y18791D02*
X13681D01*
X9528Y13520D02*
X11244Y15236D01*
X9736Y19394D02*
Y22180D01*
Y18791D02*
Y19394D01*
X8886Y13807D02*
X9307D01*
Y14894D01*
Y15694D02*
Y16772D01*
X8929Y17150D02*
X9307Y16772D01*
X8921Y17150D02*
X8929D01*
X8031Y18039D02*
X8921Y17150D01*
X4772Y19693D02*
X5173Y20094D01*
X6413D01*
X6976Y19532D01*
X11823Y18705D02*
X11909Y18791D01*
X11823Y18413D02*
Y18705D01*
X5756Y19516D02*
X6445Y18827D01*
X7657D01*
X10610Y17492D02*
Y18717D01*
X10536Y18791D02*
X10610Y18717D01*
X10536Y18791D02*
X11909D01*
X10803Y21795D02*
X11173D01*
X10536Y21528D02*
X10803Y21795D01*
X10536Y18791D02*
Y21528D01*
X9736Y22180D02*
X10063Y22506D01*
X9740Y17492D02*
X9810D01*
X8406Y18827D02*
X9740Y17492D01*
X8406Y18827D02*
Y18850D01*
X7724Y19532D02*
X8406Y18850D01*
X7350Y23358D02*
X7508Y23516D01*
X7350Y20319D02*
Y23358D01*
X13713Y21799D02*
X14150Y21362D01*
X13047Y21799D02*
X13713D01*
X13937Y19708D02*
X14615D01*
X15969Y18354D01*
Y17539D02*
Y18354D01*
X15247Y16818D02*
X15969Y17539D01*
X13342Y16818D02*
X15247D01*
X12720Y16196D02*
X13342Y16818D01*
X12720Y15618D02*
Y16196D01*
Y14961D02*
Y15618D01*
Y14665D02*
Y14961D01*
X12445D02*
X12720D01*
X11882Y14398D02*
X12445Y14961D01*
X-9488Y21114D02*
Y21932D01*
X-10063Y22506D02*
X-9488Y21932D01*
X-7398Y18236D02*
X-7374Y18213D01*
Y17421D02*
Y18213D01*
X-11098Y18370D02*
Y20563D01*
Y18205D02*
Y18370D01*
Y17224D02*
Y18205D01*
X-17583Y15028D02*
X-17571Y15016D01*
X-18382Y15028D02*
X-17583D01*
X-8819Y12968D02*
X-8051D01*
X-9937Y14087D02*
X-8819Y12968D01*
X-11720Y14087D02*
X-9937D01*
X16252Y15630D02*
Y16791D01*
X17120Y17659D01*
X13937Y20508D02*
X14272D01*
X13047D02*
X13937D01*
X14272D02*
X17120Y17659D01*
X15236Y16106D02*
X15642D01*
X15236D02*
X15240Y16102D01*
X14909Y15772D02*
X15240Y16102D01*
X17365Y12058D02*
X17780Y12472D01*
X16563Y12058D02*
X17365D01*
X13520Y15619D02*
X13520Y15618D01*
X13520Y15619D02*
Y16390D01*
X15461Y14984D02*
X15843Y14602D01*
X15283Y14984D02*
X15461D01*
X13051Y13835D02*
X15074D01*
X14535Y13906D02*
Y14984D01*
X16563Y12858D02*
Y14764D01*
X18289Y16490D01*
X15074Y13835D02*
X15260Y14020D01*
X12677Y14622D02*
X12720Y14665D01*
X13520Y14717D02*
Y15618D01*
X20177Y12472D02*
X21220D01*
X17780D02*
X20177D01*
X20146Y8571D02*
X20177Y8602D01*
Y12472D01*
X21102Y11346D02*
X21862Y12106D01*
Y13504D01*
X20449Y14917D02*
X21862Y13504D01*
X17559Y12693D02*
X17780Y12472D01*
X17559Y12693D02*
Y13885D01*
X21220Y12472D02*
X21283Y12535D01*
X20449Y13618D02*
X21189D01*
X21283Y13524D01*
Y12535D02*
Y13524D01*
X17559Y14685D02*
X17791Y14917D01*
X18520D01*
X-17453Y16441D02*
X-15201D01*
X-17896Y16884D02*
X-17453Y16441D01*
X-13028Y19988D02*
Y20563D01*
X-10492Y20921D02*
Y21256D01*
X-11098Y21862D02*
X-10492Y21256D01*
X-9681Y17535D02*
Y18134D01*
X-10559Y19012D02*
X-9681Y18134D01*
X-10559Y19012D02*
Y19449D01*
X-9949Y20059D01*
X-8992D01*
X-8409Y19476D01*
X-11339Y21862D02*
X-11098D01*
X-11970Y22506D02*
X-10063D01*
X-12614Y21862D02*
X-11970Y22506D01*
X-13028Y21862D02*
X-12614D01*
X-1965Y21587D02*
X-1941Y21610D01*
X-965D01*
X-5157Y20787D02*
X-1965D01*
X-5484Y21113D02*
X-5157Y20787D01*
X-8535Y23139D02*
X-7310Y21913D01*
X-5484D01*
X-9961Y19094D02*
X-9953Y19102D01*
X-9197D01*
X-11098Y18205D02*
X-10429Y17535D01*
X-9157Y16748D02*
X-9079Y16670D01*
X-10055Y16748D02*
X-9157D01*
X-9079Y16670D02*
Y17236D01*
X-8409Y17906D01*
Y18728D01*
Y19476D02*
X-8059Y19827D01*
X-6406D01*
X-6312Y19921D01*
X-5499Y18957D02*
X-4672Y19783D01*
X-5531Y18925D02*
X-5499Y18957D01*
Y19909D01*
X-5512Y19921D02*
X-5499Y19909D01*
X-5512Y21086D02*
X-5484Y21113D01*
X17154Y8571D02*
X18796D01*
X6929Y15256D02*
X7835Y16161D01*
X6406Y15256D02*
X6929D01*
X6268Y15118D02*
X6406Y15256D01*
X6268Y14008D02*
Y15118D01*
X5406Y15256D02*
X5468Y15194D01*
Y14008D02*
Y15194D01*
X5146Y15256D02*
X5406D01*
X1866Y16449D02*
X2587D01*
X3374Y16823D02*
X3394D01*
X3980Y17409D01*
X3898Y19217D02*
X4157Y18957D01*
X2957Y19217D02*
X3898D01*
X2591Y18850D02*
X2957Y19217D01*
X2591Y18673D02*
Y18850D01*
X4528Y18299D02*
X5406Y17421D01*
X3378Y18299D02*
X4528D01*
X3374Y15546D02*
X3381Y15539D01*
X3374Y15546D02*
Y16823D01*
X2583Y17201D02*
Y17898D01*
Y17201D02*
X2587Y17197D01*
X2008D02*
X2587D01*
X-4366Y18862D02*
X-4303Y18799D01*
X-3481D01*
X-1937Y16815D02*
Y18016D01*
X-4672Y19783D02*
X-3130D01*
X-2681Y19335D01*
Y18799D02*
Y19335D01*
X-8146Y16650D02*
X-7374Y17421D01*
X-6406D01*
X-6331Y17496D02*
Y18925D01*
X-5406Y15256D02*
X-4937D01*
X-4235Y15958D01*
Y17168D01*
X-4256Y17189D02*
X-4235Y17168D01*
X-2681Y16819D02*
Y18799D01*
X-3481Y17576D02*
Y18799D01*
X-3469Y16009D02*
X-3449Y15989D01*
X-3469Y16009D02*
Y16815D01*
X-3449Y15989D02*
X-2350D01*
X-13571Y21319D02*
X-13028Y21862D01*
X-14020Y21319D02*
X-13571D01*
X-15933Y19673D02*
X-14287Y21319D01*
X-14020D01*
X-16176Y14532D02*
X-15519Y15189D01*
X-13819D01*
X-18455Y16884D02*
X-17896D01*
X-20311Y15028D02*
X-18455Y16884D01*
X-20311Y12858D02*
X-19909Y12457D01*
X-20311Y12858D02*
Y13728D01*
X-21295Y11775D02*
X-20917Y11398D01*
X-18846D01*
X-18382Y11862D01*
Y13728D01*
X-21173Y12705D02*
Y14165D01*
X-20311Y15028D01*
X-16976Y14532D02*
X-15606Y15902D01*
X-14401D01*
X-14098Y16204D01*
X-15094Y14441D02*
X-14232D01*
X-13819Y15189D02*
X-13445Y14815D01*
X-16176Y13776D02*
Y14532D01*
X-18307Y13803D02*
X-16976D01*
Y14532D01*
X-13445Y13484D02*
Y14067D01*
X-13953Y12976D02*
X-13445Y13484D01*
X-16563Y12976D02*
X-13953D01*
X-13445Y14067D02*
X-12540D01*
X-335Y8603D02*
X430Y7839D01*
X2961D01*
X18520Y14917D02*
X18642D01*
X19587Y15862D01*
X4445Y20205D02*
Y22028D01*
X4217Y22256D02*
X4445Y22028D01*
X3807Y22256D02*
X4217D01*
X-9268Y20894D02*
X-8319D01*
X-8102Y21110D01*
Y21256D01*
X-323Y12173D02*
X59Y11791D01*
X-323Y12173D02*
Y12697D01*
X-742Y15242D02*
X-443D01*
X-323Y12697D02*
X1776Y14796D01*
X1777Y14797D02*
X2256Y14319D01*
G54D22*
X-9079Y15606D02*
Y15870D01*
X-9618Y15067D02*
X-9079Y15606D01*
X-10106Y15067D02*
X-9618D01*
X-3953Y14059D02*
X-1681D01*
X-1717Y14024D02*
X-1681Y14059D01*
X-4189Y13823D02*
X-3953Y14059D01*
X248Y12512D02*
X512D01*
X1484Y13484D01*
X2945D01*
X3465Y12965D01*
Y11468D02*
Y12965D01*
Y11468D02*
X4201Y10732D01*
G54D23*
X-13866Y16772D02*
X-12598D01*
X-14098Y17004D02*
X-13866Y16772D01*
X-15148Y18053D02*
X-14098Y17004D01*
X-16726Y18053D02*
X-15148D01*
G54D24*
X21299Y8805D02*
Y8205D01*
X21699D01*
X22199D02*
X21999D01*
X21899Y8305D01*
Y8505D01*
X21999Y8605D01*
X22199D01*
X22299Y8505D01*
Y8405D01*
X21899D01*
X22899Y8805D02*
Y8205D01*
X22599D01*
X22499Y8305D01*
Y8505D01*
X22599Y8605D01*
X22899D01*
X23498Y8805D02*
X23099D01*
Y8505D01*
X23299Y8605D01*
X23399D01*
X23498Y8505D01*
Y8305D01*
X23399Y8205D01*
X23199D01*
X23099Y8305D01*
X23698Y8805D02*
Y8405D01*
X23898Y8205D01*
X24098Y8405D01*
Y8805D01*
X-20468Y8433D02*
Y9033D01*
X-20169D01*
X-20069Y8933D01*
Y8733D01*
X-20169Y8633D01*
X-20468D01*
X-19469Y8933D02*
X-19569Y9033D01*
X-19769D01*
X-19869Y8933D01*
Y8533D01*
X-19769Y8433D01*
X-19569D01*
X-19469Y8533D01*
X-19269Y9033D02*
Y8433D01*
X-18969D01*
X-18869Y8533D01*
Y8633D01*
X-18969Y8733D01*
X-19269D01*
X-18969D01*
X-18869Y8833D01*
Y8933D01*
X-18969Y9033D01*
X-19269D01*
X-17669D02*
X-18069D01*
Y8733D01*
X-17869D01*
X-18069D01*
Y8433D01*
X-17469Y8833D02*
Y8433D01*
Y8633D01*
X-17370Y8733D01*
X-17270Y8833D01*
X-17170D01*
X-16770Y8433D02*
X-16570D01*
X-16470Y8533D01*
Y8733D01*
X-16570Y8833D01*
X-16770D01*
X-16870Y8733D01*
Y8533D01*
X-16770Y8433D01*
X-16270D02*
Y8833D01*
X-15970D01*
X-15870Y8733D01*
Y8433D01*
X-15570Y8933D02*
Y8833D01*
X-15670D01*
X-15470D01*
X-15570D01*
Y8533D01*
X-15470Y8433D01*
X-19988Y10053D02*
Y9453D01*
X-19688D01*
X-19588Y9553D01*
Y9653D01*
X-19688Y9753D01*
X-19988D01*
X-19688D01*
X-19588Y9853D01*
Y9953D01*
X-19688Y10053D01*
X-19988D01*
X-19088Y9453D02*
X-19288D01*
X-19388Y9553D01*
Y9753D01*
X-19288Y9853D01*
X-19088D01*
X-18989Y9753D01*
Y9653D01*
X-19388D01*
X-18789Y9453D02*
Y9853D01*
X-18489D01*
X-18389Y9753D01*
Y9453D01*
X-18089D02*
X-17889D01*
X-17789Y9553D01*
Y9753D01*
X-17889Y9853D01*
X-18089D01*
X-18189Y9753D01*
Y9553D01*
X-18089Y9453D01*
X-17589D02*
X-17389D01*
X-17489D01*
Y9853D01*
X-17589D01*
X-16989Y9953D02*
Y9853D01*
X-17089D01*
X-16889D01*
X-16989D01*
Y9553D01*
X-16889Y9453D01*
X-15989D02*
Y10053D01*
X-15690D01*
X-15590Y9953D01*
Y9753D01*
X-15690Y9653D01*
X-15989D01*
G54D25*
X21654Y9843D02*
D03*
X4921Y24409D02*
D03*
X-4921D02*
D03*
X-21654Y9843D02*
D03*
G54D26*
X1756Y8453D02*
D03*
X2756Y9453D02*
D03*
X1756D02*
D03*
X2756Y10453D02*
D03*
X1756D02*
D03*
X2756Y11453D02*
D03*
X1756D02*
D03*
X2756Y12453D02*
D03*
X1756D02*
D03*
X2756Y8453D02*
D03*
X-1756Y12488D02*
D03*
X-2756Y11488D02*
D03*
X-1756D02*
D03*
X-2756Y10488D02*
D03*
X-1756D02*
D03*
X-2756Y9488D02*
D03*
X-1756D02*
D03*
X-2756Y8488D02*
D03*
X-1756D02*
D03*
X-2756Y12488D02*
D03*
G54D27*
X-4906Y16339D02*
D03*
X-6906D02*
D03*
X4906D02*
D03*
X6906D02*
D03*
G54D28*
X-6406Y17421D02*
D03*
X-5406D02*
D03*
X-6406Y15256D02*
D03*
X-5406D02*
D03*
X6406D02*
D03*
X5406D02*
D03*
X6406Y17421D02*
D03*
X5406D02*
D03*
G54D29*
X8661Y16299D02*
D03*
X-8622Y14882D02*
D03*
X-10106Y15067D02*
D03*
X-12008Y17205D02*
D03*
X-12598Y16654D02*
D03*
X15669Y11417D02*
D03*
X4606Y6850D02*
D03*
X-5882Y13091D02*
D03*
X-1319Y17516D02*
D03*
X-1303Y14468D02*
D03*
X-1717Y14024D02*
D03*
X-4252Y13748D02*
D03*
X169Y12535D02*
D03*
X-4374Y10386D02*
D03*
X102Y6638D02*
D03*
X-362Y8020D02*
D03*
X4252Y8287D02*
D03*
X4248Y7449D02*
D03*
X4240Y11543D02*
D03*
X-437Y14091D02*
D03*
X260Y8614D02*
D03*
X228Y9937D02*
D03*
X-335Y10335D02*
D03*
X-567Y15118D02*
D03*
X-35Y14795D02*
D03*
X59Y11791D02*
D03*
X7083Y14008D02*
D03*
X4295Y12890D02*
D03*
X15854Y12669D02*
D03*
X-4317Y14687D02*
D03*
X-8102Y21256D02*
D03*
X949Y16535D02*
D03*
X2626Y14776D02*
D03*
X35Y23909D02*
D03*
X-1169Y19374D02*
D03*
X2287Y21154D02*
D03*
X3469Y20504D02*
D03*
X-1988Y20185D02*
D03*
X1657Y21953D02*
D03*
X-12693Y18209D02*
D03*
X-6413Y22587D02*
D03*
X3319Y23902D02*
D03*
X4417Y20177D02*
D03*
X949Y19445D02*
D03*
X-3083Y21319D02*
D03*
X11346Y19547D02*
D03*
X8972Y20598D02*
D03*
X12512Y19532D02*
D03*
X11244Y15236D02*
D03*
X9736Y19394D02*
D03*
X8929Y17150D02*
D03*
X4772Y19693D02*
D03*
X11823Y18413D02*
D03*
X5736Y19622D02*
D03*
X7508Y23516D02*
D03*
X14150Y21362D02*
D03*
X11882Y14398D02*
D03*
X17780Y12472D02*
D03*
X-7374Y18213D02*
D03*
X-17583Y15028D02*
D03*
X21091Y11350D02*
D03*
X16252Y15630D02*
D03*
X13520Y16390D02*
D03*
X15843Y14602D02*
D03*
X19587Y15862D02*
D03*
X15642Y16106D02*
D03*
X-15201Y16441D02*
D03*
X-10492Y20921D02*
D03*
X-9953Y19102D02*
D03*
X3980Y17409D02*
D03*
X4157Y18957D02*
D03*
X-4366Y18862D02*
D03*
X-1937Y18016D02*
D03*
X-15933Y19673D02*
D03*
X-15236Y14681D02*
D03*
X-19831Y12425D02*
D03*
X4201Y10732D02*
D03*
M02*
