M48
;Layer_Color=9474304
;FILE_FORMAT=2:4
INCH,TZ
;TYPE=PLATED
T1F00S00C0.0236
T2F00S00C0.0280
T3F00S00C0.0360
T4F00S00C0.0394
T5F00S00C0.0984
T6F00S00C0.1378
%
T01
X8661Y16299
T02
X15854Y12669
X15843Y14602
X16252Y15630
X19587Y15862
X17780Y12472
X21091Y11350
X15669Y11417
X15642Y16106
X13520Y16390
X11244Y15236
X11882Y14398
X11823Y18413
X11346Y19547
X12512Y19532
X9736Y19394
X8972Y20598
X8929Y17150
X7083Y14008
X4295Y12890
X4240Y11543
X4201Y10732
X4252Y8287
X4248Y7449
X4606Y6850
X260Y8614
X228Y9937
X2626Y14776
X949Y16535
Y19445
X2287Y21154
X3469Y20504
X4417Y20177
X4772Y19693
X5736Y19622
X4157Y18957
X3980Y17409
X14150Y21362
X-3083Y21319
X-1988Y20185
X-1169Y19374
X-1319Y17516
X-1937Y18016
X-4366Y18862
X-7374Y18213
X-9953Y19102
X-10492Y20921
X-8102Y21256
X-8622Y14882
X-10106Y15067
X-12008Y17205
X-12598Y16654
X-12693Y18209
X-15201Y16441
X-15236Y14681
X-4317Y14687
X-4252Y13748
X-5882Y13091
X-4374Y10386
X-335Y10335
X59Y11791
X169Y12535
X-437Y14091
X-35Y14795
X-567Y15118
X-1303Y14468
X-1717Y14024
X-362Y8020
X102Y6638
X-19831Y12425
X-17583Y15028
X-15933Y19673
X-6413Y22587
X35Y23909
X3319Y23902
X1657Y21953
X7508Y23516
T03
X1756Y8453
Y9453
X2756
Y10453
X1756
Y11453
X2756
Y12453
X1756
X2756Y8453
X-1756Y8488
Y9488
Y10488
Y11488
Y12488
X-2756
Y11488
Y10488
Y9488
Y8488
T04
X4941Y14468
X5406Y15256
X6406
Y17421
X5406
X-5406
X-6406
Y15256
X-5406
X-4941Y18209
T05
X4906Y16339
X6906
X-4906
X-6906
T06
X21654Y9843
X-21654
X-4921Y24409
X4921
M30
