%FSLAX24Y24*%
%MOIN*%
G70*
G01*
G75*
G04 Layer_Physical_Order=1*
G04 Layer_Color=255*
%ADD10R,0.0600X0.0600*%
%ADD11R,0.0400X0.0500*%
%ADD12R,0.0870X0.0866*%
%ADD13C,0.0315*%
%ADD14C,0.0100*%
%ADD15C,0.0700*%
%ADD16C,0.0600*%
%ADD17C,0.0500*%
G36*
X16927Y35172D02*
Y25790D01*
X15890D01*
X15851Y26181D01*
X15896Y26190D01*
X16061Y26301D01*
X16172Y26466D01*
X16211Y26661D01*
X16172Y26857D01*
X16061Y27022D01*
X16035Y27274D01*
X16061Y27301D01*
X16061Y27301D01*
X16061D01*
X16172Y27466D01*
X16211Y27661D01*
X16172Y27857D01*
X16061Y28022D01*
X16035Y28274D01*
X16061Y28301D01*
X16061Y28301D01*
X16061D01*
X16172Y28466D01*
X16211Y28661D01*
X16172Y28857D01*
X16061Y29022D01*
X15896Y29132D01*
D01*
D01*
X15989Y29373D01*
X15989Y29373D01*
X15989D01*
X16078Y29505D01*
X16085Y29541D01*
X15701D01*
Y29781D01*
X16085D01*
X16078Y29817D01*
X15989Y29950D01*
X15967Y29965D01*
Y30358D01*
X15989Y30373D01*
X16078Y30505D01*
X16085Y30541D01*
X15701D01*
Y30781D01*
X16085D01*
X16078Y30817D01*
X15989Y30950D01*
X15989Y30950D01*
X15989D01*
X15896Y31190D01*
Y31190D01*
X16061Y31301D01*
X16172Y31466D01*
X16211Y31661D01*
X16172Y31857D01*
X16061Y32022D01*
X16035Y32274D01*
X16061Y32301D01*
X16061Y32301D01*
X16061D01*
X16172Y32466D01*
X16211Y32661D01*
X16172Y32857D01*
X16061Y33022D01*
X16035Y33274D01*
X16061Y33301D01*
X16061Y33301D01*
X16061D01*
X16172Y33466D01*
X16211Y33661D01*
X16172Y33857D01*
X16061Y34022D01*
X15896Y34132D01*
X15701Y34171D01*
X15680Y34167D01*
X15494Y34514D01*
X16254Y35274D01*
X16291Y35266D01*
X16506Y35309D01*
X16580Y35358D01*
X16927Y35172D01*
D02*
G37*
G36*
X18411Y35392D02*
X18467Y35403D01*
X18616Y35502D01*
X18616Y35502D01*
Y35502D01*
X18895Y35430D01*
D01*
X19077Y35309D01*
X19124Y35299D01*
Y34713D01*
X19064Y34624D01*
X19029Y34449D01*
X19031Y34439D01*
X18753Y34161D01*
X18701Y34171D01*
X18506Y34132D01*
X18340Y34022D01*
X18230Y33857D01*
X18191Y33661D01*
X18230Y33466D01*
X18340Y33301D01*
X18506Y33190D01*
X18506Y33190D01*
X18340Y33022D01*
X18340Y33022D01*
X18340D01*
X18230Y32857D01*
X18191Y32661D01*
X18230Y32466D01*
X18340Y32301D01*
X18506Y32190D01*
X18506Y32190D01*
X18340Y32022D01*
X18340Y32022D01*
X18340D01*
X18230Y31857D01*
X18191Y31661D01*
X18230Y31466D01*
X18340Y31301D01*
X18506Y31190D01*
X18506Y31190D01*
X18412Y30950D01*
X18412Y30950D01*
X18412D01*
X18324Y30817D01*
X18317Y30781D01*
X18701D01*
Y30541D01*
X18317D01*
X18324Y30505D01*
X18412Y30373D01*
X18434Y30358D01*
Y29965D01*
X18412Y29950D01*
X18324Y29817D01*
X18317Y29781D01*
X18701D01*
Y29541D01*
X18317D01*
X18324Y29505D01*
X18412Y29373D01*
X18412Y29373D01*
X18412D01*
X18506Y29132D01*
D01*
D01*
X18340Y29022D01*
X18230Y28857D01*
X18191Y28661D01*
X18230Y28466D01*
X18340Y28301D01*
X18506Y28190D01*
X18506Y28190D01*
X18340Y28022D01*
X18340Y28022D01*
X18340D01*
X18230Y27857D01*
X18191Y27661D01*
X18230Y27466D01*
X18340Y27301D01*
X18506Y27190D01*
X18506Y27190D01*
X18340Y27022D01*
X18340Y27022D01*
X18340D01*
X18230Y26857D01*
X18191Y26661D01*
X18230Y26466D01*
X18340Y26301D01*
X18506Y26190D01*
X18694Y26153D01*
X18727Y26120D01*
X18845Y26041D01*
X18858Y26039D01*
X18819Y25647D01*
X18104D01*
Y25647D01*
X18019Y25570D01*
X17715Y25601D01*
X17656Y25690D01*
Y35293D01*
X18003Y35478D01*
X18116Y35403D01*
X18171Y35392D01*
Y35827D01*
X18411D01*
Y35392D01*
D02*
G37*
G36*
X21297Y34093D02*
X21416Y34014D01*
X21555Y33986D01*
X21906D01*
Y33585D01*
X22441D01*
Y33465D01*
X22561D01*
Y32931D01*
X22976D01*
Y33376D01*
X23127Y33439D01*
X23454Y33220D01*
Y32326D01*
X23076D01*
Y32326D01*
X21956D01*
X21906Y32387D01*
X21906Y32904D01*
X21919Y32931D01*
X22321D01*
Y33345D01*
X21906D01*
Y33150D01*
X21559Y32964D01*
X21495Y33007D01*
X21478Y33010D01*
Y32677D01*
X21238D01*
Y33010D01*
X21222Y33007D01*
X20996Y33345D01*
X20494D01*
Y32931D01*
X20797D01*
X20966Y32576D01*
X20826Y32405D01*
X20707Y32326D01*
X19739D01*
Y32094D01*
X19643Y31950D01*
X19172Y31857D01*
X19061Y32022D01*
X19035Y32274D01*
X19061Y32301D01*
X19061Y32301D01*
X19061D01*
X19172Y32466D01*
X19211Y32661D01*
X19172Y32857D01*
X19061Y33022D01*
X19035Y33274D01*
X19061Y33301D01*
X19061Y33301D01*
X19061D01*
X19172Y33466D01*
X19211Y33661D01*
X19200Y33714D01*
X19479Y33992D01*
X19488Y33990D01*
X19535Y33999D01*
X19839Y33749D01*
Y33585D01*
X20909D01*
Y33967D01*
X21273Y34117D01*
X21297Y34093D01*
D02*
G37*
G36*
X14822Y36115D02*
X14773Y36041D01*
X14731Y35827D01*
X14738Y35789D01*
X13522Y34573D01*
X13443Y34454D01*
X13416Y34322D01*
X13356Y34231D01*
X13145Y34091D01*
X13050Y34110D01*
Y34110D01*
X13048Y34111D01*
X13048Y34111D01*
Y34111D01*
X12932Y34188D01*
X12915Y34191D01*
Y33858D01*
Y33525D01*
X12932Y33529D01*
X13048Y33606D01*
X13076Y33649D01*
X13462Y33726D01*
X13604Y33631D01*
X13638Y33624D01*
Y33388D01*
X14708D01*
Y33514D01*
X14754Y33744D01*
X15109Y33774D01*
X15153Y33761D01*
X15191Y33661D01*
X15191Y33661D01*
X15191D01*
X15230Y33466D01*
X15340Y33301D01*
X15506Y33190D01*
X15506Y33190D01*
X15340Y33022D01*
X15340Y33022D01*
X15340D01*
X15230Y32857D01*
X15191Y32661D01*
X15230Y32466D01*
X15340Y32301D01*
X15506Y32190D01*
X15506Y32190D01*
X15340Y32022D01*
X15340Y32022D01*
X15340D01*
X15230Y31857D01*
X15200Y31707D01*
X14808Y31746D01*
Y32129D01*
X13538D01*
Y30863D01*
X13538Y30863D01*
X13538D01*
X13502Y30680D01*
X13500Y30679D01*
D01*
X13285Y30636D01*
X13103Y30515D01*
X12897D01*
X12715Y30636D01*
X12500Y30679D01*
D01*
X12480Y30692D01*
X12446Y30863D01*
X12446Y30863D01*
X12446Y30863D01*
Y32129D01*
X11176D01*
Y32129D01*
X11076D01*
X10798Y32408D01*
Y34692D01*
X12568Y36462D01*
X14637D01*
X14822Y36115D01*
D02*
G37*
G36*
X24024Y37984D02*
X23905Y37760D01*
X23840Y37757D01*
Y37423D01*
X24057D01*
X24401Y37607D01*
X25591Y36417D01*
Y26575D01*
X23622Y24606D01*
X22616Y24664D01*
Y24797D01*
X22616Y24885D01*
X22616Y24885D01*
X22616Y24885D01*
Y25077D01*
X21816D01*
Y24997D01*
X21530Y24727D01*
X21366Y24736D01*
X21366Y24885D01*
X21366Y24885D01*
X21366Y24885D01*
Y25697D01*
X21366D01*
Y25735D01*
X21645Y26013D01*
X23031D01*
X23171Y26041D01*
X23289Y26120D01*
X23289Y26120D01*
X23289Y26120D01*
X24667Y27498D01*
X24746Y27616D01*
X24774Y27756D01*
X24774Y27756D01*
X24774Y27756D01*
Y27756D01*
Y33858D01*
X24746Y33998D01*
X24707Y34057D01*
X24667Y34116D01*
X23486Y35297D01*
X23368Y35376D01*
X23228Y35404D01*
X23236Y35622D01*
X23236Y35682D01*
X23236Y35682D01*
X23236Y35682D01*
Y36622D01*
X23212D01*
Y36805D01*
X23559Y36990D01*
X23584Y36973D01*
X23600Y36970D01*
Y37303D01*
Y37745D01*
X23512Y37741D01*
X23313Y38039D01*
X23498Y38386D01*
X23622D01*
X24024Y37984D01*
D02*
G37*
%LPC*%
G36*
X14708Y33148D02*
X14293D01*
Y32735D01*
X14708D01*
Y33148D01*
D02*
G37*
G36*
X20254Y33345D02*
X19839D01*
Y32931D01*
X20254D01*
Y33345D01*
D02*
G37*
G36*
X14053Y33148D02*
X13638D01*
Y32735D01*
X14053D01*
Y33148D01*
D02*
G37*
G36*
X22096Y25597D02*
X21816D01*
Y25317D01*
X22096D01*
Y25597D01*
D02*
G37*
G36*
X22616D02*
X22336D01*
Y25317D01*
X22616D01*
Y25597D01*
D02*
G37*
G36*
X11691Y33148D02*
X11276D01*
Y32735D01*
X11691D01*
Y33148D01*
D02*
G37*
G36*
Y33801D02*
X11276D01*
Y33388D01*
X11691D01*
Y33801D01*
D02*
G37*
G36*
X23966Y36522D02*
X23686D01*
Y36242D01*
X23966D01*
Y36522D01*
D02*
G37*
G36*
Y36002D02*
X23686D01*
Y35722D01*
X23966D01*
Y36002D01*
D02*
G37*
G36*
X24486D02*
X24206D01*
Y35722D01*
X24486D01*
Y36002D01*
D02*
G37*
G36*
X24053Y37183D02*
X23840D01*
Y36970D01*
X23857Y36973D01*
X23973Y37051D01*
X24050Y37167D01*
X24053Y37183D01*
D02*
G37*
G36*
X12675Y34191D02*
X12659Y34188D01*
X12543Y34111D01*
X12466Y33995D01*
X12438Y33858D01*
D01*
X12408Y33813D01*
X12346Y33801D01*
X12346Y33801D01*
X12346Y33801D01*
X11931D01*
Y33268D01*
Y32735D01*
X12346D01*
Y33061D01*
X12631Y33487D01*
D01*
X12659Y33529D01*
X12675Y33525D01*
Y33858D01*
Y34191D01*
D02*
G37*
G36*
X24486Y36522D02*
X24206D01*
Y36242D01*
X24486D01*
Y36522D01*
D02*
G37*
%LPD*%
G54D10*
X22736Y36122D02*
D03*
X24086D02*
D03*
X20866Y25197D02*
D03*
X22216D02*
D03*
G54D11*
X22047Y37205D02*
D03*
X22847D02*
D03*
X18504Y25197D02*
D03*
X19304D02*
D03*
G54D12*
X22441Y27559D02*
D03*
Y29331D02*
D03*
X20374Y27461D02*
D03*
Y29232D02*
D03*
X22441Y31693D02*
D03*
Y33465D02*
D03*
X20374Y31693D02*
D03*
Y33465D02*
D03*
X11713Y26772D02*
D03*
Y28543D02*
D03*
X14173Y26772D02*
D03*
Y28543D02*
D03*
X11811Y31496D02*
D03*
Y33268D02*
D03*
X14173Y31496D02*
D03*
Y33268D02*
D03*
G54D13*
X22736Y36122D02*
X22847Y36233D01*
Y37205D01*
X22047D02*
Y37992D01*
X17291Y25425D02*
X17520Y25197D01*
X18504D01*
X19304D02*
X20866D01*
X22216D02*
X23130D01*
X25098Y27165D01*
Y35110D01*
X24086Y36122D02*
X25098Y35110D01*
X24086Y36122D02*
Y36937D01*
X23720Y37303D02*
X24086Y36937D01*
X21358Y33465D02*
X22441D01*
X20374D02*
X21358D01*
Y32677D02*
Y33465D01*
X20276Y37992D02*
X21752Y36516D01*
Y35335D02*
Y36516D01*
Y35335D02*
X22047Y35039D01*
X23228D01*
X24409Y33858D01*
Y27756D02*
Y33858D01*
X23819Y28740D02*
Y33563D01*
X23031Y34350D02*
X23819Y33563D01*
X21555Y34350D02*
X23031D01*
X21064Y34841D02*
X21555Y34350D01*
X21064Y34841D02*
Y36022D01*
X19783Y33465D02*
X20374D01*
X18291Y34956D02*
X19783Y33465D01*
X12417Y36827D02*
X15291D01*
X10433Y34843D02*
X12417Y36827D01*
X10433Y28543D02*
Y34843D01*
X15520Y25425D02*
X17291D01*
X14173Y26772D02*
X15520Y25425D01*
X11713Y26772D02*
X14173D01*
X14567Y30118D02*
Y31102D01*
Y28937D02*
Y30118D01*
X11417D02*
Y31102D01*
Y28839D02*
Y30118D01*
X14173Y31496D02*
X14567Y31102D01*
X14173Y28543D02*
X14567Y28937D01*
X11417Y28839D02*
X11713Y28543D01*
X11417Y31102D02*
X11811Y31496D01*
X12205Y33268D02*
X14173D01*
X11811D02*
X12205D01*
X12795Y33858D01*
X21358Y29331D02*
X22441D01*
X21850Y27559D02*
X22441D01*
X21260Y26969D02*
X21850Y27559D01*
X20768Y27461D02*
X21260Y26969D01*
X20374Y27461D02*
X20768D01*
X19672Y37414D02*
X21064Y36022D01*
X19291Y32382D02*
X20374Y33465D01*
X19291Y31299D02*
Y32382D01*
X23130Y30512D02*
Y31004D01*
Y30020D02*
Y30512D01*
X19685Y30512D02*
Y31004D01*
Y29921D02*
Y30512D01*
X20374Y31692D02*
Y31693D01*
X19685Y31004D02*
X20374Y31692D01*
X19685Y29921D02*
X20374Y29232D01*
X22441Y31693D02*
X23130Y31004D01*
X22441Y29331D02*
X23130Y30020D01*
X20276Y37992D02*
Y37992D01*
X17913D02*
X20276D01*
X17291Y37370D02*
X17913Y37992D01*
X17291Y25425D02*
Y35827D01*
X19291D02*
X19488Y35630D01*
Y34449D02*
Y35630D01*
X18291Y34956D02*
Y35827D01*
X10433Y28543D02*
X10630Y28346D01*
X13780Y34315D02*
X15291Y35827D01*
X13780Y34055D02*
Y34315D01*
X14764Y34252D02*
Y34299D01*
X16291Y35827D01*
X18701Y26661D02*
X18984Y26378D01*
X23031D01*
X24409Y27756D01*
X17291Y36827D02*
Y37370D01*
X18713Y37414D02*
X19672D01*
X18291Y36992D02*
X18713Y37414D01*
X18291Y36827D02*
Y36992D01*
X20276Y34236D02*
Y35843D01*
X19291Y36827D02*
X20276Y35843D01*
G54D14*
X11811Y25394D02*
Y25794D01*
X11911D01*
X12011Y25694D01*
Y25394D01*
Y25694D01*
X12111Y25794D01*
X12211Y25694D01*
Y25394D01*
X12511D02*
X12711D01*
X12811Y25494D01*
Y25694D01*
X12711Y25794D01*
X12511D01*
X12411Y25694D01*
Y25494D01*
X12511Y25394D01*
X13111Y25894D02*
Y25794D01*
X13011D01*
X13211D01*
X13111D01*
Y25494D01*
X13211Y25394D01*
X13610D02*
X13810D01*
X13910Y25494D01*
Y25694D01*
X13810Y25794D01*
X13610D01*
X13510Y25694D01*
Y25494D01*
X13610Y25394D01*
X14110Y25794D02*
Y25394D01*
Y25594D01*
X14210Y25694D01*
X14310Y25794D01*
X14410D01*
G54D15*
X19291Y36827D02*
D03*
X18291Y35827D02*
D03*
Y36827D02*
D03*
X17291Y35827D02*
D03*
Y36827D02*
D03*
X16291Y35827D02*
D03*
Y36827D02*
D03*
X15291Y35827D02*
D03*
Y36827D02*
D03*
X19291Y35827D02*
D03*
X20866Y30413D02*
D03*
X21866D02*
D03*
X12500Y30118D02*
D03*
X13500D02*
D03*
G54D16*
X18701Y26661D02*
D03*
Y27661D02*
D03*
Y28661D02*
D03*
Y29661D02*
D03*
Y30661D02*
D03*
Y31661D02*
D03*
Y32661D02*
D03*
Y33661D02*
D03*
X15701Y26661D02*
D03*
Y27661D02*
D03*
Y28661D02*
D03*
Y29661D02*
D03*
Y30661D02*
D03*
Y31661D02*
D03*
Y32661D02*
D03*
Y33661D02*
D03*
G54D17*
X22047Y37992D02*
D03*
X23720Y37303D02*
D03*
X21358Y32677D02*
D03*
X11417Y30118D02*
D03*
X14567D02*
D03*
X21358Y29331D02*
D03*
X23130Y30512D02*
D03*
X19685Y30512D02*
D03*
X12795Y33858D02*
D03*
X19291Y31299D02*
D03*
X21260Y26969D02*
D03*
X17291Y25425D02*
D03*
X10630Y28346D02*
D03*
X13780Y34055D02*
D03*
X14764Y34252D02*
D03*
X23819Y28740D02*
D03*
X20276Y34236D02*
D03*
X19488Y34449D02*
D03*
M02*
