M48
;Layer_Color=9474304
;FILE_FORMAT=2:4
INCH,TZ
;TYPE=PLATED
T1F00S00C0.0280
T2F00S00C0.0300
T3F00S00C0.0360
T4F00S00C0.0400
%
T01
X10630Y28346
X11417Y30118
X14567
X14764Y34252
X13780Y34055
X12795Y33858
X17291Y25425
X21260Y26969
X21358Y29331
X19685Y30512
X19291Y31299
X19488Y34449
X20276Y34236
X21358Y32677
X23130Y30512
X23819Y28740
X23720Y37303
X22047Y37992
T02
X15701Y26661
Y27661
Y28661
Y29661
Y30661
Y31661
Y32661
Y33661
X18701
Y32661
Y31661
Y30661
Y29661
Y28661
Y27661
Y26661
T03
X15291Y35827
X16291
X17291
X18291
Y36827
X17291
X16291
X15291
X19291
Y35827
T04
X12500Y30118
X13500
X20866Y30413
X21866
M30
