%FSLAX24Y24*%
%MOIN*%
G70*
G01*
G75*
G04 Layer_Physical_Order=2*
G04 Layer_Color=16711680*
%ADD10R,0.0354X0.0591*%
%ADD11R,0.0591X0.0354*%
%ADD12R,0.0500X0.0400*%
%ADD13R,0.0400X0.0500*%
%ADD14R,0.0354X0.0315*%
%ADD15R,0.2953X0.0906*%
%ADD16R,0.0315X0.0354*%
G04:AMPARAMS|DCode=17|XSize=90.6mil|YSize=295.3mil|CornerRadius=0mil|HoleSize=0mil|Usage=FLASHONLY|Rotation=45.000|XOffset=0mil|YOffset=0mil|HoleType=Round|Shape=Rectangle|*
%AMROTATEDRECTD17*
4,1,4,0.0724,-0.1364,-0.1364,0.0724,-0.0724,0.1364,0.1364,-0.0724,0.0724,-0.1364,0.0*
%
%ADD17ROTATEDRECTD17*%

%ADD18R,0.0906X0.2953*%
G04:AMPARAMS|DCode=19|XSize=90.6mil|YSize=295.3mil|CornerRadius=0mil|HoleSize=0mil|Usage=FLASHONLY|Rotation=315.000|XOffset=0mil|YOffset=0mil|HoleType=Round|Shape=Rectangle|*
%AMROTATEDRECTD19*
4,1,4,-0.1364,-0.0724,0.0724,0.1364,0.1364,0.0724,-0.0724,-0.1364,-0.1364,-0.0724,0.0*
%
%ADD19ROTATEDRECTD19*%

%ADD20C,0.0323*%
%ADD21C,0.0315*%
%ADD22C,0.0250*%
%ADD23C,0.0100*%
%ADD24C,0.2362*%
%ADD25C,0.1200*%
%ADD26R,0.1200X0.1200*%
%ADD27O,0.0600X0.0994*%
%ADD28R,0.0600X0.0994*%
%ADD29C,0.0500*%
%ADD30C,0.0339*%
G36*
X59449Y57087D02*
X61811D01*
X63386Y55512D01*
X64961D01*
X75591Y44882D01*
Y42154D01*
X75227Y42003D01*
X74967Y42263D01*
X74948Y42361D01*
X74848Y42509D01*
X74699Y42609D01*
X74524Y42644D01*
X74348Y42609D01*
X74199Y42509D01*
X74101Y42362D01*
X74094Y42362D01*
X73566Y42467D01*
X73479Y42554D01*
Y44724D01*
X73451Y44865D01*
X73371Y44985D01*
X72470Y45886D01*
X72471Y45887D01*
X72506Y46063D01*
X72471Y46239D01*
X72372Y46387D01*
X72223Y46487D01*
X72125Y46506D01*
X70382Y48250D01*
Y48644D01*
X70814Y49076D01*
X69891Y49999D01*
X69891D01*
X69645Y50245D01*
X69645D01*
X68722Y51169D01*
X68092Y50539D01*
X67583Y51048D01*
X67464Y51128D01*
X67323Y51156D01*
X67188D01*
X67105Y51211D01*
X66929Y51246D01*
X66754Y51211D01*
X66605Y51112D01*
X66505Y50963D01*
Y50963D01*
X66398Y50984D01*
Y50984D01*
X66117Y51040D01*
Y51968D01*
X66093Y52086D01*
X66088Y52110D01*
X66009Y52229D01*
X64434Y53804D01*
X64314Y53884D01*
X64173Y53912D01*
X62205D01*
X62064Y53884D01*
X61944Y53804D01*
X61340Y53199D01*
X61242Y53180D01*
X61093Y53080D01*
X60993Y52931D01*
X60959Y52756D01*
X60993Y52580D01*
X61093Y52431D01*
X61242Y52332D01*
X61417Y52297D01*
X61593Y52332D01*
X61742Y52431D01*
X61841Y52580D01*
X61861Y52678D01*
X62357Y53175D01*
X64021D01*
X65380Y51816D01*
Y49865D01*
X65324Y49782D01*
X65289Y49606D01*
X65324Y49431D01*
X65424Y49282D01*
X65572Y49182D01*
X65748Y49147D01*
X65924Y49182D01*
X66072Y49282D01*
X66172Y49431D01*
X66207Y49606D01*
X66172Y49782D01*
X66117Y49865D01*
Y50535D01*
X66398Y50591D01*
Y50591D01*
X66505Y50612D01*
Y50612D01*
X66605Y50463D01*
X66754Y50364D01*
X66929Y50329D01*
X67105Y50364D01*
X67177Y50412D01*
X67571Y50018D01*
X66351Y48798D01*
X67274Y47875D01*
X67274D01*
X67520Y47629D01*
X67520D01*
X68443Y46705D01*
X69467Y47729D01*
X69860D01*
X71604Y45985D01*
X71623Y45887D01*
X71679Y45805D01*
Y45787D01*
X71707Y45646D01*
X71707Y45646D01*
X71707Y45646D01*
X71787Y45527D01*
X72742Y44572D01*
Y42402D01*
X72770Y42261D01*
X72770Y42261D01*
X72770Y42261D01*
X72850Y42141D01*
X73656Y41335D01*
X73505Y40971D01*
X72050D01*
X71195Y41826D01*
Y42222D01*
X71251Y42305D01*
X71286Y42480D01*
X71251Y42656D01*
X71151Y42805D01*
X71002Y42904D01*
X70827Y42939D01*
X70651Y42904D01*
X70502Y42805D01*
X70403Y42656D01*
X70388Y42580D01*
X70011Y42466D01*
X69475Y43002D01*
X69660Y43349D01*
X69685Y43344D01*
X69822Y43371D01*
X69937Y43448D01*
X70015Y43564D01*
X70018Y43581D01*
X69685D01*
Y43701D01*
X69565D01*
Y44034D01*
X69548Y44030D01*
X69433Y43953D01*
X69355Y43837D01*
X69328Y43701D01*
X69333Y43676D01*
X68986Y43491D01*
X64320Y48156D01*
X64317Y48173D01*
X64237Y48292D01*
X64117Y48372D01*
X63976Y48400D01*
X63970D01*
X63724Y48699D01*
X62973D01*
X62924Y48594D01*
X62027Y48495D01*
X61952Y48872D01*
X62072Y48952D01*
X62072Y48952D01*
X62072Y48952D01*
X62465Y49346D01*
X62545Y49465D01*
X62550Y49489D01*
X62573Y49606D01*
Y51422D01*
X62676Y51525D01*
X62774Y51545D01*
X62923Y51644D01*
X63022Y51793D01*
X63057Y51968D01*
X63022Y52144D01*
X62923Y52293D01*
X62774Y52392D01*
X62598Y52427D01*
X62423Y52392D01*
X62274Y52293D01*
X62175Y52144D01*
X62155Y52046D01*
X61944Y51835D01*
X61864Y51716D01*
X61836Y51575D01*
Y49759D01*
X61658Y49581D01*
X58662D01*
X58436Y49732D01*
X58310Y49885D01*
X58333Y50000D01*
X58298Y50176D01*
X58198Y50324D01*
X58050Y50424D01*
X57952Y50443D01*
X57408Y50987D01*
X57492Y51411D01*
X57668Y51446D01*
X57817Y51546D01*
X57916Y51694D01*
X57951Y51870D01*
X57916Y52046D01*
X57817Y52195D01*
X57668Y52294D01*
X57492Y52329D01*
X57402Y52311D01*
X57370Y52317D01*
X57031D01*
X55938Y53410D01*
X55818Y53490D01*
X55677Y53518D01*
X43666D01*
X43293Y53767D01*
X43252Y53817D01*
X42580D01*
X42584Y53800D01*
X42661Y53685D01*
D01*
X42661Y53685D01*
X42661D01*
X42661Y53685D01*
X42624Y53578D01*
X42462Y53331D01*
X42101Y53403D01*
Y54572D01*
X43779Y56250D01*
X43876Y56269D01*
X44025Y56368D01*
X44125Y56517D01*
X44160Y56693D01*
X44125Y56868D01*
X44613Y57195D01*
X45676D01*
X46092Y56778D01*
Y54989D01*
X46033Y54900D01*
X45998Y54724D01*
X46033Y54549D01*
X46132Y54400D01*
X46281Y54301D01*
X46457Y54266D01*
X46632Y54301D01*
X46781Y54400D01*
X46881Y54549D01*
X46916Y54724D01*
X46903Y54787D01*
X47181Y55065D01*
X47244Y55053D01*
X47420Y55088D01*
X47503Y55143D01*
X47953D01*
X48094Y55171D01*
X48157Y55213D01*
X49039D01*
Y55213D01*
X49039D01*
X49039Y55213D01*
X49387D01*
Y55213D01*
X50692D01*
Y56718D01*
X51422D01*
X51919Y56221D01*
X51938Y56124D01*
X52038Y55975D01*
X52187Y55875D01*
X52362Y55840D01*
X52538Y55875D01*
X52687Y55975D01*
X52786Y56124D01*
X52821Y56299D01*
X52786Y56475D01*
X52687Y56624D01*
X52538Y56723D01*
X52440Y56743D01*
X51835Y57347D01*
X51716Y57427D01*
X51575Y57455D01*
X50692D01*
Y58566D01*
X49387D01*
D01*
D01*
X49387Y58566D01*
X49039D01*
Y58566D01*
X47733D01*
Y56405D01*
X47483Y56031D01*
X47094Y55973D01*
X46983Y56064D01*
X46821Y56306D01*
Y56929D01*
X46793Y57069D01*
X46714Y57187D01*
X46084Y57817D01*
X45966Y57896D01*
X45827Y57924D01*
X43386D01*
X43246Y57896D01*
X43128Y57817D01*
X42449Y57138D01*
X42344Y57117D01*
X42195Y57017D01*
X42096Y56868D01*
X42061Y56693D01*
X42096Y56517D01*
X42195Y56368D01*
X42333Y56277D01*
X42337Y56234D01*
X42242Y55755D01*
X41472Y54985D01*
X41392Y54865D01*
X41364Y54724D01*
Y53403D01*
X41082Y53346D01*
Y53346D01*
X40975Y53325D01*
Y53325D01*
X40876Y53474D01*
X40727Y53573D01*
X40629Y53593D01*
X40526Y53696D01*
Y54466D01*
X40581Y54549D01*
X40616Y54724D01*
X40581Y54900D01*
X40482Y55049D01*
X40333Y55148D01*
X40157Y55183D01*
X39982Y55148D01*
X39833Y55049D01*
X39734Y54900D01*
X39699Y54724D01*
X39734Y54549D01*
X39789Y54466D01*
Y53543D01*
X39817Y53402D01*
X39897Y53283D01*
X40108Y53072D01*
X40127Y52974D01*
X40227Y52825D01*
X40376Y52726D01*
X40551Y52691D01*
X40727Y52726D01*
X40876Y52825D01*
X40975Y52974D01*
Y52974D01*
X41082Y52953D01*
Y52953D01*
X41364Y52897D01*
Y50394D01*
X41392Y50253D01*
X41392Y50253D01*
X41392Y50253D01*
X41472Y50133D01*
X42566Y49039D01*
X42415Y48676D01*
X41695Y48819D01*
X41668Y48955D01*
X41591Y49071D01*
X41475Y49149D01*
X41459Y49152D01*
Y48819D01*
X41219D01*
Y49152D01*
X41202Y49149D01*
X41086Y49071D01*
X41009Y48955D01*
X40982Y48819D01*
X40261Y48676D01*
X38873D01*
X38152Y48819D01*
X38125Y48955D01*
X38048Y49071D01*
X37932Y49149D01*
X37915Y49152D01*
Y48819D01*
X37795D01*
Y48699D01*
X37462D01*
X37466Y48682D01*
X37543Y48567D01*
D01*
X37543Y48567D01*
X37543Y48567D01*
X37543Y48567D01*
X37543D01*
X37676Y48433D01*
X37200Y47957D01*
X37189Y47940D01*
X35362Y46114D01*
X35257Y46093D01*
X35109Y45994D01*
X35009Y45845D01*
X34974Y45669D01*
X35009Y45494D01*
X35109Y45345D01*
X35246Y45253D01*
X35250Y45210D01*
X35155Y44732D01*
X33626Y43202D01*
X33592Y43180D01*
X32954Y42542D01*
X30748D01*
X30604Y42513D01*
X30482Y42432D01*
X29664Y41614D01*
X29221Y41525D01*
X29152Y41532D01*
X29065Y41663D01*
X28916Y41762D01*
X28740Y41797D01*
X28565Y41762D01*
X28416Y41663D01*
X28316Y41514D01*
X28281Y41339D01*
X28316Y41163D01*
X28365Y41091D01*
X27406Y40132D01*
X26636D01*
X26554Y40188D01*
X26378Y40223D01*
X26202Y40188D01*
X26054Y40088D01*
X25954Y39939D01*
X25919Y39764D01*
X25954Y39588D01*
X26054Y39439D01*
X26202Y39340D01*
X26378Y39305D01*
X26554Y39340D01*
X26636Y39395D01*
X27559D01*
X27700Y39423D01*
X27820Y39503D01*
X27820Y39503D01*
X27820Y39503D01*
X28394Y40077D01*
X28757Y39927D01*
Y35680D01*
X28710Y35609D01*
X28675Y35433D01*
X28710Y35257D01*
X28809Y35109D01*
X28958Y35009D01*
X29134Y34974D01*
X29309Y35009D01*
X29458Y35109D01*
X29558Y35257D01*
X29593Y35433D01*
X29558Y35609D01*
X29510Y35680D01*
Y40395D01*
X30904Y41789D01*
X33110D01*
X33254Y41817D01*
X33376Y41899D01*
X34125Y42647D01*
X34147Y42681D01*
X37416Y45950D01*
X45394D01*
X45535Y45978D01*
X45654Y46058D01*
X45654Y46058D01*
X45654Y46058D01*
X46143Y46547D01*
X46819D01*
Y46547D01*
X46958Y46687D01*
Y46687D01*
X46958Y46687D01*
X47124Y46576D01*
X47319Y46537D01*
X47514Y46576D01*
X47679Y46687D01*
X47932Y46713D01*
X47958Y46687D01*
X47958Y46687D01*
Y46687D01*
X48124Y46576D01*
X48319Y46537D01*
X48514Y46576D01*
X48679Y46687D01*
X48932Y46713D01*
X48958Y46687D01*
X48958Y46687D01*
Y46687D01*
X49124Y46576D01*
X49319Y46537D01*
X49514Y46576D01*
X49679Y46687D01*
X49932Y46713D01*
X49958Y46687D01*
X49958Y46687D01*
Y46687D01*
X50124Y46576D01*
X50319Y46537D01*
X50514Y46576D01*
X50679Y46687D01*
X50932Y46713D01*
X50958Y46687D01*
X50958Y46687D01*
Y46687D01*
X51124Y46576D01*
X51319Y46537D01*
X51514Y46576D01*
X51679Y46687D01*
X51790Y46852D01*
X51795Y46876D01*
X53290D01*
X53368Y46487D01*
X53219Y46387D01*
X53119Y46239D01*
X53084Y46063D01*
X53119Y45887D01*
X53219Y45739D01*
X53368Y45639D01*
X53466Y45620D01*
X53676Y45409D01*
X53796Y45329D01*
X53819Y45324D01*
X53937Y45301D01*
X63627D01*
X68135Y40792D01*
Y35692D01*
X68080Y35609D01*
X68045Y35433D01*
X68080Y35257D01*
X68179Y35109D01*
X68328Y35009D01*
X68504Y34974D01*
X68680Y35009D01*
X68828Y35109D01*
X68928Y35257D01*
X69317Y35180D01*
Y33465D01*
X69345Y33324D01*
X69345Y33324D01*
X69345Y33324D01*
X69424Y33204D01*
X70423Y32206D01*
X70442Y32108D01*
X70542Y31959D01*
X70691Y31860D01*
X70866Y31825D01*
X71042Y31860D01*
X71191Y31959D01*
X71290Y32108D01*
X71325Y32283D01*
X71290Y32459D01*
X71191Y32608D01*
X71042Y32707D01*
X70944Y32727D01*
X70054Y33617D01*
Y38582D01*
X70205Y38808D01*
X70358Y38934D01*
X70472Y38911D01*
X70648Y38946D01*
X70731Y39002D01*
X71501D01*
X73344Y37158D01*
X73439Y36680D01*
X73228Y36589D01*
X73087Y36561D01*
X72968Y36481D01*
X72288Y35802D01*
X71912D01*
X71829Y35857D01*
X71654Y35892D01*
X71478Y35857D01*
X71329Y35758D01*
X71230Y35609D01*
X71195Y35433D01*
X71230Y35257D01*
X71329Y35109D01*
X71478Y35009D01*
X71654Y34974D01*
X71829Y35009D01*
X71912Y35065D01*
X72441D01*
X72582Y35093D01*
X72617Y35116D01*
X72896Y34838D01*
X72888Y34826D01*
X72860Y34685D01*
Y33617D01*
X72757Y33514D01*
X72659Y33495D01*
X72510Y33395D01*
X72411Y33246D01*
X72376Y33071D01*
X72411Y32895D01*
X72510Y32746D01*
X72659Y32647D01*
X72835Y32612D01*
X73010Y32647D01*
X73159Y32746D01*
X73259Y32895D01*
X73278Y32993D01*
X73489Y33204D01*
X73569Y33324D01*
X73597Y33465D01*
Y34532D01*
X74180Y35116D01*
X74544Y34965D01*
Y33678D01*
X74544Y33678D01*
X74544Y33330D01*
X74544D01*
Y32024D01*
X74985D01*
X75170Y31677D01*
X75167Y31672D01*
X75137Y31525D01*
X74653Y31040D01*
X71180D01*
X71042Y31133D01*
X70866Y31167D01*
X70691Y31133D01*
X70542Y31033D01*
X70442Y30884D01*
X70407Y30709D01*
X70442Y30533D01*
X70542Y30384D01*
X70691Y30285D01*
X70866Y30250D01*
X71042Y30285D01*
X71180Y30377D01*
X74688D01*
X74701Y30368D01*
X74843Y30340D01*
X74984Y30368D01*
X75103Y30448D01*
X75717Y31063D01*
X75766Y31072D01*
X75915Y31172D01*
X76014Y31320D01*
X76024Y31369D01*
X76679Y32024D01*
X77897D01*
Y33330D01*
D01*
Y33330D01*
X77897Y33330D01*
Y33678D01*
X77897D01*
Y34983D01*
X76746D01*
Y36356D01*
X76802Y36439D01*
X76837Y36614D01*
X76802Y36790D01*
X76702Y36939D01*
X76554Y37038D01*
X76378Y37073D01*
X76202Y37038D01*
X76054Y36939D01*
X75251Y37475D01*
X72856Y39870D01*
X73006Y40234D01*
X73670D01*
X74236Y39669D01*
X74355Y39589D01*
X74355Y39589D01*
X74355Y39589D01*
D01*
X74355Y39589D01*
X74355Y39589D01*
X74496Y39561D01*
X75157D01*
X75299Y39589D01*
X75418Y39669D01*
X75887Y40137D01*
X75966Y40257D01*
X75994Y40398D01*
X75994Y40398D01*
X75994Y40398D01*
Y40398D01*
Y41083D01*
X75971Y41200D01*
X75968Y41216D01*
X76315Y41401D01*
X77165Y40551D01*
Y38189D01*
X78346Y37008D01*
X78346D01*
Y29528D01*
X66929D01*
Y41339D01*
X31496D01*
Y29528D01*
X20079D01*
Y35827D01*
X20079D01*
X20866Y36614D01*
Y39370D01*
X21654Y40157D01*
Y42913D01*
X25197Y46457D01*
Y47638D01*
X30315Y52756D01*
Y53150D01*
X31890D01*
X35433Y56693D01*
X38189D01*
X40551Y59055D01*
X57480D01*
X59449Y57087D01*
D02*
G37*
%LPC*%
G36*
X27439Y43581D02*
X27226D01*
X27229Y43564D01*
X27307Y43448D01*
X27422Y43371D01*
X27439Y43368D01*
Y43581D01*
D02*
G37*
G36*
X27892D02*
X27679D01*
Y43368D01*
X27696Y43371D01*
X27811Y43448D01*
X27889Y43564D01*
X27892Y43581D01*
D02*
G37*
G36*
X47486Y43974D02*
X46916D01*
X46947Y43821D01*
X47102Y43590D01*
X47333Y43435D01*
X47486Y43405D01*
Y43974D01*
D02*
G37*
G36*
X23742Y37735D02*
Y37522D01*
X23955D01*
X23952Y37538D01*
X23874Y37654D01*
X23759Y37731D01*
X23742Y37735D01*
D02*
G37*
G36*
X39370Y44700D02*
X39010Y44653D01*
X38674Y44513D01*
X38385Y44292D01*
X38164Y44004D01*
X38025Y43668D01*
X37977Y43307D01*
X38025Y42947D01*
X38164Y42611D01*
X38385Y42322D01*
X38674Y42101D01*
X39010Y41962D01*
X39370Y41914D01*
X39731Y41962D01*
X40067Y42101D01*
X40355Y42322D01*
X40576Y42611D01*
X40716Y42947D01*
X40763Y43307D01*
X40716Y43668D01*
X40576Y44004D01*
X40355Y44292D01*
X40067Y44513D01*
X39731Y44653D01*
X39370Y44700D01*
D02*
G37*
G36*
X59055D02*
X58695Y44653D01*
X58359Y44513D01*
X58070Y44292D01*
X57849Y44004D01*
X57710Y43668D01*
X57662Y43307D01*
X57710Y42947D01*
X57849Y42611D01*
X58070Y42322D01*
X58359Y42101D01*
X58695Y41962D01*
X59055Y41914D01*
X59416Y41962D01*
X59752Y42101D01*
X60040Y42322D01*
X60262Y42611D01*
X60401Y42947D01*
X60448Y43307D01*
X60401Y43668D01*
X60262Y44004D01*
X60040Y44292D01*
X59752Y44513D01*
X59416Y44653D01*
X59055Y44700D01*
D02*
G37*
G36*
X43640Y43974D02*
X43427D01*
Y43762D01*
X43444Y43765D01*
X43559Y43842D01*
X43637Y43958D01*
X43640Y43974D01*
D02*
G37*
G36*
X27439Y44034D02*
X27422Y44030D01*
X27307Y43953D01*
X27229Y43837D01*
X27226Y43821D01*
X27439D01*
Y44034D01*
D02*
G37*
G36*
X27679D02*
Y43821D01*
X27892D01*
X27889Y43837D01*
X27811Y43953D01*
X27696Y44030D01*
X27679Y44034D01*
D02*
G37*
G36*
X48296Y43974D02*
X47726D01*
Y43405D01*
X47879Y43435D01*
X48111Y43590D01*
X48266Y43821D01*
X48296Y43974D01*
D02*
G37*
G36*
X50406Y44894D02*
X48806D01*
Y43294D01*
X50406D01*
Y43726D01*
X52891D01*
X52974Y43671D01*
X53150Y43636D01*
X53325Y43671D01*
X53474Y43770D01*
X53573Y43919D01*
X53608Y44094D01*
X53573Y44270D01*
X53474Y44419D01*
X53325Y44518D01*
X53150Y44553D01*
X52974Y44518D01*
X52891Y44463D01*
X50406D01*
Y44894D01*
D02*
G37*
G36*
X43187Y43974D02*
X42974D01*
X42977Y43958D01*
X43055Y43842D01*
X43171Y43765D01*
X43187Y43762D01*
Y43974D01*
D02*
G37*
G36*
X28860Y32616D02*
Y32403D01*
X29073D01*
X29070Y32420D01*
X28992Y32536D01*
X28877Y32613D01*
X28860Y32616D01*
D02*
G37*
G36*
X27833Y33738D02*
X27620D01*
X27623Y33722D01*
X27700Y33606D01*
X27816Y33529D01*
X27833Y33525D01*
Y33738D01*
D02*
G37*
G36*
X28286D02*
X28073D01*
Y33525D01*
X28089Y33529D01*
X28205Y33606D01*
X28282Y33722D01*
X28286Y33738D01*
D02*
G37*
G36*
X28620Y32163D02*
X28407D01*
X28410Y32147D01*
X28488Y32031D01*
X28604Y31954D01*
X28620Y31950D01*
Y32163D01*
D02*
G37*
G36*
X29073D02*
X28860D01*
Y31950D01*
X28877Y31954D01*
X28992Y32031D01*
X29070Y32147D01*
X29073Y32163D01*
D02*
G37*
G36*
X28620Y32616D02*
X28604Y32613D01*
X28488Y32536D01*
X28410Y32420D01*
X28407Y32403D01*
X28620D01*
Y32616D01*
D02*
G37*
G36*
X23502Y37282D02*
X23289D01*
X23292Y37265D01*
X23370Y37149D01*
X23485Y37072D01*
X23502Y37069D01*
Y37282D01*
D02*
G37*
G36*
X23955D02*
X23742D01*
Y37069D01*
X23759Y37072D01*
X23874Y37149D01*
X23952Y37265D01*
X23955Y37282D01*
D02*
G37*
G36*
X23502Y37735D02*
X23485Y37731D01*
X23370Y37654D01*
X23292Y37538D01*
X23289Y37522D01*
X23502D01*
Y37735D01*
D02*
G37*
G36*
X27833Y34191D02*
X27816Y34188D01*
X27700Y34111D01*
X27623Y33995D01*
X27620Y33978D01*
X27833D01*
Y34191D01*
D02*
G37*
G36*
X28073D02*
Y33978D01*
X28286D01*
X28282Y33995D01*
X28205Y34111D01*
X28089Y34188D01*
X28073Y34191D01*
D02*
G37*
G36*
X23622Y40616D02*
X23446Y40581D01*
X23298Y40482D01*
X23198Y40333D01*
X23179Y40235D01*
X22180Y39237D01*
X22101Y39117D01*
X22072Y38976D01*
Y34944D01*
X20765D01*
Y33639D01*
X20765Y33639D01*
X20765Y33291D01*
X20765D01*
Y31985D01*
X24117D01*
Y32473D01*
D01*
X24409Y32612D01*
X24409D01*
Y32612D01*
D01*
D01*
D01*
X24585Y32647D01*
X24734Y32746D01*
X24833Y32895D01*
X24868Y33071D01*
X24833Y33246D01*
X24734Y33395D01*
X24585Y33495D01*
X24409Y33530D01*
X24409Y33530D01*
X24409Y33530D01*
X24117Y33639D01*
Y33639D01*
D01*
D01*
X24117Y33639D01*
Y34553D01*
X24409Y34581D01*
X24409Y34581D01*
Y34581D01*
D01*
D01*
D01*
X24585Y34615D01*
X24734Y34715D01*
X24833Y34864D01*
X24866Y35027D01*
X26390Y36551D01*
X26554Y36584D01*
X26702Y36683D01*
X26802Y36832D01*
X26837Y37008D01*
X26802Y37183D01*
X26702Y37332D01*
X26554Y37432D01*
X26378Y37467D01*
X26202Y37432D01*
X26054Y37332D01*
X25954Y37183D01*
X25922Y37020D01*
X24397Y35496D01*
X24234Y35463D01*
X24085Y35364D01*
X23986Y35215D01*
X23951Y35039D01*
X23872Y34944D01*
X22809D01*
Y38824D01*
X23700Y39714D01*
X23798Y39734D01*
X23946Y39833D01*
X24046Y39982D01*
X24081Y40157D01*
X24046Y40333D01*
X23946Y40482D01*
X23798Y40581D01*
X23622Y40616D01*
D02*
G37*
G36*
X69805Y44034D02*
Y43821D01*
X70018D01*
X70015Y43837D01*
X69937Y43953D01*
X69822Y44030D01*
X69805Y44034D01*
D02*
G37*
G36*
X43033Y54270D02*
Y54057D01*
X43246D01*
X43243Y54074D01*
X43166Y54189D01*
X43050Y54267D01*
X43033Y54270D01*
D02*
G37*
G36*
X36534Y54604D02*
X36321D01*
X36324Y54588D01*
X36401Y54472D01*
X36517Y54395D01*
X36534Y54391D01*
Y54604D01*
D02*
G37*
G36*
X36987D02*
X36774D01*
Y54391D01*
X36790Y54395D01*
X36906Y54472D01*
X36983Y54588D01*
X36987Y54604D01*
D02*
G37*
G36*
X38856Y53483D02*
X38840Y53479D01*
X38724Y53402D01*
X38647Y53286D01*
X38643Y53270D01*
X38856D01*
Y53483D01*
D02*
G37*
G36*
X39096D02*
Y53270D01*
X39309D01*
X39306Y53286D01*
X39229Y53402D01*
X39113Y53479D01*
X39096Y53483D01*
D02*
G37*
G36*
X42793Y54270D02*
X42777Y54267D01*
X42661Y54189D01*
X42584Y54074D01*
X42580Y54057D01*
X42793D01*
Y54270D01*
D02*
G37*
G36*
X55057Y55392D02*
X54844D01*
Y55179D01*
X54861Y55182D01*
X54977Y55259D01*
X55054Y55375D01*
X55057Y55392D01*
D02*
G37*
G36*
X54604Y55845D02*
X54588Y55841D01*
X54472Y55764D01*
X54395Y55648D01*
X54391Y55632D01*
X54604D01*
Y55845D01*
D02*
G37*
G36*
X54844D02*
Y55632D01*
X55057D01*
X55054Y55648D01*
X54977Y55764D01*
X54861Y55841D01*
X54844Y55845D01*
D02*
G37*
G36*
X36534Y55057D02*
X36517Y55054D01*
X36401Y54977D01*
X36324Y54861D01*
X36321Y54844D01*
X36534D01*
Y55057D01*
D02*
G37*
G36*
X36774D02*
Y54844D01*
X36987D01*
X36983Y54861D01*
X36906Y54977D01*
X36790Y55054D01*
X36774Y55057D01*
D02*
G37*
G36*
X54604Y55392D02*
X54391D01*
X54395Y55375D01*
X54472Y55259D01*
X54588Y55182D01*
X54604Y55179D01*
Y55392D01*
D02*
G37*
G36*
X47726Y44784D02*
Y44214D01*
X48296D01*
X48266Y44368D01*
X48111Y44599D01*
X47879Y44754D01*
X47726Y44784D01*
D02*
G37*
G36*
X37675Y49152D02*
X37659Y49149D01*
X37543Y49071D01*
X37466Y48955D01*
X37462Y48939D01*
X37675D01*
Y49152D01*
D02*
G37*
G36*
X47486Y44784D02*
X47333Y44754D01*
X47102Y44599D01*
X46947Y44368D01*
X46916Y44214D01*
X47486D01*
Y44784D01*
D02*
G37*
G36*
X43187Y44427D02*
X43171Y44424D01*
X43055Y44347D01*
X42977Y44231D01*
X42974Y44214D01*
X43187D01*
Y44427D01*
D02*
G37*
G36*
X43427D02*
Y44214D01*
X43640D01*
X43637Y44231D01*
X43559Y44347D01*
X43444Y44424D01*
X43427Y44427D01*
D02*
G37*
G36*
X35039Y52427D02*
X34864Y52392D01*
X34781Y52337D01*
X32677D01*
X32536Y52309D01*
X32417Y52229D01*
X30707Y50519D01*
X30313D01*
X29782Y51050D01*
X28859Y50127D01*
Y50127D01*
X28613Y49881D01*
Y49881D01*
X27690Y48958D01*
X28418Y48230D01*
X27875Y47687D01*
X27777Y47668D01*
X27628Y47569D01*
X27529Y47420D01*
X27494Y47244D01*
X27529Y47069D01*
X27628Y46920D01*
X27777Y46820D01*
X27953Y46785D01*
X28128Y46820D01*
X28277Y46920D01*
X28377Y47069D01*
X28396Y47166D01*
X28939Y47709D01*
X30046Y46602D01*
X30046D01*
X30060Y46587D01*
D01*
D01*
D01*
X30060Y46587D01*
X30331Y46317D01*
X30265Y46219D01*
X30230Y46043D01*
X30265Y45868D01*
X30365Y45719D01*
X30513Y45619D01*
X30611Y45600D01*
X32041Y44170D01*
X32003Y43778D01*
X31844Y43672D01*
X29792D01*
X29703Y43731D01*
X29528Y43766D01*
X29352Y43731D01*
X29203Y43632D01*
X29104Y43483D01*
X29069Y43307D01*
X29104Y43132D01*
X29203Y42983D01*
X29352Y42883D01*
X29528Y42848D01*
X29703Y42883D01*
X29792Y42943D01*
X32594D01*
X32734Y42970D01*
X32852Y43049D01*
X34352Y44549D01*
X34352Y44549D01*
X34352Y44549D01*
X34431Y44668D01*
X34459Y44807D01*
Y50085D01*
X35190Y50817D01*
X37137D01*
X37226Y50757D01*
X37402Y50722D01*
X37577Y50757D01*
X37726Y50857D01*
X37825Y51006D01*
X37860Y51181D01*
X37825Y51357D01*
X37726Y51506D01*
X37577Y51605D01*
X37402Y51640D01*
X37226Y51605D01*
X37137Y51546D01*
X35833D01*
X35592Y51707D01*
X35475Y51850D01*
X35498Y51968D01*
X35463Y52144D01*
X35364Y52293D01*
X35215Y52392D01*
X35039Y52427D01*
D02*
G37*
G36*
X38856Y53030D02*
X38643D01*
X38647Y53013D01*
X38724Y52897D01*
X38840Y52820D01*
X38856Y52817D01*
Y53030D01*
D02*
G37*
G36*
X39309D02*
X39096D01*
Y52817D01*
X39113Y52820D01*
X39229Y52897D01*
X39306Y53013D01*
X39309Y53030D01*
D02*
G37*
G36*
X63506Y49152D02*
Y48939D01*
X63719D01*
X63716Y48955D01*
X63638Y49071D01*
X63522Y49149D01*
X63506Y49152D01*
D02*
G37*
G36*
X63266D02*
X63249Y49149D01*
X63133Y49071D01*
X63056Y48955D01*
X63053Y48939D01*
X63266D01*
Y49152D01*
D02*
G37*
%LPD*%
G36*
X34579Y51236D02*
X33837Y50494D01*
X33758Y50376D01*
X33730Y50236D01*
Y44958D01*
X33170Y44398D01*
X32962Y44419D01*
X32813Y44518D01*
X32716Y44538D01*
X31506Y45748D01*
X31620Y46124D01*
X31633Y46127D01*
X31748Y46204D01*
X31826Y46320D01*
X31829Y46337D01*
X31496D01*
Y46457D01*
X31376D01*
Y46790D01*
X31360Y46786D01*
X31244Y46709D01*
X31166Y46593D01*
X31139Y46457D01*
D01*
X30865Y46467D01*
X30865Y46467D01*
X30865Y46467D01*
X30689Y46502D01*
X30513Y46467D01*
X30456Y46429D01*
X30257Y46671D01*
Y46784D01*
X30984Y47510D01*
Y47510D01*
X31230Y47757D01*
Y47757D01*
X32153Y48680D01*
X31228Y49605D01*
Y49998D01*
X32830Y51600D01*
X34428D01*
X34579Y51236D01*
D02*
G37*
%LPC*%
G36*
X31616Y46790D02*
Y46577D01*
X31829D01*
X31826Y46593D01*
X31748Y46709D01*
X31633Y46786D01*
X31616Y46790D01*
D02*
G37*
%LPD*%
G54D15*
X76220Y32677D02*
D03*
Y34331D02*
D03*
X22441Y34291D02*
D03*
Y32638D02*
D03*
G54D17*
X30506Y49404D02*
D03*
X29337Y48234D02*
D03*
G54D18*
X50039Y56890D02*
D03*
X48386D02*
D03*
G54D19*
X69167Y48352D02*
D03*
X67998Y49522D02*
D03*
G54D20*
X42913Y53150D02*
X55677D01*
X56878Y51949D02*
X57370D01*
X55677Y53150D02*
X56878Y51949D01*
X71764Y39917D02*
X72287D01*
X71004Y40677D02*
X71764Y39917D01*
X70854Y40677D02*
X71004D01*
X74524Y42185D02*
X75626Y41083D01*
Y40398D02*
Y41083D01*
X75157Y39929D02*
X75626Y40398D01*
X74496Y39929D02*
X75157D01*
X73823Y40602D02*
X74496Y39929D01*
X71898Y40602D02*
X73823D01*
X70827Y41673D02*
X71898Y40602D01*
X70827Y41673D02*
Y42480D01*
X61024Y48032D02*
X63976D01*
X74783Y40728D02*
X74965D01*
X73110Y42402D02*
X74783Y40728D01*
X46925Y50787D02*
Y51618D01*
X46575Y51968D02*
X46925Y51618D01*
X45669Y51968D02*
X46575D01*
X37461Y47697D02*
X38071Y48307D01*
X46575D01*
X47319Y47563D01*
X33858Y42913D02*
X37264Y46319D01*
X68898Y49213D02*
X72047Y46063D01*
X73110Y42402D02*
Y44724D01*
X72047Y45787D02*
X73110Y44724D01*
X72047Y45787D02*
Y46063D01*
X36654Y54724D02*
X37402D01*
X73228Y33465D02*
Y34685D01*
X75276Y35512D02*
X75591Y35827D01*
X74055Y35512D02*
X75276D01*
X73228Y34685D02*
X74055Y35512D01*
X22441Y38976D02*
X23622Y40157D01*
X22441Y34291D02*
Y38976D01*
X23622Y33071D02*
X24409D01*
X37402Y54724D02*
X38976Y53150D01*
X28740Y40945D02*
Y41339D01*
X27559Y39764D02*
X28740Y40945D01*
X26378Y39764D02*
X27559D01*
X28346Y34646D02*
X28740Y34252D01*
X27165Y35827D02*
X28346Y34646D01*
X27953Y33858D02*
X28346Y34252D01*
X73228Y36220D02*
X73622D01*
X72441Y35433D02*
X73228Y36220D01*
X71654Y35433D02*
X72441D01*
X72835Y33071D02*
X73228Y33465D01*
X75591Y35827D02*
Y36614D01*
X72287Y39917D02*
X75591Y36614D01*
X64567Y48819D02*
X69685Y43701D01*
X63386Y48819D02*
X64567D01*
X60630Y48425D02*
X61024Y48032D01*
X50787Y48425D02*
X60630D01*
X68504Y35433D02*
Y40945D01*
X63780Y45669D02*
X68504Y40945D01*
X53937Y45669D02*
X63780D01*
X53543Y46063D02*
X53937Y45669D01*
X48819Y49213D02*
X49925Y50319D01*
Y50787D01*
X55512Y52362D02*
X57874Y50000D01*
X49213Y52362D02*
X55512D01*
X48925Y52075D02*
X49213Y52362D01*
X48925Y50787D02*
Y52075D01*
X49606Y44094D02*
X53150D01*
Y53937D02*
X54724Y55512D01*
X42913Y53937D02*
X53150D01*
X43307Y44094D02*
X47606D01*
X37795Y48819D02*
X41339D01*
X40157Y53543D02*
X40551Y53150D01*
X40157Y53543D02*
Y54724D01*
X48032Y50894D02*
Y51968D01*
X37264Y46319D02*
X45394D01*
X38976Y50787D02*
Y53150D01*
X37795Y49606D02*
X38976Y50787D01*
X37795Y48819D02*
Y49606D01*
X29921Y44882D02*
Y46063D01*
X30709Y46850D01*
X31102D01*
X31496Y46457D01*
X28740Y43701D02*
X29921Y44882D01*
X27559Y43701D02*
X28740D01*
X30689Y46043D02*
X32638Y44094D01*
X44094Y50787D02*
X45925D01*
X25591Y41732D02*
X27559Y43701D01*
X25591Y39370D02*
Y41732D01*
X24409Y38189D02*
X25591Y39370D01*
X23622Y37402D02*
X24409Y38189D01*
X26772D01*
X27165Y37795D01*
Y35827D02*
Y37795D01*
X28740Y32283D02*
Y34252D01*
X74843Y30709D02*
X76772Y32638D01*
Y33465D01*
X51575Y57087D02*
X52362Y56299D01*
X49213Y57087D02*
X51575D01*
X32677Y51968D02*
X35039D01*
X30506Y49797D02*
X32677Y51968D01*
X29528Y49213D02*
X30112Y49797D01*
X21654Y33465D02*
Y34291D01*
X23189Y32638D02*
X23622Y33071D01*
X69685Y33465D02*
X70866Y32283D01*
X69685Y33465D02*
Y41339D01*
X63780Y47244D02*
X69685Y41339D01*
X51319Y47244D02*
X63780D01*
X50319Y47957D02*
X50787Y48425D01*
X50319Y47244D02*
Y47957D01*
X62205Y51575D02*
X62598Y51968D01*
X62205Y49606D02*
Y51575D01*
X61417Y52756D02*
X62205Y53543D01*
X64173D01*
X65748Y51968D01*
Y49606D02*
Y51968D01*
X61811Y49213D02*
X62205Y49606D01*
X50394Y49213D02*
X61811D01*
X49319Y48138D02*
X50394Y49213D01*
X49319Y47244D02*
Y48138D01*
X41732Y50394D02*
Y54724D01*
Y50394D02*
X42913Y49213D01*
X46350D01*
X48319Y47244D01*
X45394Y46319D02*
X46319Y47244D01*
X41732Y54724D02*
X43701Y56693D01*
X27953Y47244D02*
X28943Y48234D01*
X76378Y34291D02*
Y36614D01*
X70472Y39370D02*
X71654D01*
X74803Y36220D01*
X66929Y50787D02*
X67323D01*
X68313Y49797D01*
X47244Y55512D02*
X47953D01*
X48386Y55945D01*
G54D21*
X29528Y43307D02*
X32594D01*
X34094Y44807D01*
Y50236D01*
X35433Y45669D02*
X37461Y47697D01*
X46457Y54724D02*
Y56929D01*
X46457D02*
X46457D01*
X45827Y57559D02*
X46457Y56929D01*
X42520Y56693D02*
X43386Y57559D01*
X35039Y51181D02*
X37402D01*
X34094Y50236D02*
X35039Y51181D01*
X43386Y57559D02*
X45827D01*
G54D22*
X70051Y40334D02*
X70307Y40079D01*
X63976Y48032D02*
X70051Y41956D01*
Y40334D02*
Y41956D01*
X24409Y35039D02*
X26378Y37008D01*
X28346Y34252D02*
Y34646D01*
X47925Y50787D02*
X48032Y50894D01*
X32638Y44094D02*
X32677D01*
X70866Y30709D02*
X74843D01*
X30112Y49797D02*
X30506D01*
X21654Y32638D02*
X23189D01*
X70866Y32283D02*
X70866D01*
X47319Y47244D02*
Y47563D01*
X21654Y32638D02*
X21693Y32677D01*
X28943Y48234D02*
Y48628D01*
X48386Y55945D02*
Y57087D01*
X48425Y57047D01*
G54D24*
X39370Y43307D02*
D03*
X59055D02*
D03*
G54D25*
X47606Y44094D02*
D03*
G54D26*
X49606D02*
D03*
G54D27*
X51319Y47244D02*
D03*
X50319D02*
D03*
X49319D02*
D03*
X47319D02*
D03*
X48319D02*
D03*
X50925Y50787D02*
D03*
X49925D02*
D03*
X48925D02*
D03*
X46925D02*
D03*
X47925D02*
D03*
G54D28*
X46319Y47244D02*
D03*
X45925Y50787D02*
D03*
G54D29*
X57492Y51870D02*
D03*
X70854Y40677D02*
D03*
X74524Y42185D02*
D03*
X70827Y42480D02*
D03*
X70307Y40079D02*
D03*
X75047Y40748D02*
D03*
X42520Y56693D02*
D03*
X29528Y43307D02*
D03*
X75591Y31496D02*
D03*
X36654Y54724D02*
D03*
X27953Y33858D02*
D03*
X71654Y35433D02*
D03*
X73622Y36220D02*
D03*
X72835Y33071D02*
D03*
X69685Y43701D02*
D03*
X63386Y48819D02*
D03*
X68504Y35433D02*
D03*
X53543Y46063D02*
D03*
X48819Y49213D02*
D03*
X57874Y50000D02*
D03*
X53150Y44094D02*
D03*
X54724Y55512D02*
D03*
X42913Y53937D02*
D03*
X43307Y44094D02*
D03*
X41339Y48819D02*
D03*
X42913Y53150D02*
D03*
X40551D02*
D03*
X40157Y54724D02*
D03*
X48032Y51968D02*
D03*
X38976Y53150D02*
D03*
X37795Y48819D02*
D03*
X31496Y46457D02*
D03*
X32638Y44094D02*
D03*
X35433Y45669D02*
D03*
X30689Y46043D02*
D03*
X45669Y51968D02*
D03*
X37402Y51181D02*
D03*
X44094Y50787D02*
D03*
X28740Y41339D02*
D03*
X26378Y39764D02*
D03*
X27559Y43701D02*
D03*
X23622Y37402D02*
D03*
X28740Y32283D02*
D03*
X70866Y30709D02*
D03*
X76772Y33465D02*
D03*
X72047Y46063D02*
D03*
X68898Y49213D02*
D03*
X52362Y56299D02*
D03*
X49213Y57087D02*
D03*
X35039Y51968D02*
D03*
X29528Y49213D02*
D03*
X23622Y40157D02*
D03*
X21654Y33465D02*
D03*
X26378Y37008D02*
D03*
X24409Y35039D02*
D03*
Y33071D02*
D03*
X70866Y32283D02*
D03*
X62598Y51968D02*
D03*
X43701Y56693D02*
D03*
X29134Y35433D02*
D03*
X27953Y47244D02*
D03*
X76378Y36614D02*
D03*
X70472Y39370D02*
D03*
X74803Y36220D02*
D03*
X61417Y52756D02*
D03*
X65748Y49606D02*
D03*
X66929Y50787D02*
D03*
X47244Y55512D02*
D03*
X46457Y54724D02*
D03*
G54D30*
X33110Y42165D02*
X33858Y42913D01*
X30748Y42165D02*
X33110D01*
X29134Y40551D02*
X30748Y42165D01*
X29134Y35433D02*
Y40551D01*
M02*
