M48
;Layer_Color=9474304
;FILE_FORMAT=2:4
INCH,TZ
;TYPE=PLATED
T1F00S00C0.0280
T2F00S00C0.0394
T3F00S00C0.0520
T4F00S00C0.1181
%
T01
X21654Y33465
X24409Y33071
Y35039
X23622Y37402
X26378Y37008
X29134Y35433
X27953Y33858
X28740Y32283
X70866
Y30709
X72835Y33071
X71654Y35433
X73622Y36220
X74803
X76378Y36614
X76772Y33465
X75591Y31496
X68504Y35433
X70472Y39370
X70307Y40079
X70854Y40677
X70827Y42480
X69685Y43701
X72047Y46063
X68898Y49213
X65748Y49606
X66929Y50787
X74524Y42185
X75047Y40748
X63386Y48819
X62598Y51968
X61417Y52756
X57492Y51870
X57874Y50000
X53543Y46063
X53150Y44094
X48819Y49213
X48032Y51968
X45669
X44094Y50787
X42913Y53150
Y53937
X40551Y53150
X38976
X37402Y51181
X37795Y48819
X41339
X43307Y44094
X35433Y45669
X35039Y51968
X29528Y49213
X27953Y47244
X30689Y46043
X31496Y46457
X32638Y44094
X29528Y43307
X27559Y43701
X28740Y41339
X26378Y39764
X23622Y40157
X36654Y54724
X40157
X42520Y56693
X43701
X47244Y55512
X46457Y54724
X49213Y57087
X52362Y56299
X54724Y55512
T02
X50319Y47244
X51319
X50925Y50787
X49925
X48925
X47925
X46925
X45925
X46319Y47244
X47319
X48319
X49319
T03
X47606Y44094
X49606
T04
X59055Y43307
X39370
M30
