M48
;Layer_Color=9474304
;FILE_FORMAT=2:4
INCH,TZ
;TYPE=PLATED
T1F00S00C0.0280
T2F00S00C0.0300
T3F00S00C0.0360
T4F00S00C0.1181
%
T01
X-5118Y-1969
X3225Y-2016
X2520Y-4838
Y-706
X3225Y3931
X1310Y3225
X-101Y2822
X-6652Y2419
X-5140Y5241
T02
X-1250Y-6906
Y-4906
X1250
Y-6906
X4906Y-1250
X6906
Y1250
X4906
X1000
X-1000
Y-1250
X1000
X-4906
X-6906
Y1250
X-4906
X-1250Y4906
Y6906
X1250
Y4906
T03
X-2968Y-1756
X-1969
Y-756
X-2968
Y244
X-1969
Y1244
Y2244
X-2968
Y1244
T04
X-4921Y-3937
X4921
Y3937
M30
